999
dxfrw 0.6.3
  0
SECTION
  2
HEADER
  9
$ACADVER
  1
AC1021
  9
$DWGCODEPAGE
  3
ANSI_1252
  9
$INSBASE
 10
0
 20
0
 30
0
  9
$EXTMIN
 10
-95.4865645205218
 20
-65.22746236870293
 30
0
  9
$EXTMAX
 10
1001.5625
 20
71.80056240198239
 30
0
  9
$LIMMIN
 10
0
 20
0
  9
$LIMMAX
 10
420
 20
297
  9
$ORTHOMODE
 70
    0
  9
$REGENMODE
 70
    1
  9
$FILLMODE
 70
    1
  9
$QTEXTMODE
 70
    0
  9
$MIRRTEXT
 70
    0
  9
$LTSCALE
 40
1
  9
$ATTMODE
 70
    0
  9
$TEXTSIZE
 40
2.5
  9
$TRACEWID
 40
15.68
  9
$TEXTSTYLE
  7
STANDARD
  9
$CLAYER
  8
distances
  9
$CELTYPE
  6
BYLAYER
  9
$CECOLOR
 62
  256
  9
$CELTSCALE
 40
1
  9
$DISPSILH
 70
    0
  9
$DIMSCALE
 40
2.5
  9
$DIMASZ
 40
2.5
  9
$DIMEXO
 40
0.625
  9
$DIMDLI
 40
3.75
  9
$DIMRND
 40
0
  9
$DIMDLE
 40
0
  9
$DIMEXE
 40
1.25
  9
$DIMTP
 40
0
  9
$DIMTM
 40
0
  9
$DIMTXT
 40
2.5
  9
$DIMCEN
 40
2.5
  9
$DIMTSZ
 40
0
  9
$DIMTOL
 70
    0
  9
$DIMLIM
 70
    0
  9
$DIMTIH
 70
    0
  9
$DIMTOH
 70
    0
  9
$DIMSE1
 70
    0
  9
$DIMSE2
 70
    0
  9
$DIMTAD
 70
    1
  9
$DIMZIN
 70
    1
  9
$DIMBLK
  1

  9
$DIMASO
 70
    1
  9
$DIMSHO
 70
    1
  9
$DIMPOST
  1

  9
$DIMAPOST
  1

  9
$DIMALT
 70
    0
  9
$DIMALTD
 70
    3
  9
$DIMALTF
 40
0.03937
  9
$DIMLFAC
 40
1
  9
$DIMTOFL
 70
    1
  9
$DIMTVP
 40
0
  9
$DIMTIX
 70
    0
  9
$DIMSOXD
 70
    0
  9
$DIMSAH
 70
    0
  9
$DIMBLK1
  1

  9
$DIMBLK2
  1

  9
$DIMSTYLE
  2
STANDARD
  9
$DIMCLRD
 70
  136
  9
$DIMCLRE
 70
  136
  9
$DIMCLRT
 70
    0
  9
$DIMTFAC
 40
1
  9
$DIMGAP
 40
0.625
  9
$DIMJUST
 70
    0
  9
$DIMSD1
 70
    0
  9
$DIMSD2
 70
    0
  9
$DIMTOLJ
 70
    0
  9
$DIMTZIN
 70
    8
  9
$DIMALTZ
 70
    0
  9
$DIMALTTZ
 70
    0
  9
$DIMUPT
 70
    0
  9
$DIMDEC
 70
    4
  9
$DIMTDEC
 70
    2
  9
$DIMALTU
 70
    2
  9
$DIMALTTD
 70
    3
  9
$DIMTXSTY
  7
standard
  9
$DIMAUNIT
 70
    0
  9
$DIMADEC
 70
    2
  9
$DIMALTRND
 40
0
  9
$DIMAZIN
 70
    0
  9
$DIMDSEP
 70
    0
  9
$DIMATFIT
 70
    3
  9
$DIMFRAC
 70
    0
  9
$DIMLDRBLK
  1
STANDARD
  9
$DIMLUNIT
 70
    2
  9
$DIMLWD
 70
   -2
  9
$DIMLWE
 70
   -2
  9
$DIMTMOVE
 70
    0
  9
$DIMFXL
 40
1
  9
$DIMFXLON
 70
    0
  9
$DIMJOGANG
 40
0.7854
  9
$DIMTFILL
 70
    0
  9
$DIMTFILLCLR
 70
    0
  9
$DIMARCSYM
 70
    0
  9
$DIMLTYPE
  6

  9
$DIMLTEX1
  6

  9
$DIMLTEX2
  6

  9
$LUNITS
 70
    2
  9
$LUPREC
 70
    4
  9
$SKETCHINC
 40
1
  9
$FILLETRAD
 40
0
  9
$AUNITS
 70
    0
  9
$AUPREC
 70
    2
  9
$MENU
  1
.
  9
$ELEVATION
 40
0
  9
$PELEVATION
 40
0
  9
$THICKNESS
 40
0
  9
$LIMCHECK
 70
    0
  9
$CHAMFERA
 40
0
  9
$CHAMFERB
 40
0
  9
$CHAMFERC
 40
0
  9
$CHAMFERD
 40
0
  9
$SKPOLY
 70
    0
  9
$USRTIMER
 70
    1
  9
$ANGBASE
 50
0
  9
$ANGDIR
 70
    0
  9
$PDMODE
 70
   34
  9
$PDSIZE
 40
0
  9
$PLINEWID
 40
0
  9
$SPLFRAME
 70
    0
  9
$SPLINETYPE
 70
    2
  9
$SPLINESEGS
 70
    8
  9
$HANDSEED
  5
20000
  9
$SURFTAB1
 70
    6
  9
$SURFTAB2
 70
    6
  9
$SURFTYPE
 70
    6
  9
$SURFU
 70
    6
  9
$SURFV
 70
    6
  9
$UCSBASE
  2

  9
$UCSNAME
  2

  9
$UCSORG
 10
0
 20
0
 30
0
  9
$UCSXDIR
 10
1
 20
0
 30
0
  9
$UCSYDIR
 10
0
 20
1
 30
0
  9
$UCSORTHOREF
  2

  9
$UCSORTHOVIEW
 70
    0
  9
$UCSORGTOP
 10
0
 20
0
 30
0
  9
$UCSORGBOTTOM
 10
0
 20
0
 30
0
  9
$UCSORGLEFT
 10
0
 20
0
 30
0
  9
$UCSORGRIGHT
 10
0
 20
0
 30
0
  9
$UCSORGFRONT
 10
0
 20
0
 30
0
  9
$UCSORGBACK
 10
0
 20
0
 30
0
  9
$PUCSBASE
  2

  9
$PUCSNAME
  2

  9
$PUCSORG
 10
0
 20
0
 30
0
  9
$PUCSXDIR
 10
1
 20
0
 30
0
  9
$PUCSYDIR
 10
0
 20
1
 30
0
  9
$PUCSORTHOREF
  2

  9
$PUCSORTHOVIEW
 70
    0
  9
$PUCSORGTOP
 10
0
 20
0
 30
0
  9
$PUCSORGBOTTOM
 10
0
 20
0
 30
0
  9
$PUCSORGLEFT
 10
0
 20
0
 30
0
  9
$PUCSORGRIGHT
 10
0
 20
0
 30
0
  9
$PUCSORGFRONT
 10
0
 20
0
 30
0
  9
$PUCSORGBACK
 10
0
 20
0
 30
0
  9
$USERI1
 70
    0
  9
$USERI2
 70
    0
  9
$USERI3
 70
    0
  9
$USERI4
 70
    0
  9
$USERI5
 70
    0
  9
$USERR1
 40
0
  9
$USERR2
 40
0
  9
$USERR3
 40
0
  9
$USERR4
 40
0
  9
$USERR5
 40
0
  9
$WORLDVIEW
 70
    1
  9
$SHADEDGE
 70
    3
  9
$SHADEDIF
 70
   70
  9
$TILEMODE
 70
    1
  9
$MAXACTVP
 70
   64
  9
$PINSBASE
 10
0
 20
0
 30
0
  9
$PLIMCHECK
 70
    0
  9
$PEXTMIN
 10
0
 20
0
 30
0
  9
$PEXTMAX
 10
0
 20
0
 30
0
  9
$GRIDMODE
 70
    1
  9
$SNAPSTYLE
 70
    0
  9
$PLIMMIN
 10
0
 20
0
  9
$PLIMMAX
 10
279.4
 20
215.9
  9
$UNITMODE
 70
    0
  9
$VISRETAIN
 70
    1
  9
$PLINEGEN
 70
    0
  9
$PSLTSCALE
 70
    1
  9
$TREEDEPTH
 70
 3020
  9
$CMLSTYLE
  2
Standard
  9
$CMLJUST
 70
    0
  9
$CMLSCALE
 40
20
  9
$PROXYGRAPHICS
 70
    1
  9
$MEASUREMENT
 70
    1
  9
$CELWEIGHT
370
   -1
  9
$ENDCAPS
280
    0
  9
$JOINSTYLE
280
    0
  9
$LWDISPLAY
290
    0
  9
$INSUNITS
 70
    4
  9
$HYPERLINKBASE
  1

  9
$STYLESHEET
  1

  9
$XEDIT
290
    1
  9
$CEPSNTYPE
380
    0
  9
$PSTYLEMODE
290
    1
  9
$EXTNAMES
290
    1
  9
$PSVPSCALE
 40
1
  9
$OLESTARTUP
290
    0
  9
$SORTENTS
280
  127
  9
$INDEXCTL
280
    0
  9
$HIDETEXT
280
    1
  9
$XCLIPFRAME
290
    0
  9
$HALOGAP
280
    0
  9
$OBSCOLOR
 70
  257
  9
$OBSLTYPE
280
    0
  9
$INTERSECTIONDISPLAY
280
    0
  9
$INTERSECTIONCOLOR
 70
  257
  9
$DIMASSOC
280
    1
  9
$PROJECTNAME
  1

  9
$CAMERADISPLAY
290
    0
  9
$LENSLENGTH
 40
50
  9
$CAMERAHEIGHT
 40
0
  9
$STEPSPERSEC
 40
2
  9
$STEPSIZE
 40
50
  9
$3DDWFPREC
 40
2
  9
$PSOLWIDTH
 40
5
  9
$PSOLHEIGHT
 40
80
  9
$LOFTANG1
 40
1.570796326794897
  9
$LOFTANG2
 40
1.570796326794897
  9
$LOFTMAG1
 40
0
  9
$LOFTMAG2
 40
0
  9
$LOFTPARAM
 70
    7
  9
$LOFTNORMALS
280
    1
  9
$LATITUDE
 40
1
  9
$LONGITUDE
 40
1
  9
$NORTHDIRECTION
 40
0
  9
$TIMEZONE
 70
-8000
  9
$LIGHTGLYPHDISPLAY
280
    1
  9
$TILEMODELIGHTSYNCH
280
    1
  9
$SOLIDHIST
280
    1
  9
$SHOWHIST
280
    1
  9
$DWFFRAME
280
    2
  9
$DGNFRAME
280
    0
  9
$REALWORLDSCALE
290
    1
  9
$INTERFERECOLOR
 62
    1
  9
$CSHADOW
280
    0
  9
$SHADOWPLANELOCATION
 40
0
  0
ENDSEC
  0
SECTION
  2
CLASSES
  0
ENDSEC
  0
SECTION
  2
TABLES
  0
TABLE
  2
VPORT
  5
8
330
0
100
AcDbSymbolTable
 70
    1
  0
VPORT
  5
31
330
2
100
AcDbSymbolTableRecord
100
AcDbViewportTableRecord
  2
*ACTIVE
 70
    0
 10
0
 20
0
 11
1
 21
1
 12
187.1429542939443
 22
60.88980584597126
 13
0
 23
0
 14
10
 24
10
 15
10
 25
10
 16
0
 26
0
 36
1
 17
0
 27
0
 37
0
 40
394.1682941702466
 41
1.470365699873897
 42
50
 43
0
 44
0
 50
0
 51
0
 71
    0
 72
  100
 73
    1
 74
    3
 75
    0
 76
    1
 77
    0
 78
    0
281
    0
 65
    1
110
0
120
0
130
0
111
1
121
0
131
0
112
0
122
1
132
0
 79
    0
146
0
348
10020
 60
    7
 61
    5
292
1
282
    1
141
0
142
0
 63
  250
421
3358443
  0
ENDTAB
  0
TABLE
  2
LTYPE
  5
5
330
0
100
AcDbSymbolTable
 70
    4
  0
LTYPE
  5
14
330
5
100
AcDbSymbolTableRecord
100
AcDbLinetypeTableRecord
  2
ByBlock
 70
    0
  3

 72
   65
 73
    0
 40
0
  0
LTYPE
  5
15
330
5
100
AcDbSymbolTableRecord
100
AcDbLinetypeTableRecord
  2
ByLayer
 70
    0
  3

 72
   65
 73
    0
 40
0
  0
LTYPE
  5
16
330
5
100
AcDbSymbolTableRecord
100
AcDbLinetypeTableRecord
  2
Continuous
 70
    0
  3
Solid line
 72
   65
 73
    0
 40
0
  0
LTYPE
  5
32
330
5
100
AcDbSymbolTableRecord
100
AcDbLinetypeTableRecord
  2
DOT
 70
    0
  3
Dot . . . . . . . . . . . . . . . . . . . . . .
 72
   65
 73
    2
 40
6.35
 49
0
 74
    0
 49
-6.35
 74
    0
  0
LTYPE
  5
33
330
5
100
AcDbSymbolTableRecord
100
AcDbLinetypeTableRecord
  2
DOTTINY
 70
    0
  3
Dot (.15x) .....................................
 72
   65
 73
    2
 40
0.9525
 49
0
 74
    0
 49
-0.9525
 74
    0
  0
LTYPE
  5
34
330
5
100
AcDbSymbolTableRecord
100
AcDbLinetypeTableRecord
  2
DOT2
 70
    0
  3
Dot (.5x) .....................................
 72
   65
 73
    2
 40
3.175
 49
0
 74
    0
 49
-3.175
 74
    0
  0
LTYPE
  5
35
330
5
100
AcDbSymbolTableRecord
100
AcDbLinetypeTableRecord
  2
DOTX2
 70
    0
  3
Dot (2x) .  .  .  .  .  .  .  .  .  .  .  .  .
 72
   65
 73
    2
 40
12.7
 49
0
 74
    0
 49
-12.7
 74
    0
  0
LTYPE
  5
36
330
5
100
AcDbSymbolTableRecord
100
AcDbLinetypeTableRecord
  2
DASHED
 70
    0
  3
Dashed _ _ _ _ _ _ _ _ _ _ _ _ _ _ _ _ _
 72
   65
 73
    2
 40
19.05
 49
12.7
 74
    0
 49
-6.35
 74
    0
  0
LTYPE
  5
37
330
5
100
AcDbSymbolTableRecord
100
AcDbLinetypeTableRecord
  2
DASHEDTINY
 70
    0
  3
Dashed (.15x) _ _ _ _ _ _ _ _ _ _ _ _ _ _ _ _ _
 72
   65
 73
    2
 40
2.8575
 49
1.905
 74
    0
 49
-0.9525
 74
    0
  0
LTYPE
  5
38
330
5
100
AcDbSymbolTableRecord
100
AcDbLinetypeTableRecord
  2
DASHED2
 70
    0
  3
Dashed (.5x) _ _ _ _ _ _ _ _ _ _ _ _ _ _ _ _ _
 72
   65
 73
    2
 40
9.524999999999999
 49
6.35
 74
    0
 49
-3.175
 74
    0
  0
LTYPE
  5
39
330
5
100
AcDbSymbolTableRecord
100
AcDbLinetypeTableRecord
  2
DASHEDX2
 70
    0
  3
Dashed (2x) ____  ____  ____  ____  ____  ___
 72
   65
 73
    2
 40
38.09999999999999
 49
25.4
 74
    0
 49
-12.7
 74
    0
  0
LTYPE
  5
3A
330
5
100
AcDbSymbolTableRecord
100
AcDbLinetypeTableRecord
  2
DASHDOT
 70
    0
  3
Dash dot __ . __ . __ . __ . __ . __ . __ . __
 72
   65
 73
    4
 40
25.4
 49
12.7
 74
    0
 49
-6.35
 74
    0
 49
0
 74
    0
 49
-6.35
 74
    0
  0
LTYPE
  5
3B
330
5
100
AcDbSymbolTableRecord
100
AcDbLinetypeTableRecord
  2
DASHDOTTINY
 70
    0
  3
Dash dot (.15x) _._._._._._._._._._._._._._._.
 72
   65
 73
    4
 40
3.81
 49
1.905
 74
    0
 49
-0.9525
 74
    0
 49
0
 74
    0
 49
-0.9525
 74
    0
  0
LTYPE
  5
3C
330
5
100
AcDbSymbolTableRecord
100
AcDbLinetypeTableRecord
  2
DASHDOT2
 70
    0
  3
Dash dot (.5x) _._._._._._._._._._._._._._._.
 72
   65
 73
    4
 40
12.7
 49
6.35
 74
    0
 49
-3.175
 74
    0
 49
0
 74
    0
 49
-3.175
 74
    0
  0
LTYPE
  5
3D
330
5
100
AcDbSymbolTableRecord
100
AcDbLinetypeTableRecord
  2
DASHDOTX2
 70
    0
  3
Dash dot (2x) ____  .  ____  .  ____  .  ___
 72
   65
 73
    4
 40
50.8
 49
25.4
 74
    0
 49
-12.7
 74
    0
 49
0
 74
    0
 49
-12.7
 74
    0
  0
LTYPE
  5
3E
330
5
100
AcDbSymbolTableRecord
100
AcDbLinetypeTableRecord
  2
DIVIDE
 70
    0
  3
Divide ____ . . ____ . . ____ . . ____ . . ____
 72
   65
 73
    6
 40
31.75
 49
12.7
 74
    0
 49
-6.35
 74
    0
 49
0
 74
    0
 49
-6.35
 74
    0
 49
0
 74
    0
 49
-6.35
 74
    0
  0
LTYPE
  5
3F
330
5
100
AcDbSymbolTableRecord
100
AcDbLinetypeTableRecord
  2
DIVIDETINY
 70
    0
  3
Divide (.15x) __..__..__..__..__..__..__..__.._
 72
   65
 73
    6
 40
4.7625
 49
1.905
 74
    0
 49
-0.9525
 74
    0
 49
0
 74
    0
 49
-0.9525
 74
    0
 49
0
 74
    0
 49
-0.9525
 74
    0
  0
LTYPE
  5
40
330
5
100
AcDbSymbolTableRecord
100
AcDbLinetypeTableRecord
  2
DIVIDE2
 70
    0
  3
Divide (.5x) __..__..__..__..__..__..__..__.._
 72
   65
 73
    6
 40
15.875
 49
6.35
 74
    0
 49
-3.175
 74
    0
 49
0
 74
    0
 49
-3.175
 74
    0
 49
0
 74
    0
 49
-3.175
 74
    0
  0
LTYPE
  5
41
330
5
100
AcDbSymbolTableRecord
100
AcDbLinetypeTableRecord
  2
DIVIDEX2
 70
    0
  3
Divide (2x) ________  .  .  ________  .  .  _
 72
   65
 73
    6
 40
63.5
 49
25.4
 74
    0
 49
-12.7
 74
    0
 49
0
 74
    0
 49
-12.7
 74
    0
 49
0
 74
    0
 49
-12.7
 74
    0
  0
LTYPE
  5
42
330
5
100
AcDbSymbolTableRecord
100
AcDbLinetypeTableRecord
  2
BORDER
 70
    0
  3
Border __ __ . __ __ . __ __ . __ __ . __ __ .
 72
   65
 73
    6
 40
44.45
 49
12.7
 74
    0
 49
-6.35
 74
    0
 49
12.7
 74
    0
 49
-6.35
 74
    0
 49
0
 74
    0
 49
-6.35
 74
    0
  0
LTYPE
  5
43
330
5
100
AcDbSymbolTableRecord
100
AcDbLinetypeTableRecord
  2
BORDERTINY
 70
    0
  3
Border (.15x) __.__.__.__.__.__.__.__.__.__.__.
 72
   65
 73
    6
 40
6.6675
 49
1.905
 74
    0
 49
-0.9525
 74
    0
 49
1.905
 74
    0
 49
-0.9525
 74
    0
 49
0
 74
    0
 49
-0.9525
 74
    0
  0
LTYPE
  5
44
330
5
100
AcDbSymbolTableRecord
100
AcDbLinetypeTableRecord
  2
BORDER2
 70
    0
  3
Border (.5x) __.__.__.__.__.__.__.__.__.__.__.
 72
   65
 73
    6
 40
22.225
 49
6.35
 74
    0
 49
-3.175
 74
    0
 49
6.35
 74
    0
 49
-3.175
 74
    0
 49
0
 74
    0
 49
-3.175
 74
    0
  0
LTYPE
  5
45
330
5
100
AcDbSymbolTableRecord
100
AcDbLinetypeTableRecord
  2
BORDERX2
 70
    0
  3
Border (2x) ____  ____  .  ____  ____  .  ___
 72
   65
 73
    6
 40
88.89999999999999
 49
25.4
 74
    0
 49
-12.7
 74
    0
 49
25.4
 74
    0
 49
-12.7
 74
    0
 49
0
 74
    0
 49
-12.7
 74
    0
  0
LTYPE
  5
46
330
5
100
AcDbSymbolTableRecord
100
AcDbLinetypeTableRecord
  2
CENTER
 70
    0
  3
Center ____ _ ____ _ ____ _ ____ _ ____ _ ____
 72
   65
 73
    4
 40
50.8
 49
31.75
 74
    0
 49
-6.35
 74
    0
 49
6.35
 74
    0
 49
-6.35
 74
    0
  0
LTYPE
  5
47
330
5
100
AcDbSymbolTableRecord
100
AcDbLinetypeTableRecord
  2
CENTERTINY
 70
    0
  3
Center (.15x) ___ _ ___ _ ___ _ ___ _ ___ _ ___
 72
   65
 73
    4
 40
7.619999999999999
 49
4.7625
 74
    0
 49
-0.9525
 74
    0
 49
0.9525
 74
    0
 49
-0.9525
 74
    0
  0
LTYPE
  5
48
330
5
100
AcDbSymbolTableRecord
100
AcDbLinetypeTableRecord
  2
CENTER2
 70
    0
  3
Center (.5x) ___ _ ___ _ ___ _ ___ _ ___ _ ___
 72
   65
 73
    4
 40
28.575
 49
19.05
 74
    0
 49
-3.175
 74
    0
 49
3.175
 74
    0
 49
-3.175
 74
    0
  0
LTYPE
  5
49
330
5
100
AcDbSymbolTableRecord
100
AcDbLinetypeTableRecord
  2
CENTERX2
 70
    0
  3
Center (2x) ________  __  ________  __  _____
 72
   65
 73
    4
 40
101.6
 49
63.5
 74
    0
 49
-12.7
 74
    0
 49
12.7
 74
    0
 49
-12.7
 74
    0
  0
ENDTAB
  0
TABLE
  2
LAYER
  5
2
330
0
100
AcDbSymbolTable
 70
    1
  0
LAYER
  5
10
330
2
100
AcDbSymbolTableRecord
100
AcDbLayerTableRecord
  2
0
 70
    0
 62
    7
  6
CONTINUOUS
370
    0
390
F
  0
LAYER
  5
4A
330
2
100
AcDbSymbolTableRecord
100
AcDbLayerTableRecord
  2
distances
 70
    0
 62
    7
  6
CONTINUOUS
370
    0
390
F
  0
ENDTAB
  0
TABLE
  2
STYLE
  5
3
330
0
100
AcDbSymbolTable
 70
    3
  0
STYLE
  5
4B
330
2
100
AcDbSymbolTableRecord
100
AcDbTextStyleTableRecord
  2
Standard
 70
    0
 40
0
 41
1
 50
0
 71
    0
 42
1
  3
txt
  4

  0
ENDTAB
  0
TABLE
  2
VIEW
  5
6
330
0
100
AcDbSymbolTable
 70
    0
  0
ENDTAB
  0
TABLE
  2
UCS
  5
7
330
0
100
AcDbSymbolTable
 70
    0
  0
ENDTAB
  0
TABLE
  2
APPID
  5
9
330
0
100
AcDbSymbolTable
 70
    1
  0
APPID
  5
12
330
9
100
AcDbSymbolTableRecord
100
AcDbRegAppTableRecord
  2
ACAD
 70
    0
  0
APPID
  5
4C
330
9
100
AcDbSymbolTableRecord
100
AcDbRegAppTableRecord
  2
LibreCad
 70
    0
  0
ENDTAB
  0
TABLE
  2
DIMSTYLE
  5
A
330
0
100
AcDbSymbolTable
 70
    1
100
AcDbDimStyleTable
 71
    1
  0
DIMSTYLE
105
4D
330
A
100
AcDbSymbolTableRecord
100
AcDbDimStyleTableRecord
  2
Standard
 70
    0
 40
2.5
 41
2.5
 42
0.625
 43
0.38
 44
1.25
 45
0
 46
0
 47
0
 48
0
 49
1
140
2.5
141
0.09
142
0
143
25.4
144
1
145
0
146
1
147
0.625
148
0
 71
    0
 72
    0
 73
    0
 74
    1
 75
    0
 76
    0
 77
    0
 78
    1
 79
    0
170
    0
171
    2
172
    0
173
    0
174
    0
175
    0
176
  136
177
  136
178
    0
179
    2
271
    4
272
    4
273
    2
274
    2
275
    0
276
    0
277
    2
278
    0
279
    0
280
    0
281
    0
282
    0
283
    1
284
    0
285
    0
286
    0
288
    0
289
    3
340
standard
341

371
   -2
372
   -2
  0
ENDTAB
  0
TABLE
  2
BLOCK_RECORD
  5
1
330
0
100
AcDbSymbolTable
 70
    2
  0
BLOCK_RECORD
  5
1F
330
1
100
AcDbSymbolTableRecord
100
AcDbBlockTableRecord
  2
*Model_Space
 70
    0
280
    1
281
    0
  0
BLOCK_RECORD
  5
1E
330
1
100
AcDbSymbolTableRecord
100
AcDbBlockTableRecord
  2
*Paper_Space
 70
    0
280
    1
281
    0
  0
BLOCK_RECORD
  5
4E
330
1
100
AcDbSymbolTableRecord
100
AcDbBlockTableRecord
  2
*D2
 70
    0
280
    1
281
    0
  0
BLOCK_RECORD
  5
51
330
1
100
AcDbSymbolTableRecord
100
AcDbBlockTableRecord
  2
*D6
 70
    0
280
    1
281
    0
  0
BLOCK_RECORD
  5
54
330
1
100
AcDbSymbolTableRecord
100
AcDbBlockTableRecord
  2
*D9
 70
    0
280
    1
281
    0
  0
BLOCK_RECORD
  5
57
330
1
100
AcDbSymbolTableRecord
100
AcDbBlockTableRecord
  2
*D4
 70
    0
280
    1
281
    0
  0
BLOCK_RECORD
  5
5A
330
1
100
AcDbSymbolTableRecord
100
AcDbBlockTableRecord
  2
*D1
 70
    0
280
    1
281
    0
  0
BLOCK_RECORD
  5
5D
330
1
100
AcDbSymbolTableRecord
100
AcDbBlockTableRecord
  2
*D5
 70
    0
280
    1
281
    0
  0
BLOCK_RECORD
  5
60
330
1
100
AcDbSymbolTableRecord
100
AcDbBlockTableRecord
  2
*D10
 70
    0
280
    1
281
    0
  0
BLOCK_RECORD
  5
63
330
1
100
AcDbSymbolTableRecord
100
AcDbBlockTableRecord
  2
*D7
 70
    0
280
    1
281
    0
  0
BLOCK_RECORD
  5
66
330
1
100
AcDbSymbolTableRecord
100
AcDbBlockTableRecord
  2
*D11
 70
    0
280
    1
281
    0
  0
BLOCK_RECORD
  5
69
330
1
100
AcDbSymbolTableRecord
100
AcDbBlockTableRecord
  2
*D12
 70
    0
280
    1
281
    0
  0
BLOCK_RECORD
  5
6C
330
1
100
AcDbSymbolTableRecord
100
AcDbBlockTableRecord
  2
*D3
 70
    0
280
    1
281
    0
  0
BLOCK_RECORD
  5
6F
330
1
100
AcDbSymbolTableRecord
100
AcDbBlockTableRecord
  2
*D8
 70
    0
280
    1
281
    0
  0
ENDTAB
  0
ENDSEC
  0
SECTION
  2
BLOCKS
  0
BLOCK
  5
20
330
1F
100
AcDbEntity
  8
0
100
AcDbBlockBegin
  2
*Model_Space
 70
    0
 10
0
 20
0
 30
0
  3
*Model_Space
  1

  0
ENDBLK
  5
21
330
1F
100
AcDbEntity
  8
0
100
AcDbBlockEnd
  0
BLOCK
  5
1C
330
1B
100
AcDbEntity
  8
0
100
AcDbBlockBegin
  2
*Paper_Space
 70
    0
 10
0
 20
0
 30
0
  3
*Paper_Space
  1

  0
ENDBLK
  5
1D
330
1F
100
AcDbEntity
  8
0
100
AcDbBlockEnd
  0
BLOCK
  5
4F
330
4E
100
AcDbEntity
  8
0
100
AcDbBlockBegin
  2
*D2
 70
    1
 10
0
 20
0
  3
*D2
  1

  0
LINE
  5
72
100
AcDbEntity
  8
0
  6
ByBlock
 62
  136
370
   -2
100
AcDbLine
 10
854.5942298023449
 20
46.70570888511256
 11
758.3246657554431
 21
41.23130102159426
  0
LINE
  5
73
100
AcDbEntity
  8
0
  6
ByBlock
 62
  136
370
   -2
100
AcDbLine
 10
1001.5625
 20
0
 11
759.4960369017407
 21
0
  0
ARC
  5
74
100
AcDbEntity
  8
0
  6
ByBlock
 62
  136
370
   -2
100
AcDbCircle
 10
33.25640752660949
 20
0
 40
723.1146293751312
100
AcDbArc
 50
0
 51
3.254642643593214
  0
SOLID
  5
75
100
AcDbEntity
  8
0
  6
ByBlock
 62
  136
370
   -2
100
AcDbTrace
 10
755.2047061507674
 20
41.05388325136964
 30
0
 11
756.5718508225838
 21
34.86708309513536
 31
0
 12
754.4932934413349
 22
34.75789463291466
 32
0
 13
754.4932934413349
 23
34.75789463291466
 33
0
  0
SOLID
  5
76
100
AcDbEntity
  8
0
  6
ByBlock
 62
  136
370
   -2
100
AcDbTrace
 10
756.3710369017407
 20
0
 30
0
 11
755.3033251648678
 21
6.245444129427498
 31
0
 12
757.3847290173474
 22
6.254439145248241
 32
0
 13
757.3847290173474
 23
6.254439145248241
 33
0
  0
MTEXT
  5
77
100
AcDbEntity
  8
0
  6
CONTINUOUS
 62
    0
370
   -2
100
AcDbMText
 10
757.641265226105
 20
20.57959608598425
 30
0
 40
6.25
 41
18.75000000000077
 71
    8
 72
    1
  1
3.25%%D
  7
standard
210
0
220
0
230
1
 50
271.6273213217966
 73
    2
 44
1
  0
ENDBLK
  5
50
330
4E
100
AcDbEntity
  8
0
100
AcDbBlockEnd
  0
BLOCK
  5
52
330
51
100
AcDbEntity
  8
0
100
AcDbBlockBegin
  2
*D6
 70
    1
 10
0
 20
0
  3
*D6
  1

  0
LINE
  5
78
100
AcDbEntity
  8
0
  6
ByBlock
 62
  136
370
   -2
100
AcDbLine
 10
854.623304033375
 20
47.03412386510947
 11
912.8499726146345
 21
49.48495081667669
  0
LINE
  5
79
100
AcDbEntity
  8
0
  6
ByBlock
 62
  136
370
   -2
100
AcDbLine
 10
1001.5625
 20
0
 11
913.8909507884255
 21
0
  0
ARC
  5
7A
100
AcDbEntity
  8
0
  6
ByBlock
 62
  136
370
   -2
100
AcDbCircle
 10
-262.811911273186
 20
0
 40
1173.577862061612
100
AcDbArc
 50
0
 51
2.410222071778901
  0
SOLID
  5
7B
100
AcDbEntity
  8
0
  6
ByBlock
 62
  136
370
   -2
100
AcDbTrace
 10
909.7277371670953
 20
49.35353236237704
 30
0
 11
911.0138492284063
 21
43.14938080937588
 31
0
 12
908.934041577763
 22
43.06738664036812
 32
0
 13
908.934041577763
 23
43.06738664036812
 33
0
  0
SOLID
  5
7C
100
AcDbEntity
  8
0
  6
ByBlock
 62
  136
370
   -2
100
AcDbTrace
 10
910.7659507884255
 20
0
 30
0
 11
909.708600369911
 21
6.247206641317686
 31
0
 12
911.7900162796244
 22
6.252749043148304
 32
0
 13
911.7900162796244
 23
6.252749043148304
 33
0
  0
MTEXT
  5
7D
100
AcDbEntity
  8
0
  6
CONTINUOUS
 62
    0
370
   -2
100
AcDbMText
 10
912.0685230675033
 20
24.71508749182494
 30
0
 40
6.25
 41
18.05555555555555
 71
    8
 72
    1
  1
2.41%%D
  7
standard
210
0
220
0
230
1
 50
271.2051110358894
 73
    2
 44
1
  0
ENDBLK
  5
53
330
51
100
AcDbEntity
  8
0
100
AcDbBlockEnd
  0
BLOCK
  5
55
330
54
100
AcDbEntity
  8
0
100
AcDbBlockBegin
  2
*D9
 70
    1
 10
0
 20
0
  3
*D9
  1

  0
LINE
  5
7E
100
AcDbEntity
  8
0
  6
ByBlock
 62
  136
370
   -2
100
AcDbLine
 10
402.5945470536665
 20
31.22251539138211
 11
402.5945470536665
 21
-0.2198768689533951
  0
SOLID
  5
7F
100
AcDbEntity
  8
0
  6
ByBlock
 62
  136
370
   -2
100
AcDbTrace
 10
402.5945470536665
 20
31.22251539138211
 30
0
 11
403.6352586980986
 21
24.97251539138211
 31
0
 12
401.5538354092344
 22
24.97251539138211
 32
0
 13
401.5538354092344
 23
24.97251539138211
 33
0
  0
SOLID
  5
80
100
AcDbEntity
  8
0
  6
ByBlock
 62
  136
370
   -2
100
AcDbTrace
 10
402.5945470536665
 20
-0.2198768689533951
 30
0
 11
401.5538354092344
 21
6.030123131046605
 31
0
 12
403.6352586980986
 22
6.030123131046605
 32
0
 13
403.6352586980986
 23
6.030123131046605
 33
0
  0
MTEXT
  5
81
100
AcDbEntity
  8
0
  6
CONTINUOUS
 62
    0
370
   -2
100
AcDbMText
 10
400.7195470536665
 20
15.50131926121436
 30
0
 40
6.25
 41
29.8611111111115
 71
    5
 72
    1
  1
31.4424
  7
standard
210
0
220
0
230
1
 50
90
 73
    2
 44
1
  0
LINE
  5
82
100
AcDbEntity
  8
0
  6
ByBlock
 62
  136
370
   -2
100
AcDbLine
 10
471.3926451187529
 20
31.22251539138211
 11
399.4695470536665
 21
31.22251539138211
  0
LINE
  5
83
100
AcDbEntity
  8
0
  6
ByBlock
 62
  136
370
   -2
100
AcDbLine
 10
471.3926451187529
 20
-0.2198768689533949
 11
399.4695470536665
 21
-0.2198768689533947
  0
ENDBLK
  5
56
330
54
100
AcDbEntity
  8
0
100
AcDbBlockEnd
  0
BLOCK
  5
58
330
57
100
AcDbEntity
  8
0
100
AcDbBlockBegin
  2
*D4
 70
    1
 10
0
 20
0
  3
*D4
  1

  0
LINE
  5
84
100
AcDbEntity
  8
0
  6
ByBlock
 62
  136
370
   -2
100
AcDbLine
 10
471.3926963230821
 20
25.07861260365992
 11
768.0837482344569
 21
22.67660991309127
  0
LINE
  5
85
100
AcDbEntity
  8
0
  6
ByBlock
 62
  136
370
   -2
100
AcDbLine
 10
746.7280779726984
 20
3.456357080788913e-13
 11
767.9919551298813
 21
3.430316341690907e-13
  0
ARC
  5
86
100
AcDbEntity
  8
0
  6
ByBlock
 62
  136
370
   -2
100
AcDbCircle
 10
3569.057816796467
 20
-0
 40
2797.940861666586
100
AcDbArc
 50
179.5361450609242
 51
180
  0
SOLID
  5
87
100
AcDbEntity
  8
0
  6
ByBlock
 62
  136
370
   -2
100
AcDbTrace
 10
771.2086458257786
 20
22.65131082714394
 30
0
 11
772.2057143357839
 21
16.39420006312415
 31
0
 12
770.1243417346673
 22
16.40872599673468
 32
0
 13
770.1243417346673
 23
16.40872599673468
 33
0
  0
SOLID
  5
88
100
AcDbEntity
  8
0
  6
ByBlock
 62
  136
370
   -2
100
AcDbTrace
 10
771.1169551298813
 20
3.426489320443571e-13
 30
0
 11
770.0832247131085
 21
6.251158464820706
 31
0
 12
772.1646467037375
 22
6.248833738621264
 32
0
 13
772.1646467037375
 23
6.248833738621264
 33
0
  0
MTEXT
  5
89
100
AcDbEntity
  8
0
  6
CONTINUOUS
 62
    0
370
   -2
100
AcDbMText
 10
769.5773906988926
 20
11.33207302564928
 30
0
 40
6.25
 41
19.44444444444483
 71
    8
 72
    1
  1
0.46%%D
  7
standard
210
0
220
0
230
1
 50
449.7680725304621
 73
    2
 44
1
  0
ENDBLK
  5
59
330
57
100
AcDbEntity
  8
0
100
AcDbBlockEnd
  0
BLOCK
  5
5B
330
5A
100
AcDbEntity
  8
0
100
AcDbBlockBegin
  2
*D1
 70
    1
 10
0
 20
0
  3
*D1
  1

  0
LINE
  5
8A
100
AcDbEntity
  8
0
  6
ByBlock
 62
  136
370
   -2
100
AcDbLine
 10
0.2665247235989412
 20
31.56241261627984
 11
0.6921000782864577
 21
71.80056240198239
  0
LINE
  5
8B
100
AcDbEntity
  8
0
  6
ByBlock
 62
  136
370
   -2
100
AcDbLine
 10
473.0165247236012
 20
26.56241261627982
 11
473.4421000782887
 21
66.80056240198238
  0
LINE
  5
8C
100
AcDbEntity
  8
0
  6
ByBlock
 62
  136
370
   -2
100
AcDbLine
 10
0.6590506310885775
 20
68.67573716942299
 11
473.4090506310908
 21
63.67573716942297
  0
SOLID
  5
8D
100
AcDbEntity
  8
0
  6
ByBlock
 62
  136
370
   -2
100
AcDbTrace
 10
0.6590506310885775
 20
68.67573716942299
 30
0
 11
6.91970747846046
 21
69.65029171705598
 31
0
 12
6.8976947139543
 22
67.5689848329985
 32
0
 13
6.8976947139543
 23
67.5689848329985
 33
0
  0
SOLID
  5
8E
100
AcDbEntity
  8
0
  6
ByBlock
 62
  136
370
   -2
100
AcDbTrace
 10
473.4090506310908
 20
63.67573716942297
 30
0
 11
467.148393783719
 21
62.70118262178999
 31
0
 12
467.1704065482251
 22
64.78248950584747
 32
0
 13
467.1704065482251
 23
64.78248950584747
 33
0
  0
MTEXT
  5
8F
100
AcDbEntity
  8
0
  6
CONTINUOUS
 62
    0
370
   -2
100
AcDbMText
 10
237.0538802994084
 20
68.05063230895861
 30
0
 40
6.25
 41
35.41666666666706
 71
    5
 72
    1
  1
472.7764
  7
standard
210
0
220
0
230
1
 50
359.3940386750143
 73
    2
 44
1
  0
ENDBLK
  5
5C
330
5A
100
AcDbEntity
  8
0
100
AcDbBlockEnd
  0
BLOCK
  5
5E
330
5D
100
AcDbEntity
  8
0
100
AcDbBlockBegin
  2
*D5
 70
    1
 10
0
 20
0
  3
*D5
  1

  0
LINE
  5
90
100
AcDbEntity
  8
0
  6
ByBlock
 62
  136
370
   -2
100
AcDbLine
 10
471.260212124183
 20
30.97762090062426
 11
924.9838943878179
 21
20.43825485569688
  0
LINE
  5
91
100
AcDbEntity
  8
0
  6
ByBlock
 62
  136
370
   -2
100
AcDbLine
 10
-1.5625
 20
2.212227661863752e-13
 11
924.7465503732487
 21
1.077826248302928e-13
  0
ARC
  5
92
100
AcDbEntity
  8
0
  6
ByBlock
 62
  136
370
   -2
100
AcDbCircle
 10
1804.858472482834
 20
-0
 40
876.9869221095851
100
AcDbArc
 50
178.669338533928
 51
180
  0
SOLID
  5
93
100
AcDbEntity
  8
0
  6
ByBlock
 62
  136
370
   -2
100
AcDbTrace
 10
928.1080516540396
 20
20.36568505540266
 30
0
 11
929.0256882815423
 21
14.09643280758858
 31
0
 12
926.9446672754768
 22
14.13735321496798
 32
0
 13
926.9446672754768
 23
14.13735321496798
 33
0
  0
SOLID
  5
94
100
AcDbEntity
  8
0
  6
ByBlock
 62
  136
370
   -2
100
AcDbTrace
 10
927.8715503732487
 20
1.073999227055593e-13
 30
0
 11
926.8531161454506
 21
6.253668719280469
 31
0
 12
928.9345262200269
 22
6.246251922234982
 32
0
 13
928.9345262200269
 23
6.246251922234982
 33
0
  0
MTEXT
  5
95
100
AcDbEntity
  8
0
  6
CONTINUOUS
 62
    0
370
   -2
100
AcDbMText
 10
926.3682830319307
 20
10.20167278450137
 30
0
 40
6.25
 41
17.36111111111189
 71
    8
 72
    1
  1
1.33%%D
  7
standard
210
0
220
0
230
1
 50
449.334669266964
 73
    2
 44
1
  0
ENDBLK
  5
5F
330
5D
100
AcDbEntity
  8
0
100
AcDbBlockEnd
  0
BLOCK
  5
61
330
60
100
AcDbEntity
  8
0
100
AcDbBlockBegin
  2
*D10
 70
    1
 10
0
 20
0
  3
*D10
  1

  0
LINE
  5
96
100
AcDbEntity
  8
0
  6
ByBlock
 62
  136
370
   -2
100
AcDbLine
 10
417.5000000000177
 20
25.25000000000107
 11
417.5000000000177
 21
0.7500000000000319
  0
SOLID
  5
97
100
AcDbEntity
  8
0
  6
ByBlock
 62
  136
370
   -2
100
AcDbTrace
 10
417.5000000000177
 20
25.25000000000107
 30
0
 11
418.5407116444498
 21
19.00000000000107
 31
0
 12
416.4592883555856
 22
19.00000000000107
 32
0
 13
416.4592883555856
 23
19.00000000000107
 33
0
  0
SOLID
  5
98
100
AcDbEntity
  8
0
  6
ByBlock
 62
  136
370
   -2
100
AcDbTrace
 10
417.5000000000177
 20
0.7500000000000319
 30
0
 11
416.4592883555856
 21
7.000000000000032
 31
0
 12
418.5407116444498
 22
7.000000000000032
 32
0
 13
418.5407116444498
 23
7.000000000000032
 33
0
  0
MTEXT
  5
99
100
AcDbEntity
  8
0
  6
CONTINUOUS
 62
    0
370
   -2
100
AcDbMText
 10
415.6250000000177
 20
41.74305555555682
 30
0
 40
6.25
 41
29.8611111111115
 71
    5
 72
    1
  1
24.5000
  7
standard
210
0
220
0
230
1
 50
90
 73
    2
 44
1
  0
LINE
  5
9A
100
AcDbEntity
  8
0
  6
ByBlock
 62
  136
370
   -2
100
AcDbLine
 10
470.9375000000201
 20
25.25000000000107
 11
414.3750000000177
 21
25.25000000000107
  0
LINE
  5
9B
100
AcDbEntity
  8
0
  6
ByBlock
 62
  136
370
   -2
100
AcDbLine
 10
471.6875000000201
 20
0.7500000000000321
 11
414.3750000000177
 21
0.7500000000000322
  0
ENDBLK
  5
62
330
60
100
AcDbEntity
  8
0
100
AcDbBlockEnd
  0
BLOCK
  5
64
330
63
100
AcDbEntity
  8
0
100
AcDbBlockBegin
  2
*D7
 70
    1
 10
0
 20
0
  3
*D7
  1

  0
LINE
  5
9C
100
AcDbEntity
  8
0
  6
ByBlock
 62
  136
370
   -2
100
AcDbLine
 10
-1.562491022771996
 20
25.0073655774859
 11
179.0824779327047
 21
24.39500975051818
  0
LINE
  5
9D
100
AcDbEntity
  8
0
  6
ByBlock
 62
  136
370
   -2
100
AcDbLine
 10
-1.5625
 20
9.034431122818831e-13
 11
179.0411305773314
 21
8.813255464717911e-13
  0
ARC
  5
9E
100
AcDbEntity
  8
0
  6
ByBlock
 62
  136
370
   -2
100
AcDbCircle
 10
7375.610354335597
 20
-0
 40
7193.444223758265
100
AcDbArc
 50
179.8057777625302
 51
180
  0
SOLID
  5
9F
100
AcDbEntity
  8
0
  6
ByBlock
 62
  136
370
   -2
100
AcDbTrace
 10
182.2074599782491
 20
24.38441659104176
 30
0
 11
183.2296958908917
 21
18.1313681772071
 31
0
 12
181.1482816919657
 22
18.13751959455444
 32
0
 13
181.1482816919657
 23
18.13751959455444
 33
0
  0
SOLID
  5
A0
100
AcDbEntity
  8
0
  6
ByBlock
 62
  136
370
   -2
100
AcDbTrace
 10
182.1661305773314
 20
8.809428443470576e-13
 30
0
 11
181.1281341768351
 21
6.250451519644356
 31
0
 12
183.2095572692925
 22
6.249547300834736
 32
0
 13
183.2095572692925
 23
6.249547300834736
 33
0
  0
MTEXT
  5
A1
100
AcDbEntity
  8
0
  6
CONTINUOUS
 62
    0
370
   -2
100
AcDbMText
 10
180.6139651792895
 20
12.19487410158946
 30
0
 40
6.25
 41
17.36111111111111
 71
    8
 72
    1
  1
0.19%%D
  7
standard
210
0
220
0
230
1
 50
449.902888881265
 73
    2
 44
1
  0
ENDBLK
  5
65
330
63
100
AcDbEntity
  8
0
100
AcDbBlockEnd
  0
BLOCK
  5
67
330
66
100
AcDbEntity
  8
0
100
AcDbBlockBegin
  2
*D11
 70
    1
 10
0
 20
0
  3
*D11
  1

  0
LINE
  5
A2
100
AcDbEntity
  8
distances
  6
ByBlock
 62
  136
370
   -2
100
AcDbLine
 10
-23.5625
 20
-22
 11
-90.7990645205218
 21
-21.99999999999999
  0
LINE
  5
A3
100
AcDbEntity
  8
distances
  6
ByBlock
 62
  136
370
   -2
100
AcDbLine
 10
-23.5625
 20
22
 11
-90.7990645205218
 21
22.00000000000001
  0
LINE
  5
A4
100
AcDbEntity
  8
distances
  6
ByBlock
 62
  136
370
   -2
100
AcDbLine
 10
-87.6740645205218
 20
-21.99999999999999
 11
-87.6740645205218
 21
22.00000000000001
  0
SOLID
  5
A5
100
AcDbEntity
  8
distances
  6
ByBlock
 62
  136
370
   -2
100
AcDbTrace
 10
-87.6740645205218
 20
-21.99999999999999
 30
0
 11
-88.71477616495389
 21
-15.74999999999999
 31
0
 12
-86.63335287608969
 22
-15.74999999999999
 32
0
 13
-86.63335287608969
 23
-15.74999999999999
 33
0
  0
SOLID
  5
A6
100
AcDbEntity
  8
distances
  6
ByBlock
 62
  136
370
   -2
100
AcDbTrace
 10
-87.6740645205218
 20
22.00000000000001
 30
0
 11
-86.63335287608969
 21
15.75000000000001
 31
0
 12
-88.7147761649539
 22
15.75000000000001
 32
0
 13
-88.7147761649539
 23
15.75000000000001
 33
0
  0
MTEXT
  5
A7
100
AcDbEntity
  8
distances
  6
CONTINUOUS
 62
    0
370
   -2
100
AcDbMText
 10
-92.3615645205218
 20
7.679480544701324e-15
 30
0
 40
6.25
 41
30.55555555555556
 71
    5
 72
    1
  1
44.0000
  7
standard
210
0
220
0
230
1
 50
90
 73
    2
 44
1
  0
ENDBLK
  5
68
330
66
100
AcDbEntity
  8
0
100
AcDbBlockEnd
  0
BLOCK
  5
6A
330
69
100
AcDbEntity
  8
0
100
AcDbBlockBegin
  2
*D12
 70
    1
 10
0
 20
0
  3
*D12
  1

  0
LINE
  5
A8
100
AcDbEntity
  8
distances
  6
ByBlock
 62
  136
370
   -2
100
AcDbLine
 10
-22
 20
-23.5625
 11
-22.00000000000001
 21
-65.22746236870293
  0
LINE
  5
A9
100
AcDbEntity
  8
distances
  6
ByBlock
 62
  136
370
   -2
100
AcDbLine
 10
22
 20
-23.5625
 11
21.99999999999999
 21
-65.22746236870293
  0
LINE
  5
AA
100
AcDbEntity
  8
distances
  6
ByBlock
 62
  136
370
   -2
100
AcDbLine
 10
-22.00000000000001
 20
-62.10246236870294
 11
21.99999999999999
 21
-62.10246236870294
  0
SOLID
  5
AB
100
AcDbEntity
  8
distances
  6
ByBlock
 62
  136
370
   -2
100
AcDbTrace
 10
-22.00000000000001
 20
-62.10246236870294
 30
0
 11
-15.75000000000001
 21
-61.06175072427084
 31
0
 12
-15.75000000000001
 22
-63.14317401313504
 32
0
 13
-15.75000000000001
 23
-63.14317401313504
 33
0
  0
SOLID
  5
AC
100
AcDbEntity
  8
distances
  6
ByBlock
 62
  136
370
   -2
100
AcDbTrace
 10
21.99999999999999
 20
-62.10246236870294
 30
0
 11
15.74999999999999
 21
-63.14317401313504
 31
0
 12
15.74999999999999
 22
-61.06175072427084
 32
0
 13
15.74999999999999
 23
-61.06175072427084
 33
0
  0
MTEXT
  5
AD
100
AcDbEntity
  8
distances
  6
CONTINUOUS
 62
    0
370
   -2
100
AcDbMText
 10
-6.818400764050841e-15
 20
-57.41496236870294
 30
0
 40
6.25
 41
30.55555555555556
 71
    5
 72
    1
  1
44.0000
  7
standard
210
0
220
0
230
1
 50
0
 73
    2
 44
1
  0
ENDBLK
  5
6B
330
69
100
AcDbEntity
  8
0
100
AcDbBlockEnd
  0
BLOCK
  5
6D
330
6C
100
AcDbEntity
  8
0
100
AcDbBlockBegin
  2
*D3
 70
    1
 10
0
 20
0
  3
*D3
  1

  0
LINE
  5
AE
100
AcDbEntity
  8
0
  6
ByBlock
 62
  136
370
   -2
100
AcDbLine
 10
410.1660853563222
 20
-0.193383350002982
 11
410.1660853563222
 21
37.32298655057529
  0
SOLID
  5
AF
100
AcDbEntity
  8
0
  6
ByBlock
 62
  136
370
   -2
100
AcDbTrace
 10
410.1660853563222
 20
-0.193383350002982
 30
0
 11
409.1253737118901
 21
6.056616649997018
 31
0
 12
411.2067970007543
 22
6.056616649997018
 32
0
 13
411.2067970007543
 23
6.056616649997018
 33
0
  0
SOLID
  5
B0
100
AcDbEntity
  8
0
  6
ByBlock
 62
  136
370
   -2
100
AcDbTrace
 10
410.1660853563222
 20
37.32298655057529
 30
0
 11
411.2067970007543
 21
31.07298655057529
 31
0
 12
409.1253737118901
 22
31.07298655057529
 32
0
 13
409.1253737118901
 23
31.07298655057529
 33
0
  0
MTEXT
  5
B1
100
AcDbEntity
  8
0
  6
CONTINUOUS
 62
    0
370
   -2
100
AcDbMText
 10
408.2910853563222
 20
18.56480160028616
 30
0
 40
6.25
 41
28.47222222222339
 71
    5
 72
    1
  1
37.5164
  7
standard
210
0
220
0
230
1
 50
90
 73
    2
 44
1
  0
LINE
  5
B2
100
AcDbEntity
  8
0
  6
ByBlock
 62
  136
370
   -2
100
AcDbLine
 10
443.4125883568587
 20
-0.1933833500029806
 11
407.0410853563222
 21
-0.1933833500029816
  0
LINE
  5
B3
100
AcDbEntity
  8
0
  6
ByBlock
 62
  136
370
   -2
100
AcDbLine
 10
471.4531741072909
 20
37.32298655057529
 11
407.0410853563222
 21
37.32298655057529
  0
ENDBLK
  5
6E
330
6C
100
AcDbEntity
  8
0
100
AcDbBlockEnd
  0
BLOCK
  5
70
330
6F
100
AcDbEntity
  8
0
100
AcDbBlockBegin
  2
*D8
 70
    1
 10
0
 20
0
  3
*D8
  1

  0
LINE
  5
B4
100
AcDbEntity
  8
0
  6
ByBlock
 62
  136
370
   -2
100
AcDbLine
 10
854.9627049980203
 20
47.03240634415609
 11
193.2626621828991
 21
29.98038274590816
  0
LINE
  5
B5
100
AcDbEntity
  8
0
  6
ByBlock
 62
  136
370
   -2
100
AcDbLine
 10
1001.5625
 20
0
 11
193.6488956071167
 21
0
  0
ARC
  5
B6
100
AcDbEntity
  8
0
  6
ByBlock
 62
  136
370
   -2
100
AcDbCircle
 10
-970.119527167312
 20
0
 40
1160.643422774429
100
AcDbArc
 50
0
 51
1.476186688857705
  0
SOLID
  5
B7
100
AcDbEntity
  8
0
  6
ByBlock
 62
  136
370
   -2
100
AcDbTrace
 10
190.1386993131624
 20
29.89987815904404
 30
0
 11
191.3233202241219
 21
23.67555056289567
 31
0
 12
189.2424508919816
 22
23.62753254560823
 32
0
 13
189.2424508919816
 23
23.62753254560823
 33
0
  0
SOLID
  5
B8
100
AcDbEntity
  8
0
  6
ByBlock
 62
  136
370
   -2
100
AcDbTrace
 10
190.5238956071167
 20
0
 30
0
 11
189.4663598048425
 21
6.247175261969575
 31
0
 12
191.5477755491701
 22
6.252779429271222
 32
0
 13
191.5477755491701
 23
6.252779429271222
 33
0
  0
MTEXT
  5
B9
100
AcDbEntity
  8
0
  6
CONTINUOUS
 62
    0
370
   -2
100
AcDbMText
 10
191.9899628916478
 20
14.97130745345748
 30
0
 40
6.25
 41
18.05555555555555
 71
    8
 72
    1
  1
1.48%%D
  7
standard
210
0
220
0
230
1
 50
270.7380933444289
 73
    2
 44
1
  0
ENDBLK
  5
71
330
6F
100
AcDbEntity
  8
0
100
AcDbBlockEnd
  0
ENDSEC
  0
SECTION
  2
ENTITIES
  0
LINE
  5
BA
100
AcDbEntity
  8
0
  6
ByLayer
 62
  256
370
   -1
100
AcDbLine
 10
0
 20
0
 11
1000
 21
0
  0
LWPOLYLINE
  5
BB
100
AcDbEntity
  8
0
  6
ByLayer
 62
  256
370
   -1
100
AcDbPolyline
 90
    4
 70
    1
 43
0
 10
-22
 20
22
 10
22
 20
22
 10
22
 20
-22
 10
-22
 20
-22
  0
LWPOLYLINE
  5
BC
100
AcDbEntity
  8
0
  6
ByLayer
 62
  256
370
   -1
100
AcDbPolyline
 90
    4
 70
    1
 43
0
 10
451
 20
22
 10
495
 20
22
 10
495
 20
-22
 10
451
 20
-22
  0
LINE
  5
BD
100
AcDbEntity
  8
0
  6
ByLayer
 62
  256
370
   -1
100
AcDbLine
 10
853
 20
50
 11
853
 21
-50
  0
LINE
  5
BE
100
AcDbEntity
  8
0
  6
ByLayer
 62
  256
370
   -1
100
AcDbLine
 10
825
 20
47
 11
881
 21
47
  0
LINE
  5
BF
100
AcDbEntity
  8
0
  6
ByLayer
 62
  256
370
   -1
100
AcDbLine
 10
796
 20
22
 11
910
 21
22
  0
LINE
  5
C0
100
AcDbEntity
  8
0
  6
ByLayer
 62
  256
370
   -1
100
AcDbLine
 10
-73
 20
25
 11
73
 21
25
  0
LINE
  5
C1
100
AcDbEntity
  8
0
  6
ByLayer
 62
  256
370
   -1
100
AcDbLine
 10
51
 20
30
 11
-51
 21
30
  0
LINE
  5
C2
100
AcDbEntity
  8
0
  6
ByLayer
 62
  256
370
   -1
100
AcDbLine
 10
422
 20
25
 11
524
 21
25
  0
LINE
  5
C3
100
AcDbEntity
  8
0
  6
ByLayer
 62
  256
370
   -1
100
AcDbLine
 10
473
 20
50
 11
473
 21
-50
  0
LINE
  5
C4
100
AcDbEntity
  8
0
  6
ByLayer
 62
  256
370
   -1
100
AcDbLine
 10
0
 20
50
 11
0
 21
-50
  0
DIMENSION
  5
C5
100
AcDbEntity
  8
0
  6
ByLayer
 62
  256
370
   -1
100
AcDbDimension
  2
*D1
 10
473.4090506310908
 20
63.67573716942297
 30
0
 11
237.0538802994084
 21
68.05063230895861
 31
0
 70
   33
 71
    5
 72
    0
  3
Standard
 53
0
210
0
220
0
230
1
100
AcDbAlignedDimension
 13
0.2500000000000011
 23
30.00000000000014
 33
0
 14
473.0000000000023
 24
25.00000000000012
 34
0
  0
LINE
  5
C6
100
AcDbEntity
  8
0
  6
ByLayer
 62
  256
370
   -1
100
AcDbLine
 10
472.8416868594488
 20
24.99719546558021
 11
853.034250000007
 21
46.61700000000038
  0
DIMENSION
  5
C7
100
AcDbEntity
  8
0
  6
ByLayer
 62
  256
370
   -1
100
AcDbDimension
  2
*D2
 10
1000
 20
0
 30
0
 11
0
 21
0
 31
0
 70
   34
 71
    5
 72
    0
  3
Standard
 53
0
210
0
220
0
230
1
100
AcDb2LineAngularDimension
 13
472.8416868594488
 23
24.99719546558021
 33
0
 14
853.034250000007
 24
46.61700000000038
 34
0
 15
0
 25
0
 35
0
 16
756.1050000000063
 26
19.61325000000016
 36
0
  0
LINE
  5
C8
100
AcDbEntity
  8
0
  6
ByLayer
 62
  256
370
   -1
100
AcDbLine
 10
0
 20
25.00000000000025
 11
853.400723563152
 21
46.99215405072421
  0
DIMENSION
  5
C9
100
AcDbEntity
  8
0
  6
ByLayer
 62
  256
370
   -1
100
AcDbDimension
  2
*D3
 10
410.1660853563222
 20
37.32298655057529
 30
0
 11
408.2910853563222
 21
18.56480160028616
 31
0
 70
   32
 71
    5
 72
    0
  3
Standard
 53
0
210
0
220
0
230
1
100
AcDbAlignedDimension
 13
444.9750883568587
 23
-0.1933833500029808
 33
0
 14
473.0156741072909
 24
37.32298655057529
 34
0
 50
90
100
AcDbRotatedDimension
  0
LINE
  5
CA
100
AcDbEntity
  8
0
  6
ByLayer
 62
  256
370
   -1
100
AcDbLine
 10
13.77665026406461
 20
45.92216754688204
 11
-14.96722497824303
 21
45.92216754688204
  0
LINE
  5
CB
100
AcDbEntity
  8
0
  6
ByLayer
 62
  256
370
   -1
100
AcDbLine
 10
456.9928071133413
 20
40.98724358397889
 11
486.9105031600412
 21
40.98724358397889
  0
LINE
  5
CC
100
AcDbEntity
  8
0
  6
ByLayer
 62
  256
370
   -1
100
AcDbLine
 10
472.9551451187424
 20
25.06596306068649
 11
852.9535142914187
 21
21.98950659432455
  0
DIMENSION
  5
CD
100
AcDbEntity
  8
0
  6
ByLayer
 62
  256
370
   -1
100
AcDbDimension
  2
*D4
 10
748.2905779726983
 20
0
 30
0
 11
0
 21
0
 31
0
 70
   34
 71
    5
 72
    0
  3
Standard
 53
0
210
0
220
0
230
1
100
AcDb2LineAngularDimension
 13
852.9535142914187
 23
21.98950659432455
 33
0
 14
472.9551451187424
 24
25.06596306068649
 34
0
 15
1000.625
 25
0
 35
0
 16
771.1286156036941
 26
8.077777932609017
 36
0
  0
LINE
  5
CE
100
AcDbEntity
  8
0
  6
ByLayer
 62
  256
370
   -1
100
AcDbLine
 10
422
 20
31
 11
524
 21
31
  0
LINE
  5
CF
100
AcDbEntity
  8
0
  6
ByLayer
 62
  256
370
   -1
100
AcDbLine
 10
472.8491860180964
 20
30.96481540833469
 11
853.0621863096055
 21
46.96841463795946
  0
LINE
  5
D0
100
AcDbEntity
  8
0
  6
ByLayer
 62
  256
370
   -1
100
AcDbLine
 10
853.3253146829275
 20
22.10278335903975
 11
472.8222907572941
 21
30.94133600047732
  0
DIMENSION
  5
D1
100
AcDbEntity
  8
0
  6
ByLayer
 62
  256
370
   -1
100
AcDbDimension
  2
*D5
 10
0
 20
0
 30
0
 11
0
 21
0
 31
0
 70
   34
 71
    5
 72
    0
  3
Standard
 53
0
210
0
220
0
230
1
100
AcDb2LineAngularDimension
 13
853.3253146829275
 23
22.10278335903975
 33
0
 14
472.8222907572941
 24
30.94133600047732
 34
0
 15
1000
 25
0
 35
0
 16
927.8849497500264
 26
4.847883750000138
 36
0
  0
DIMENSION
  5
D2
100
AcDbEntity
  8
0
  6
ByLayer
 62
  256
370
   -1
100
AcDbDimension
  2
*D6
 10
1000
 20
0
 30
0
 11
0
 21
0
 31
0
 70
   34
 71
    5
 72
    0
  3
Standard
 53
0
210
0
220
0
230
1
100
AcDb2LineAngularDimension
 13
472.8491860180964
 23
30.96481540833469
 33
0
 14
853.0621863096055
 24
46.96841463795946
 34
0
 15
0
 25
0
 35
0
 16
910.7370000000255
 26
8.243250000000231
 36
0
  0
LINE
  5
D3
100
AcDbEntity
  8
0
  6
ByLayer
 62
  256
370
   -1
100
AcDbLine
 10
0
 20
25.00206899774734
 11
852.9617416578448
 21
22.11067326331402
  0
DIMENSION
  5
D4
100
AcDbEntity
  8
0
  6
ByLayer
 62
  256
370
   -1
100
AcDbDimension
  2
*D7
 10
0
 20
0
 30
0
 11
0
 21
0
 31
0
 70
   34
 71
    5
 72
    0
  3
Standard
 53
0
210
0
220
0
230
1
100
AcDb2LineAngularDimension
 13
852.9617416578448
 23
22.11067326331402
 33
0
 14
0
 24
25.00206899774734
 34
0
 15
1000
 25
0
 35
0
 16
182.1664339223564
 26
2.089064609201334
 36
0
  0
DIMENSION
  5
D5
100
AcDbEntity
  8
0
  6
ByLayer
 62
  256
370
   -1
100
AcDbDimension
  2
*D8
 10
1000
 20
0
 30
0
 11
0
 21
0
 31
0
 70
   34
 71
    5
 72
    0
  3
Standard
 53
0
210
0
220
0
230
1
100
AcDb2LineAngularDimension
 13
0
 23
25.00000000000025
 33
0
 14
853.400723563152
 24
46.99215405072421
 34
0
 15
0
 25
0
 35
0
 16
190.5226923591617
 26
1.671251687361068
 36
0
  0
DIMENSION
  5
D6
100
AcDbEntity
  8
0
  6
ByLayer
 62
  256
370
   -1
100
AcDbDimension
  2
*D9
 10
402.5945470536665
 20
-0.2198768689533865
 30
0
 11
400.7195470536665
 21
15.50131926121436
 31
0
 70
   32
 71
    5
 72
    0
  3
Standard
 53
0
210
0
220
0
230
1
100
AcDbAlignedDimension
 13
472.9551451187529
 23
31.22251539138211
 33
0
 14
472.9551451187529
 24
-0.2198768689533951
 34
0
 50
90
100
AcDbRotatedDimension
  0
DIMENSION
  5
D7
100
AcDbEntity
  8
0
  6
ByLayer
 62
  256
370
   -1
100
AcDbDimension
  2
*D10
 10
417.5000000000177
 20
0.7500000000000386
 30
0
 11
415.6250000000177
 21
13.00000000000055
 31
0
 70
   32
 71
    5
 72
    0
  3
Standard
 53
0
210
0
220
0
230
1
100
AcDbAlignedDimension
 13
472.5000000000201
 23
25.25000000000107
 33
0
 14
473.2500000000201
 24
0.7500000000000319
 34
0
 50
90
100
AcDbRotatedDimension
  0
DIMENSION
  5
D8
100
AcDbEntity
  8
distances
  6
ByLayer
 62
  256
370
   -1
100
AcDbDimension
  2
*D11
 10
-87.6740645205218
 20
22.00000000000001
 30
0
 11
-92.3615645205218
 21
7.679480544701324e-15
 31
0
 70
   33
 71
    5
  3
Standard
 53
0
210
0
220
0
230
1
100
AcDbAlignedDimension
 13
-22
 23
-22
 33
0
 14
-22
 24
22
 34
0
  0
DIMENSION
  5
D9
100
AcDbEntity
  8
distances
  6
ByLayer
 62
  256
370
   -1
100
AcDbDimension
  2
*D12
 10
22
 20
-62.10246236870294
 30
0
 11
-6.818400764050841e-15
 21
-57.41496236870294
 31
0
 70
   33
 71
    5
  3
Standard
 53
0
210
0
220
0
230
1
100
AcDbAlignedDimension
 13
-22
 23
-22
 33
0
 14
22
 24
-22
 34
0
  0
ENDSEC
  0
SECTION
  2
OBJECTS
  0
DICTIONARY
  5
C
330
0
100
AcDbDictionary
281
    1
  3
ACAD_GROUP
350
D
  0
DICTIONARY
  5
D
330
C
100
AcDbDictionary
281
    1
  0
ENDSEC
  0
EOF
