999
dxfrw 0.6.3
  0
SECTION
  2
HEADER
  9
$ACADVER
  1
AC1021
  9
$DWGCODEPAGE
  3
ANSI_1252
  9
$INSBASE
 10
0
 20
0
 30
0
  9
$EXTMIN
 10
-2.9375
 20
-1.583255058846374
 30
0
  9
$EXTMAX
 10
2.619059788785363
 20
1.708333333333336
 30
0
  9
$LIMMIN
 10
0
 20
0
  9
$LIMMAX
 10
420
 20
297
  9
$ORTHOMODE
 70
    0
  9
$REGENMODE
 70
    1
  9
$FILLMODE
 70
    1
  9
$QTEXTMODE
 70
    0
  9
$MIRRTEXT
 70
    0
  9
$LTSCALE
 40
1
  9
$ATTMODE
 70
    0
  9
$TEXTSIZE
 40
2.5
  9
$TRACEWID
 40
15.68
  9
$TEXTSTYLE
  7
STANDARD
  9
$CLAYER
  8
Al
  9
$CELTYPE
  6
BYLAYER
  9
$CECOLOR
 62
  256
  9
$CELTSCALE
 40
1
  9
$DISPSILH
 70
    0
  9
$DIMSCALE
 40
1
  9
$DIMASZ
 40
0.05
  9
$DIMEXO
 40
0.0625
  9
$DIMDLI
 40
3.75
  9
$DIMRND
 40
0
  9
$DIMDLE
 40
0
  9
$DIMEXE
 40
0.125
  9
$DIMTP
 40
0
  9
$DIMTM
 40
0
  9
$DIMTXT
 40
0.05
  9
$DIMCEN
 40
2.5
  9
$DIMTSZ
 40
0
  9
$DIMTOL
 70
    0
  9
$DIMLIM
 70
    0
  9
$DIMTIH
 70
    0
  9
$DIMTOH
 70
    0
  9
$DIMSE1
 70
    0
  9
$DIMSE2
 70
    0
  9
$DIMTAD
 70
    1
  9
$DIMZIN
 70
    1
  9
$DIMBLK
  1

  9
$DIMASO
 70
    1
  9
$DIMSHO
 70
    1
  9
$DIMPOST
  1

  9
$DIMAPOST
  1

  9
$DIMALT
 70
    0
  9
$DIMALTD
 70
    3
  9
$DIMALTF
 40
0.03937
  9
$DIMLFAC
 40
1
  9
$DIMTOFL
 70
    1
  9
$DIMTVP
 40
0
  9
$DIMTIX
 70
    0
  9
$DIMSOXD
 70
    0
  9
$DIMSAH
 70
    0
  9
$DIMBLK1
  1

  9
$DIMBLK2
  1

  9
$DIMSTYLE
  2
STANDARD
  9
$DIMCLRD
 70
  176
  9
$DIMCLRE
 70
  176
  9
$DIMCLRT
 70
    0
  9
$DIMTFAC
 40
1
  9
$DIMGAP
 40
0.0625
  9
$DIMJUST
 70
    0
  9
$DIMSD1
 70
    0
  9
$DIMSD2
 70
    0
  9
$DIMTOLJ
 70
    0
  9
$DIMTZIN
 70
    8
  9
$DIMALTZ
 70
    0
  9
$DIMALTTZ
 70
    0
  9
$DIMUPT
 70
    0
  9
$DIMDEC
 70
    3
  9
$DIMTDEC
 70
    2
  9
$DIMALTU
 70
    2
  9
$DIMALTTD
 70
    3
  9
$DIMTXSTY
  7
STANDARD
  9
$DIMAUNIT
 70
    0
  9
$DIMADEC
 70
    2
  9
$DIMALTRND
 40
0
  9
$DIMAZIN
 70
    0
  9
$DIMDSEP
 70
    0
  9
$DIMATFIT
 70
    3
  9
$DIMFRAC
 70
    0
  9
$DIMLDRBLK
  1
STANDARD
  9
$DIMLUNIT
 70
    2
  9
$DIMLWD
 70
   -2
  9
$DIMLWE
 70
   -2
  9
$DIMTMOVE
 70
    0
  9
$DIMFXL
 40
1
  9
$DIMFXLON
 70
    0
  9
$DIMJOGANG
 40
0.7854
  9
$DIMTFILL
 70
    0
  9
$DIMTFILLCLR
 70
    0
  9
$DIMARCSYM
 70
    0
  9
$DIMLTYPE
  6

  9
$DIMLTEX1
  6

  9
$DIMLTEX2
  6

  9
$LUNITS
 70
    2
  9
$LUPREC
 70
    3
  9
$SKETCHINC
 40
1
  9
$FILLETRAD
 40
0
  9
$AUNITS
 70
    0
  9
$AUPREC
 70
    2
  9
$MENU
  1
.
  9
$ELEVATION
 40
0
  9
$PELEVATION
 40
0
  9
$THICKNESS
 40
0
  9
$LIMCHECK
 70
    0
  9
$CHAMFERA
 40
0
  9
$CHAMFERB
 40
0
  9
$CHAMFERC
 40
0
  9
$CHAMFERD
 40
0
  9
$SKPOLY
 70
    0
  9
$USRTIMER
 70
    1
  9
$ANGBASE
 50
0
  9
$ANGDIR
 70
    0
  9
$PDMODE
 70
   34
  9
$PDSIZE
 40
0
  9
$PLINEWID
 40
0
  9
$SPLFRAME
 70
    0
  9
$SPLINETYPE
 70
    2
  9
$SPLINESEGS
 70
    8
  9
$HANDSEED
  5
20000
  9
$SURFTAB1
 70
    6
  9
$SURFTAB2
 70
    6
  9
$SURFTYPE
 70
    6
  9
$SURFU
 70
    6
  9
$SURFV
 70
    6
  9
$UCSBASE
  2

  9
$UCSNAME
  2

  9
$UCSORG
 10
0
 20
0
 30
0
  9
$UCSXDIR
 10
1
 20
0
 30
0
  9
$UCSYDIR
 10
0
 20
1
 30
0
  9
$UCSORTHOREF
  2

  9
$UCSORTHOVIEW
 70
    0
  9
$UCSORGTOP
 10
0
 20
0
 30
0
  9
$UCSORGBOTTOM
 10
0
 20
0
 30
0
  9
$UCSORGLEFT
 10
0
 20
0
 30
0
  9
$UCSORGRIGHT
 10
0
 20
0
 30
0
  9
$UCSORGFRONT
 10
0
 20
0
 30
0
  9
$UCSORGBACK
 10
0
 20
0
 30
0
  9
$PUCSBASE
  2

  9
$PUCSNAME
  2

  9
$PUCSORG
 10
0
 20
0
 30
0
  9
$PUCSXDIR
 10
1
 20
0
 30
0
  9
$PUCSYDIR
 10
0
 20
1
 30
0
  9
$PUCSORTHOREF
  2

  9
$PUCSORTHOVIEW
 70
    0
  9
$PUCSORGTOP
 10
0
 20
0
 30
0
  9
$PUCSORGBOTTOM
 10
0
 20
0
 30
0
  9
$PUCSORGLEFT
 10
0
 20
0
 30
0
  9
$PUCSORGRIGHT
 10
0
 20
0
 30
0
  9
$PUCSORGFRONT
 10
0
 20
0
 30
0
  9
$PUCSORGBACK
 10
0
 20
0
 30
0
  9
$USERI1
 70
    0
  9
$USERI2
 70
    0
  9
$USERI3
 70
    0
  9
$USERI4
 70
    0
  9
$USERI5
 70
    0
  9
$USERR1
 40
0
  9
$USERR2
 40
0
  9
$USERR3
 40
0
  9
$USERR4
 40
0
  9
$USERR5
 40
0
  9
$WORLDVIEW
 70
    1
  9
$SHADEDGE
 70
    3
  9
$SHADEDIF
 70
   70
  9
$TILEMODE
 70
    1
  9
$MAXACTVP
 70
   64
  9
$PINSBASE
 10
5.786995644774604
 20
4.137272653485695
 30
0
  9
$PLIMCHECK
 70
    0
  9
$PEXTMIN
 10
0
 20
0
 30
0
  9
$PEXTMAX
 10
0
 20
0
 30
0
  9
$SNAPSTYLE
 70
    0
  9
$PLIMMIN
 10
0
 20
0
  9
$PLIMMAX
 10
297
 20
210
  9
$UNITMODE
 70
    0
  9
$VISRETAIN
 70
    1
  9
$PLINEGEN
 70
    0
  9
$PSLTSCALE
 70
    1
  9
$TREEDEPTH
 70
 3020
  9
$CMLSTYLE
  2
Standard
  9
$CMLJUST
 70
    0
  9
$CMLSCALE
 40
20
  9
$PROXYGRAPHICS
 70
    1
  9
$MEASUREMENT
 70
    1
  9
$CELWEIGHT
370
   -1
  9
$ENDCAPS
280
    0
  9
$JOINSTYLE
280
    0
  9
$LWDISPLAY
290
    0
  9
$INSUNITS
 70
    1
  9
$HYPERLINKBASE
  1

  9
$STYLESHEET
  1

  9
$XEDIT
290
    1
  9
$CEPSNTYPE
380
    0
  9
$PSTYLEMODE
290
    1
  9
$EXTNAMES
290
    1
  9
$PSVPSCALE
 40
0
  9
$OLESTARTUP
290
    0
  9
$SORTENTS
280
  127
  9
$INDEXCTL
280
    0
  9
$HIDETEXT
280
    1
  9
$XCLIPFRAME
290
    0
  9
$HALOGAP
280
    0
  9
$OBSCOLOR
 70
  257
  9
$OBSLTYPE
280
    0
  9
$INTERSECTIONDISPLAY
280
    0
  9
$INTERSECTIONCOLOR
 70
  257
  9
$DIMASSOC
280
    1
  9
$PROJECTNAME
  1

  9
$CAMERADISPLAY
290
    0
  9
$LENSLENGTH
 40
50
  9
$CAMERAHEIGHT
 40
0
  9
$STEPSPERSEC
 40
2
  9
$STEPSIZE
 40
50
  9
$3DDWFPREC
 40
2
  9
$PSOLWIDTH
 40
5
  9
$PSOLHEIGHT
 40
80
  9
$LOFTANG1
 40
1.570796326794897
  9
$LOFTANG2
 40
1.570796326794897
  9
$LOFTMAG1
 40
0
  9
$LOFTMAG2
 40
0
  9
$LOFTPARAM
 70
    7
  9
$LOFTNORMALS
280
    1
  9
$LATITUDE
 40
1
  9
$LONGITUDE
 40
1
  9
$NORTHDIRECTION
 40
0
  9
$TIMEZONE
 70
-8000
  9
$LIGHTGLYPHDISPLAY
280
    1
  9
$TILEMODELIGHTSYNCH
280
    1
  9
$SOLIDHIST
280
    1
  9
$SHOWHIST
280
    1
  9
$DWFFRAME
280
    2
  9
$DGNFRAME
280
    0
  9
$REALWORLDSCALE
290
    1
  9
$INTERFERECOLOR
 62
    1
  9
$CSHADOW
280
    0
  9
$SHADOWPLANELOCATION
 40
0
  0
ENDSEC
  0
SECTION
  2
CLASSES
  0
ENDSEC
  0
SECTION
  2
TABLES
  0
TABLE
  2
VPORT
  5
8
330
0
100
AcDbSymbolTable
 70
    1
  0
VPORT
  5
31
330
2
100
AcDbSymbolTableRecord
100
AcDbViewportTableRecord
  2
*ACTIVE
 70
    0
 10
0
 20
0
 11
1
 21
1
 12
1.524052655068574
 22
1.578973471467442
 13
0
 23
0
 14
10
 24
10
 15
10
 25
10
 16
0
 26
0
 36
1
 17
0
 27
0
 37
0
 40
5.444025925537746
 41
1.470365699873897
 42
50
 43
0
 44
0
 50
0
 51
0
 71
    0
 72
  100
 73
    1
 74
    3
 75
    0
 76
    1
 77
    0
 78
    0
281
    0
 65
    1
110
0
120
0
130
0
111
1
121
0
131
0
112
0
122
1
132
0
 79
    0
146
0
348
10020
 60
    7
 61
    5
292
1
282
    1
141
0
142
0
 63
  250
421
3358443
  0
ENDTAB
  0
TABLE
  2
LTYPE
  5
5
330
0
100
AcDbSymbolTable
 70
    4
  0
LTYPE
  5
14
330
5
100
AcDbSymbolTableRecord
100
AcDbLinetypeTableRecord
  2
ByBlock
 70
    0
  3

 72
   65
 73
    0
 40
0
  0
LTYPE
  5
15
330
5
100
AcDbSymbolTableRecord
100
AcDbLinetypeTableRecord
  2
ByLayer
 70
    0
  3

 72
   65
 73
    0
 40
0
  0
LTYPE
  5
16
330
5
100
AcDbSymbolTableRecord
100
AcDbLinetypeTableRecord
  2
Continuous
 70
    0
  3
Solid line
 72
   65
 73
    0
 40
0
  0
LTYPE
  5
32
330
5
100
AcDbSymbolTableRecord
100
AcDbLinetypeTableRecord
  2
DOT
 70
    0
  3
Dot . . . . . . . . . . . . . . . . . . . . . .
 72
   65
 73
    2
 40
6.35
 49
0
 74
    0
 49
-6.35
 74
    0
  0
LTYPE
  5
33
330
5
100
AcDbSymbolTableRecord
100
AcDbLinetypeTableRecord
  2
DOTTINY
 70
    0
  3
Dot (.15x) .....................................
 72
   65
 73
    2
 40
0.9525
 49
0
 74
    0
 49
-0.9525
 74
    0
  0
LTYPE
  5
34
330
5
100
AcDbSymbolTableRecord
100
AcDbLinetypeTableRecord
  2
DOT2
 70
    0
  3
Dot (.5x) .....................................
 72
   65
 73
    2
 40
3.175
 49
0
 74
    0
 49
-3.175
 74
    0
  0
LTYPE
  5
35
330
5
100
AcDbSymbolTableRecord
100
AcDbLinetypeTableRecord
  2
DOTX2
 70
    0
  3
Dot (2x) .  .  .  .  .  .  .  .  .  .  .  .  .
 72
   65
 73
    2
 40
12.7
 49
0
 74
    0
 49
-12.7
 74
    0
  0
LTYPE
  5
36
330
5
100
AcDbSymbolTableRecord
100
AcDbLinetypeTableRecord
  2
DASHED
 70
    0
  3
Dashed _ _ _ _ _ _ _ _ _ _ _ _ _ _ _ _ _
 72
   65
 73
    2
 40
19.05
 49
12.7
 74
    0
 49
-6.35
 74
    0
  0
LTYPE
  5
37
330
5
100
AcDbSymbolTableRecord
100
AcDbLinetypeTableRecord
  2
DASHEDTINY
 70
    0
  3
Dashed (.15x) _ _ _ _ _ _ _ _ _ _ _ _ _ _ _ _ _
 72
   65
 73
    2
 40
2.8575
 49
1.905
 74
    0
 49
-0.9525
 74
    0
  0
LTYPE
  5
38
330
5
100
AcDbSymbolTableRecord
100
AcDbLinetypeTableRecord
  2
DASHED2
 70
    0
  3
Dashed (.5x) _ _ _ _ _ _ _ _ _ _ _ _ _ _ _ _ _
 72
   65
 73
    2
 40
9.524999999999999
 49
6.35
 74
    0
 49
-3.175
 74
    0
  0
LTYPE
  5
39
330
5
100
AcDbSymbolTableRecord
100
AcDbLinetypeTableRecord
  2
DASHEDX2
 70
    0
  3
Dashed (2x) ____  ____  ____  ____  ____  ___
 72
   65
 73
    2
 40
38.09999999999999
 49
25.4
 74
    0
 49
-12.7
 74
    0
  0
LTYPE
  5
3A
330
5
100
AcDbSymbolTableRecord
100
AcDbLinetypeTableRecord
  2
DASHDOT
 70
    0
  3
Dash dot __ . __ . __ . __ . __ . __ . __ . __
 72
   65
 73
    4
 40
25.4
 49
12.7
 74
    0
 49
-6.35
 74
    0
 49
0
 74
    0
 49
-6.35
 74
    0
  0
LTYPE
  5
3B
330
5
100
AcDbSymbolTableRecord
100
AcDbLinetypeTableRecord
  2
DASHDOTTINY
 70
    0
  3
Dash dot (.15x) _._._._._._._._._._._._._._._.
 72
   65
 73
    4
 40
3.81
 49
1.905
 74
    0
 49
-0.9525
 74
    0
 49
0
 74
    0
 49
-0.9525
 74
    0
  0
LTYPE
  5
3C
330
5
100
AcDbSymbolTableRecord
100
AcDbLinetypeTableRecord
  2
DASHDOT2
 70
    0
  3
Dash dot (.5x) _._._._._._._._._._._._._._._.
 72
   65
 73
    4
 40
12.7
 49
6.35
 74
    0
 49
-3.175
 74
    0
 49
0
 74
    0
 49
-3.175
 74
    0
  0
LTYPE
  5
3D
330
5
100
AcDbSymbolTableRecord
100
AcDbLinetypeTableRecord
  2
DASHDOTX2
 70
    0
  3
Dash dot (2x) ____  .  ____  .  ____  .  ___
 72
   65
 73
    4
 40
50.8
 49
25.4
 74
    0
 49
-12.7
 74
    0
 49
0
 74
    0
 49
-12.7
 74
    0
  0
LTYPE
  5
3E
330
5
100
AcDbSymbolTableRecord
100
AcDbLinetypeTableRecord
  2
DIVIDE
 70
    0
  3
Divide ____ . . ____ . . ____ . . ____ . . ____
 72
   65
 73
    6
 40
31.75
 49
12.7
 74
    0
 49
-6.35
 74
    0
 49
0
 74
    0
 49
-6.35
 74
    0
 49
0
 74
    0
 49
-6.35
 74
    0
  0
LTYPE
  5
3F
330
5
100
AcDbSymbolTableRecord
100
AcDbLinetypeTableRecord
  2
DIVIDETINY
 70
    0
  3
Divide (.15x) __..__..__..__..__..__..__..__.._
 72
   65
 73
    6
 40
4.7625
 49
1.905
 74
    0
 49
-0.9525
 74
    0
 49
0
 74
    0
 49
-0.9525
 74
    0
 49
0
 74
    0
 49
-0.9525
 74
    0
  0
LTYPE
  5
40
330
5
100
AcDbSymbolTableRecord
100
AcDbLinetypeTableRecord
  2
DIVIDE2
 70
    0
  3
Divide (.5x) __..__..__..__..__..__..__..__.._
 72
   65
 73
    6
 40
15.875
 49
6.35
 74
    0
 49
-3.175
 74
    0
 49
0
 74
    0
 49
-3.175
 74
    0
 49
0
 74
    0
 49
-3.175
 74
    0
  0
LTYPE
  5
41
330
5
100
AcDbSymbolTableRecord
100
AcDbLinetypeTableRecord
  2
DIVIDEX2
 70
    0
  3
Divide (2x) ________  .  .  ________  .  .  _
 72
   65
 73
    6
 40
63.5
 49
25.4
 74
    0
 49
-12.7
 74
    0
 49
0
 74
    0
 49
-12.7
 74
    0
 49
0
 74
    0
 49
-12.7
 74
    0
  0
LTYPE
  5
42
330
5
100
AcDbSymbolTableRecord
100
AcDbLinetypeTableRecord
  2
BORDER
 70
    0
  3
Border __ __ . __ __ . __ __ . __ __ . __ __ .
 72
   65
 73
    6
 40
44.45
 49
12.7
 74
    0
 49
-6.35
 74
    0
 49
12.7
 74
    0
 49
-6.35
 74
    0
 49
0
 74
    0
 49
-6.35
 74
    0
  0
LTYPE
  5
43
330
5
100
AcDbSymbolTableRecord
100
AcDbLinetypeTableRecord
  2
BORDERTINY
 70
    0
  3
Border (.15x) __.__.__.__.__.__.__.__.__.__.__.
 72
   65
 73
    6
 40
6.6675
 49
1.905
 74
    0
 49
-0.9525
 74
    0
 49
1.905
 74
    0
 49
-0.9525
 74
    0
 49
0
 74
    0
 49
-0.9525
 74
    0
  0
LTYPE
  5
44
330
5
100
AcDbSymbolTableRecord
100
AcDbLinetypeTableRecord
  2
BORDER2
 70
    0
  3
Border (.5x) __.__.__.__.__.__.__.__.__.__.__.
 72
   65
 73
    6
 40
22.225
 49
6.35
 74
    0
 49
-3.175
 74
    0
 49
6.35
 74
    0
 49
-3.175
 74
    0
 49
0
 74
    0
 49
-3.175
 74
    0
  0
LTYPE
  5
45
330
5
100
AcDbSymbolTableRecord
100
AcDbLinetypeTableRecord
  2
BORDERX2
 70
    0
  3
Border (2x) ____  ____  .  ____  ____  .  ___
 72
   65
 73
    6
 40
88.89999999999999
 49
25.4
 74
    0
 49
-12.7
 74
    0
 49
25.4
 74
    0
 49
-12.7
 74
    0
 49
0
 74
    0
 49
-12.7
 74
    0
  0
LTYPE
  5
46
330
5
100
AcDbSymbolTableRecord
100
AcDbLinetypeTableRecord
  2
CENTER
 70
    0
  3
Center ____ _ ____ _ ____ _ ____ _ ____ _ ____
 72
   65
 73
    4
 40
50.8
 49
31.75
 74
    0
 49
-6.35
 74
    0
 49
6.35
 74
    0
 49
-6.35
 74
    0
  0
LTYPE
  5
47
330
5
100
AcDbSymbolTableRecord
100
AcDbLinetypeTableRecord
  2
CENTERTINY
 70
    0
  3
Center (.15x) ___ _ ___ _ ___ _ ___ _ ___ _ ___
 72
   65
 73
    4
 40
7.619999999999999
 49
4.7625
 74
    0
 49
-0.9525
 74
    0
 49
0.9525
 74
    0
 49
-0.9525
 74
    0
  0
LTYPE
  5
48
330
5
100
AcDbSymbolTableRecord
100
AcDbLinetypeTableRecord
  2
CENTER2
 70
    0
  3
Center (.5x) ___ _ ___ _ ___ _ ___ _ ___ _ ___
 72
   65
 73
    4
 40
28.575
 49
19.05
 74
    0
 49
-3.175
 74
    0
 49
3.175
 74
    0
 49
-3.175
 74
    0
  0
LTYPE
  5
49
330
5
100
AcDbSymbolTableRecord
100
AcDbLinetypeTableRecord
  2
CENTERX2
 70
    0
  3
Center (2x) ________  __  ________  __  _____
 72
   65
 73
    4
 40
101.6
 49
63.5
 74
    0
 49
-12.7
 74
    0
 49
12.7
 74
    0
 49
-12.7
 74
    0
  0
ENDTAB
  0
TABLE
  2
LAYER
  5
2
330
0
100
AcDbSymbolTable
 70
    1
  0
LAYER
  5
10
330
2
100
AcDbSymbolTableRecord
100
AcDbLayerTableRecord
  2
0
 70
    0
 62
    7
  6
CONTINUOUS
370
    0
390
F
  0
LAYER
  5
4A
330
2
100
AcDbSymbolTableRecord
100
AcDbLayerTableRecord
  2
Al
 70
    0
 62
    7
  6
CONTINUOUS
370
    0
390
F
  0
LAYER
  5
4B
330
2
100
AcDbSymbolTableRecord
100
AcDbLayerTableRecord
  2
Steel
 70
    0
 62
    7
  6
CONTINUOUS
370
    0
390
F
  0
ENDTAB
  0
TABLE
  2
STYLE
  5
3
330
0
100
AcDbSymbolTable
 70
    3
  0
STYLE
  5
4C
330
2
100
AcDbSymbolTableRecord
100
AcDbTextStyleTableRecord
  2
Standard
 70
    0
 40
0
 41
1
 50
0
 71
    0
 42
1
  3
txt
  4

  0
ENDTAB
  0
TABLE
  2
VIEW
  5
6
330
0
100
AcDbSymbolTable
 70
    0
  0
ENDTAB
  0
TABLE
  2
UCS
  5
7
330
0
100
AcDbSymbolTable
 70
    0
  0
ENDTAB
  0
TABLE
  2
APPID
  5
9
330
0
100
AcDbSymbolTable
 70
    1
  0
APPID
  5
12
330
9
100
AcDbSymbolTableRecord
100
AcDbRegAppTableRecord
  2
ACAD
 70
    0
  0
APPID
  5
4D
330
9
100
AcDbSymbolTableRecord
100
AcDbRegAppTableRecord
  2
LibreCad
 70
    0
  0
ENDTAB
  0
TABLE
  2
DIMSTYLE
  5
A
330
0
100
AcDbSymbolTable
 70
    1
100
AcDbDimStyleTable
 71
    1
  0
DIMSTYLE
105
4E
330
A
100
AcDbSymbolTableRecord
100
AcDbDimStyleTableRecord
  2
Standard
 70
    0
 40
1
 41
0.05
 42
0.0625
 43
0.38
 44
0.125
 45
0
 46
0
 47
0
 48
0
 49
1
140
0.05
141
0.09
142
0
143
25.4
144
1
145
0
146
1
147
0.0625
148
0
 71
    0
 72
    0
 73
    0
 74
    1
 75
    0
 76
    0
 77
    0
 78
    1
 79
    0
170
    0
171
    2
172
    0
173
    0
174
    0
175
    0
176
  176
177
  176
178
  176
179
    2
271
    3
272
    4
273
    2
274
    2
275
    0
276
    0
277
    2
278
    0
279
    0
280
    0
281
    0
282
    0
283
    1
284
    0
285
    0
286
    0
288
    0
289
    3
340
standard
341

371
   -2
372
   -2
  0
ENDTAB
  0
TABLE
  2
BLOCK_RECORD
  5
1
330
0
100
AcDbSymbolTable
 70
    2
  0
BLOCK_RECORD
  5
1F
330
1
100
AcDbSymbolTableRecord
100
AcDbBlockTableRecord
  2
*Model_Space
 70
    0
280
    1
281
    0
  0
BLOCK_RECORD
  5
1E
330
1
100
AcDbSymbolTableRecord
100
AcDbBlockTableRecord
  2
*Paper_Space
 70
    0
280
    1
281
    0
  0
BLOCK_RECORD
  5
4F
330
1
100
AcDbSymbolTableRecord
100
AcDbBlockTableRecord
  2
*D6
 70
    0
280
    1
281
    0
  0
BLOCK_RECORD
  5
52
330
1
100
AcDbSymbolTableRecord
100
AcDbBlockTableRecord
  2
*D15
 70
    0
280
    1
281
    0
  0
BLOCK_RECORD
  5
55
330
1
100
AcDbSymbolTableRecord
100
AcDbBlockTableRecord
  2
*D10
 70
    0
280
    1
281
    0
  0
BLOCK_RECORD
  5
58
330
1
100
AcDbSymbolTableRecord
100
AcDbBlockTableRecord
  2
*D5
 70
    0
280
    1
281
    0
  0
BLOCK_RECORD
  5
5B
330
1
100
AcDbSymbolTableRecord
100
AcDbBlockTableRecord
  2
*D7
 70
    0
280
    1
281
    0
  0
BLOCK_RECORD
  5
5E
330
1
100
AcDbSymbolTableRecord
100
AcDbBlockTableRecord
  2
*D14
 70
    0
280
    1
281
    0
  0
BLOCK_RECORD
  5
61
330
1
100
AcDbSymbolTableRecord
100
AcDbBlockTableRecord
  2
*D11
 70
    0
280
    1
281
    0
  0
BLOCK_RECORD
  5
64
330
1
100
AcDbSymbolTableRecord
100
AcDbBlockTableRecord
  2
*D13
 70
    0
280
    1
281
    0
  0
BLOCK_RECORD
  5
67
330
1
100
AcDbSymbolTableRecord
100
AcDbBlockTableRecord
  2
*D4
 70
    0
280
    1
281
    0
  0
BLOCK_RECORD
  5
6A
330
1
100
AcDbSymbolTableRecord
100
AcDbBlockTableRecord
  2
*D9
 70
    0
280
    1
281
    0
  0
BLOCK_RECORD
  5
6D
330
1
100
AcDbSymbolTableRecord
100
AcDbBlockTableRecord
  2
*D8
 70
    0
280
    1
281
    0
  0
BLOCK_RECORD
  5
70
330
1
100
AcDbSymbolTableRecord
100
AcDbBlockTableRecord
  2
*D2
 70
    0
280
    1
281
    0
  0
BLOCK_RECORD
  5
73
330
1
100
AcDbSymbolTableRecord
100
AcDbBlockTableRecord
  2
*D1
 70
    0
280
    1
281
    0
  0
BLOCK_RECORD
  5
76
330
1
100
AcDbSymbolTableRecord
100
AcDbBlockTableRecord
  2
*D12
 70
    0
280
    1
281
    0
  0
BLOCK_RECORD
  5
79
330
1
100
AcDbSymbolTableRecord
100
AcDbBlockTableRecord
  2
*D16
 70
    0
280
    1
281
    0
  0
BLOCK_RECORD
  5
7C
330
1
100
AcDbSymbolTableRecord
100
AcDbBlockTableRecord
  2
*D3
 70
    0
280
    1
281
    0
  0
ENDTAB
  0
ENDSEC
  0
SECTION
  2
BLOCKS
  0
BLOCK
  5
20
330
1F
100
AcDbEntity
  8
0
100
AcDbBlockBegin
  2
*Model_Space
 70
    0
 10
0
 20
0
 30
0
  3
*Model_Space
  1

  0
ENDBLK
  5
21
330
1F
100
AcDbEntity
  8
0
100
AcDbBlockEnd
  0
BLOCK
  5
1C
330
1B
100
AcDbEntity
  8
0
100
AcDbBlockBegin
  2
*Paper_Space
 70
    0
 10
0
 20
0
 30
0
  3
*Paper_Space
  1

  0
ENDBLK
  5
1D
330
1F
100
AcDbEntity
  8
0
100
AcDbBlockEnd
  0
BLOCK
  5
50
330
4F
100
AcDbEntity
  8
0
100
AcDbBlockBegin
  2
*D6
 70
    1
 10
0
 20
0
  3
*D6
  1

  0
LINE
  5
7F
100
AcDbEntity
  8
Al
  6
ByBlock
 62
  176
370
   -2
100
AcDbLine
 10
0.177938093507983
 20
0.6640740055737344
 11
0.3182335398618647
 21
1.187663739436975
  0
LINE
  5
80
100
AcDbEntity
  8
Al
  6
ByBlock
 62
  176
370
   -2
100
AcDbLine
 10
0.6875
 20
0
 11
1.229559979775867
 21
0
  0
ARC
  5
81
100
AcDbEntity
  8
Al
  6
ByBlock
 62
  176
370
   -2
100
AcDbCircle
 10
0
 20
0
 40
1.104559979775867
100
AcDbArc
 50
0
 51
75
  0
SOLID
  5
82
100
AcDbEntity
  8
Al
  6
ByBlock
 62
  176
370
   -2
100
AcDbTrace
 10
0.2858811592240496
 20
1.066923011150841
 30
0
 11
0.3362085060013885
 21
1.060883529975086
 31
0
 12
0.3315359085427237
 22
1.044901180364827
 32
0
 13
0.3315359085427237
 23
1.044901180364827
 33
0
  0
SOLID
  5
83
100
AcDbEntity
  8
Al
  6
ByBlock
 62
  176
370
   -2
100
AcDbTrace
 10
1.104559979775867
 20
0
 30
0
 11
1.095104843300543
 21
0.04979877067510605
 31
0
 12
1.111751964766273
 22
0.0501756167716611
 32
0
 13
1.111751964766273
 23
0.0501756167716611
 33
0
  0
MTEXT
  5
84
100
AcDbEntity
  8
Al
  6
CONTINUOUS
 62
  176
370
   -2
100
AcDbMText
 10
0.9258909332754057
 20
0.7104611010272457
 30
0
 40
0.05
 41
0.188888888888892
 71
    8
 72
    1
  1
75.00%%D
  7
standard
210
0
220
0
230
1
 50
307.5
 73
    2
 44
1
  0
ENDBLK
  5
51
330
4F
100
AcDbEntity
  8
0
100
AcDbBlockEnd
  0
BLOCK
  5
53
330
52
100
AcDbEntity
  8
0
100
AcDbBlockBegin
  2
*D15
 70
    1
 10
0
 20
0
  3
*D15
  1

  0
LINE
  5
85
100
AcDbEntity
  8
Al
  6
ByBlock
 62
  176
370
   -2
100
AcDbLine
 10
-2.044194173824159
 20
0.04419417382415922
 11
-2.768222748321769
 21
0.7682227483217691
  0
LINE
  5
86
100
AcDbEntity
  8
Al
  6
ByBlock
 62
  176
370
   -2
100
AcDbLine
 10
-1.602252435582567
 20
0.4861359120657514
 11
-2.326281010080177
 21
1.210164486563361
  0
LINE
  5
87
100
AcDbEntity
  8
Al
  6
ByBlock
 62
  176
370
   -2
100
AcDbLine
 10
-2.67983440067345
 20
0.6798344006734506
 11
-2.237892662431858
 21
1.121776138915043
  0
SOLID
  5
88
100
AcDbEntity
  8
Al
  6
ByBlock
 62
  176
370
   -2
100
AcDbTrace
 10
-2.67983440067345
 20
0.6798344006734506
 30
0
 11
-2.650366215702425
 21
0.7210768938210799
 31
0
 12
-2.638591907525821
 22
0.709302585644476
 32
0
 13
-2.638591907525821
 23
0.709302585644476
 33
0
  0
SOLID
  5
89
100
AcDbEntity
  8
Al
  6
ByBlock
 62
  176
370
   -2
100
AcDbTrace
 10
-2.237892662431858
 20
1.121776138915043
 30
0
 11
-2.267360847402884
 21
1.080533645767413
 31
0
 12
-2.279135155579488
 22
1.092307953944017
 32
0
 13
-2.279135155579488
 23
1.092307953944017
 33
0
  0
MTEXT
  5
8A
100
AcDbEntity
  8
Al
  6
CONTINUOUS
 62
  176
370
   -2
100
AcDbMText
 10
-2.520735374906478
 20
0.9626771131480697
 30
0
 40
0.05
 41
0.1555555555555618
 71
    5
 72
    1
  1
0.625
  7
standard
210
0
220
0
230
1
 50
45
 73
    2
 44
1
  0
ENDBLK
  5
54
330
52
100
AcDbEntity
  8
0
100
AcDbBlockEnd
  0
BLOCK
  5
56
330
55
100
AcDbEntity
  8
0
100
AcDbBlockBegin
  2
*D10
 70
    1
 10
0
 20
0
  3
*D10
  1

  0
LINE
  5
8B
100
AcDbEntity
  8
Al
  6
ByBlock
 62
  176
370
   -2
100
AcDbLine
 10
1.946079235538684
 20
0.3749999999999998
 11
2.187912380247719
 21
0.3749999999999997
  0
LINE
  5
8C
100
AcDbEntity
  8
Al
  6
ByBlock
 62
  176
370
   -2
100
AcDbLine
 10
1.946079235538684
 20
-0.3750000000000002
 11
2.187912380247719
 21
-0.3750000000000003
  0
LINE
  5
8D
100
AcDbEntity
  8
Al
  6
ByBlock
 62
  176
370
   -2
100
AcDbLine
 10
2.062912380247719
 20
0.3749999999999997
 11
2.062912380247719
 21
-0.3750000000000003
  0
SOLID
  5
8E
100
AcDbEntity
  8
Al
  6
ByBlock
 62
  176
370
   -2
100
AcDbTrace
 10
2.062912380247719
 20
0.3749999999999997
 30
0
 11
2.071238073403175
 21
0.3249999999999997
 31
0
 12
2.054586687092262
 22
0.3249999999999997
 32
0
 13
2.054586687092262
 23
0.3249999999999997
 33
0
  0
SOLID
  5
8F
100
AcDbEntity
  8
Al
  6
ByBlock
 62
  176
370
   -2
100
AcDbTrace
 10
2.062912380247719
 20
-0.3750000000000003
 30
0
 11
2.054586687092262
 21
-0.3250000000000003
 31
0
 12
2.071238073403175
 22
-0.3250000000000003
 32
0
 13
2.071238073403175
 23
-0.3250000000000003
 33
0
  0
MTEXT
  5
90
100
AcDbEntity
  8
Al
  6
CONTINUOUS
 62
  176
370
   -2
100
AcDbMText
 10
1.975412380247719
 20
-2.668400966637498e-16
 30
0
 40
0.05
 41
0.1555555555555587
 71
    5
 72
    1
  1
0.750
  7
standard
210
0
220
0
230
1
 50
90
 73
    2
 44
1
  0
ENDBLK
  5
57
330
55
100
AcDbEntity
  8
0
100
AcDbBlockEnd
  0
BLOCK
  5
59
330
58
100
AcDbEntity
  8
0
100
AcDbBlockBegin
  2
*D5
 70
    1
 10
0
 20
0
  3
*D5
  1

  0
LINE
  5
91
100
AcDbEntity
  8
Al
  6
ByBlock
 62
  176
370
   -2
100
AcDbLine
 10
0.1066368576428091
 20
0.4577934441808267
 11
-0.5066368576428093
 21
-0.4577934441808267
  0
SOLID
  5
92
100
AcDbEntity
  8
Al
  6
ByBlock
 62
  176
370
   -2
100
AcDbTrace
 10
0.1066368576428091
 20
0.4577934441808267
 30
0
 11
0.08572869949886874
 21
0.4116180601591772
 31
0
 12
0.07189404343778233
 22
0.4208847185507835
 32
0
 13
0.07189404343778233
 23
0.4208847185507835
 33
0
  0
SOLID
  5
93
100
AcDbEntity
  8
Al
  6
ByBlock
 62
  176
370
   -2
100
AcDbTrace
 10
-0.5066368576428093
 20
-0.4577934441808267
 30
0
 11
-0.4857286994988689
 21
-0.4116180601591772
 31
0
 12
-0.4718940434377825
 22
-0.4208847185507835
 32
0
 13
-0.4718940434377825
 23
-0.4208847185507835
 33
0
  0
MTEXT
  5
94
100
AcDbEntity
  8
Al
  6
CONTINUOUS
 62
  176
370
   -2
100
AcDbMText
 10
-0.2726985959452312
 20
0.04869460080534627
 30
0
 40
0.05
 41
0.1333333333333333
 71
    5
 72
    1
  1
1.102
  7
standard
210
0
220
0
230
1
 50
56.18523613508493
 73
    2
 44
1
  0
ENDBLK
  5
5A
330
58
100
AcDbEntity
  8
0
100
AcDbBlockEnd
  0
BLOCK
  5
5C
330
5B
100
AcDbEntity
  8
0
100
AcDbBlockBegin
  2
*D7
 70
    1
 10
0
 20
0
  3
*D7
  1

  0
LINE
  5
95
100
AcDbEntity
  8
Al
  6
ByBlock
 62
  176
370
   -2
100
AcDbLine
 10
0.6875
 20
0
 11
1.551670896292611
 21
0
  0
LINE
  5
96
100
AcDbEntity
  8
Al
  6
ByBlock
 62
  176
370
   -2
100
AcDbLine
 10
0.4861359120657515
 20
0.4861359120657514
 11
1.097197012938314
 21
1.097197012938313
  0
ARC
  5
97
100
AcDbEntity
  8
Al
  6
ByBlock
 62
  176
370
   -2
100
AcDbCircle
 10
0
 20
0
 40
1.426670896292611
100
AcDbArc
 50
0
 51
45
  0
SOLID
  5
98
100
AcDbEntity
  8
Al
  6
ByBlock
 62
  176
370
   -2
100
AcDbTrace
 10
1.426670896292611
 20
0
 30
0
 11
1.417470360587855
 21
0.04984643727754606
 31
0
 12
1.434119190422878
 22
0.05013820979121462
 32
0
 13
1.434119190422878
 23
0.05013820979121462
 33
0
  0
SOLID
  5
99
100
AcDbEntity
  8
Al
  6
ByBlock
 62
  176
370
   -2
100
AcDbTrace
 10
1.008808665289995
 20
1.008808665289995
 30
0
 11
1.049528472717701
 21
0.9786223364378573
 31
0
 12
1.037549657919556
 22
0.9670561502856706
 32
0
 13
1.037549657919556
 23
0.9670561502856706
 33
0
  0
MTEXT
  5
9A
100
AcDbEntity
  8
Al
  6
CONTINUOUS
 62
  176
370
   -2
100
AcDbMText
 10
1.375814511496231
 20
0.5698810299714536
 30
0
 40
0.05
 41
0.1944444444444476
 71
    8
 72
    1
  1
45.00%%D
  7
standard
210
0
220
0
230
1
 50
292.5000000000001
 73
    2
 44
1
  0
ENDBLK
  5
5D
330
5B
100
AcDbEntity
  8
0
100
AcDbBlockEnd
  0
BLOCK
  5
5F
330
5E
100
AcDbEntity
  8
0
100
AcDbBlockBegin
  2
*D14
 70
    1
 10
0
 20
0
  3
*D14
  1

  0
LINE
  5
9B
100
AcDbEntity
  8
Al
  6
ByBlock
 62
  176
370
   -2
100
AcDbLine
 10
-1.893363142357191
 20
0.4577934441808267
 11
-2.50663685764281
 21
-0.4577934441808267
  0
SOLID
  5
9C
100
AcDbEntity
  8
Al
  6
ByBlock
 62
  176
370
   -2
100
AcDbTrace
 10
-1.893363142357191
 20
0.4577934441808267
 30
0
 11
-1.914271300501131
 21
0.4116180601591772
 31
0
 12
-1.928105956562218
 22
0.4208847185507835
 32
0
 13
-1.928105956562218
 23
0.4208847185507835
 33
0
  0
SOLID
  5
9D
100
AcDbEntity
  8
Al
  6
ByBlock
 62
  176
370
   -2
100
AcDbTrace
 10
-2.50663685764281
 20
-0.4577934441808267
 30
0
 11
-2.485728699498869
 21
-0.4116180601591772
 31
0
 12
-2.471894043437783
 22
-0.4208847185507835
 32
0
 13
-2.471894043437783
 23
-0.4208847185507835
 33
0
  0
MTEXT
  5
9E
100
AcDbEntity
  8
Al
  6
CONTINUOUS
 62
  176
370
   -2
100
AcDbMText
 10
-2.272698595945231
 20
0.04869460080534627
 30
0
 40
0.05
 41
0.1333333333333333
 71
    5
 72
    1
  1
1.102
  7
standard
210
0
220
0
230
1
 50
56.18523613508493
 73
    2
 44
1
  0
ENDBLK
  5
60
330
5E
100
AcDbEntity
  8
0
100
AcDbBlockEnd
  0
BLOCK
  5
62
330
61
100
AcDbEntity
  8
0
100
AcDbBlockBegin
  2
*D11
 70
    1
 10
0
 20
0
  3
*D11
  1

  0
LINE
  5
9F
100
AcDbEntity
  8
Al
  6
ByBlock
 62
  176
370
   -2
100
AcDbLine
 10
1.508579235538684
 20
-1.457203472099728
 11
1.883579235538684
 21
-1.457203472099728
  0
SOLID
  5
A0
100
AcDbEntity
  8
Al
  6
ByBlock
 62
  176
370
   -2
100
AcDbTrace
 10
1.508579235538684
 20
-1.457203472099728
 30
0
 11
1.558579235538684
 21
-1.448877778944271
 31
0
 12
1.558579235538684
 22
-1.465529165255184
 32
0
 13
1.558579235538684
 23
-1.465529165255184
 33
0
  0
SOLID
  5
A1
100
AcDbEntity
  8
Al
  6
ByBlock
 62
  176
370
   -2
100
AcDbTrace
 10
1.883579235538684
 20
-1.457203472099728
 30
0
 11
1.833579235538684
 21
-1.465529165255184
 31
0
 12
1.833579235538684
 22
-1.448877778944271
 32
0
 13
1.833579235538684
 23
-1.448877778944271
 33
0
  0
MTEXT
  5
A2
100
AcDbEntity
  8
Al
  6
CONTINUOUS
 62
  176
370
   -2
100
AcDbMText
 10
1.696079235538684
 20
-1.369703472099728
 30
0
 40
0.05
 41
0.1555555555555618
 71
    5
 72
    1
  1
0.375
  7
standard
210
0
220
0
230
1
 50
0
 73
    2
 44
1
  0
LINE
  5
A3
100
AcDbEntity
  8
Al
  6
ByBlock
 62
  176
370
   -2
100
AcDbLine
 10
1.508579235538684
 20
-1.014011571847109
 11
1.508579235538684
 21
-1.582203472099728
  0
LINE
  5
A4
100
AcDbEntity
  8
Al
  6
ByBlock
 62
  176
370
   -2
100
AcDbLine
 10
1.883579235538684
 20
-0.9141831960531576
 11
1.883579235538684
 21
-1.582203472099728
  0
ENDBLK
  5
63
330
61
100
AcDbEntity
  8
0
100
AcDbBlockEnd
  0
BLOCK
  5
65
330
64
100
AcDbEntity
  8
0
100
AcDbBlockBegin
  2
*D13
 70
    1
 10
0
 20
0
  3
*D13
  1

  0
LINE
  5
A5
100
AcDbEntity
  8
Al
  6
ByBlock
 62
  176
370
   -2
100
AcDbLine
 10
2.293227258977456
 20
0.8236600523589406
 11
2.293227258977456
 21
-0.8516831960531576
  0
SOLID
  5
A6
100
AcDbEntity
  8
Al
  6
ByBlock
 62
  176
370
   -2
100
AcDbTrace
 10
2.293227258977456
 20
0.8236600523589406
 30
0
 11
2.301552952132913
 21
0.7736600523589405
 31
0
 12
2.284901565821999
 22
0.7736600523589405
 32
0
 13
2.284901565821999
 23
0.7736600523589405
 33
0
  0
SOLID
  5
A7
100
AcDbEntity
  8
Al
  6
ByBlock
 62
  176
370
   -2
100
AcDbTrace
 10
2.293227258977456
 20
-0.8516831960531576
 30
0
 11
2.284901565821999
 21
-0.8016831960531575
 31
0
 12
2.301552952132913
 22
-0.8016831960531575
 32
0
 13
2.301552952132913
 23
-0.8016831960531575
 33
0
  0
MTEXT
  5
A8
100
AcDbEntity
  8
Al
  6
CONTINUOUS
 62
  176
370
   -2
100
AcDbMText
 10
2.205727258977456
 20
-0.01401157184710848
 30
0
 40
0.05
 41
0.1444444444444507
 71
    5
 72
    1
  1
1.675
  7
standard
210
0
220
0
230
1
 50
90
 73
    2
 44
1
  0
LINE
  5
A9
100
AcDbEntity
  8
Al
  6
ByBlock
 62
  176
370
   -2
100
AcDbLine
 10
1.633579235538684
 20
0.8236600523589404
 11
2.418227258977456
 21
0.8236600523589406
  0
LINE
  5
AA
100
AcDbEntity
  8
Al
  6
ByBlock
 62
  176
370
   -2
100
AcDbLine
 10
1.633579235538684
 20
-0.8516831960531576
 11
2.418227258977456
 21
-0.8516831960531576
  0
ENDBLK
  5
66
330
64
100
AcDbEntity
  8
0
100
AcDbBlockEnd
  0
BLOCK
  5
68
330
67
100
AcDbEntity
  8
0
100
AcDbBlockBegin
  2
*D4
 70
    1
 10
0
 20
0
  3
*D4
  1

  0
LINE
  5
AB
100
AcDbEntity
  8
Al
  6
ByBlock
 62
  176
370
   -2
100
AcDbLine
 10
-0.8199999999999998
 20
-1.195358372181112
 11
0.82
 21
-1.195358372181112
  0
SOLID
  5
AC
100
AcDbEntity
  8
Al
  6
ByBlock
 62
  176
370
   -2
100
AcDbTrace
 10
-0.8199999999999998
 20
-1.195358372181112
 30
0
 11
-0.7699999999999998
 21
-1.187032679025656
 31
0
 12
-0.7699999999999998
 22
-1.203684065336569
 32
0
 13
-0.7699999999999998
 23
-1.203684065336569
 33
0
  0
SOLID
  5
AD
100
AcDbEntity
  8
Al
  6
ByBlock
 62
  176
370
   -2
100
AcDbTrace
 10
0.82
 20
-1.195358372181112
 30
0
 11
0.7699999999999999
 21
-1.203684065336569
 31
0
 12
0.7699999999999999
 22
-1.187032679025656
 32
0
 13
0.7699999999999999
 23
-1.187032679025656
 33
0
  0
MTEXT
  5
AE
100
AcDbEntity
  8
Al
  6
CONTINUOUS
 62
  176
370
   -2
100
AcDbMText
 10
6.086898097752749e-17
 20
-1.107858372181112
 30
0
 40
0.05
 41
0.1500000000000031
 71
    5
 72
    1
  1
1.640
  7
standard
210
0
220
0
230
1
 50
0
 73
    2
 44
1
  0
LINE
  5
AF
100
AcDbEntity
  8
Al
  6
ByBlock
 62
  176
370
   -2
100
AcDbLine
 10
-0.82
 20
-0.0624999999999999
 11
-0.8199999999999998
 21
-1.320358372181112
  0
LINE
  5
B0
100
AcDbEntity
  8
Al
  6
ByBlock
 62
  176
370
   -2
100
AcDbLine
 10
0.82
 20
-0.06250000000000019
 11
0.82
 21
-1.320358372181112
  0
ENDBLK
  5
69
330
67
100
AcDbEntity
  8
0
100
AcDbBlockEnd
  0
BLOCK
  5
6B
330
6A
100
AcDbEntity
  8
0
100
AcDbBlockBegin
  2
*D9
 70
    1
 10
0
 20
0
  3
*D9
  1

  0
LINE
  5
B1
100
AcDbEntity
  8
Al
  6
ByBlock
 62
  176
370
   -2
100
AcDbLine
 10
1.508579235538684
 20
0.6134999999999997
 11
1.508579235538684
 21
0.7319514533828657
  0
LINE
  5
B2
100
AcDbEntity
  8
Al
  6
ByBlock
 62
  176
370
   -2
100
AcDbLine
 10
1.784579235538684
 20
0.6134999999999997
 11
1.784579235538684
 21
0.7319514533828657
  0
LINE
  5
B3
100
AcDbEntity
  8
Al
  6
ByBlock
 62
  176
370
   -2
100
AcDbLine
 10
1.508579235538684
 20
0.6069514533828657
 11
1.784579235538684
 21
0.6069514533828657
  0
SOLID
  5
B4
100
AcDbEntity
  8
Al
  6
ByBlock
 62
  176
370
   -2
100
AcDbTrace
 10
1.508579235538684
 20
0.6069514533828657
 30
0
 11
1.558579235538684
 21
0.6152771465383226
 31
0
 12
1.558579235538684
 22
0.5986257602274089
 32
0
 13
1.558579235538684
 23
0.5986257602274089
 33
0
  0
SOLID
  5
B5
100
AcDbEntity
  8
Al
  6
ByBlock
 62
  176
370
   -2
100
AcDbTrace
 10
1.784579235538684
 20
0.6069514533828657
 30
0
 11
1.734579235538684
 21
0.5986257602274089
 31
0
 12
1.734579235538684
 22
0.6152771465383226
 32
0
 13
1.734579235538684
 23
0.6152771465383226
 33
0
  0
MTEXT
  5
B6
100
AcDbEntity
  8
Al
  6
CONTINUOUS
 62
  176
370
   -2
100
AcDbMText
 10
1.646579235538684
 20
0.6944514533828657
 30
0
 40
0.05
 41
0.1555555555555587
 71
    5
 72
    1
  1
0.276
  7
standard
210
0
220
0
230
1
 50
0
 73
    2
 44
1
  0
ENDBLK
  5
6C
330
6A
100
AcDbEntity
  8
0
100
AcDbBlockEnd
  0
BLOCK
  5
6E
330
6D
100
AcDbEntity
  8
0
100
AcDbBlockBegin
  2
*D8
 70
    1
 10
0
 20
0
  3
*D8
  1

  0
LINE
  5
B7
100
AcDbEntity
  8
Al
  6
ByBlock
 62
  176
370
   -2
100
AcDbLine
 10
1.508579235538684
 20
0.985988428152891
 11
1.508579235538684
 21
1.110862574994739
  0
LINE
  5
B8
100
AcDbEntity
  8
Al
  6
ByBlock
 62
  176
370
   -2
100
AcDbLine
 10
1.571079235538684
 20
0.985988428152891
 11
1.571079235538684
 21
1.110862574994739
  0
LINE
  5
B9
100
AcDbEntity
  8
Al
  6
ByBlock
 62
  176
370
   -2
100
AcDbLine
 10
1.408579235538684
 20
0.9858625749947395
 11
1.671079235538684
 21
0.9858625749947395
  0
SOLID
  5
BA
100
AcDbEntity
  8
Al
  6
ByBlock
 62
  176
370
   -2
100
AcDbTrace
 10
1.508579235538684
 20
0.9858625749947395
 30
0
 11
1.458579235538684
 21
0.9775368818392827
 31
0
 12
1.458579235538684
 22
0.9941882681501963
 32
0
 13
1.458579235538684
 23
0.9941882681501963
 33
0
  0
SOLID
  5
BB
100
AcDbEntity
  8
Al
  6
ByBlock
 62
  176
370
   -2
100
AcDbTrace
 10
1.571079235538684
 20
0.9858625749947395
 30
0
 11
1.621079235538684
 21
0.9941882681501963
 31
0
 12
1.621079235538684
 22
0.9775368818392827
 32
0
 13
1.621079235538684
 23
0.9775368818392827
 33
0
  0
MTEXT
  5
BC
100
AcDbEntity
  8
Al
  6
CONTINUOUS
 62
  176
370
   -2
100
AcDbMText
 10
1.711357013316465
 20
1.07336257499474
 30
0
 40
0.05
 41
0.1555555555555618
 71
    5
 72
    1
  1
0.063
  7
standard
210
0
220
0
230
1
 50
0
 73
    2
 44
1
  0
ENDBLK
  5
6F
330
6D
100
AcDbEntity
  8
0
100
AcDbBlockEnd
  0
BLOCK
  5
71
330
70
100
AcDbEntity
  8
0
100
AcDbBlockBegin
  2
*D2
 70
    1
 10
0
 20
0
  3
*D2
  1

  0
LINE
  5
BD
100
AcDbEntity
  8
Al
  6
ByBlock
 62
  176
370
   -2
100
AcDbLine
 10
1.571079235538684
 20
-0.9141831960531576
 11
1.571079235538684
 21
-1.397316228001951
  0
LINE
  5
BE
100
AcDbEntity
  8
Al
  6
ByBlock
 62
  176
370
   -2
100
AcDbLine
 10
1.883579235538684
 20
-0.9141831960531576
 11
1.883579235538684
 21
-1.397316228001951
  0
LINE
  5
BF
100
AcDbEntity
  8
Al
  6
ByBlock
 62
  176
370
   -2
100
AcDbLine
 10
1.571079235538684
 20
-1.272316228001951
 11
1.883579235538684
 21
-1.272316228001951
  0
SOLID
  5
C0
100
AcDbEntity
  8
Al
  6
ByBlock
 62
  176
370
   -2
100
AcDbTrace
 10
1.571079235538684
 20
-1.272316228001951
 30
0
 11
1.621079235538684
 21
-1.263990534846494
 31
0
 12
1.621079235538684
 22
-1.280641921157408
 32
0
 13
1.621079235538684
 23
-1.280641921157408
 33
0
  0
SOLID
  5
C1
100
AcDbEntity
  8
Al
  6
ByBlock
 62
  176
370
   -2
100
AcDbTrace
 10
1.883579235538684
 20
-1.272316228001951
 30
0
 11
1.833579235538684
 21
-1.280641921157408
 31
0
 12
1.833579235538684
 22
-1.263990534846494
 32
0
 13
1.833579235538684
 23
-1.263990534846494
 33
0
  0
MTEXT
  5
C2
100
AcDbEntity
  8
Al
  6
CONTINUOUS
 62
  176
370
   -2
100
AcDbMText
 10
1.727329235538684
 20
-1.184816228001951
 30
0
 40
0.05
 41
0.1444444444444476
 71
    5
 72
    1
  1
0.312
  7
standard
210
0
220
0
230
1
 50
0
 73
    2
 44
1
  0
ENDBLK
  5
72
330
70
100
AcDbEntity
  8
0
100
AcDbBlockEnd
  0
BLOCK
  5
74
330
73
100
AcDbEntity
  8
0
100
AcDbBlockBegin
  2
*D1
 70
    1
 10
0
 20
0
  3
*D1
  1

  0
LINE
  5
C3
100
AcDbEntity
  8
Al
  6
ByBlock
 62
  176
370
   -2
100
AcDbLine
 10
1.571079235538684
 20
-0.9515115718471086
 11
2.619059788785363
 21
-0.9515115718471086
  0
LINE
  5
C4
100
AcDbEntity
  8
Al
  6
ByBlock
 62
  176
370
   -2
100
AcDbLine
 10
1.571079235538684
 20
0.923488428152891
 11
2.619059788785363
 21
0.923488428152891
  0
LINE
  5
C5
100
AcDbEntity
  8
Al
  6
ByBlock
 62
  176
370
   -2
100
AcDbLine
 10
2.494059788785363
 20
-0.9515115718471086
 11
2.494059788785363
 21
0.923488428152891
  0
SOLID
  5
C6
100
AcDbEntity
  8
Al
  6
ByBlock
 62
  176
370
   -2
100
AcDbTrace
 10
2.494059788785363
 20
-0.9515115718471086
 30
0
 11
2.485734095629907
 21
-0.9015115718471085
 31
0
 12
2.50238548194082
 22
-0.9015115718471085
 32
0
 13
2.50238548194082
 23
-0.9015115718471085
 33
0
  0
SOLID
  5
C7
100
AcDbEntity
  8
Al
  6
ByBlock
 62
  176
370
   -2
100
AcDbTrace
 10
2.494059788785363
 20
0.923488428152891
 30
0
 11
2.50238548194082
 21
0.873488428152891
 31
0
 12
2.485734095629907
 22
0.873488428152891
 32
0
 13
2.485734095629907
 23
0.873488428152891
 33
0
  0
MTEXT
  5
C8
100
AcDbEntity
  8
Al
  6
CONTINUOUS
 62
  176
370
   -2
100
AcDbMText
 10
2.406559788785363
 20
-0.01401157184710876
 30
0
 40
0.05
 41
0.1444444444444475
 71
    5
 72
    1
  1
1.875
  7
standard
210
0
220
0
230
1
 50
90
 73
    2
 44
1
  0
ENDBLK
  5
75
330
73
100
AcDbEntity
  8
0
100
AcDbBlockEnd
  0
BLOCK
  5
77
330
76
100
AcDbEntity
  8
0
100
AcDbBlockBegin
  2
*D12
 70
    1
 10
0
 20
0
  3
*D12
  1

  0
LINE
  5
C9
100
AcDbEntity
  8
Al
  6
ByBlock
 62
  176
370
   -2
100
AcDbLine
 10
1.684579235538684
 20
0.3749999999999998
 11
1.983579235538684
 21
0.3749999999999998
  0
SOLID
  5
CA
100
AcDbEntity
  8
Al
  6
ByBlock
 62
  176
370
   -2
100
AcDbTrace
 10
1.784579235538684
 20
0.3749999999999998
 30
0
 11
1.734579235538684
 21
0.3666743068445429
 31
0
 12
1.734579235538684
 22
0.3833256931554566
 32
0
 13
1.734579235538684
 23
0.3833256931554566
 33
0
  0
SOLID
  5
CB
100
AcDbEntity
  8
Al
  6
ByBlock
 62
  176
370
   -2
100
AcDbTrace
 10
1.883579235538684
 20
0.3749999999999998
 30
0
 11
1.933579235538684
 21
0.3833256931554566
 31
0
 12
1.933579235538684
 22
0.3666743068445429
 32
0
 13
1.933579235538684
 23
0.3666743068445429
 33
0
  0
MTEXT
  5
CC
100
AcDbEntity
  8
Al
  6
CONTINUOUS
 62
  176
370
   -2
100
AcDbMText
 10
2.023857013316461
 20
0.4624999999999998
 30
0
 40
0.05
 41
0.1555555555555556
 71
    5
 72
    1
  1
0.099
  7
standard
210
0
220
0
230
1
 50
0
 73
    2
 44
1
  0
LINE
  5
CD
100
AcDbEntity
  8
Al
  6
ByBlock
 62
  176
370
   -2
100
AcDbLine
 10
1.784579235538684
 20
0.4374999999999998
 11
1.784579235538684
 21
0.4999999999999998
  0
LINE
  5
CE
100
AcDbEntity
  8
Al
  6
ByBlock
 62
  176
370
   -2
100
AcDbLine
 10
1.883579235538684
 20
0.4374999999999998
 11
1.883579235538684
 21
0.4999999999999998
  0
ENDBLK
  5
78
330
76
100
AcDbEntity
  8
0
100
AcDbBlockEnd
  0
BLOCK
  5
7A
330
79
100
AcDbEntity
  8
0
100
AcDbBlockBegin
  2
*D16
 70
    1
 10
0
 20
0
  3
*D16
  1

  0
LINE
  5
CF
100
AcDbEntity
  8
Al
  6
ByBlock
 62
  176
370
   -2
100
AcDbLine
 10
-2
 20
-0.0625
 11
-2
 21
-1.583255058846374
  0
LINE
  5
D0
100
AcDbEntity
  8
Al
  6
ByBlock
 62
  176
370
   -2
100
AcDbLine
 10
-2.25
 20
-0.0625
 11
-2.25
 21
-1.583255058846374
  0
LINE
  5
D1
100
AcDbEntity
  8
Al
  6
ByBlock
 62
  176
370
   -2
100
AcDbLine
 10
-2
 20
-1.458255058846374
 11
-2.25
 21
-1.458255058846374
  0
SOLID
  5
D2
100
AcDbEntity
  8
Al
  6
ByBlock
 62
  176
370
   -2
100
AcDbTrace
 10
-2
 20
-1.458255058846374
 30
0
 11
-2.05
 21
-1.466580752001831
 31
0
 12
-2.05
 22
-1.449929365690917
 32
0
 13
-2.05
 23
-1.449929365690917
 33
0
  0
SOLID
  5
D3
100
AcDbEntity
  8
Al
  6
ByBlock
 62
  176
370
   -2
100
AcDbTrace
 10
-2.25
 20
-1.458255058846374
 30
0
 11
-2.200000000000001
 21
-1.449929365690917
 31
0
 12
-2.200000000000001
 22
-1.466580752001831
 32
0
 13
-2.200000000000001
 23
-1.466580752001831
 33
0
  0
MTEXT
  5
D4
100
AcDbEntity
  8
Al
  6
CONTINUOUS
 62
  176
370
   -2
100
AcDbMText
 10
-2.125
 20
-1.370755058846374
 30
0
 40
0.05
 41
0.1555555555555587
 71
    5
 72
    1
  1
0.250
  7
standard
210
0
220
0
230
1
 50
360
 73
    2
 44
1
  0
ENDBLK
  5
7B
330
79
100
AcDbEntity
  8
0
100
AcDbBlockEnd
  0
BLOCK
  5
7D
330
7C
100
AcDbEntity
  8
0
100
AcDbBlockBegin
  2
*D3
 70
    1
 10
0
 20
0
  3
*D3
  1

  0
LINE
  5
D5
100
AcDbEntity
  8
Al
  6
ByBlock
 62
  176
370
   -2
100
AcDbLine
 10
-0.9374999999999999
 20
1.113203157598218
 11
0.9375
 21
1.113203157598218
  0
SOLID
  5
D6
100
AcDbEntity
  8
Al
  6
ByBlock
 62
  176
370
   -2
100
AcDbTrace
 10
-0.9374999999999999
 20
1.113203157598218
 30
0
 11
-0.8874999999999998
 21
1.121528850753675
 31
0
 12
-0.8874999999999998
 22
1.104877464442761
 32
0
 13
-0.8874999999999998
 23
1.104877464442761
 33
0
  0
SOLID
  5
D7
100
AcDbEntity
  8
Al
  6
ByBlock
 62
  176
370
   -2
100
AcDbTrace
 10
0.9375
 20
1.113203157598218
 30
0
 11
0.8875
 21
1.104877464442761
 31
0
 12
0.8875
 22
1.121528850753675
 32
0
 13
0.8875
 23
1.121528850753675
 33
0
  0
MTEXT
  5
D8
100
AcDbEntity
  8
Al
  6
CONTINUOUS
 62
  176
370
   -2
100
AcDbMText
 10
6.086898097752749e-17
 20
1.200703157598218
 30
0
 40
0.05
 41
0.1444444444444475
 71
    5
 72
    1
  1
1.875
  7
standard
210
0
220
0
230
1
 50
0
 73
    2
 44
1
  0
LINE
  5
D9
100
AcDbEntity
  8
Al
  6
ByBlock
 62
  176
370
   -2
100
AcDbLine
 10
-0.9375
 20
0.06250000000000011
 11
-0.9374999999999999
 21
1.238203157598218
  0
LINE
  5
DA
100
AcDbEntity
  8
Al
  6
ByBlock
 62
  176
370
   -2
100
AcDbLine
 10
0.9375
 20
0.06249999999999977
 11
0.9375
 21
1.238203157598218
  0
ENDBLK
  5
7E
330
7C
100
AcDbEntity
  8
0
100
AcDbBlockEnd
  0
ENDSEC
  0
SECTION
  2
ENTITIES
  0
CIRCLE
  5
DB
100
AcDbEntity
  8
Al
  6
ByLayer
 62
  256
370
   -1
100
AcDbCircle
 10
0
 20
0
 40
0.82
  0
LINE
  5
DC
100
AcDbEntity
  8
Al
  6
ByLayer
 62
  256
370
   -1
100
AcDbLine
 10
1.508579235538684
 20
-0.9515115718471086
 11
1.571079235538684
 21
-0.9515115718471086
  0
LINE
  5
DD
100
AcDbEntity
  8
Al
  6
ByLayer
 62
  256
370
   -1
100
AcDbLine
 10
1.571079235538684
 20
-0.8516831960531576
 11
1.883579235538684
 21
-0.8516831960531576
  0
LINE
  5
DE
100
AcDbEntity
  8
Al
  6
ByLayer
 62
  256
370
   -1
100
AcDbLine
 10
1.508579235538684
 20
-0.9515115718471086
 11
1.508579235538684
 21
0.923488428152891
  0
LINE
  5
DF
100
AcDbEntity
  8
Al
  6
ByLayer
 62
  256
370
   -1
100
AcDbLine
 10
1.571079235538684
 20
-0.9515115718471086
 11
1.571079235538684
 21
0.923488428152891
  0
LINE
  5
E0
100
AcDbEntity
  8
Al
  6
ByLayer
 62
  256
370
   -1
100
AcDbLine
 10
1.883579235538684
 20
-0.8516831960531576
 11
1.883579235538684
 21
0.8236600523589404
  0
LINE
  5
E1
100
AcDbEntity
  8
Al
  6
ByLayer
 62
  256
370
   -1
100
AcDbLine
 10
1.508579235538684
 20
0.923488428152891
 11
1.571079235538684
 21
0.9234884281528911
  0
LINE
  5
E2
100
AcDbEntity
  8
Al
  6
ByLayer
 62
  256
370
   -1
100
AcDbLine
 10
1.571079235538684
 20
0.8236600523589404
 11
1.883579235538684
 21
0.8236600523589404
  0
LINE
  5
E3
100
AcDbEntity
  8
Al
  6
ByLayer
 62
  256
370
   -1
100
AcDbLine
 10
1.883579235538684
 20
-0.8116831960531575
 11
1.843579235538684
 21
-0.8516831960531576
  0
LINE
  5
E4
100
AcDbEntity
  8
Al
  6
ByLayer
 62
  256
370
   -1
100
AcDbLine
 10
1.883579235538684
 20
0.7836600523589402
 11
1.843579235538684
 21
0.8236600523589402
  0
DIMENSION
  5
E5
100
AcDbEntity
  8
Al
  6
ByLayer
 62
  256
370
   -1
100
AcDbDimension
  2
*D1
 10
2.494059788785363
 20
0.9234884281528909
 30
0
 11
2.406559788785363
 21
-0.01401157184710876
 31
0
 70
   33
 71
    5
  3
Standard
 53
0
210
0
220
0
230
1
100
AcDbAlignedDimension
 13
1.508579235538684
 23
-0.9515115718471086
 33
0
 14
1.508579235538684
 24
0.923488428152891
 34
0
  0
DIMENSION
  5
E6
100
AcDbEntity
  8
Al
  6
ByLayer
 62
  256
370
   -1
100
AcDbDimension
  2
*D2
 10
1.883579235538684
 20
-1.272316228001951
 30
0
 11
1.727329235538684
 21
-1.184816228001951
 31
0
 70
   33
 71
    5
  3
Standard
 53
0
210
0
220
0
230
1
100
AcDbAlignedDimension
 13
1.571079235538684
 23
-0.8516831960531576
 33
0
 14
1.883579235538684
 24
-0.8516831960531576
 34
0
  0
CIRCLE
  5
E7
100
AcDbEntity
  8
Al
  6
ByLayer
 62
  256
370
   -1
100
AcDbCircle
 10
-0.25
 20
0
 40
0.551
  0
CIRCLE
  5
E8
100
AcDbEntity
  8
Al
  6
ByLayer
 62
  256
370
   -1
100
AcDbCircle
 10
-0.25
 20
0
 40
0.295
  0
CIRCLE
  5
E9
100
AcDbEntity
  8
Al
  6
ByLayer
 62
  256
370
   -1
100
AcDbCircle
 10
0.1617619031890755
 20
-0.6037036414306677
 40
0.154
  0
CIRCLE
  5
EA
100
AcDbEntity
  8
Al
  6
ByLayer
 62
  256
370
   -1
100
AcDbCircle
 10
0.1617619031890755
 20
-0.6037036414306677
 40
0.1
  0
CIRCLE
  5
EB
100
AcDbEntity
  8
Al
  6
ByLayer
 62
  256
370
   -1
100
AcDbCircle
 10
0.1617619031890755
 20
0.6037036414306677
 40
0.156
  0
CIRCLE
  5
EC
100
AcDbEntity
  8
Al
  6
ByLayer
 62
  256
370
   -1
100
AcDbCircle
 10
0.1617619031890755
 20
0.6037036414306677
 40
0.1
  0
CIRCLE
  5
ED
100
AcDbEntity
  8
Al
  6
ByLayer
 62
  256
370
   -1
100
AcDbCircle
 10
0.4419417382415922
 20
0.4419417382415922
 40
0.06
  0
CIRCLE
  5
EE
100
AcDbEntity
  8
Al
  6
ByLayer
 62
  256
370
   -1
100
AcDbCircle
 10
0.4419417382415922
 20
-0.4419417382415922
 40
0.06
  0
CIRCLE
  5
EF
100
AcDbEntity
  8
Al
  6
ByLayer
 62
  256
370
   -1
100
AcDbCircle
 10
0
 20
0
 40
0.9375
  0
DIMENSION
  5
F0
100
AcDbEntity
  8
Al
  6
ByLayer
 62
  256
370
   -1
100
AcDbDimension
  2
*D3
 10
0.9375000000000001
 20
1.113203157598218
 30
0
 11
6.086898097752749e-17
 21
1.200703157598218
 31
0
 70
   32
 71
    5
  3
Standard
 53
0
210
0
220
0
230
1
100
AcDbAlignedDimension
 13
-0.9375
 23
1.148106374200644e-16
 33
0
 14
0.9375
 24
-2.296212748401287e-16
 34
0
100
AcDbRotatedDimension
  0
DIMENSION
  5
F1
100
AcDbEntity
  8
Al
  6
ByLayer
 62
  256
370
   -1
100
AcDbDimension
  2
*D4
 10
0.8420909494746667
 20
-1.195358372181112
 30
0
 11
6.086898097752749e-17
 21
-1.107858372181112
 31
0
 70
   32
 71
    5
  3
Standard
 53
0
210
0
220
0
230
1
100
AcDbAlignedDimension
 13
-0.82
 23
1.00421037530083e-16
 33
0
 14
0.82
 24
-2.008420750601659e-16
 34
0
100
AcDbRotatedDimension
  0
DIMENSION
  5
F2
100
AcDbEntity
  8
Al
  6
ByLayer
 62
  256
370
   -1
100
AcDbDimension
  2
*D5
 10
0.1066368576428091
 20
0.4577934441808267
 30
0
 11
-0.2726985959452312
 21
0.04869460080534627
 31
0
 70
   35
 71
    5
  3
Standard
 53
0
210
0
220
0
230
1
100
AcDbDiametricDimension
 15
-0.5066368576428093
 25
-0.4577934441808267
 35
0
 40
0
  0
DIMENSION
  5
F3
100
AcDbEntity
  8
Al
  6
ByLayer
 62
  256
370
   -1
100
AcDbDimension
  2
*D6
 10
0.625
 20
0
 30
0
 11
0
 21
0
 31
0
 70
   34
 71
    5
  3
Standard
 53
0
210
0
220
0
230
1
100
AcDb2LineAngularDimension
 13
0
 23
0
 33
0
 14
0.1617619031890755
 24
0.6037036414306677
 34
0
 15
0
 25
0
 35
0
 16
1.002293617911311
 26
0.4641769623933528
 36
0
  0
DIMENSION
  5
F4
100
AcDbEntity
  8
Al
  6
ByLayer
 62
  256
370
   -1
100
AcDbDimension
  2
*D7
 10
0.4419417382415922
 20
0.4419417382415922
 30
0
 11
0
 21
0
 31
0
 70
   34
 71
    5
  3
Standard
 53
0
210
0
220
0
230
1
100
AcDb2LineAngularDimension
 13
0
 23
0
 33
0
 14
0.625
 24
0
 34
0
 15
0
 25
0
 35
0
 16
1.232328218743415
 26
0.7188581276003252
 36
0
  0
MTEXT
  5
F5
100
AcDbEntity
  8
Al
  6
ByLayer
 62
  256
370
   -1
100
AcDbMText
 10
1.587805333286654
 20
1.338217203974036
 30
0
 40
0.05
 41
1.193055581269931
 71
    5
 72
    1
  1
10-32 socket\P0.200 clearance; 0.312+ countersink
  7

210
0
220
0
230
1
 50
0
 73
    2
 44
1
  0
DIMENSION
  5
F6
100
AcDbEntity
  8
Al
  6
ByLayer
 62
  256
370
   -1
100
AcDbDimension
  2
*D8
 10
1.571079235538684
 20
0.9858625749947395
 30
0
 11
1.539829235538684
 21
1.07336257499474
 31
0
 70
   33
 71
    5
  3
Standard
 53
0
210
0
220
0
230
1
100
AcDbAlignedDimension
 13
1.508579235538684
 23
0.923488428152891
 33
0
 14
1.571079235538684
 24
0.923488428152891
 34
0
  0
LINE
  5
F7
100
AcDbEntity
  8
Al
  6
ByLayer
 62
  256
370
   -1
100
AcDbLine
 10
1.508579235538684
 20
0.5509999999999997
 11
1.784579235538684
 21
0.5509999999999997
  0
LINE
  5
F8
100
AcDbEntity
  8
Al
  6
ByLayer
 62
  256
370
   -1
100
AcDbLine
 10
1.508579235538684
 20
-0.551
 11
1.784579235538684
 21
-0.551
  0
LINE
  5
F9
100
AcDbEntity
  8
Al
  6
ByLayer
 62
  256
370
   -1
100
AcDbLine
 10
1.784579235538684
 20
0.5509999999999997
 11
1.784579235538684
 21
-0.551
  0
DIMENSION
  5
FA
100
AcDbEntity
  8
Al
  6
ByLayer
 62
  256
370
   -1
100
AcDbDimension
  2
*D9
 10
1.784579235538684
 20
0.6069514533828657
 30
0
 11
1.646579235538684
 21
0.6944514533828657
 31
0
 70
   33
 71
    5
  3
Standard
 53
0
210
0
220
0
230
1
100
AcDbAlignedDimension
 13
1.508579235538684
 23
0.5509999999999997
 33
0
 14
1.784579235538684
 24
0.5509999999999997
 34
0
  0
LINE
  5
FB
100
AcDbEntity
  8
Al
  6
ByLayer
 62
  256
370
   -1
100
AcDbLine
 10
1.784579235538684
 20
0.3749999999999998
 11
1.883579235538684
 21
0.3749999999999998
  0
LINE
  5
FC
100
AcDbEntity
  8
Al
  6
ByLayer
 62
  256
370
   -1
100
AcDbLine
 10
1.784579235538684
 20
-0.3750000000000002
 11
1.883579235538684
 21
-0.3750000000000002
  0
DIMENSION
  5
FD
100
AcDbEntity
  8
Al
  6
ByLayer
 62
  256
370
   -1
100
AcDbDimension
  2
*D10
 10
2.062912380247719
 20
-0.3750000000000003
 30
0
 11
1.975412380247719
 21
-2.668400966637498e-16
 31
0
 70
   33
 71
    5
  3
Standard
 53
0
210
0
220
0
230
1
100
AcDbAlignedDimension
 13
1.883579235538684
 23
0.3749999999999998
 33
0
 14
1.883579235538684
 24
-0.3750000000000002
 34
0
  0
DIMENSION
  5
FE
100
AcDbEntity
  8
Al
  6
ByLayer
 62
  256
370
   -1
100
AcDbDimension
  2
*D11
 10
1.883579235538684
 20
-1.457203472099728
 30
0
 11
1.696079235538684
 21
-1.369703472099728
 31
0
 70
   32
 71
    5
  3
Standard
 53
0
210
0
220
0
230
1
100
AcDbAlignedDimension
 13
1.508579235538684
 23
-0.9515115718471086
 33
0
 14
1.883579235538684
 24
-0.8516831960531576
 34
0
100
AcDbRotatedDimension
  0
DIMENSION
  5
FF
100
AcDbEntity
  8
Al
  6
ByLayer
 62
  256
370
   -1
100
AcDbDimension
  2
*D12
 10
1.883579235538684
 20
0.3749999999999998
 30
0
 11
1.834079235538684
 21
0.4624999999999998
 31
0
 70
   32
 71
    5
  3
Standard
 53
0
210
0
220
0
230
1
100
AcDbAlignedDimension
 13
1.784579235538684
 23
0.3749999999999998
 33
0
 14
1.883579235538684
 24
0.3749999999999998
 34
0
100
AcDbRotatedDimension
  0
DIMENSION
  5
100
100
AcDbEntity
  8
Al
  6
ByLayer
 62
  256
370
   -1
100
AcDbDimension
  2
*D13
 10
2.293227258977456
 20
-0.8516831960531577
 30
0
 11
2.205727258977456
 21
-0.01401157184710848
 31
0
 70
   32
 71
    5
  3
Standard
 53
0
210
0
220
0
230
1
100
AcDbAlignedDimension
 13
1.571079235538684
 23
0.8236600523589404
 33
0
 14
1.571079235538684
 24
-0.8516831960531576
 34
0
 50
90
100
AcDbRotatedDimension
  0
CIRCLE
  5
101
100
AcDbEntity
  8
Al
  6
ByLayer
 62
  256
370
   -1
100
AcDbCircle
 10
0.1617619031890755
 20
0.6037036414306677
 40
0.0781
  0
CIRCLE
  5
102
100
AcDbEntity
  8
Al
  6
ByLayer
 62
  256
370
   -1
100
AcDbCircle
 10
0.1617619031890755
 20
-0.6037036414306677
 40
0.0781
  0
CIRCLE
  5
103
100
AcDbEntity
  8
Al
  6
ByLayer
 62
  256
370
   -1
100
AcDbCircle
 10
0.625
 20
0
 40
0.0781
  0
MTEXT
  5
104
100
AcDbEntity
  8
Al
  6
ByLayer
 62
  256
370
   -1
100
AcDbMText
 10
-1.1
 20
1.3
 30
0
 40
0.05
 41
0.7652778034921472
 71
    5
 72
    1
  1
For 0.100" pin spanner\P
  7

210
0
220
0
230
1
 50
0
 73
    2
 44
1
  0
CIRCLE
  5
105
100
AcDbEntity
  8
Al
  6
ByLayer
 62
  256
370
   -1
100
AcDbCircle
 10
-2
 20
0
 40
0.82
  0
CIRCLE
  5
106
100
AcDbEntity
  8
Al
  6
ByLayer
 62
  256
370
   -1
100
AcDbCircle
 10
-2.25
 20
0
 40
0.551
  0
CIRCLE
  5
107
100
AcDbEntity
  8
Al
  6
ByLayer
 62
  256
370
   -1
100
AcDbCircle
 10
-2.25
 20
0
 40
0.295
  0
CIRCLE
  5
108
100
AcDbEntity
  8
Al
  6
ByLayer
 62
  256
370
   -1
100
AcDbCircle
 10
-1.558058261758408
 20
0.4419417382415922
 40
0.06
  0
CIRCLE
  5
109
100
AcDbEntity
  8
Al
  6
ByLayer
 62
  256
370
   -1
100
AcDbCircle
 10
-1.558058261758408
 20
-0.4419417382415922
 40
0.06
  0
CIRCLE
  5
10A
100
AcDbEntity
  8
Al
  6
ByLayer
 62
  256
370
   -1
100
AcDbCircle
 10
-2
 20
0
 40
0.9375
  0
DIMENSION
  5
10B
100
AcDbEntity
  8
Al
  6
ByLayer
 62
  256
370
   -1
100
AcDbDimension
  2
*D14
 10
-1.893363142357191
 20
0.4577934441808267
 30
0
 11
-2.272698595945231
 21
0.04869460080534627
 31
0
 70
   35
 71
    5
  3
Standard
 53
0
210
0
220
0
230
1
100
AcDbDiametricDimension
 15
-2.50663685764281
 25
-0.4577934441808267
 35
0
 40
0
  0
DIMENSION
  5
10C
100
AcDbEntity
  8
Al
  6
ByLayer
 62
  256
370
   -1
100
AcDbDimension
  2
*D15
 10
-2.237892662431858
 20
1.121776138915043
 30
0
 11
-2.520735374906478
 21
0.9626771131480697
 31
0
 70
   33
 71
    5
  3
Standard
 53
0
210
0
220
0
230
1
100
AcDbAlignedDimension
 13
-2
 23
0
 33
0
 14
-1.558058261758408
 24
0.4419417382415922
 34
0
  0
DIMENSION
  5
10D
100
AcDbEntity
  8
Al
  6
ByLayer
 62
  256
370
   -1
100
AcDbDimension
  2
*D16
 10
-2.25
 20
-1.458255058846374
 30
0
 11
-2.125
 21
-1.370755058846374
 31
0
 70
   33
 71
    5
  3
Standard
 53
0
210
0
220
0
230
1
100
AcDbAlignedDimension
 13
-2
 23
0
 33
0
 14
-2.25
 24
0
 34
0
  0
MTEXT
  5
10E
100
AcDbEntity
  8
Al
  6
ByLayer
 62
  256
370
   -1
100
AcDbMText
 10
-0.4121946667133465
 20
1.338217203974036
 30
0
 40
0.05
 41
1.193055581269931
 71
    5
 72
    1
  1
10-32 socket\P0.200 clearance; 0.312+ countersink
  7

210
0
220
0
230
1
 50
0
 73
    2
 44
1
  0
CIRCLE
  5
10F
100
AcDbEntity
  8
Al
  6
ByLayer
 62
  256
370
   -1
100
AcDbCircle
 10
-1.838238096810925
 20
0.6037036414306677
 40
0.0781
  0
CIRCLE
  5
110
100
AcDbEntity
  8
Al
  6
ByLayer
 62
  256
370
   -1
100
AcDbCircle
 10
-1.838238096810925
 20
-0.6037036414306677
 40
0.0781
  0
CIRCLE
  5
111
100
AcDbEntity
  8
Al
  6
ByLayer
 62
  256
370
   -1
100
AcDbCircle
 10
-1.375
 20
0
 40
0.0781
  0
CIRCLE
  5
112
100
AcDbEntity
  8
Al
  6
ByLayer
 62
  256
370
   -1
100
AcDbCircle
 10
-1.375
 20
0
 40
0.156
  0
CIRCLE
  5
113
100
AcDbEntity
  8
Al
  6
ByLayer
 62
  256
370
   -1
100
AcDbCircle
 10
-1.375
 20
0
 40
0.1
  0
MTEXT
  5
114
100
AcDbEntity
  8
Al
  6
ByLayer
 62
  256
370
   -1
100
AcDbMText
 10
-0.5999999999999998
 20
1.6
 30
0
 40
0.05
 41
4.316666820952885
 71
    5
 72
    1
  1
Drilling all the holes at once will only work if layout is absolutely perfect. \POtherwise, need to build the second one "backward" and bore the bearing seat and counter-sinks in a separate operation.\P
  7

210
0
220
0
230
1
 50
0
 73
    2
 44
1
  0
MTEXT
  5
115
100
AcDbEntity
  8
Al
  6
ByLayer
 62
  256
370
   -1
100
AcDbMText
 10
-0.1228970295598371
 20
-0.1328973471467442
 30
0
 40
0.05
 41
0.1777777777777778
 71
    5
 72
    1
  1
RIGHT
  7

210
0
220
0
230
1
 50
0
 73
    2
 44
1
  0
MTEXT
  5
116
100
AcDbEntity
  8
Al
  6
ByLayer
 62
  256
370
   -1
100
AcDbMText
 10
-2.1
 20
-0.1000000000000001
 30
0
 40
0.05
 41
0.1444444444444445
 71
    5
 72
    1
  1
LEFT
  7

210
0
220
0
230
1
 50
0
 73
    2
 44
1
  0
ENDSEC
  0
SECTION
  2
OBJECTS
  0
DICTIONARY
  5
C
330
0
100
AcDbDictionary
281
    1
  3
ACAD_GROUP
350
D
  0
DICTIONARY
  5
D
330
C
100
AcDbDictionary
281
    1
  0
ENDSEC
  0
EOF
