999
dxfrw 0.6.3
  0
SECTION
  2
HEADER
  9
$ACADVER
  1
AC1021
  9
$DWGCODEPAGE
  3
ANSI_1252
  9
$INSBASE
 10
0
 20
0
 30
0
  9
$EXTMIN
 10
0
 20
0
 30
0
  9
$EXTMAX
 10
0
 20
0
 30
0
  9
$LIMMIN
 10
0
 20
0
  9
$LIMMAX
 10
420
 20
297
  9
$ORTHOMODE
 70
    0
  9
$REGENMODE
 70
    1
  9
$FILLMODE
 70
    1
  9
$QTEXTMODE
 70
    0
  9
$MIRRTEXT
 70
    0
  9
$LTSCALE
 40
1
  9
$ATTMODE
 70
    0
  9
$TEXTSIZE
 40
2.5
  9
$TRACEWID
 40
15.68
  9
$TEXTSTYLE
  7
STANDARD
  9
$CLAYER
  8
lengths
  9
$CELTYPE
  6
BYLAYER
  9
$CECOLOR
 62
  256
  9
$CELTSCALE
 40
1
  9
$DISPSILH
 70
    0
  9
$DIMSCALE
 40
2.5
  9
$DIMASZ
 40
2.5
  9
$DIMEXO
 40
0.625
  9
$DIMDLI
 40
3.75
  9
$DIMRND
 40
0
  9
$DIMDLE
 40
0
  9
$DIMEXE
 40
0.0125
  9
$DIMTP
 40
0
  9
$DIMTM
 40
0
  9
$DIMTXT
 40
0.03
  9
$DIMCEN
 40
2.5
  9
$DIMTSZ
 40
0
  9
$DIMTOL
 70
    0
  9
$DIMLIM
 70
    0
  9
$DIMTIH
 70
    0
  9
$DIMTOH
 70
    0
  9
$DIMSE1
 70
    0
  9
$DIMSE2
 70
    0
  9
$DIMTAD
 70
    1
  9
$DIMZIN
 70
    1
  9
$DIMBLK
  1

  9
$DIMASO
 70
    1
  9
$DIMSHO
 70
    1
  9
$DIMPOST
  1

  9
$DIMAPOST
  1

  9
$DIMALT
 70
    0
  9
$DIMALTD
 70
    3
  9
$DIMALTF
 40
0.03937
  9
$DIMLFAC
 40
1
  9
$DIMTOFL
 70
    1
  9
$DIMTVP
 40
0
  9
$DIMTIX
 70
    0
  9
$DIMSOXD
 70
    0
  9
$DIMSAH
 70
    0
  9
$DIMBLK1
  1

  9
$DIMBLK2
  1

  9
$DIMSTYLE
  2
STANDARD
  9
$DIMCLRD
 70
    2
  9
$DIMCLRE
 70
    2
  9
$DIMCLRT
 70
    0
  9
$DIMTFAC
 40
1
  9
$DIMGAP
 40
0.0625
  9
$DIMJUST
 70
    0
  9
$DIMSD1
 70
    0
  9
$DIMSD2
 70
    0
  9
$DIMTOLJ
 70
    0
  9
$DIMTZIN
 70
    8
  9
$DIMALTZ
 70
    0
  9
$DIMALTTZ
 70
    0
  9
$DIMUPT
 70
    0
  9
$DIMDEC
 70
    2
  9
$DIMTDEC
 70
    2
  9
$DIMALTU
 70
    2
  9
$DIMALTTD
 70
    3
  9
$DIMTXSTY
  7
standard
  9
$DIMAUNIT
 70
    0
  9
$DIMADEC
 70
    2
  9
$DIMALTRND
 40
0
  9
$DIMAZIN
 70
    0
  9
$DIMDSEP
 70
    0
  9
$DIMATFIT
 70
    3
  9
$DIMFRAC
 70
    0
  9
$DIMLDRBLK
  1
STANDARD
  9
$DIMLUNIT
 70
    2
  9
$DIMLWD
 70
   -2
  9
$DIMLWE
 70
   -2
  9
$DIMTMOVE
 70
    0
  9
$DIMFXL
 40
1
  9
$DIMFXLON
 70
    0
  9
$DIMJOGANG
 40
0.7854
  9
$DIMTFILL
 70
    0
  9
$DIMTFILLCLR
 70
    0
  9
$DIMARCSYM
 70
    0
  9
$DIMLTYPE
  6

  9
$DIMLTEX1
  6

  9
$DIMLTEX2
  6

  9
$LUNITS
 70
    2
  9
$LUPREC
 70
    3
  9
$SKETCHINC
 40
1
  9
$FILLETRAD
 40
0
  9
$AUNITS
 70
    0
  9
$AUPREC
 70
    2
  9
$MENU
  1
.
  9
$ELEVATION
 40
0
  9
$PELEVATION
 40
0
  9
$THICKNESS
 40
0
  9
$LIMCHECK
 70
    0
  9
$CHAMFERA
 40
0
  9
$CHAMFERB
 40
0
  9
$CHAMFERC
 40
0
  9
$CHAMFERD
 40
0
  9
$SKPOLY
 70
    0
  9
$USRTIMER
 70
    1
  9
$ANGBASE
 50
0
  9
$ANGDIR
 70
    0
  9
$PDMODE
 70
   34
  9
$PDSIZE
 40
0
  9
$PLINEWID
 40
0
  9
$SPLFRAME
 70
    0
  9
$SPLINETYPE
 70
    2
  9
$SPLINESEGS
 70
    8
  9
$HANDSEED
  5
20000
  9
$SURFTAB1
 70
    6
  9
$SURFTAB2
 70
    6
  9
$SURFTYPE
 70
    6
  9
$SURFU
 70
    6
  9
$SURFV
 70
    6
  9
$UCSBASE
  2

  9
$UCSNAME
  2

  9
$UCSORG
 10
0
 20
0
 30
0
  9
$UCSXDIR
 10
1
 20
0
 30
0
  9
$UCSYDIR
 10
0
 20
1
 30
0
  9
$UCSORTHOREF
  2

  9
$UCSORTHOVIEW
 70
    0
  9
$UCSORGTOP
 10
0
 20
0
 30
0
  9
$UCSORGBOTTOM
 10
0
 20
0
 30
0
  9
$UCSORGLEFT
 10
0
 20
0
 30
0
  9
$UCSORGRIGHT
 10
0
 20
0
 30
0
  9
$UCSORGFRONT
 10
0
 20
0
 30
0
  9
$UCSORGBACK
 10
0
 20
0
 30
0
  9
$PUCSBASE
  2

  9
$PUCSNAME
  2

  9
$PUCSORG
 10
0
 20
0
 30
0
  9
$PUCSXDIR
 10
1
 20
0
 30
0
  9
$PUCSYDIR
 10
0
 20
1
 30
0
  9
$PUCSORTHOREF
  2

  9
$PUCSORTHOVIEW
 70
    0
  9
$PUCSORGTOP
 10
0
 20
0
 30
0
  9
$PUCSORGBOTTOM
 10
0
 20
0
 30
0
  9
$PUCSORGLEFT
 10
0
 20
0
 30
0
  9
$PUCSORGRIGHT
 10
0
 20
0
 30
0
  9
$PUCSORGFRONT
 10
0
 20
0
 30
0
  9
$PUCSORGBACK
 10
0
 20
0
 30
0
  9
$USERI1
 70
    0
  9
$USERI2
 70
    0
  9
$USERI3
 70
    0
  9
$USERI4
 70
    0
  9
$USERI5
 70
    0
  9
$USERR1
 40
0
  9
$USERR2
 40
0
  9
$USERR3
 40
0
  9
$USERR4
 40
0
  9
$USERR5
 40
0
  9
$WORLDVIEW
 70
    1
  9
$SHADEDGE
 70
    3
  9
$SHADEDIF
 70
   70
  9
$TILEMODE
 70
    1
  9
$MAXACTVP
 70
   64
  9
$PINSBASE
 10
0
 20
0
 30
0
  9
$PLIMCHECK
 70
    0
  9
$PEXTMIN
 10
0
 20
0
 30
0
  9
$PEXTMAX
 10
0
 20
0
 30
0
  9
$PLIMMIN
 10
0
 20
0
  9
$PLIMMAX
 10
11
 20
8.5
  9
$UNITMODE
 70
    0
  9
$VISRETAIN
 70
    1
  9
$PLINEGEN
 70
    0
  9
$PSLTSCALE
 70
    1
  9
$TREEDEPTH
 70
 3020
  9
$CMLSTYLE
  2
Standard
  9
$CMLJUST
 70
    0
  9
$CMLSCALE
 40
20
  9
$PROXYGRAPHICS
 70
    1
  9
$MEASUREMENT
 70
    1
  9
$CELWEIGHT
370
   -1
  9
$ENDCAPS
280
    0
  9
$JOINSTYLE
280
    0
  9
$LWDISPLAY
290
    0
  9
$INSUNITS
 70
    1
  9
$HYPERLINKBASE
  1

  9
$STYLESHEET
  1

  9
$XEDIT
290
    1
  9
$CEPSNTYPE
380
    0
  9
$PSTYLEMODE
290
    1
  9
$EXTNAMES
290
    1
  9
$PSVPSCALE
 40
1
  9
$OLESTARTUP
290
    0
  9
$SORTENTS
280
  127
  9
$INDEXCTL
280
    0
  9
$HIDETEXT
280
    1
  9
$XCLIPFRAME
290
    0
  9
$HALOGAP
280
    0
  9
$OBSCOLOR
 70
  257
  9
$OBSLTYPE
280
    0
  9
$INTERSECTIONDISPLAY
280
    0
  9
$INTERSECTIONCOLOR
 70
  257
  9
$DIMASSOC
280
    1
  9
$PROJECTNAME
  1

  9
$CAMERADISPLAY
290
    0
  9
$LENSLENGTH
 40
50
  9
$CAMERAHEIGHT
 40
0
  9
$STEPSPERSEC
 40
2
  9
$STEPSIZE
 40
50
  9
$3DDWFPREC
 40
2
  9
$PSOLWIDTH
 40
5
  9
$PSOLHEIGHT
 40
80
  9
$LOFTANG1
 40
1.570796326794897
  9
$LOFTANG2
 40
1.570796326794897
  9
$LOFTMAG1
 40
0
  9
$LOFTMAG2
 40
0
  9
$LOFTPARAM
 70
    7
  9
$LOFTNORMALS
280
    1
  9
$LATITUDE
 40
1
  9
$LONGITUDE
 40
1
  9
$NORTHDIRECTION
 40
0
  9
$TIMEZONE
 70
-8000
  9
$LIGHTGLYPHDISPLAY
280
    1
  9
$TILEMODELIGHTSYNCH
280
    1
  9
$SOLIDHIST
280
    1
  9
$SHOWHIST
280
    1
  9
$DWFFRAME
280
    2
  9
$DGNFRAME
280
    0
  9
$REALWORLDSCALE
290
    1
  9
$INTERFERECOLOR
 62
    1
  9
$CSHADOW
280
    0
  9
$SHADOWPLANELOCATION
 40
0
  0
ENDSEC
  0
SECTION
  2
CLASSES
  0
ENDSEC
  0
SECTION
  2
TABLES
  0
TABLE
  2
VPORT
  5
8
330
0
100
AcDbSymbolTable
 70
    1
  0
VPORT
  5
31
330
2
100
AcDbSymbolTableRecord
100
AcDbViewportTableRecord
  2
*ACTIVE
 70
    0
 10
0
 20
0
 11
1
 21
1
 12
1.784160704205051
 22
0.6275542993419367
 13
0
 23
0
 14
10
 24
10
 15
10
 25
10
 16
0
 26
0
 36
1
 17
0
 27
0
 37
0
 40
2.507039707244497
 41
1.477820025348543
 42
50
 43
0
 44
0
 50
0
 51
0
 71
    0
 72
  100
 73
    1
 74
    3
 75
    0
 76
    1
 77
    0
 78
    0
281
    0
 65
    1
110
0
120
0
130
0
111
1
121
0
131
0
112
0
122
1
132
0
 79
    0
146
0
348
10020
 60
    7
 61
    5
292
1
282
    1
141
0
142
0
 63
  250
421
3358443
  0
ENDTAB
  0
TABLE
  2
LTYPE
  5
5
330
0
100
AcDbSymbolTable
 70
    4
  0
LTYPE
  5
14
330
5
100
AcDbSymbolTableRecord
100
AcDbLinetypeTableRecord
  2
ByBlock
 70
    0
  3

 72
   65
 73
    0
 40
0
  0
LTYPE
  5
15
330
5
100
AcDbSymbolTableRecord
100
AcDbLinetypeTableRecord
  2
ByLayer
 70
    0
  3

 72
   65
 73
    0
 40
0
  0
LTYPE
  5
16
330
5
100
AcDbSymbolTableRecord
100
AcDbLinetypeTableRecord
  2
Continuous
 70
    0
  3
Solid line
 72
   65
 73
    0
 40
0
  0
LTYPE
  5
32
330
5
100
AcDbSymbolTableRecord
100
AcDbLinetypeTableRecord
  2
DOT
 70
    0
  3
Dot . . . . . . . . . . . . . . . . . . . . . .
 72
   65
 73
    2
 40
6.35
 49
0
 74
    0
 49
-6.35
 74
    0
  0
LTYPE
  5
33
330
5
100
AcDbSymbolTableRecord
100
AcDbLinetypeTableRecord
  2
DOTTINY
 70
    0
  3
Dot (.15x) .....................................
 72
   65
 73
    2
 40
0.9525
 49
0
 74
    0
 49
-0.9525
 74
    0
  0
LTYPE
  5
34
330
5
100
AcDbSymbolTableRecord
100
AcDbLinetypeTableRecord
  2
DOT2
 70
    0
  3
Dot (.5x) .....................................
 72
   65
 73
    2
 40
3.175
 49
0
 74
    0
 49
-3.175
 74
    0
  0
LTYPE
  5
35
330
5
100
AcDbSymbolTableRecord
100
AcDbLinetypeTableRecord
  2
DOTX2
 70
    0
  3
Dot (2x) .  .  .  .  .  .  .  .  .  .  .  .  .
 72
   65
 73
    2
 40
12.7
 49
0
 74
    0
 49
-12.7
 74
    0
  0
LTYPE
  5
36
330
5
100
AcDbSymbolTableRecord
100
AcDbLinetypeTableRecord
  2
DASHED
 70
    0
  3
Dashed _ _ _ _ _ _ _ _ _ _ _ _ _ _ _ _ _
 72
   65
 73
    2
 40
19.05
 49
12.7
 74
    0
 49
-6.35
 74
    0
  0
LTYPE
  5
37
330
5
100
AcDbSymbolTableRecord
100
AcDbLinetypeTableRecord
  2
DASHEDTINY
 70
    0
  3
Dashed (.15x) _ _ _ _ _ _ _ _ _ _ _ _ _ _ _ _ _
 72
   65
 73
    2
 40
2.8575
 49
1.905
 74
    0
 49
-0.9525
 74
    0
  0
LTYPE
  5
38
330
5
100
AcDbSymbolTableRecord
100
AcDbLinetypeTableRecord
  2
DASHED2
 70
    0
  3
Dashed (.5x) _ _ _ _ _ _ _ _ _ _ _ _ _ _ _ _ _
 72
   65
 73
    2
 40
9.524999999999999
 49
6.35
 74
    0
 49
-3.175
 74
    0
  0
LTYPE
  5
39
330
5
100
AcDbSymbolTableRecord
100
AcDbLinetypeTableRecord
  2
DASHEDX2
 70
    0
  3
Dashed (2x) ____  ____  ____  ____  ____  ___
 72
   65
 73
    2
 40
38.09999999999999
 49
25.4
 74
    0
 49
-12.7
 74
    0
  0
LTYPE
  5
3A
330
5
100
AcDbSymbolTableRecord
100
AcDbLinetypeTableRecord
  2
DASHDOT
 70
    0
  3
Dash dot __ . __ . __ . __ . __ . __ . __ . __
 72
   65
 73
    4
 40
25.4
 49
12.7
 74
    0
 49
-6.35
 74
    0
 49
0
 74
    0
 49
-6.35
 74
    0
  0
LTYPE
  5
3B
330
5
100
AcDbSymbolTableRecord
100
AcDbLinetypeTableRecord
  2
DASHDOTTINY
 70
    0
  3
Dash dot (.15x) _._._._._._._._._._._._._._._.
 72
   65
 73
    4
 40
3.81
 49
1.905
 74
    0
 49
-0.9525
 74
    0
 49
0
 74
    0
 49
-0.9525
 74
    0
  0
LTYPE
  5
3C
330
5
100
AcDbSymbolTableRecord
100
AcDbLinetypeTableRecord
  2
DASHDOT2
 70
    0
  3
Dash dot (.5x) _._._._._._._._._._._._._._._.
 72
   65
 73
    4
 40
12.7
 49
6.35
 74
    0
 49
-3.175
 74
    0
 49
0
 74
    0
 49
-3.175
 74
    0
  0
LTYPE
  5
3D
330
5
100
AcDbSymbolTableRecord
100
AcDbLinetypeTableRecord
  2
DASHDOTX2
 70
    0
  3
Dash dot (2x) ____  .  ____  .  ____  .  ___
 72
   65
 73
    4
 40
50.8
 49
25.4
 74
    0
 49
-12.7
 74
    0
 49
0
 74
    0
 49
-12.7
 74
    0
  0
LTYPE
  5
3E
330
5
100
AcDbSymbolTableRecord
100
AcDbLinetypeTableRecord
  2
DIVIDE
 70
    0
  3
Divide ____ . . ____ . . ____ . . ____ . . ____
 72
   65
 73
    6
 40
31.75
 49
12.7
 74
    0
 49
-6.35
 74
    0
 49
0
 74
    0
 49
-6.35
 74
    0
 49
0
 74
    0
 49
-6.35
 74
    0
  0
LTYPE
  5
3F
330
5
100
AcDbSymbolTableRecord
100
AcDbLinetypeTableRecord
  2
DIVIDETINY
 70
    0
  3
Divide (.15x) __..__..__..__..__..__..__..__.._
 72
   65
 73
    6
 40
4.7625
 49
1.905
 74
    0
 49
-0.9525
 74
    0
 49
0
 74
    0
 49
-0.9525
 74
    0
 49
0
 74
    0
 49
-0.9525
 74
    0
  0
LTYPE
  5
40
330
5
100
AcDbSymbolTableRecord
100
AcDbLinetypeTableRecord
  2
DIVIDE2
 70
    0
  3
Divide (.5x) __..__..__..__..__..__..__..__.._
 72
   65
 73
    6
 40
15.875
 49
6.35
 74
    0
 49
-3.175
 74
    0
 49
0
 74
    0
 49
-3.175
 74
    0
 49
0
 74
    0
 49
-3.175
 74
    0
  0
LTYPE
  5
41
330
5
100
AcDbSymbolTableRecord
100
AcDbLinetypeTableRecord
  2
DIVIDEX2
 70
    0
  3
Divide (2x) ________  .  .  ________  .  .  _
 72
   65
 73
    6
 40
63.5
 49
25.4
 74
    0
 49
-12.7
 74
    0
 49
0
 74
    0
 49
-12.7
 74
    0
 49
0
 74
    0
 49
-12.7
 74
    0
  0
LTYPE
  5
42
330
5
100
AcDbSymbolTableRecord
100
AcDbLinetypeTableRecord
  2
BORDER
 70
    0
  3
Border __ __ . __ __ . __ __ . __ __ . __ __ .
 72
   65
 73
    6
 40
44.45
 49
12.7
 74
    0
 49
-6.35
 74
    0
 49
12.7
 74
    0
 49
-6.35
 74
    0
 49
0
 74
    0
 49
-6.35
 74
    0
  0
LTYPE
  5
43
330
5
100
AcDbSymbolTableRecord
100
AcDbLinetypeTableRecord
  2
BORDERTINY
 70
    0
  3
Border (.15x) __.__.__.__.__.__.__.__.__.__.__.
 72
   65
 73
    6
 40
6.6675
 49
1.905
 74
    0
 49
-0.9525
 74
    0
 49
1.905
 74
    0
 49
-0.9525
 74
    0
 49
0
 74
    0
 49
-0.9525
 74
    0
  0
LTYPE
  5
44
330
5
100
AcDbSymbolTableRecord
100
AcDbLinetypeTableRecord
  2
BORDER2
 70
    0
  3
Border (.5x) __.__.__.__.__.__.__.__.__.__.__.
 72
   65
 73
    6
 40
22.225
 49
6.35
 74
    0
 49
-3.175
 74
    0
 49
6.35
 74
    0
 49
-3.175
 74
    0
 49
0
 74
    0
 49
-3.175
 74
    0
  0
LTYPE
  5
45
330
5
100
AcDbSymbolTableRecord
100
AcDbLinetypeTableRecord
  2
BORDERX2
 70
    0
  3
Border (2x) ____  ____  .  ____  ____  .  ___
 72
   65
 73
    6
 40
88.89999999999999
 49
25.4
 74
    0
 49
-12.7
 74
    0
 49
25.4
 74
    0
 49
-12.7
 74
    0
 49
0
 74
    0
 49
-12.7
 74
    0
  0
LTYPE
  5
46
330
5
100
AcDbSymbolTableRecord
100
AcDbLinetypeTableRecord
  2
CENTER
 70
    0
  3
Center ____ _ ____ _ ____ _ ____ _ ____ _ ____
 72
   65
 73
    4
 40
50.8
 49
31.75
 74
    0
 49
-6.35
 74
    0
 49
6.35
 74
    0
 49
-6.35
 74
    0
  0
LTYPE
  5
47
330
5
100
AcDbSymbolTableRecord
100
AcDbLinetypeTableRecord
  2
CENTERTINY
 70
    0
  3
Center (.15x) ___ _ ___ _ ___ _ ___ _ ___ _ ___
 72
   65
 73
    4
 40
7.619999999999999
 49
4.7625
 74
    0
 49
-0.9525
 74
    0
 49
0.9525
 74
    0
 49
-0.9525
 74
    0
  0
LTYPE
  5
48
330
5
100
AcDbSymbolTableRecord
100
AcDbLinetypeTableRecord
  2
CENTER2
 70
    0
  3
Center (.5x) ___ _ ___ _ ___ _ ___ _ ___ _ ___
 72
   65
 73
    4
 40
28.575
 49
19.05
 74
    0
 49
-3.175
 74
    0
 49
3.175
 74
    0
 49
-3.175
 74
    0
  0
LTYPE
  5
49
330
5
100
AcDbSymbolTableRecord
100
AcDbLinetypeTableRecord
  2
CENTERX2
 70
    0
  3
Center (2x) ________  __  ________  __  _____
 72
   65
 73
    4
 40
101.6
 49
63.5
 74
    0
 49
-12.7
 74
    0
 49
12.7
 74
    0
 49
-12.7
 74
    0
  0
ENDTAB
  0
TABLE
  2
LAYER
  5
2
330
0
100
AcDbSymbolTable
 70
    1
  0
LAYER
  5
10
330
2
100
AcDbSymbolTableRecord
100
AcDbLayerTableRecord
  2
0
 70
    1
 62
    7
  6
CONTINUOUS
370
    0
390
F
  0
LAYER
  5
4A
330
2
100
AcDbSymbolTableRecord
100
AcDbLayerTableRecord
  2
Aluminum bushing+nut
 70
    1
 62
    7
  6
CONTINUOUS
370
    0
390
F
  0
LAYER
  5
4B
330
2
100
AcDbSymbolTableRecord
100
AcDbLayerTableRecord
  2
Angles
 70
    0
 62
    7
  6
CONTINUOUS
370
    0
390
F
  0
LAYER
  5
4C
330
2
100
AcDbSymbolTableRecord
100
AcDbLayerTableRecord
  2
Steel
 70
    0
 62
    7
  6
CONTINUOUS
370
    0
390
F
  0
LAYER
  5
4D
330
2
100
AcDbSymbolTableRecord
100
AcDbLayerTableRecord
  2
diameters
 70
    1
 62
    7
  6
CONTINUOUS
370
    0
390
F
  0
LAYER
  5
4E
330
2
100
AcDbSymbolTableRecord
100
AcDbLayerTableRecord
  2
lengths
 70
    1
 62
    7
  6
CONTINUOUS
370
    0
390
F
  0
LAYER
  5
4F
330
2
100
AcDbSymbolTableRecord
100
AcDbLayerTableRecord
  2
thread info
 70
    1
 62
    7
  6
CONTINUOUS
370
    0
390
F
  0
ENDTAB
  0
TABLE
  2
STYLE
  5
3
330
0
100
AcDbSymbolTable
 70
    3
  0
STYLE
  5
50
330
2
100
AcDbSymbolTableRecord
100
AcDbTextStyleTableRecord
  2
Standard
 70
    0
 40
0
 41
1
 50
0
 71
    0
 42
1
  3
txt
  4

  0
ENDTAB
  0
TABLE
  2
VIEW
  5
6
330
0
100
AcDbSymbolTable
 70
    0
  0
ENDTAB
  0
TABLE
  2
UCS
  5
7
330
0
100
AcDbSymbolTable
 70
    0
  0
ENDTAB
  0
TABLE
  2
APPID
  5
9
330
0
100
AcDbSymbolTable
 70
    1
  0
APPID
  5
12
330
9
100
AcDbSymbolTableRecord
100
AcDbRegAppTableRecord
  2
ACAD
 70
    0
  0
APPID
  5
51
330
9
100
AcDbSymbolTableRecord
100
AcDbRegAppTableRecord
  2
LibreCad
 70
    0
  0
ENDTAB
  0
TABLE
  2
DIMSTYLE
  5
A
330
0
100
AcDbSymbolTable
 70
    1
100
AcDbDimStyleTable
 71
    1
  0
DIMSTYLE
105
52
330
A
100
AcDbSymbolTableRecord
100
AcDbDimStyleTableRecord
  2
Standard
 70
    0
 40
1
 41
0.025
 42
0.0625
 43
0.38
 44
0.0125
 45
0
 46
0
 47
0
 48
0
 49
1
140
0.03
141
0.09
142
0
143
25.4
144
1
145
0
146
1
147
0.0625
148
0
 71
    0
 72
    0
 73
    0
 74
    1
 75
    0
 76
    0
 77
    0
 78
    1
 79
    0
170
    0
171
    2
172
    0
173
    0
174
    0
175
    0
176
    2
177
    2
178
    0
179
    2
271
    4
272
    4
273
    2
274
    2
275
    0
276
    0
277
    2
278
    0
279
    0
280
    0
281
    0
282
    0
283
    1
284
    0
285
    0
286
    0
288
    0
289
    3
340
standard
341

371
   -2
372
   -2
  0
ENDTAB
  0
TABLE
  2
BLOCK_RECORD
  5
1
330
0
100
AcDbSymbolTable
 70
    2
  0
BLOCK_RECORD
  5
1F
330
1
100
AcDbSymbolTableRecord
100
AcDbBlockTableRecord
  2
*Model_Space
 70
    0
280
    1
281
    0
  0
BLOCK_RECORD
  5
1E
330
1
100
AcDbSymbolTableRecord
100
AcDbBlockTableRecord
  2
*Paper_Space
 70
    0
280
    1
281
    0
  0
BLOCK_RECORD
  5
53
330
1
100
AcDbSymbolTableRecord
100
AcDbBlockTableRecord
  2
*D3
 70
    0
280
    1
281
    0
  0
BLOCK_RECORD
  5
56
330
1
100
AcDbSymbolTableRecord
100
AcDbBlockTableRecord
  2
*D6
 70
    0
280
    1
281
    0
  0
BLOCK_RECORD
  5
59
330
1
100
AcDbSymbolTableRecord
100
AcDbBlockTableRecord
  2
*D7
 70
    0
280
    1
281
    0
  0
BLOCK_RECORD
  5
5C
330
1
100
AcDbSymbolTableRecord
100
AcDbBlockTableRecord
  2
*D19
 70
    0
280
    1
281
    0
  0
BLOCK_RECORD
  5
5F
330
1
100
AcDbSymbolTableRecord
100
AcDbBlockTableRecord
  2
*D8
 70
    0
280
    1
281
    0
  0
BLOCK_RECORD
  5
62
330
1
100
AcDbSymbolTableRecord
100
AcDbBlockTableRecord
  2
*D10
 70
    0
280
    1
281
    0
  0
BLOCK_RECORD
  5
65
330
1
100
AcDbSymbolTableRecord
100
AcDbBlockTableRecord
  2
*D5
 70
    0
280
    1
281
    0
  0
BLOCK_RECORD
  5
68
330
1
100
AcDbSymbolTableRecord
100
AcDbBlockTableRecord
  2
*D11
 70
    0
280
    1
281
    0
  0
BLOCK_RECORD
  5
6B
330
1
100
AcDbSymbolTableRecord
100
AcDbBlockTableRecord
  2
*D17
 70
    0
280
    1
281
    0
  0
BLOCK_RECORD
  5
6E
330
1
100
AcDbSymbolTableRecord
100
AcDbBlockTableRecord
  2
*D1
 70
    0
280
    1
281
    0
  0
BLOCK_RECORD
  5
71
330
1
100
AcDbSymbolTableRecord
100
AcDbBlockTableRecord
  2
*D14
 70
    0
280
    1
281
    0
  0
BLOCK_RECORD
  5
74
330
1
100
AcDbSymbolTableRecord
100
AcDbBlockTableRecord
  2
*D12
 70
    0
280
    1
281
    0
  0
BLOCK_RECORD
  5
77
330
1
100
AcDbSymbolTableRecord
100
AcDbBlockTableRecord
  2
*D4
 70
    0
280
    1
281
    0
  0
BLOCK_RECORD
  5
7A
330
1
100
AcDbSymbolTableRecord
100
AcDbBlockTableRecord
  2
*D2
 70
    0
280
    1
281
    0
  0
BLOCK_RECORD
  5
7D
330
1
100
AcDbSymbolTableRecord
100
AcDbBlockTableRecord
  2
*D15
 70
    0
280
    1
281
    0
  0
BLOCK_RECORD
  5
80
330
1
100
AcDbSymbolTableRecord
100
AcDbBlockTableRecord
  2
*D9
 70
    0
280
    1
281
    0
  0
BLOCK_RECORD
  5
83
330
1
100
AcDbSymbolTableRecord
100
AcDbBlockTableRecord
  2
*D16
 70
    0
280
    1
281
    0
  0
BLOCK_RECORD
  5
86
330
1
100
AcDbSymbolTableRecord
100
AcDbBlockTableRecord
  2
*D13
 70
    0
280
    1
281
    0
  0
BLOCK_RECORD
  5
89
330
1
100
AcDbSymbolTableRecord
100
AcDbBlockTableRecord
  2
*D18
 70
    0
280
    1
281
    0
  0
BLOCK_RECORD
  5
8C
330
1
100
AcDbSymbolTableRecord
100
AcDbBlockTableRecord
  2
thread
 70
    0
280
    1
281
    0
  0
ENDTAB
  0
ENDSEC
  0
SECTION
  2
BLOCKS
  0
BLOCK
  5
20
330
1F
100
AcDbEntity
  8
0
100
AcDbBlockBegin
  2
*Model_Space
 70
    0
 10
0
 20
0
 30
0
  3
*Model_Space
  1

  0
ENDBLK
  5
21
330
1F
100
AcDbEntity
  8
0
100
AcDbBlockEnd
  0
BLOCK
  5
1C
330
1B
100
AcDbEntity
  8
0
100
AcDbBlockBegin
  2
*Paper_Space
 70
    0
 10
0
 20
0
 30
0
  3
*Paper_Space
  1

  0
ENDBLK
  5
1D
330
1F
100
AcDbEntity
  8
0
100
AcDbBlockEnd
  0
BLOCK
  5
54
330
53
100
AcDbEntity
  8
0
100
AcDbBlockBegin
  2
*D3
 70
    1
 10
0
 20
0
  3
*D3
  1

  0
LINE
  5
8F
100
AcDbEntity
  8
diameters
  6
ByBlock
 62
    2
370
   -2
100
AcDbLine
 10
0.5291742430504447
 20
0.5700000000000002
 11
0.4346402108355483
 21
0.5700000000000005
  0
LINE
  5
90
100
AcDbEntity
  8
diameters
  6
ByBlock
 62
    2
370
   -2
100
AcDbLine
 10
0.5291742430504409
 20
-0.5699999999999998
 11
0.4346402108355445
 21
-0.5699999999999995
  0
LINE
  5
91
100
AcDbEntity
  8
diameters
  6
ByBlock
 62
    2
370
   -2
100
AcDbLine
 10
0.4471402108355483
 20
0.5700000000000005
 11
0.4471402108355446
 21
-0.5699999999999995
  0
SOLID
  5
92
100
AcDbEntity
  8
diameters
  6
ByBlock
 62
    2
370
   -2
100
AcDbTrace
 10
0.4471402108355483
 20
0.5700000000000005
 30
0
 11
0.4513030574132766
 21
0.5450000000000005
 31
0
 12
0.4429773642578199
 22
0.5450000000000005
 32
0
 13
0.4429773642578199
 23
0.5450000000000005
 33
0
  0
SOLID
  5
93
100
AcDbEntity
  8
diameters
  6
ByBlock
 62
    2
370
   -2
100
AcDbTrace
 10
0.4471402108355446
 20
-0.5699999999999995
 30
0
 11
0.4429773642578163
 21
-0.5449999999999995
 31
0
 12
0.451303057413273
 22
-0.5449999999999995
 32
0
 13
0.451303057413273
 23
-0.5449999999999995
 33
0
  0
MTEXT
  5
94
100
AcDbEntity
  8
diameters
  6
CONTINUOUS
 62
    0
370
   -2
100
AcDbMText
 10
0.3696402108355464
 20
7.844266838817512e-16
 30
0
 40
0.03
 41
0.1066666666666667
 71
    5
 72
    1
  1
1.1400
  7
standard
210
0
220
0
230
1
 50
89.9999999999998
 73
    2
 44
1
  0
ENDBLK
  5
55
330
53
100
AcDbEntity
  8
0
100
AcDbBlockEnd
  0
BLOCK
  5
57
330
56
100
AcDbEntity
  8
0
100
AcDbBlockBegin
  2
*D6
 70
    1
 10
0
 20
0
  3
*D6
  1

  0
LINE
  5
95
100
AcDbEntity
  8
lengths
  6
ByBlock
 62
    2
370
   -2
100
AcDbLine
 10
1.2
 20
-0.375
 11
1.2
 21
-0.3147814826947593
  0
LINE
  5
96
100
AcDbEntity
  8
lengths
  6
ByBlock
 62
    2
370
   -2
100
AcDbLine
 10
1.4375
 20
-0.3749999999999998
 11
1.4375
 21
-0.3147814826947591
  0
LINE
  5
97
100
AcDbEntity
  8
lengths
  6
ByBlock
 62
    2
370
   -2
100
AcDbLine
 10
1.2
 20
-0.3272814826947593
 11
1.4375
 21
-0.3272814826947591
  0
SOLID
  5
98
100
AcDbEntity
  8
lengths
  6
ByBlock
 62
    2
370
   -2
100
AcDbTrace
 10
1.2
 20
-0.3272814826947593
 30
0
 11
1.225
 21
-0.3231186361170309
 31
0
 12
1.225
 22
-0.3314443292724877
 32
0
 13
1.225
 23
-0.3314443292724877
 33
0
  0
SOLID
  5
99
100
AcDbEntity
  8
lengths
  6
ByBlock
 62
    2
370
   -2
100
AcDbTrace
 10
1.4375
 20
-0.3272814826947591
 30
0
 11
1.4125
 21
-0.3314443292724875
 31
0
 12
1.4125
 22
-0.3231186361170307
 32
0
 13
1.4125
 23
-0.3231186361170307
 33
0
  0
MTEXT
  5
9A
100
AcDbEntity
  8
lengths
  6
CONTINUOUS
 62
    0
370
   -2
100
AcDbMText
 10
1.31875
 20
-0.2497814826947592
 30
0
 40
0.03
 41
0.1166666666666704
 71
    5
 72
    1
  1
0.2375
  7
standard
210
0
220
0
230
1
 50
5.088887490341627e-14
 73
    2
 44
1
  0
ENDBLK
  5
58
330
56
100
AcDbEntity
  8
0
100
AcDbBlockEnd
  0
BLOCK
  5
5A
330
59
100
AcDbEntity
  8
0
100
AcDbBlockBegin
  2
*D7
 70
    1
 10
0
 20
0
  3
*D7
  1

  0
LINE
  5
9B
100
AcDbEntity
  8
lengths
  6
ByBlock
 62
    2
370
   -2
100
AcDbLine
 10
1.791053390593274
 20
-0.3749999999999999
 11
1.791053390593274
 21
-0.2639416407227577
  0
LINE
  5
9C
100
AcDbEntity
  8
lengths
  6
ByBlock
 62
    2
370
   -2
100
AcDbLine
 10
2
 20
-0.3749999999999999
 11
2
 21
-0.2639416407227577
  0
LINE
  5
9D
100
AcDbEntity
  8
lengths
  6
ByBlock
 62
    2
370
   -2
100
AcDbLine
 10
1.791053390593274
 20
-0.2764416407227577
 11
2
 21
-0.2764416407227577
  0
SOLID
  5
9E
100
AcDbEntity
  8
lengths
  6
ByBlock
 62
    2
370
   -2
100
AcDbTrace
 10
1.791053390593274
 20
-0.2764416407227577
 30
0
 11
1.816053390593274
 21
-0.2722787941450293
 31
0
 12
1.816053390593274
 22
-0.2806044873004861
 32
0
 13
1.816053390593274
 23
-0.2806044873004861
 33
0
  0
SOLID
  5
9F
100
AcDbEntity
  8
lengths
  6
ByBlock
 62
    2
370
   -2
100
AcDbTrace
 10
2
 20
-0.2764416407227577
 30
0
 11
1.975000000000001
 21
-0.2806044873004861
 31
0
 12
1.975000000000001
 22
-0.2722787941450293
 32
0
 13
1.975000000000001
 23
-0.2722787941450293
 33
0
  0
MTEXT
  5
A0
100
AcDbEntity
  8
lengths
  6
CONTINUOUS
 62
    0
370
   -2
100
AcDbMText
 10
1.895526695296637
 20
-0.1989416407227577
 30
0
 40
0.03
 41
0.1166666666666667
 71
    5
 72
    1
  1
0.2089
  7
standard
210
0
220
0
230
1
 50
0
 73
    2
 44
1
  0
ENDBLK
  5
5B
330
59
100
AcDbEntity
  8
0
100
AcDbBlockEnd
  0
BLOCK
  5
5D
330
5C
100
AcDbEntity
  8
0
100
AcDbBlockBegin
  2
*D19
 70
    1
 10
0
 20
0
  3
*D19
  1

  0
LINE
  5
A1
100
AcDbEntity
  8
lengths
  6
ByBlock
 62
    2
370
   -2
100
AcDbLine
 10
0.3269366764325856
 20
-0.4375
 11
0.3269366764325856
 21
-0.5900000000000001
  0
SOLID
  5
A2
100
AcDbEntity
  8
lengths
  6
ByBlock
 62
    2
370
   -2
100
AcDbTrace
 10
0.3269366764325856
 20
-0.4375
 30
0
 11
0.331099523010314
 21
-0.4625
 31
0
 12
0.3227738298548571
 22
-0.4625
 32
0
 13
0.3227738298548571
 23
-0.4625
 33
0
  0
SOLID
  5
A3
100
AcDbEntity
  8
lengths
  6
ByBlock
 62
    2
370
   -2
100
AcDbTrace
 10
0.3269366764325856
 20
-0.5900000000000001
 30
0
 11
0.3227738298548571
 21
-0.5650000000000001
 31
0
 12
0.331099523010314
 22
-0.5650000000000001
 32
0
 13
0.331099523010314
 23
-0.5650000000000001
 33
0
  0
MTEXT
  5
A4
100
AcDbEntity
  8
lengths
  6
CONTINUOUS
 62
    0
370
   -2
100
AcDbMText
 10
0.2494366764325855
 20
-0.51375
 30
0
 40
0.03
 41
0.1100000000000037
 71
    5
 72
    1
  1
0.1525
  7
standard
210
0
220
0
230
1
 50
90
 73
    2
 44
1
  0
LINE
  5
A5
100
AcDbEntity
  8
lengths
  6
ByBlock
 62
    2
370
   -2
100
AcDbLine
 10
0.5125000000000002
 20
-0.4375000000000001
 11
0.3144366764325855
 21
-0.4375
  0
LINE
  5
A6
100
AcDbEntity
  8
lengths
  6
ByBlock
 62
    2
370
   -2
100
AcDbLine
 10
0.5750000000000002
 20
-0.5900000000000001
 11
0.3144366764325855
 21
-0.5900000000000001
  0
ENDBLK
  5
5E
330
5C
100
AcDbEntity
  8
0
100
AcDbBlockEnd
  0
BLOCK
  5
60
330
5F
100
AcDbEntity
  8
0
100
AcDbBlockBegin
  2
*D8
 70
    1
 10
0
 20
0
  3
*D8
  1

  0
LINE
  5
A7
100
AcDbEntity
  8
lengths
  6
ByBlock
 62
    2
370
   -2
100
AcDbLine
 10
2.015
 20
-0.38
 11
2.015
 21
-0.1400195259160043
  0
LINE
  5
A8
100
AcDbEntity
  8
lengths
  6
ByBlock
 62
    2
370
   -2
100
AcDbLine
 10
2.3
 20
-0.38
 11
2.3
 21
-0.1400195259160043
  0
LINE
  5
A9
100
AcDbEntity
  8
lengths
  6
ByBlock
 62
    2
370
   -2
100
AcDbLine
 10
2.015
 20
-0.1525195259160043
 11
2.3
 21
-0.1525195259160043
  0
SOLID
  5
AA
100
AcDbEntity
  8
lengths
  6
ByBlock
 62
    2
370
   -2
100
AcDbTrace
 10
2.015
 20
-0.1525195259160043
 30
0
 11
2.04
 21
-0.1483566793382759
 31
0
 12
2.04
 22
-0.1566823724937327
 32
0
 13
2.04
 23
-0.1566823724937327
 33
0
  0
SOLID
  5
AB
100
AcDbEntity
  8
lengths
  6
ByBlock
 62
    2
370
   -2
100
AcDbTrace
 10
2.3
 20
-0.1525195259160043
 30
0
 11
2.275
 21
-0.1566823724937327
 31
0
 12
2.275
 22
-0.1483566793382758
 32
0
 13
2.275
 23
-0.1483566793382758
 33
0
  0
MTEXT
  5
AC
100
AcDbEntity
  8
lengths
  6
CONTINUOUS
 62
    0
370
   -2
100
AcDbMText
 10
2.1575
 20
-0.07501952591600426
 30
0
 40
0.03
 41
0.1166666666666685
 71
    5
 72
    1
  1
0.2850
  7
standard
210
0
220
0
230
1
 50
0
 73
    2
 44
1
  0
ENDBLK
  5
61
330
5F
100
AcDbEntity
  8
0
100
AcDbBlockEnd
  0
BLOCK
  5
63
330
62
100
AcDbEntity
  8
0
100
AcDbBlockBegin
  2
*D10
 70
    1
 10
0
 20
0
  3
*D10
  1

  0
LINE
  5
AD
100
AcDbEntity
  8
lengths
  6
ByBlock
 62
    2
370
   -2
100
AcDbLine
 10
0.9162404643728528
 20
0.7403551987172706
 11
2.3
 21
0.7403551987172706
  0
SOLID
  5
AE
100
AcDbEntity
  8
lengths
  6
ByBlock
 62
    2
370
   -2
100
AcDbTrace
 10
0.9162404643728528
 20
0.7403551987172706
 30
0
 11
0.9412404643728528
 21
0.744518045294999
 31
0
 12
0.9412404643728528
 22
0.7361923521395423
 32
0
 13
0.9412404643728528
 23
0.7361923521395423
 33
0
  0
SOLID
  5
AF
100
AcDbEntity
  8
lengths
  6
ByBlock
 62
    2
370
   -2
100
AcDbTrace
 10
2.3
 20
0.7403551987172706
 30
0
 11
2.275
 21
0.7361923521395423
 31
0
 12
2.275
 22
0.744518045294999
 32
0
 13
2.275
 23
0.744518045294999
 33
0
  0
MTEXT
  5
B0
100
AcDbEntity
  8
lengths
  6
CONTINUOUS
 62
    0
370
   -2
100
AcDbMText
 10
1.608120232186426
 20
0.8178551987172706
 30
0
 40
0.03
 41
0.1100000000000037
 71
    5
 72
    1
  1
1.3838
  7
standard
210
0
220
0
230
1
 50
0
 73
    2
 44
1
  0
LINE
  5
B1
100
AcDbEntity
  8
lengths
  6
ByBlock
 62
    2
370
   -2
100
AcDbLine
 10
0.9162404643728528
 20
0.75
 11
0.9162404643728528
 21
0.7528551987172706
  0
LINE
  5
B2
100
AcDbEntity
  8
lengths
  6
ByBlock
 62
    2
370
   -2
100
AcDbLine
 10
2.3
 20
0.6500000361794045
 11
2.3
 21
0.7528551987172706
  0
ENDBLK
  5
64
330
62
100
AcDbEntity
  8
0
100
AcDbBlockEnd
  0
BLOCK
  5
66
330
65
100
AcDbEntity
  8
0
100
AcDbBlockBegin
  2
*D5
 70
    1
 10
0
 20
0
  3
*D5
  1

  0
LINE
  5
B3
100
AcDbEntity
  8
diameters
  6
ByBlock
 62
    2
370
   -2
100
AcDbLine
 10
1.1375
 20
-0.5625
 11
0.4933273635077102
 21
-0.5624999999999999
  0
LINE
  5
B4
100
AcDbEntity
  8
diameters
  6
ByBlock
 62
    2
370
   -2
100
AcDbLine
 10
1.1375
 20
0.5625
 11
0.4933273635077099
 21
0.5625000000000001
  0
LINE
  5
B5
100
AcDbEntity
  8
diameters
  6
ByBlock
 62
    2
370
   -2
100
AcDbLine
 10
0.5058273635077102
 20
-0.5624999999999999
 11
0.50582736350771
 21
0.5625000000000001
  0
SOLID
  5
B6
100
AcDbEntity
  8
diameters
  6
ByBlock
 62
    2
370
   -2
100
AcDbTrace
 10
0.5058273635077102
 20
-0.5624999999999999
 30
0
 11
0.5016645169299818
 21
-0.5374999999999999
 31
0
 12
0.5099902100854385
 22
-0.5374999999999999
 32
0
 13
0.5099902100854385
 23
-0.5374999999999999
 33
0
  0
SOLID
  5
B7
100
AcDbEntity
  8
diameters
  6
ByBlock
 62
    2
370
   -2
100
AcDbTrace
 10
0.50582736350771
 20
0.5625000000000001
 30
0
 11
0.5099902100854383
 21
0.5375000000000001
 31
0
 12
0.5016645169299816
 22
0.5375000000000001
 32
0
 13
0.5016645169299816
 23
0.5375000000000001
 33
0
  0
MTEXT
  5
B8
100
AcDbEntity
  8
diameters
  6
CONTINUOUS
 62
    0
370
   -2
100
AcDbMText
 10
0.5833273635077101
 20
1.282307593442056e-16
 30
0
 40
0.03
 41
0.1033333333333352
 71
    5
 72
    1
  1
1.1250
  7
standard
210
0
220
0
230
1
 50
270
 73
    2
 44
1
  0
ENDBLK
  5
67
330
65
100
AcDbEntity
  8
0
100
AcDbBlockEnd
  0
BLOCK
  5
69
330
68
100
AcDbEntity
  8
0
100
AcDbBlockBegin
  2
*D11
 70
    1
 10
0
 20
0
  3
*D11
  1

  0
LINE
  5
B9
100
AcDbEntity
  8
lengths
  6
ByBlock
 62
    2
370
   -2
100
AcDbLine
 10
2
 20
0.6323205345267676
 11
1.910195493179381
 21
0.6323205345267676
  0
SOLID
  5
BA
100
AcDbEntity
  8
lengths
  6
ByBlock
 62
    2
370
   -2
100
AcDbTrace
 10
2
 20
0.6323205345267676
 30
0
 11
1.975
 21
0.6281576879490393
 31
0
 12
1.975
 22
0.636483381104496
 32
0
 13
1.975
 23
0.636483381104496
 33
0
  0
SOLID
  5
BB
100
AcDbEntity
  8
lengths
  6
ByBlock
 62
    2
370
   -2
100
AcDbTrace
 10
1.910195493179381
 20
0.6323205345267676
 30
0
 11
1.935195493179381
 21
0.636483381104496
 31
0
 12
1.935195493179381
 22
0.6281576879490393
 32
0
 13
1.935195493179381
 23
0.6281576879490393
 33
0
  0
MTEXT
  5
BC
100
AcDbEntity
  8
lengths
  6
CONTINUOUS
 62
    0
370
   -2
100
AcDbMText
 10
2.120833333333334
 20
0.7098205345267676
 30
0
 40
0.03
 41
0.1166666666666667
 71
    5
 72
    1
  1
0.0898
  7
standard
210
0
220
0
230
1
 50
360
 73
    2
 44
1
  0
LINE
  5
BD
100
AcDbEntity
  8
lengths
  6
ByBlock
 62
    2
370
   -2
100
AcDbLine
 10
2
 20
0.605
 11
2
 21
0.6448205345267676
  0
LINE
  5
BE
100
AcDbEntity
  8
lengths
  6
ByBlock
 62
    2
370
   -2
100
AcDbLine
 10
1.910195493179381
 20
0.6191421025861068
 11
1.910195493179381
 21
0.6448205345267676
  0
ENDBLK
  5
6A
330
68
100
AcDbEntity
  8
0
100
AcDbBlockEnd
  0
BLOCK
  5
6C
330
6B
100
AcDbEntity
  8
0
100
AcDbBlockBegin
  2
*D17
 70
    1
 10
0
 20
0
  3
*D17
  1

  0
LINE
  5
BF
100
AcDbEntity
  8
lengths
  6
ByBlock
 62
    2
370
   -2
100
AcDbLine
 10
0.443699775158509
 20
0.58
 11
0.443699775158509
 21
0.6875
  0
SOLID
  5
C0
100
AcDbEntity
  8
lengths
  6
ByBlock
 62
    2
370
   -2
100
AcDbTrace
 10
0.443699775158509
 20
0.58
 30
0
 11
0.4395369285807806
 21
0.605
 31
0
 12
0.4478626217362374
 22
0.605
 32
0
 13
0.4478626217362374
 23
0.605
 33
0
  0
SOLID
  5
C1
100
AcDbEntity
  8
lengths
  6
ByBlock
 62
    2
370
   -2
100
AcDbTrace
 10
0.443699775158509
 20
0.6875
 30
0
 11
0.4478626217362374
 21
0.6625
 31
0
 12
0.4395369285807806
 22
0.6625
 32
0
 13
0.4395369285807806
 23
0.6625
 33
0
  0
MTEXT
  5
C2
100
AcDbEntity
  8
lengths
  6
CONTINUOUS
 62
    0
370
   -2
100
AcDbMText
 10
0.366199775158509
 20
0.805000000000001
 30
0
 40
0.03
 41
0.1100000000000018
 71
    5
 72
    1
  1
0.1075
  7
standard
210
0
220
0
230
1
 50
90
 73
    2
 44
1
  0
LINE
  5
C3
100
AcDbEntity
  8
lengths
  6
ByBlock
 62
    2
370
   -2
100
AcDbLine
 10
0.8537404643728529
 20
0.58
 11
0.431199775158509
 21
0.58
  0
LINE
  5
C4
100
AcDbEntity
  8
lengths
  6
ByBlock
 62
    2
370
   -2
100
AcDbLine
 10
0.8537404643728529
 20
0.6875
 11
0.431199775158509
 21
0.6875
  0
ENDBLK
  5
6D
330
6B
100
AcDbEntity
  8
0
100
AcDbBlockEnd
  0
BLOCK
  5
6F
330
6E
100
AcDbEntity
  8
0
100
AcDbBlockBegin
  2
*D1
 70
    1
 10
0
 20
0
  3
*D1
  1

  0
LINE
  5
C5
100
AcDbEntity
  8
diameters
  6
ByBlock
 62
    2
370
   -2
100
AcDbLine
 10
3.0625
 20
0.4425
 11
3.352078449677974
 21
0.4425
  0
LINE
  5
C6
100
AcDbEntity
  8
diameters
  6
ByBlock
 62
    2
370
   -2
100
AcDbLine
 10
3.0625
 20
-0.4425
 11
3.352078449677974
 21
-0.4425
  0
LINE
  5
C7
100
AcDbEntity
  8
diameters
  6
ByBlock
 62
    2
370
   -2
100
AcDbLine
 10
3.339578449677973
 20
0.4425
 11
3.339578449677973
 21
-0.4425
  0
SOLID
  5
C8
100
AcDbEntity
  8
diameters
  6
ByBlock
 62
    2
370
   -2
100
AcDbTrace
 10
3.339578449677973
 20
0.4425
 30
0
 11
3.343741296255702
 21
0.4175
 31
0
 12
3.335415603100245
 22
0.4175
 32
0
 13
3.335415603100245
 23
0.4175
 33
0
  0
SOLID
  5
C9
100
AcDbEntity
  8
diameters
  6
ByBlock
 62
    2
370
   -2
100
AcDbTrace
 10
3.339578449677973
 20
-0.4425
 30
0
 11
3.335415603100245
 21
-0.4175
 31
0
 12
3.343741296255702
 22
-0.4175
 32
0
 13
3.343741296255702
 23
-0.4175
 33
0
  0
MTEXT
  5
CA
100
AcDbEntity
  8
diameters
  6
CONTINUOUS
 62
    0
370
   -2
100
AcDbMText
 10
3.262078449677973
 20
9.491012693391988e-18
 30
0
 40
0.03
 41
0.1166666666666685
 71
    5
 72
    1
  1
0.8850
  7
standard
210
0
220
0
230
1
 50
90
 73
    2
 44
1
  0
ENDBLK
  5
70
330
6E
100
AcDbEntity
  8
0
100
AcDbBlockEnd
  0
BLOCK
  5
72
330
71
100
AcDbEntity
  8
0
100
AcDbBlockBegin
  2
*D14
 70
    1
 10
0
 20
0
  3
*D14
  1

  0
LINE
  5
CB
100
AcDbEntity
  8
Angles
  6
ByBlock
 62
    2
370
   -2
100
AcDbLine
 10
1.954389700041165
 20
0.6008363094478901
 11
2.268021650399867
 21
0.9144682598065919
  0
LINE
  5
CC
100
AcDbEntity
  8
Angles
  6
ByBlock
 62
    2
370
   -2
100
AcDbLine
 10
3.0625
 20
0.4425
 11
2.463517304621386
 21
0.4425
  0
ARC
  5
CD
100
AcDbEntity
  8
Angles
  6
ByBlock
 62
    2
370
   -2
100
AcDbCircle
 10
1.796053390593274
 20
0.4425
 40
0.6549639140281119
100
AcDbArc
 50
0
 51
44.9999999999999
  0
SOLID
  5
CE
100
AcDbEntity
  8
Angles
  6
ByBlock
 62
    2
370
   -2
100
AcDbTrace
 10
2.259182815635036
 20
0.90562942504176
 30
0
 11
2.279519123408835
 21
0.8905044828019021
 31
0
 12
2.273520691812374
 22
0.8847307504820415
 32
0
 13
2.273520691812374
 23
0.8847307504820415
 33
0
  0
SOLID
  5
CF
100
AcDbEntity
  8
Angles
  6
ByBlock
 62
    2
370
   -2
100
AcDbTrace
 10
2.451017304621386
 20
0.4425
 30
0
 11
2.446378119595207
 21
0.4674160039717966
 31
0
 12
2.454702296529677
 22
0.4675748903540082
 32
0
 13
2.454702296529677
 23
0.4675748903540082
 33
0
  0
MTEXT
  5
D0
100
AcDbEntity
  8
Angles
  6
CONTINUOUS
 62
    0
370
   -2
100
AcDbMText
 10
2.458903616079284
 20
0.7170615532183688
 30
0
 40
0.03
 41
0.1166666666666685
 71
    8
 72
    1
  1
45.00%%D
  7
standard
210
0
220
0
230
1
 50
292.4999999999999
 73
    2
 44
1
  0
ENDBLK
  5
73
330
71
100
AcDbEntity
  8
0
100
AcDbBlockEnd
  0
BLOCK
  5
75
330
74
100
AcDbEntity
  8
0
100
AcDbBlockBegin
  2
*D12
 70
    1
 10
0
 20
0
  3
*D12
  1

  0
LINE
  5
D1
100
AcDbEntity
  8
lengths
  6
ByBlock
 62
    2
370
   -2
100
AcDbLine
 10
1.2
 20
0.6418530048965179
 11
1.514215728752538
 21
0.6418530048965179
  0
SOLID
  5
D2
100
AcDbEntity
  8
lengths
  6
ByBlock
 62
    2
370
   -2
100
AcDbTrace
 10
1.2
 20
0.6418530048965179
 30
0
 11
1.225
 21
0.6460158514742462
 31
0
 12
1.225
 22
0.6376901583187895
 32
0
 13
1.225
 23
0.6376901583187895
 33
0
  0
SOLID
  5
D3
100
AcDbEntity
  8
lengths
  6
ByBlock
 62
    2
370
   -2
100
AcDbTrace
 10
1.514215728752538
 20
0.6418530048965179
 30
0
 11
1.489215728752538
 21
0.6376901583187895
 31
0
 12
1.489215728752538
 22
0.6460158514742462
 32
0
 13
1.489215728752538
 23
0.6460158514742462
 33
0
  0
MTEXT
  5
D4
100
AcDbEntity
  8
lengths
  6
CONTINUOUS
 62
    0
370
   -2
100
AcDbMText
 10
1.357107864376269
 20
0.7193530048965179
 30
0
 40
0.03
 41
0.1133333333333352
 71
    5
 72
    1
  1
0.3142
  7
standard
210
0
220
0
230
1
 50
0
 73
    2
 44
1
  0
LINE
  5
D5
100
AcDbEntity
  8
lengths
  6
ByBlock
 62
    2
370
   -2
100
AcDbLine
 10
1.2
 20
0.625
 11
1.2
 21
0.6543530048965178
  0
LINE
  5
D6
100
AcDbEntity
  8
lengths
  6
ByBlock
 62
    2
370
   -2
100
AcDbLine
 10
1.514215728752538
 20
0.625
 11
1.514215728752538
 21
0.6543530048965178
  0
ENDBLK
  5
76
330
74
100
AcDbEntity
  8
0
100
AcDbBlockEnd
  0
BLOCK
  5
78
330
77
100
AcDbEntity
  8
0
100
AcDbBlockBegin
  2
*D4
 70
    1
 10
0
 20
0
  3
*D4
  1

  0
LINE
  5
D7
100
AcDbEntity
  8
diameters
  6
ByBlock
 62
    2
370
   -2
100
AcDbLine
 10
0.5750000000000002
 20
-0.5900000000000001
 11
0.3116766528557698
 21
-0.5900000000000001
  0
LINE
  5
D8
100
AcDbEntity
  8
diameters
  6
ByBlock
 62
    2
370
   -2
100
AcDbLine
 10
0.5750000000000002
 20
0.59
 11
0.3116766528557698
 21
0.59
  0
LINE
  5
D9
100
AcDbEntity
  8
diameters
  6
ByBlock
 62
    2
370
   -2
100
AcDbLine
 10
0.3241766528557698
 20
-0.5900000000000001
 11
0.3241766528557698
 21
0.59
  0
SOLID
  5
DA
100
AcDbEntity
  8
diameters
  6
ByBlock
 62
    2
370
   -2
100
AcDbTrace
 10
0.3241766528557698
 20
-0.5900000000000001
 30
0
 11
0.3200138062780414
 21
-0.5650000000000001
 31
0
 12
0.3283394994334982
 22
-0.5650000000000001
 32
0
 13
0.3283394994334982
 23
-0.5650000000000001
 33
0
  0
SOLID
  5
DB
100
AcDbEntity
  8
diameters
  6
ByBlock
 62
    2
370
   -2
100
AcDbTrace
 10
0.3241766528557698
 20
0.59
 30
0
 11
0.3283394994334982
 21
0.5649999999999999
 31
0
 12
0.3200138062780414
 22
0.5649999999999999
 32
0
 13
0.3200138062780414
 23
0.5649999999999999
 33
0
  0
MTEXT
  5
DC
100
AcDbEntity
  8
diameters
  6
CONTINUOUS
 62
    0
370
   -2
100
AcDbMText
 10
0.2466766528557698
 20
-4.602013853786584e-17
 30
0
 40
0.03
 41
0.1033333333333333
 71
    5
 72
    1
  1
1.1800
  7
standard
210
0
220
0
230
1
 50
90
 73
    2
 44
1
  0
ENDBLK
  5
79
330
77
100
AcDbEntity
  8
0
100
AcDbBlockEnd
  0
BLOCK
  5
7B
330
7A
100
AcDbEntity
  8
0
100
AcDbBlockBegin
  2
*D2
 70
    1
 10
0
 20
0
  3
*D2
  1

  0
LINE
  5
DD
100
AcDbEntity
  8
diameters
  6
ByBlock
 62
    2
370
   -2
100
AcDbLine
 10
2.2625
 20
0.6875
 11
3.545824532192372
 21
0.6874999999999997
  0
LINE
  5
DE
100
AcDbEntity
  8
diameters
  6
ByBlock
 62
    2
370
   -2
100
AcDbLine
 10
2.2625
 20
-0.6875000000000001
 11
3.545824532192372
 21
-0.6875000000000004
  0
LINE
  5
DF
100
AcDbEntity
  8
diameters
  6
ByBlock
 62
    2
370
   -2
100
AcDbLine
 10
3.533324532192372
 20
0.6874999999999997
 11
3.533324532192372
 21
-0.6875000000000004
  0
SOLID
  5
E0
100
AcDbEntity
  8
diameters
  6
ByBlock
 62
    2
370
   -2
100
AcDbTrace
 10
3.533324532192372
 20
0.6874999999999997
 30
0
 11
3.537487378770101
 21
0.6624999999999996
 31
0
 12
3.529161685614644
 22
0.6624999999999996
 32
0
 13
3.529161685614644
 23
0.6624999999999996
 33
0
  0
SOLID
  5
E1
100
AcDbEntity
  8
diameters
  6
ByBlock
 62
    2
370
   -2
100
AcDbTrace
 10
3.533324532192372
 20
-0.6875000000000004
 30
0
 11
3.529161685614644
 21
-0.6625000000000004
 31
0
 12
3.537487378770101
 22
-0.6625000000000004
 32
0
 13
3.537487378770101
 23
-0.6625000000000004
 33
0
  0
MTEXT
  5
E2
100
AcDbEntity
  8
diameters
  6
CONTINUOUS
 62
    0
370
   -2
100
AcDbMText
 10
3.455824532192372
 20
-3.790870459254128e-16
 30
0
 40
0.03
 41
0.1100000000000037
 71
    5
 72
    1
  1
1.3750
  7
standard
210
0
220
0
230
1
 50
90
 73
    2
 44
1
  0
ENDBLK
  5
7C
330
7A
100
AcDbEntity
  8
0
100
AcDbBlockEnd
  0
BLOCK
  5
7E
330
7D
100
AcDbEntity
  8
0
100
AcDbBlockBegin
  2
*D15
 70
    1
 10
0
 20
0
  3
*D15
  1

  0
LINE
  5
E3
100
AcDbEntity
  8
diameters
  6
ByBlock
 62
    2
370
   -2
100
AcDbLine
 10
3.0625
 20
0.4375
 11
3.0125
 21
0.4375
  0
LINE
  5
E4
100
AcDbEntity
  8
diameters
  6
ByBlock
 62
    2
370
   -2
100
AcDbLine
 10
3.0625
 20
-0.4095
 11
3.0125
 21
-0.4095
  0
LINE
  5
E5
100
AcDbEntity
  8
diameters
  6
ByBlock
 62
    2
370
   -2
100
AcDbLine
 10
3
 20
0.4375
 11
3
 21
-0.4095
  0
SOLID
  5
E6
100
AcDbEntity
  8
diameters
  6
ByBlock
 62
    2
370
   -2
100
AcDbTrace
 10
3
 20
0.4375
 30
0
 11
3.004162846577728
 21
0.4125
 31
0
 12
2.995837153422272
 22
0.4125
 32
0
 13
2.995837153422272
 23
0.4125
 33
0
  0
SOLID
  5
E7
100
AcDbEntity
  8
diameters
  6
ByBlock
 62
    2
370
   -2
100
AcDbTrace
 10
3
 20
-0.4095
 30
0
 11
2.995837153422272
 21
-0.3845
 31
0
 12
3.004162846577728
 22
-0.3845
 32
0
 13
3.004162846577728
 23
-0.3845
 33
0
  0
MTEXT
  5
E8
100
AcDbEntity
  8
diameters
  6
CONTINUOUS
 62
    0
370
   -2
100
AcDbMText
 10
2.9225
 20
0.01400000000000002
 30
0
 40
0.03
 41
0.12
 71
    5
 72
    1
  1
0.8470
  7
standard
210
0
220
0
230
1
 50
90
 73
    2
 44
1
  0
ENDBLK
  5
7F
330
7D
100
AcDbEntity
  8
0
100
AcDbBlockEnd
  0
BLOCK
  5
81
330
80
100
AcDbEntity
  8
0
100
AcDbBlockBegin
  2
*D9
 70
    1
 10
0
 20
0
  3
*D9
  1

  0
LINE
  5
E9
100
AcDbEntity
  8
lengths
  6
ByBlock
 62
    2
370
   -2
100
AcDbLine
 10
0.5750000000000002
 20
-0.3750000000000001
 11
0.5750000000000002
 21
-0.1527294864090046
  0
LINE
  5
EA
100
AcDbEntity
  8
lengths
  6
ByBlock
 62
    2
370
   -2
100
AcDbLine
 10
1.2
 20
-0.375
 11
1.2
 21
-0.1527294864090046
  0
LINE
  5
EB
100
AcDbEntity
  8
lengths
  6
ByBlock
 62
    2
370
   -2
100
AcDbLine
 10
0.5750000000000002
 20
-0.1652294864090046
 11
1.2
 21
-0.1652294864090046
  0
SOLID
  5
EC
100
AcDbEntity
  8
lengths
  6
ByBlock
 62
    2
370
   -2
100
AcDbTrace
 10
0.5750000000000002
 20
-0.1652294864090046
 30
0
 11
0.6000000000000002
 21
-0.1610666398312763
 31
0
 12
0.6000000000000002
 22
-0.1693923329867331
 32
0
 13
0.6000000000000002
 23
-0.1693923329867331
 33
0
  0
SOLID
  5
ED
100
AcDbEntity
  8
lengths
  6
ByBlock
 62
    2
370
   -2
100
AcDbTrace
 10
1.2
 20
-0.1652294864090046
 30
0
 11
1.175
 21
-0.169392332986733
 31
0
 12
1.175
 22
-0.1610666398312762
 32
0
 13
1.175
 23
-0.1610666398312762
 33
0
  0
MTEXT
  5
EE
100
AcDbEntity
  8
lengths
  6
CONTINUOUS
 62
    0
370
   -2
100
AcDbMText
 10
0.8875000000000003
 20
-0.08772948640900462
 30
0
 40
0.03
 41
0.1166666666666704
 71
    5
 72
    1
  1
0.6250
  7
standard
210
0
220
0
230
1
 50
0
 73
    2
 44
1
  0
ENDBLK
  5
82
330
80
100
AcDbEntity
  8
0
100
AcDbBlockEnd
  0
BLOCK
  5
84
330
83
100
AcDbEntity
  8
0
100
AcDbBlockBegin
  2
*D16
 70
    1
 10
0
 20
0
  3
*D16
  1

  0
LINE
  5
EF
100
AcDbEntity
  8
diameters
  6
ByBlock
 62
    2
370
   -2
100
AcDbLine
 10
3.0625
 20
0.4375000000000001
 11
3.094640572448816
 21
0.4375000000000001
  0
LINE
  5
F0
100
AcDbEntity
  8
diameters
  6
ByBlock
 62
    2
370
   -2
100
AcDbLine
 10
3.0625
 20
-0.4375000000000001
 11
3.094640572448816
 21
-0.4375000000000001
  0
LINE
  5
F1
100
AcDbEntity
  8
diameters
  6
ByBlock
 62
    2
370
   -2
100
AcDbLine
 10
3.082140572448815
 20
0.4375000000000001
 11
3.082140572448815
 21
-0.4375000000000001
  0
SOLID
  5
F2
100
AcDbEntity
  8
diameters
  6
ByBlock
 62
    2
370
   -2
100
AcDbTrace
 10
3.082140572448815
 20
0.4375000000000001
 30
0
 11
3.086303419026544
 21
0.4125000000000001
 31
0
 12
3.077977725871087
 22
0.4125000000000001
 32
0
 13
3.077977725871087
 23
0.4125000000000001
 33
0
  0
SOLID
  5
F3
100
AcDbEntity
  8
diameters
  6
ByBlock
 62
    2
370
   -2
100
AcDbTrace
 10
3.082140572448815
 20
-0.4375000000000001
 30
0
 11
3.077977725871087
 21
-0.4125000000000001
 31
0
 12
3.086303419026544
 22
-0.4125000000000001
 32
0
 13
3.086303419026544
 23
-0.4125000000000001
 33
0
  0
MTEXT
  5
F4
100
AcDbEntity
  8
diameters
  6
CONTINUOUS
 62
    0
370
   -2
100
AcDbMText
 10
3.045331581053454
 20
-0.004915789477083865
 30
0
 40
0.03
 41
0.1166666666666685
 71
    5
 72
    1
  1
0.8750
  7
standard
210
0
220
0
230
1
 50
90
 73
    2
 44
1
  0
ENDBLK
  5
85
330
83
100
AcDbEntity
  8
0
100
AcDbBlockEnd
  0
BLOCK
  5
87
330
86
100
AcDbEntity
  8
0
100
AcDbBlockBegin
  2
*D13
 70
    1
 10
0
 20
0
  3
*D13
  1

  0
LINE
  5
F5
100
AcDbEntity
  8
Angles
  6
ByBlock
 62
    2
370
   -2
100
AcDbLine
 10
1.5
 20
0.4375000000000001
 11
2.123536489302007
 21
0.4375000000000001
  0
LINE
  5
F6
100
AcDbEntity
  8
Angles
  6
ByBlock
 62
    2
370
   -2
100
AcDbLine
 10
1.572552038200428
 20
0.5725520382004282
 11
1.922601053726862
 21
0.9226010537268621
  0
ARC
  5
F7
100
AcDbEntity
  8
Angles
  6
ByBlock
 62
    2
370
   -2
100
AcDbCircle
 10
1.4375
 20
0.4375000000000001
 40
0.6735364893020076
100
AcDbArc
 50
0
 51
45.00000000000003
  0
SOLID
  5
F8
100
AcDbEntity
  8
Angles
  6
ByBlock
 62
    2
370
   -2
100
AcDbTrace
 10
2.111036489302008
 20
0.4375000000000001
 30
0
 11
2.10641041731284
 21
0.4624184419573285
 31
0
 12
2.114734676710779
 22
0.4625729476033296
 32
0
 13
2.114734676710779
 23
0.4625729476033296
 33
0
  0
SOLID
  5
F9
100
AcDbEntity
  8
Angles
  6
ByBlock
 62
    2
370
   -2
100
AcDbTrace
 10
1.91376221896203
 20
0.9137622189620304
 30
0
 11
1.93410648363152
 21
0.898647981082222
 31
0
 12
1.928111091372863
 22
0.8928710928036026
 32
0
 13
1.928111091372863
 23
0.8928710928036026
 33
0
  0
MTEXT
  5
FA
100
AcDbEntity
  8
Angles
  6
CONTINUOUS
 62
    0
370
   -2
100
AcDbMText
 10
2.117509047647587
 20
0.7191689700720431
 30
0
 40
0.03
 41
0.1166666666666685
 71
    8
 72
    1
  1
45.00%%D
  7
standard
210
0
220
0
230
1
 50
292.5000000000001
 73
    2
 44
1
  0
ENDBLK
  5
88
330
86
100
AcDbEntity
  8
0
100
AcDbBlockEnd
  0
BLOCK
  5
8A
330
89
100
AcDbEntity
  8
0
100
AcDbBlockBegin
  2
*D18
 70
    1
 10
0
 20
0
  3
*D18
  1

  0
LINE
  5
FB
100
AcDbEntity
  8
lengths
  6
ByBlock
 62
    2
370
   -2
100
AcDbLine
 10
2.414660881652096
 20
0.4374999999999999
 11
2.414660881652096
 21
0.6875000000000002
  0
SOLID
  5
FC
100
AcDbEntity
  8
lengths
  6
ByBlock
 62
    2
370
   -2
100
AcDbTrace
 10
2.414660881652096
 20
0.4374999999999999
 30
0
 11
2.410498035074368
 21
0.4625
 31
0
 12
2.418823728229825
 22
0.4625
 32
0
 13
2.418823728229825
 23
0.4625
 33
0
  0
SOLID
  5
FD
100
AcDbEntity
  8
lengths
  6
ByBlock
 62
    2
370
   -2
100
AcDbTrace
 10
2.414660881652096
 20
0.6875000000000002
 30
0
 11
2.418823728229825
 21
0.6625000000000002
 31
0
 12
2.410498035074368
 22
0.6625000000000002
 32
0
 13
2.410498035074368
 23
0.6625000000000002
 33
0
  0
MTEXT
  5
FE
100
AcDbEntity
  8
lengths
  6
CONTINUOUS
 62
    0
370
   -2
100
AcDbMText
 10
2.337160881652096
 20
0.5625000000000001
 30
0
 40
0.03
 41
0.1166666666666685
 71
    5
 72
    1
  1
0.2500
  7
standard
210
0
220
0
230
1
 50
90
 73
    2
 44
1
  0
LINE
  5
FF
100
AcDbEntity
  8
lengths
  6
ByBlock
 62
    2
370
   -2
100
AcDbLine
 10
2.3625
 20
0.4374999999999999
 11
2.427160881652096
 21
0.4374999999999999
  0
LINE
  5
100
100
AcDbEntity
  8
lengths
  6
ByBlock
 62
    2
370
   -2
100
AcDbLine
 10
2.262500036179404
 20
0.6875000000000002
 11
2.427160881652096
 21
0.6875000000000002
  0
ENDBLK
  5
8B
330
89
100
AcDbEntity
  8
0
100
AcDbBlockEnd
  0
BLOCK
  5
8D
330
8C
100
AcDbEntity
  8
0
100
AcDbBlockBegin
  2
thread
 70
    0
 10
0
 20
0
  3
thread
  1

  0
ARC
  5
101
100
AcDbEntity
  8
Aluminum bushing+nut
  6
ByLayer
 62
  256
370
   -1
100
AcDbCircle
 10
0.0625
 20
5.140329162323098e-09
 40
0.0625
100
AcDbArc
 50
90
 51
179.9999999999999
  0
LINE
  5
102
100
AcDbEntity
  8
Aluminum bushing+nut
  6
ByLayer
 62
  256
370
   -1
100
AcDbLine
 10
1.43
 20
0.04250000514032914
 11
0.01667424305044451
 21
0.04250000514032914
  0
LINE
  5
103
100
AcDbEntity
  8
Aluminum bushing+nut
  6
ByLayer
 62
  256
370
   -1
100
AcDbLine
 10
1.125
 20
0.06250000514032916
 11
0.0625
 21
0.06250000514032916
  0
LINE
  5
104
100
AcDbEntity
  8
Aluminum bushing+nut
  6
ByLayer
 62
  256
370
   -1
100
AcDbLine
 10
1.125
 20
0.07250000514032906
 11
1.125
 21
0.04250000514032914
  0
ENDBLK
  5
8E
330
8C
100
AcDbEntity
  8
0
100
AcDbBlockEnd
  0
ENDSEC
  0
SECTION
  2
ENTITIES
  0
LINE
  5
105
100
AcDbEntity
  8
Steel
  6
ByLayer
 62
  256
370
   -1
100
AcDbLine
 10
1.4375
 20
0.4375
 11
1.4375
 21
-0.4375
  0
LINE
  5
106
100
AcDbEntity
  8
Steel
  6
ByLayer
 62
  256
370
   -1
100
AcDbLine
 10
1.791053390593274
 20
0.4375
 11
3
 21
0.4375
  0
LINE
  5
107
100
AcDbEntity
  8
Steel
  6
ByLayer
 62
  256
370
   -1
100
AcDbLine
 10
0
 20
0.4375
 11
1.4375
 21
0.4375000000000001
  0
LINE
  5
108
100
AcDbEntity
  8
Steel
  6
ByLayer
 62
  256
370
   -1
100
AcDbLine
 10
1.791053390593274
 20
-0.4375
 11
3
 21
-0.4375
  0
LINE
  5
109
100
AcDbEntity
  8
Steel
  6
ByLayer
 62
  256
370
   -1
100
AcDbLine
 10
-8.036744619404505e-17
 20
-0.4375
 11
1.4375
 21
-0.4374999999999999
  0
LINE
  5
10A
100
AcDbEntity
  8
Steel
  6
ByLayer
 62
  256
370
   -1
100
AcDbLine
 10
1.2
 20
-0.5625
 11
1.2
 21
-0.4375
  0
LINE
  5
10B
100
AcDbEntity
  8
Steel
  6
ByLayer
 62
  256
370
   -1
100
AcDbLine
 10
1.2
 20
0.4375000000000001
 11
1.2
 21
0.5625
  0
LINE
  5
10C
100
AcDbEntity
  8
Steel
  6
ByLayer
 62
  256
370
   -1
100
AcDbLine
 10
1.791053390593274
 20
0.4374999999999999
 11
1.791053390593274
 21
-0.4374999999999999
  0
LINE
  5
10D
100
AcDbEntity
  8
Steel
  6
ByLayer
 62
  256
370
   -1
100
AcDbLine
 10
1.791053390593274
 20
0.4095
 11
3
 21
0.4095
  0
LINE
  5
10E
100
AcDbEntity
  8
Steel
  6
ByLayer
 62
  256
370
   -1
100
AcDbLine
 10
1.791053390593274
 20
-0.4095
 11
3
 21
-0.4095
  0
LINE
  5
10F
100
AcDbEntity
  8
Steel
  6
ByLayer
 62
  256
370
   -1
100
AcDbLine
 10
2.507464321254206e-17
 20
0.4095
 11
1.4375
 21
0.4095
  0
LINE
  5
110
100
AcDbEntity
  8
Steel
  6
ByLayer
 62
  256
370
   -1
100
AcDbLine
 10
-7.522392963762616e-17
 20
-0.4095
 11
1.4375
 21
-0.4095
  0
LINE
  5
111
100
AcDbEntity
  8
Steel
  6
ByLayer
 62
  256
370
   -1
100
AcDbLine
 10
1.2
 20
0.5625
 11
1.514215728752538
 21
0.5625
  0
LINE
  5
112
100
AcDbEntity
  8
Steel
  6
ByLayer
 62
  256
370
   -1
100
AcDbLine
 10
1.4375
 20
0.4374999999999999
 11
1.528357864376269
 21
0.528357864376269
  0
ARC
  5
113
100
AcDbEntity
  8
Steel
  6
ByLayer
 62
  256
370
   -1
100
AcDbCircle
 10
1.514215728752538
 20
0.5425
 40
0.02
100
AcDbArc
 50
315
 51
90
  0
LINE
  5
114
100
AcDbEntity
  8
Steel
  6
ByLayer
 62
  256
370
   -1
100
AcDbLine
 10
1.4375
 20
-0.4374999999999998
 11
1.528357864376269
 21
-0.528357864376269
  0
LINE
  5
115
100
AcDbEntity
  8
Steel
  6
ByLayer
 62
  256
370
   -1
100
AcDbLine
 10
1.2
 20
-0.5625
 11
1.514215728752538
 21
-0.5625
  0
ARC
  5
116
100
AcDbEntity
  8
Steel
  6
ByLayer
 62
  256
370
   -1
100
AcDbCircle
 10
1.514215728752538
 20
-0.5425
 40
0.02
100
AcDbArc
 50
270
 51
45
  0
LINE
  5
117
100
AcDbEntity
  8
Steel
  6
ByLayer
 62
  256
370
   -1
100
AcDbLine
 10
2
 20
0.4374999999999999
 11
2
 21
0.5425
  0
ARC
  5
118
100
AcDbEntity
  8
Steel
  6
ByLayer
 62
  256
370
   -1
100
AcDbCircle
 10
1.98
 20
0.5425
 40
0.02
100
AcDbArc
 50
0
 51
90
  0
LINE
  5
119
100
AcDbEntity
  8
Steel
  6
ByLayer
 62
  256
370
   -1
100
AcDbLine
 10
2
 20
-0.5425
 11
2
 21
-0.4374999999999999
  0
ARC
  5
11A
100
AcDbEntity
  8
Steel
  6
ByLayer
 62
  256
370
   -1
100
AcDbCircle
 10
1.98
 20
-0.5425
 40
0.02
100
AcDbArc
 50
270
 51
0
  0
LINE
  5
11B
100
AcDbEntity
  8
Steel
  6
ByLayer
 62
  256
370
   -1
100
AcDbLine
 10
1.791053390593274
 20
0.4374999999999999
 11
1.910195526217005
 21
0.556642135623731
  0
LINE
  5
11C
100
AcDbEntity
  8
Steel
  6
ByLayer
 62
  256
370
   -1
100
AcDbLine
 10
1.924337661840736
 20
0.5625
 11
1.98
 21
0.5625
  0
LINE
  5
11D
100
AcDbEntity
  8
Steel
  6
ByLayer
 62
  256
370
   -1
100
AcDbLine
 10
1.791053390593274
 20
-0.4374999999999997
 11
1.910195526217005
 21
-0.5566421356237309
  0
LINE
  5
11E
100
AcDbEntity
  8
Steel
  6
ByLayer
 62
  256
370
   -1
100
AcDbLine
 10
1.924337661840736
 20
-0.5625
 11
1.98
 21
-0.5625
  0
MTEXT
  5
11F
100
AcDbEntity
  8
Steel
  6
ByLayer
 62
  256
370
   -1
100
AcDbMText
 10
1.88588487301063
 20
0.4985672652786724
 30
0
 40
0.03
 41
0.09666666030660219
 71
    1
 72
    1
  1
Steel\P
  7

210
0
220
0
230
1
 50
0
 73
    2
 44
1
  0
MTEXT
  5
120
100
AcDbEntity
  8
Steel
  6
ByLayer
 62
  256
370
   -1
100
AcDbMText
 10
1.88588487301063
 20
-0.46966481511759
 30
0
 40
0.03
 41
0.09666666030660219
 71
    1
 72
    1
  1
Steel\P
  7

210
0
220
0
230
1
 50
0
 73
    2
 44
1
  0
MTEXT
  5
121
100
AcDbEntity
  8
Steel
  6
ByLayer
 62
  256
370
   -1
100
AcDbMText
 10
1.325899901139658
 20
-0.4877288464682665
 30
0
 40
0.03
 41
0.09666666030660219
 71
    1
 72
    1
  1
Steel\P
  7

210
0
220
0
230
1
 50
0
 73
    2
 44
1
  0
MTEXT
  5
122
100
AcDbEntity
  8
Steel
  6
ByLayer
 62
  256
370
   -1
100
AcDbMText
 10
1.29338464470844
 20
0.5130184903592137
 30
0
 40
0.03
 41
0.09666666030660219
 71
    1
 72
    1
  1
Steel\P
  7

210
0
220
0
230
1
 50
0
 73
    2
 44
1
  0
ARC
  5
123
100
AcDbEntity
  8
Aluminum bushing+nut
  6
ByLayer
 62
  256
370
   -1
100
AcDbCircle
 10
0.6375000000000002
 20
-0.5275000000000001
 40
0.0625
100
AcDbArc
 50
180
 51
270
  0
LINE
  5
124
100
AcDbEntity
  8
Aluminum bushing+nut
  6
ByLayer
 62
  256
370
   -1
100
AcDbLine
 10
2.005
 20
-0.5700000000000001
 11
0.591674243050442
 21
-0.5700000000000001
  0
LINE
  5
125
100
AcDbEntity
  8
Aluminum bushing+nut
  6
ByLayer
 62
  256
370
   -1
100
AcDbLine
 10
2.005
 20
-0.5700000000000001
 11
2.005
 21
-0.4425
  0
LINE
  5
126
100
AcDbEntity
  8
Aluminum bushing+nut
  6
ByLayer
 62
  256
370
   -1
100
AcDbLine
 10
2.005
 20
0.4425
 11
2.005
 21
0.57
  0
LINE
  5
127
100
AcDbEntity
  8
Aluminum bushing+nut
  6
ByLayer
 62
  256
370
   -1
100
AcDbLine
 10
0.9162404643728529
 20
0.6875
 11
0.9162404643728529
 21
0.57
  0
LINE
  5
128
100
AcDbEntity
  8
Aluminum bushing+nut
  6
ByLayer
 62
  256
370
   -1
100
AcDbLine
 10
0.9162404643728529
 20
-0.5700000000000001
 11
0.9162404643728529
 21
-0.6875
  0
LINE
  5
129
100
AcDbEntity
  8
Aluminum bushing+nut
  6
ByLayer
 62
  256
370
   -1
100
AcDbLine
 10
1.7
 20
-0.5900000000000001
 11
0.6375000000000002
 21
-0.5900000000000001
  0
MTEXT
  5
12A
100
AcDbEntity
  8
Aluminum bushing+nut
  6
ByLayer
 62
  256
370
   -1
100
AcDbMText
 10
0.7912045731596322
 20
0.5274697154397548
 30
0
 40
0.05
 41
0.1111111111111111
 71
    1
 72
    1
  1
Alu.
  7

210
0
220
0
230
1
 50
0
 73
    2
 44
1
  0
MTEXT
  5
12B
100
AcDbEntity
  8
Aluminum bushing+nut
  6
ByLayer
 62
  256
370
   -1
100
AcDbMText
 10
0.7875917668894969
 20
-0.4805032339279958
 30
0
 40
0.05
 41
0.1111111111111111
 71
    1
 72
    1
  1
Alu.
  7

210
0
220
0
230
1
 50
0
 73
    2
 44
1
  0
MTEXT
  5
12C
100
AcDbEntity
  8
Aluminum bushing+nut
  6
ByLayer
 62
  256
370
   -1
100
AcDbMText
 10
2.095427636678478
 20
0.5816618094917845
 30
0
 40
0.05
 41
0.1111111111111111
 71
    1
 72
    1
  1
Alu.
  7

210
0
220
0
230
1
 50
0
 73
    2
 44
1
  0
MTEXT
  5
12D
100
AcDbEntity
  8
Aluminum bushing+nut
  6
ByLayer
 62
  256
370
   -1
100
AcDbMText
 10
2.091814830408343
 20
-0.5238569091696196
 30
0
 40
0.05
 41
0.1111111111111111
 71
    1
 72
    1
  1
Alu.
  7

210
0
220
0
230
1
 50
0
 73
    2
 44
1
  0
LINE
  5
12E
100
AcDbEntity
  8
Aluminum bushing+nut
  6
ByLayer
 62
  256
370
   -1
100
AcDbLine
 10
0.5750000000000002
 20
-0.5275000000000001
 11
0.5750000000000002
 21
-0.4375000000000001
  0
ARC
  5
12F
100
AcDbEntity
  8
Aluminum bushing+nut
  6
ByLayer
 62
  256
370
   -1
100
AcDbCircle
 10
2.2
 20
0.5875
 40
0.1
100
AcDbArc
 50
359.9999999999999
 51
90
  0
ARC
  5
130
100
AcDbEntity
  8
Aluminum bushing+nut
  6
ByLayer
 62
  256
370
   -1
100
AcDbCircle
 10
2.2
 20
-0.5875000000000001
 40
0.1
100
AcDbArc
 50
270
 51
0
  0
LINE
  5
131
100
AcDbEntity
  8
Steel
  6
ByLayer
 62
  256
370
   -1
100
AcDbLine
 10
2.005
 20
-0.4425
 11
3
 21
-0.4425
  0
LINE
  5
132
100
AcDbEntity
  8
Steel
  6
ByLayer
 62
  256
370
   -1
100
AcDbLine
 10
2.005
 20
0.4425
 11
3
 21
0.4425
  0
ARC
  5
133
100
AcDbEntity
  8
Aluminum bushing+nut
  6
ByLayer
 62
  256
370
   -1
100
AcDbCircle
 10
2.015
 20
-0.4525
 40
0.01
100
AcDbArc
 50
90
 51
180
  0
ARC
  5
134
100
AcDbEntity
  8
Aluminum bushing+nut
  6
ByLayer
 62
  256
370
   -1
100
AcDbCircle
 10
1.995
 20
-0.5600000000000001
 40
0.01
100
AcDbArc
 50
270
 51
0
  0
ARC
  5
135
100
AcDbEntity
  8
Aluminum bushing+nut
  6
ByLayer
 62
  256
370
   -1
100
AcDbCircle
 10
2.015
 20
0.4525
 40
0.01
100
AcDbArc
 50
180
 51
270
  0
ARC
  5
136
100
AcDbEntity
  8
Aluminum bushing+nut
  6
ByLayer
 62
  256
370
   -1
100
AcDbCircle
 10
1.995
 20
0.5599999999999999
 40
0.01
100
AcDbArc
 50
0
 51
90
  0
ARC
  5
137
100
AcDbEntity
  8
Aluminum bushing+nut
  6
ByLayer
 62
  256
370
   -1
100
AcDbCircle
 10
0.9262404643728529
 20
0.58
 40
0.01
100
AcDbArc
 50
180
 51
270.0000000000006
  0
ARC
  5
138
100
AcDbEntity
  8
Aluminum bushing+nut
  6
ByLayer
 62
  256
370
   -1
100
AcDbCircle
 10
0.9262404643728529
 20
-0.5800000000000001
 40
0.01
100
AcDbArc
 50
89.99999999999936
 51
180
  0
ARC
  5
139
100
AcDbEntity
  8
Aluminum bushing+nut
  6
ByLayer
 62
  256
370
   -1
100
AcDbCircle
 10
0.9262404643728529
 20
-0.6775
 40
0.01
100
AcDbArc
 50
180
 51
270
  0
LINE
  5
13A
100
AcDbEntity
  8
Aluminum bushing+nut
  6
ByLayer
 62
  256
370
   -1
100
AcDbLine
 10
1.7
 20
-0.5700000000000001
 11
1.7
 21
-0.5900000000000001
  0
ARC
  5
13B
100
AcDbEntity
  8
Steel
  6
ByLayer
 62
  256
370
   -1
100
AcDbCircle
 10
1.924337661840736
 20
0.5425
 40
0.02
100
AcDbArc
 50
90
 51
135
  0
ARC
  5
13C
100
AcDbEntity
  8
Steel
  6
ByLayer
 62
  256
370
   -1
100
AcDbCircle
 10
1.924337661840736
 20
-0.5425
 40
0.02
100
AcDbArc
 50
224.9999999999997
 51
270
  0
LINE
  5
13D
100
AcDbEntity
  8
Aluminum bushing+nut
  6
ByLayer
 62
  256
370
   -1
100
AcDbLine
 10
2.3
 20
0.5874999999999998
 11
2.3
 21
0.4425
  0
LINE
  5
13E
100
AcDbEntity
  8
Aluminum bushing+nut
  6
ByLayer
 62
  256
370
   -1
100
AcDbLine
 10
0.9162404643728529
 20
0.6875
 11
2.200000036179404
 21
0.6875000000000002
  0
LINE
  5
13F
100
AcDbEntity
  8
Aluminum bushing+nut
  6
ByLayer
 62
  256
370
   -1
100
AcDbLine
 10
2.3
 20
-0.4425
 11
2.3
 21
-0.5875000000000001
  0
LINE
  5
140
100
AcDbEntity
  8
Aluminum bushing+nut
  6
ByLayer
 62
  256
370
   -1
100
AcDbLine
 10
0.9162404643728529
 20
-0.6875
 11
2.2
 21
-0.6875000000000001
  0
DIMENSION
  5
141
100
AcDbEntity
  8
diameters
  6
ByLayer
 62
  256
370
   -1
100
AcDbDimension
  2
*D1
 10
3.339578449677973
 20
-0.4425000000000001
 30
0
 11
3.262078449677973
 21
9.491012693391988e-18
 31
0
 70
   33
 71
    5
  3
Standard
 53
0
210
0
220
0
230
1
100
AcDbAlignedDimension
 13
3
 23
0.4425
 33
0
 14
3
 24
-0.4425
 34
0
  0
DIMENSION
  5
142
100
AcDbEntity
  8
diameters
  6
ByLayer
 62
  256
370
   -1
100
AcDbDimension
  2
*D2
 10
3.533324532192372
 20
-0.6875000000000004
 30
0
 11
3.455824532192372
 21
-3.790870459254128e-16
 31
0
 70
   33
 71
    5
  3
Standard
 53
0
210
0
220
0
230
1
100
AcDbAlignedDimension
 13
2.2
 23
0.6875
 33
0
 14
2.2
 24
-0.6875000000000001
 34
0
  0
DIMENSION
  5
143
100
AcDbEntity
  8
diameters
  6
ByLayer
 62
  256
370
   -1
100
AcDbDimension
  2
*D3
 10
0.4471402108355446
 20
-0.5699999999999995
 30
0
 11
0.3696402108355464
 21
7.844266838817512e-16
 31
0
 70
   33
 71
    5
  3
Standard
 53
0
210
0
220
0
230
1
100
AcDbAlignedDimension
 13
0.5916742430504447
 23
0.57
 33
0
 14
0.5916742430504409
 24
-0.5700000000000001
 34
0
  0
DIMENSION
  5
144
100
AcDbEntity
  8
diameters
  6
ByLayer
 62
  256
370
   -1
100
AcDbDimension
  2
*D4
 10
0.3241766528557698
 20
0.59
 30
0
 11
0.2466766528557698
 21
-4.602013853786584e-17
 31
0
 70
   33
 71
    5
  3
Standard
 53
0
210
0
220
0
230
1
100
AcDbAlignedDimension
 13
0.6375000000000002
 23
-0.5900000000000001
 33
0
 14
0.6375000000000002
 24
0.59
 34
0
  0
DIMENSION
  5
145
100
AcDbEntity
  8
diameters
  6
ByLayer
 62
  256
370
   -1
100
AcDbDimension
  2
*D5
 10
0.50582736350771
 20
0.5625000000000001
 30
0
 11
0.5833273635077101
 21
1.282307593442056e-16
 31
0
 70
   33
 71
    5
  3
Standard
 53
0
210
0
220
0
230
1
100
AcDbAlignedDimension
 13
1.2
 23
-0.5625
 33
0
 14
1.2
 24
0.5625
 34
0
  0
DIMENSION
  5
146
100
AcDbEntity
  8
lengths
  6
ByLayer
 62
  256
370
   -1
100
AcDbDimension
  2
*D6
 10
1.4375
 20
-0.3272814826947591
 30
0
 11
1.31875
 21
-0.2497814826947592
 31
0
 70
   33
 71
    5
  3
Standard
 53
0
210
0
220
0
230
1
100
AcDbAlignedDimension
 13
1.2
 23
-0.4375
 33
0
 14
1.4375
 24
-0.4374999999999998
 34
0
  0
DIMENSION
  5
147
100
AcDbEntity
  8
lengths
  6
ByLayer
 62
  256
370
   -1
100
AcDbDimension
  2
*D7
 10
2
 20
-0.2764416407227577
 30
0
 11
1.895526695296637
 21
-0.1989416407227577
 31
0
 70
   33
 71
    5
  3
Standard
 53
0
210
0
220
0
230
1
100
AcDbAlignedDimension
 13
1.791053390593274
 23
-0.4374999999999999
 33
0
 14
2
 24
-0.4374999999999999
 34
0
  0
DIMENSION
  5
148
100
AcDbEntity
  8
lengths
  6
ByLayer
 62
  256
370
   -1
100
AcDbDimension
  2
*D8
 10
2.3
 20
-0.1525195259160043
 30
0
 11
2.1575
 21
-0.07501952591600426
 31
0
 70
   33
 71
    5
  3
Standard
 53
0
210
0
220
0
230
1
100
AcDbAlignedDimension
 13
2.015
 23
-0.4425
 33
0
 14
2.3
 24
-0.4425
 34
0
  0
DIMENSION
  5
149
100
AcDbEntity
  8
lengths
  6
ByLayer
 62
  256
370
   -1
100
AcDbDimension
  2
*D9
 10
1.2
 20
-0.1652294864090046
 30
0
 11
0.8875000000000003
 21
-0.08772948640900462
 31
0
 70
   33
 71
    5
  3
Standard
 53
0
210
0
220
0
230
1
100
AcDbAlignedDimension
 13
0.5750000000000002
 23
-0.4375000000000001
 33
0
 14
1.2
 24
-0.4375
 34
0
  0
DIMENSION
  5
14A
100
AcDbEntity
  8
lengths
  6
ByLayer
 62
  256
370
   -1
100
AcDbDimension
  2
*D10
 10
2.3
 20
0.7403551987172706
 30
0
 11
1.608120232186426
 21
0.8178551987172706
 31
0
 70
   32
 71
    5
  3
Standard
 53
0
210
0
220
0
230
1
100
AcDbAlignedDimension
 13
0.9162404643728529
 23
0.6875
 33
0
 14
2.3
 24
0.5875000361794045
 34
0
100
AcDbRotatedDimension
  0
DIMENSION
  5
14B
100
AcDbEntity
  8
lengths
  6
ByLayer
 62
  256
370
   -1
100
AcDbDimension
  2
*D11
 10
1.910195493179381
 20
0.6323205345267676
 30
0
 11
1.955097746589691
 21
0.7098205345267676
 31
0
 70
   32
 71
    5
  3
Standard
 53
0
210
0
220
0
230
1
100
AcDbAlignedDimension
 13
2
 23
0.5425
 33
0
 14
1.910195493179381
 24
0.5566421025861068
 34
0
100
AcDbRotatedDimension
  0
DIMENSION
  5
14C
100
AcDbEntity
  8
lengths
  6
ByLayer
 62
  256
370
   -1
100
AcDbDimension
  2
*D12
 10
1.514215728752538
 20
0.6418530048965179
 30
0
 11
1.357107864376269
 21
0.7193530048965179
 31
0
 70
   32
 71
    5
  3
Standard
 53
0
210
0
220
0
230
1
100
AcDbAlignedDimension
 13
1.2
 23
0.5625
 33
0
 14
1.514215728752538
 24
0.5625
 34
0
100
AcDbRotatedDimension
  0
DIMENSION
  5
14D
100
AcDbEntity
  8
Angles
  6
ByLayer
 62
  256
370
   -1
100
AcDbDimension
  2
*D13
 10
1.528357864376269
 20
0.528357864376269
 30
0
 11
0
 21
0
 31
0
 70
   34
 71
    5
  3
Standard
 53
0
210
0
220
0
230
1
100
AcDb2LineAngularDimension
 13
1.4375
 23
0.4375000000000001
 33
0
 14
0
 24
0.4375
 34
0
 15
1.4375
 25
0.4374999999999999
 35
0
 16
2.095427636678478
 26
0.5816618094917845
 36
0
  0
DIMENSION
  5
14E
100
AcDbEntity
  8
Angles
  6
ByLayer
 62
  256
370
   -1
100
AcDbDimension
  2
*D14
 10
3
 20
0.4425
 30
0
 11
0
 21
0
 31
0
 70
   34
 71
    5
  3
Standard
 53
0
210
0
220
0
230
1
100
AcDb2LineAngularDimension
 13
1.791053390593274
 23
0.4374999999999999
 33
0
 14
1.910195526217005
 24
0.556642135623731
 34
0
 15
2.005
 25
0.4425
 35
0
 16
2.433957434409568
 26
0.5910131629245164
 36
0
  0
MTEXT
  5
14F
100
AcDbEntity
  8
diameters
  6
ByLayer
 62
  256
370
   -1
100
AcDbMText
 10
0.2776472594262779
 20
-0.1705619127049458
 30
0
 40
0.02
 41
0.3011111111111149
 71
    1
 72
    1
  1
outer thread diameter
  7

210
0
220
0
230
1
 50
90
 73
    2
 44
1
  0
MTEXT
  5
150
100
AcDbEntity
  8
diameters
  6
ByLayer
 62
  256
370
   -1
100
AcDbMText
 10
0.3946334450820314
 20
-0.1404627516393671
 30
0
 40
0.025
 41
0.2958333333333381
 71
    1
 72
    1
  1
inner thread root
  7

210
0
220
0
230
1
 50
90
 73
    2
 44
1
  0
MTEXT
  5
151
100
AcDbEntity
  8
diameters
  6
ByLayer
 62
  256
370
   -1
100
AcDbMText
 10
0.523390967418118
 20
-0.0735757270491923
 30
0
 40
0.025
 41
0.1409817465228391
 71
    1
 72
    1
  1
steel OD\P
  7

210
0
220
0
230
1
 50
90
 73
    2
 44
1
  0
MTEXT
  5
152
100
AcDbEntity
  8
diameters
  6
ByLayer
 62
  256
370
   -1
100
AcDbMText
 10
3.288242107554515
 20
-0.05385497078403256
 30
0
 40
0.025
 41
0.09652777777778049
 71
    1
 72
    1
  1
nut ID
  7

210
0
220
0
230
1
 50
90
 73
    2
 44
1
  0
MTEXT
  5
153
100
AcDbEntity
  8
diameters
  6
ByLayer
 62
  256
370
   -1
100
AcDbMText
 10
3.49048827083499
 20
-0.04471402108355471
 30
0
 40
0.025
 41
0.1104166666666694
 71
    1
 72
    1
  1
nut OD
  7

210
0
220
0
230
1
 50
90
 73
    2
 44
1
  0
DIMENSION
  5
154
100
AcDbEntity
  8
diameters
  6
ByLayer
 62
  256
370
   -1
100
AcDbDimension
  2
*D15
 10
3
 20
-0.4095
 30
0
 11
2.9225
 21
0.01400000000000002
 31
0
 70
   33
 71
    5
  3
Standard
 53
0
210
0
220
0
230
1
100
AcDbAlignedDimension
 13
3
 23
0.4375
 33
0
 14
3
 24
-0.4095
 34
0
  0
DIMENSION
  5
155
100
AcDbEntity
  8
diameters
  6
ByLayer
 62
  256
370
   -1
100
AcDbDimension
  2
*D16
 10
3.082140572448815
 20
-0.4375000000000001
 30
0
 11
3.045331581053454
 21
-0.004915789477083865
 31
0
 70
   33
 71
    5
  3
Standard
 53
0
210
0
220
0
230
1
100
AcDbAlignedDimension
 13
3
 23
0.4375000000000001
 33
0
 14
3
 24
-0.4375000000000001
 34
0
  0
MTEXT
  5
156
100
AcDbEntity
  8
diameters
  6
ByLayer
 62
  256
370
   -1
100
AcDbMText
 10
3.094489475824293
 20
-0.06636315794063218
 30
0
 40
0.025
 41
0.1298611111111138
 71
    1
 72
    1
  1
tube OD
  7

210
0
220
0
230
1
 50
90
 73
    2
 44
1
  0
MTEXT
  5
157
100
AcDbEntity
  8
diameters
  6
ByLayer
 62
  256
370
   -1
100
AcDbMText
 10
2.942100002034693
 20
-0.05161578950938058
 30
0
 40
0.025
 41
0.1215277777777805
 71
    1
 72
    1
  1
Tube ID\P
  7

210
0
220
0
230
1
 50
90
 73
    2
 44
1
  0
MTEXT
  5
158
100
AcDbEntity
  8
diameters
  6
ByLayer
 62
  256
370
   -1
100
AcDbMText
 10
2.779878949290925
 20
-0.3588526318271221
 30
0
 40
0.025
 41
0.7430555812699263
 71
    1
 72
    1
  1
Actual tube dimensions can vary +/- 0.015!
  7

210
0
220
0
230
1
 50
90
 73
    2
 44
1
  0
LINE
  5
159
100
AcDbEntity
  8
diameters
  6
ByLayer
 62
  256
370
   -1
100
AcDbLine
 10
1.195
 20
0.4375000000000001
 11
1.195
 21
0.5625
  0
LINE
  5
15A
100
AcDbEntity
  8
Aluminum bushing+nut
  6
ByLayer
 62
  256
370
   -1
100
AcDbLine
 10
1.195
 20
0.4375000000000001
 11
1.195
 21
0.59
  0
MTEXT
  5
15B
100
AcDbEntity
  8
thread info
  6
ByLayer
 62
  256
370
   -1
100
AcDbMText
 10
0.4189915943726765
 20
1.170711807806008
 30
0
 40
0.05
 41
0.6861111111111259
 71
    1
 72
    1
  1
1.187 x 24tpi thread\P1.186 major diametre\P1.136 minor diametre
  7

210
0
220
0
230
1
 50
0
 73
    2
 44
1
  0
MTEXT
  5
15C
100
AcDbEntity
  8
thread info
  6
ByLayer
 62
  256
370
   -1
100
AcDbMText
 10
1.544518034158101
 20
1.166604047076864
 30
0
 40
0.05
 41
1.105555555555573
 71
    1
 72
    1
  1
30mm x 1 thread\P28.891mm / 1.180 major diametre\P29.974mm / 1.137 minor diametre
  7

210
0
220
0
230
1
 50
0
 73
    2
 44
1
  0
LINE
  5
15D
100
AcDbEntity
  8
Aluminum bushing+nut
  6
ByLayer
 62
  256
370
   -1
100
AcDbLine
 10
0.5750000000000002
 20
0.4375
 11
0.5750000000000002
 21
0.5275000000000001
  0
INSERT
  5
15E
100
AcDbEntity
  8
Aluminum bushing+nut
  6
ByLayer
 62
  256
370
   -1
100
AcDbBlockReference
  2
thread
 10
0.5750000000000002
 20
0.5274999948596708
 30
0
 41
1
 42
1
 43
0
 50
0
 70
    1
 71
    1
 44
0
 45
0
  0
LINE
  5
15F
100
AcDbEntity
  8
Aluminum bushing+nut
  6
ByLayer
 62
  256
370
   -1
100
AcDbLine
 10
2.005
 20
0.4374999999999999
 11
2.3
 21
0.4374999999999999
  0
LINE
  5
160
100
AcDbEntity
  8
Aluminum bushing+nut
  6
ByLayer
 62
  256
370
   -1
100
AcDbLine
 10
2.005
 20
-0.4374999999999999
 11
2.3
 21
-0.4374999999999999
  0
LINE
  5
161
100
AcDbEntity
  8
Aluminum bushing+nut
  6
ByLayer
 62
  256
370
   -1
100
AcDbLine
 10
0.5750000000000002
 20
-0.4375
 11
1.2
 21
-0.4375
  0
LINE
  5
162
100
AcDbEntity
  8
Aluminum bushing+nut
  6
ByLayer
 62
  256
370
   -1
100
AcDbLine
 10
1.2
 20
-0.59
 11
1.2
 21
-0.4375
  0
LINE
  5
163
100
AcDbEntity
  8
Aluminum bushing+nut
  6
ByLayer
 62
  256
370
   -1
100
AcDbLine
 10
0.5750000000000002
 20
0.4375
 11
1.195
 21
0.4375000000000001
  0
LWPOLYLINE
  5
164
100
AcDbEntity
  8
0
  6
ByLayer
 62
  256
370
   -1
100
AcDbPolyline
 90
    4
 70
    1
 43
0
 10
2
 20
-1
 10
4
 20
-1
 10
4
 20
-2
 10
2
 20
-2
  0
LWPOLYLINE
  5
165
100
AcDbEntity
  8
0
  6
ByLayer
 62
  256
370
   -1
100
AcDbPolyline
 90
    4
 70
    1
 43
0
 10
3
 20
-1
 10
3
 20
-1
 10
3
 20
-2
 10
3
 20
-2
  0
LWPOLYLINE
  5
166
100
AcDbEntity
  8
0
  6
ByLayer
 62
  256
370
   -1
100
AcDbPolyline
 90
    4
 70
    1
 43
0
 10
3
 20
-1.7
 10
4
 20
-1.7
 10
4
 20
-1.7
 10
3
 20
-1.7
  0
LWPOLYLINE
  5
167
100
AcDbEntity
  8
0
  6
ByLayer
 62
  256
370
   -1
100
AcDbPolyline
 90
    4
 70
    1
 43
0
 10
2.3
 20
-1
 10
2.3
 20
-1
 10
2.3
 20
-2
 10
2.3
 20
-2
  0
LWPOLYLINE
  5
168
100
AcDbEntity
  8
0
  6
ByLayer
 62
  256
370
   -1
100
AcDbPolyline
 90
    4
 70
    1
 43
0
 10
2
 20
-1.2
 10
3
 20
-1.2
 10
3
 20
-1.3
 10
2
 20
-1.3
  0
LWPOLYLINE
  5
169
100
AcDbEntity
  8
0
  6
ByLayer
 62
  256
370
   -1
100
AcDbPolyline
 90
    4
 70
    1
 43
0
 10
2
 20
-1.5
 10
3
 20
-1.5
 10
3
 20
-1.5
 10
2
 20
-1.5
  0
LWPOLYLINE
  5
16A
100
AcDbEntity
  8
0
  6
ByLayer
 62
  256
370
   -1
100
AcDbPolyline
 90
    4
 70
    1
 43
0
 10
2
 20
-1.7
 10
3
 20
-1.7
 10
3
 20
-1.7
 10
2
 20
-1.7
  0
LWPOLYLINE
  5
16B
100
AcDbEntity
  8
0
  6
ByLayer
 62
  256
370
   -1
100
AcDbPolyline
 90
    4
 70
    1
 43
0
 10
2
 20
-1.1
 10
3
 20
-1.1
 10
3
 20
-1.1
 10
2
 20
-1.1
  0
LWPOLYLINE
  5
16C
100
AcDbEntity
  8
0
  6
ByLayer
 62
  256
370
   -1
100
AcDbPolyline
 90
    4
 70
    1
 43
0
 10
2
 20
-1.4
 10
3
 20
-1.4
 10
3
 20
-1.4
 10
2
 20
-1.4
  0
LWPOLYLINE
  5
16D
100
AcDbEntity
  8
0
  6
ByLayer
 62
  256
370
   -1
100
AcDbPolyline
 90
    4
 70
    1
 43
0
 10
2
 20
-1.6
 10
3
 20
-1.6
 10
3
 20
-1.6
 10
2
 20
-1.6
  0
LWPOLYLINE
  5
16E
100
AcDbEntity
  8
0
  6
ByLayer
 62
  256
370
   -1
100
AcDbPolyline
 90
    4
 70
    1
 43
0
 10
2
 20
-1.8
 10
3
 20
-1.8
 10
3
 20
-1.8
 10
2
 20
-1.8
  0
MTEXT
  5
16F
100
AcDbEntity
  8
0
  6
ByLayer
 62
  256
370
   -1
100
AcDbMText
 10
3.5
 20
-1.3
 30
0
 40
0.05
 41
0.7763888833333434
 71
    5
 72
    1
  1
Frame coupler \Pfor 7/8" (0.875) tubing \Pwith aluminum nuts
  7

210
0
220
0
230
1
 50
0
 73
    2
 44
1
  0
MTEXT
  5
170
100
AcDbEntity
  8
0
  6
ByLayer
 62
  256
370
   -1
100
AcDbMText
 10
2.101500001453472
 20
-1.051978948096007
 30
0
 40
0.05
 41
0.1388888888888943
 71
    5
 72
    1
  1
Date
  7

210
0
220
0
230
1
 50
0
 73
    2
 44
1
  0
MTEXT
  5
171
100
AcDbEntity
  8
0
  6
ByLayer
 62
  256
370
   -1
100
AcDbMText
 10
2.133452633054519
 20
-1.147836842899148
 30
0
 40
0.05
 41
0.216666666666669
 71
    5
 72
    1
  1
Author
  7

210
0
220
0
230
1
 50
0
 73
    2
 44
1
  0
DIMENSION
  5
172
100
AcDbEntity
  8
lengths
  6
ByLayer
 62
  256
370
   -1
100
AcDbDimension
  2
*D17
 10
0.443699775158509
 20
0.6875000000000001
 30
0
 11
0.366199775158509
 21
0.63375
 31
0
 70
   32
 71
    5
  3
Standard
 53
0
210
0
220
0
230
1
100
AcDbAlignedDimension
 13
0.9162404643728529
 23
0.58
 33
0
 14
0.9162404643728529
 24
0.6875
 34
0
 50
90
100
AcDbRotatedDimension
  0
DIMENSION
  5
173
100
AcDbEntity
  8
lengths
  6
ByLayer
 62
  256
370
   -1
100
AcDbDimension
  2
*D18
 10
2.414660881652096
 20
0.6875000000000002
 30
0
 11
2.337160881652096
 21
0.5625000000000001
 31
0
 70
   32
 71
    5
  3
Standard
 53
0
210
0
220
0
230
1
100
AcDbAlignedDimension
 13
2.3
 23
0.4374999999999999
 33
0
 14
2.200000036179404
 24
0.6875000000000002
 34
0
 50
90
100
AcDbRotatedDimension
  0
DIMENSION
  5
174
100
AcDbEntity
  8
lengths
  6
ByLayer
 62
  256
370
   -1
100
AcDbDimension
  2
*D19
 10
0.3269366764325856
 20
-0.5900000000000001
 30
0
 11
0.2494366764325855
 21
-0.51375
 31
0
 70
   32
 71
    5
  3
Standard
 53
0
210
0
220
0
230
1
100
AcDbAlignedDimension
 13
0.5750000000000002
 23
-0.4375000000000001
 33
0
 14
0.6375000000000002
 24
-0.5900000000000001
 34
0
 50
90
100
AcDbRotatedDimension
  0
ENDSEC
  0
SECTION
  2
OBJECTS
  0
DICTIONARY
  5
C
330
0
100
AcDbDictionary
281
    1
  3
ACAD_GROUP
350
D
  0
DICTIONARY
  5
D
330
C
100
AcDbDictionary
281
    1
  0
ENDSEC
  0
EOF
