999
dxfrw 0.6.3
  0
SECTION
  2
HEADER
  9
$ACADVER
  1
AC1021
  9
$DWGCODEPAGE
  3
ANSI_1252
  9
$INSBASE
 10
0
 20
0
 30
0
  9
$EXTMIN
 10
-393.7119562558762
 20
-103.4055934208649
 30
0
  9
$EXTMAX
 10
1779.438109598716
 20
917.9462253008949
 30
0
  9
$LIMMIN
 10
0
 20
0
  9
$LIMMAX
 10
420
 20
297
  9
$ORTHOMODE
 70
    0
  9
$REGENMODE
 70
    1
  9
$FILLMODE
 70
    1
  9
$QTEXTMODE
 70
    0
  9
$MIRRTEXT
 70
    0
  9
$LTSCALE
 40
1
  9
$ATTMODE
 70
    0
  9
$TEXTSIZE
 40
2.5
  9
$TRACEWID
 40
15.68
  9
$TEXTSTYLE
  7
STANDARD
  9
$CLAYER
  8
0
  9
$CELTYPE
  6
BYLAYER
  9
$CECOLOR
 62
  256
  9
$CELTSCALE
 40
1
  9
$DISPSILH
 70
    0
  9
$DIMSCALE
 40
2.5
  9
$DIMASZ
 40
2.5
  9
$DIMEXO
 40
0.625
  9
$DIMDLI
 40
3.75
  9
$DIMRND
 40
0
  9
$DIMDLE
 40
0
  9
$DIMEXE
 40
1.25
  9
$DIMTP
 40
0
  9
$DIMTM
 40
0
  9
$DIMTXT
 40
5
  9
$DIMCEN
 40
2.5
  9
$DIMTSZ
 40
0
  9
$DIMTOL
 70
    0
  9
$DIMLIM
 70
    0
  9
$DIMTIH
 70
    0
  9
$DIMTOH
 70
    0
  9
$DIMSE1
 70
    0
  9
$DIMSE2
 70
    0
  9
$DIMTAD
 70
    1
  9
$DIMZIN
 70
    1
  9
$DIMBLK
  1

  9
$DIMASO
 70
    1
  9
$DIMSHO
 70
    1
  9
$DIMPOST
  1

  9
$DIMAPOST
  1

  9
$DIMALT
 70
    0
  9
$DIMALTD
 70
    3
  9
$DIMALTF
 40
0.03937
  9
$DIMLFAC
 40
1
  9
$DIMTOFL
 70
    1
  9
$DIMTVP
 40
0
  9
$DIMTIX
 70
    0
  9
$DIMSOXD
 70
    0
  9
$DIMSAH
 70
    0
  9
$DIMBLK1
  1

  9
$DIMBLK2
  1

  9
$DIMSTYLE
  2
STANDARD
  9
$DIMCLRD
 70
    6
  9
$DIMCLRE
 70
    6
  9
$DIMCLRT
 70
    6
  9
$DIMTFAC
 40
1
  9
$DIMGAP
 40
0.625
  9
$DIMJUST
 70
    0
  9
$DIMSD1
 70
    0
  9
$DIMSD2
 70
    0
  9
$DIMTOLJ
 70
    0
  9
$DIMTZIN
 70
    8
  9
$DIMALTZ
 70
    0
  9
$DIMALTTZ
 70
    0
  9
$DIMUPT
 70
    0
  9
$DIMDEC
 70
    2
  9
$DIMTDEC
 70
    2
  9
$DIMALTU
 70
    2
  9
$DIMALTTD
 70
    3
  9
$DIMTXSTY
  7
standard
  9
$DIMAUNIT
 70
    0
  9
$DIMADEC
 70
    1
  9
$DIMALTRND
 40
0
  9
$DIMAZIN
 70
    0
  9
$DIMDSEP
 70
    0
  9
$DIMATFIT
 70
    3
  9
$DIMFRAC
 70
    0
  9
$DIMLDRBLK
  1
STANDARD
  9
$DIMLUNIT
 70
    2
  9
$DIMLWD
 70
   -2
  9
$DIMLWE
 70
   -2
  9
$DIMTMOVE
 70
    0
  9
$DIMFXL
 40
1
  9
$DIMFXLON
 70
    0
  9
$DIMJOGANG
 40
0.7854
  9
$DIMTFILL
 70
    0
  9
$DIMTFILLCLR
 70
    0
  9
$DIMARCSYM
 70
    0
  9
$DIMLTYPE
  6

  9
$DIMLTEX1
  6

  9
$DIMLTEX2
  6

  9
$LUNITS
 70
    2
  9
$LUPREC
 70
    1
  9
$SKETCHINC
 40
1
  9
$FILLETRAD
 40
0
  9
$AUNITS
 70
    0
  9
$AUPREC
 70
    1
  9
$MENU
  1
.
  9
$ELEVATION
 40
0
  9
$PELEVATION
 40
0
  9
$THICKNESS
 40
0
  9
$LIMCHECK
 70
    0
  9
$CHAMFERA
 40
0
  9
$CHAMFERB
 40
0
  9
$CHAMFERC
 40
0
  9
$CHAMFERD
 40
0
  9
$SKPOLY
 70
    0
  9
$USRTIMER
 70
    1
  9
$ANGBASE
 50
0
  9
$ANGDIR
 70
    0
  9
$PDMODE
 70
   34
  9
$PDSIZE
 40
0
  9
$PLINEWID
 40
0
  9
$SPLFRAME
 70
    0
  9
$SPLINETYPE
 70
    2
  9
$SPLINESEGS
 70
    8
  9
$HANDSEED
  5
20000
  9
$SURFTAB1
 70
    6
  9
$SURFTAB2
 70
    6
  9
$SURFTYPE
 70
    6
  9
$SURFU
 70
    6
  9
$SURFV
 70
    6
  9
$UCSBASE
  2

  9
$UCSNAME
  2

  9
$UCSORG
 10
0
 20
0
 30
0
  9
$UCSXDIR
 10
1
 20
0
 30
0
  9
$UCSYDIR
 10
0
 20
1
 30
0
  9
$UCSORTHOREF
  2

  9
$UCSORTHOVIEW
 70
    0
  9
$UCSORGTOP
 10
0
 20
0
 30
0
  9
$UCSORGBOTTOM
 10
0
 20
0
 30
0
  9
$UCSORGLEFT
 10
0
 20
0
 30
0
  9
$UCSORGRIGHT
 10
0
 20
0
 30
0
  9
$UCSORGFRONT
 10
0
 20
0
 30
0
  9
$UCSORGBACK
 10
0
 20
0
 30
0
  9
$PUCSBASE
  2

  9
$PUCSNAME
  2

  9
$PUCSORG
 10
0
 20
0
 30
0
  9
$PUCSXDIR
 10
1
 20
0
 30
0
  9
$PUCSYDIR
 10
0
 20
1
 30
0
  9
$PUCSORTHOREF
  2

  9
$PUCSORTHOVIEW
 70
    0
  9
$PUCSORGTOP
 10
0
 20
0
 30
0
  9
$PUCSORGBOTTOM
 10
0
 20
0
 30
0
  9
$PUCSORGLEFT
 10
0
 20
0
 30
0
  9
$PUCSORGRIGHT
 10
0
 20
0
 30
0
  9
$PUCSORGFRONT
 10
0
 20
0
 30
0
  9
$PUCSORGBACK
 10
0
 20
0
 30
0
  9
$USERI1
 70
    0
  9
$USERI2
 70
    0
  9
$USERI3
 70
    0
  9
$USERI4
 70
    0
  9
$USERI5
 70
    0
  9
$USERR1
 40
0
  9
$USERR2
 40
0
  9
$USERR3
 40
0
  9
$USERR4
 40
0
  9
$USERR5
 40
0
  9
$WORLDVIEW
 70
    1
  9
$SHADEDGE
 70
    3
  9
$SHADEDIF
 70
   70
  9
$TILEMODE
 70
    1
  9
$MAXACTVP
 70
   64
  9
$PINSBASE
 10
61.46475229631277
 20
61.39448041670646
 30
0
  9
$PLIMCHECK
 70
    0
  9
$PEXTMIN
 10
0
 20
0
 30
0
  9
$PEXTMAX
 10
0
 20
0
 30
0
  9
$PLIMMIN
 10
0
 20
0
  9
$PLIMMAX
 10
279.4
 20
215.9
  9
$UNITMODE
 70
    0
  9
$VISRETAIN
 70
    1
  9
$PLINEGEN
 70
    0
  9
$PSLTSCALE
 70
    1
  9
$TREEDEPTH
 70
 3020
  9
$CMLSTYLE
  2
Standard
  9
$CMLJUST
 70
    0
  9
$CMLSCALE
 40
20
  9
$PROXYGRAPHICS
 70
    1
  9
$MEASUREMENT
 70
    1
  9
$CELWEIGHT
370
   -1
  9
$ENDCAPS
280
    0
  9
$JOINSTYLE
280
    0
  9
$LWDISPLAY
290
    0
  9
$INSUNITS
 70
    4
  9
$HYPERLINKBASE
  1

  9
$STYLESHEET
  1

  9
$XEDIT
290
    1
  9
$CEPSNTYPE
380
    0
  9
$PSTYLEMODE
290
    1
  9
$EXTNAMES
290
    1
  9
$PSVPSCALE
 40
0.1243669721119502
  9
$OLESTARTUP
290
    0
  9
$SORTENTS
280
  127
  9
$INDEXCTL
280
    0
  9
$HIDETEXT
280
    1
  9
$XCLIPFRAME
290
    0
  9
$HALOGAP
280
    0
  9
$OBSCOLOR
 70
  257
  9
$OBSLTYPE
280
    0
  9
$INTERSECTIONDISPLAY
280
    0
  9
$INTERSECTIONCOLOR
 70
  257
  9
$DIMASSOC
280
    1
  9
$PROJECTNAME
  1

  9
$CAMERADISPLAY
290
    0
  9
$LENSLENGTH
 40
50
  9
$CAMERAHEIGHT
 40
0
  9
$STEPSPERSEC
 40
2
  9
$STEPSIZE
 40
50
  9
$3DDWFPREC
 40
2
  9
$PSOLWIDTH
 40
5
  9
$PSOLHEIGHT
 40
80
  9
$LOFTANG1
 40
1.570796326794897
  9
$LOFTANG2
 40
1.570796326794897
  9
$LOFTMAG1
 40
0
  9
$LOFTMAG2
 40
0
  9
$LOFTPARAM
 70
    7
  9
$LOFTNORMALS
280
    1
  9
$LATITUDE
 40
1
  9
$LONGITUDE
 40
1
  9
$NORTHDIRECTION
 40
0
  9
$TIMEZONE
 70
-8000
  9
$LIGHTGLYPHDISPLAY
280
    1
  9
$TILEMODELIGHTSYNCH
280
    1
  9
$SOLIDHIST
280
    1
  9
$SHOWHIST
280
    1
  9
$DWFFRAME
280
    2
  9
$DGNFRAME
280
    0
  9
$REALWORLDSCALE
290
    1
  9
$INTERFERECOLOR
 62
    1
  9
$CSHADOW
280
    0
  9
$SHADOWPLANELOCATION
 40
0
  0
ENDSEC
  0
SECTION
  2
CLASSES
  0
ENDSEC
  0
SECTION
  2
TABLES
  0
TABLE
  2
VPORT
  5
8
330
0
100
AcDbSymbolTable
 70
    1
  0
VPORT
  5
31
330
2
100
AcDbSymbolTableRecord
100
AcDbViewportTableRecord
  2
*ACTIVE
 70
    0
 10
0
 20
0
 11
1
 21
1
 12
1004.418429457544
 22
549.9922273922864
 13
0
 23
0
 14
10
 24
10
 15
10
 25
10
 16
0
 26
0
 36
1
 17
0
 27
0
 37
0
 40
1538.808040469908
 41
1.603295310519645
 42
50
 43
0
 44
0
 50
0
 51
0
 71
    0
 72
  100
 73
    1
 74
    3
 75
    0
 76
    1
 77
    0
 78
    0
281
    0
 65
    1
110
0
120
0
130
0
111
1
121
0
131
0
112
0
122
1
132
0
 79
    0
146
0
348
10020
 60
    7
 61
    5
292
1
282
    1
141
0
142
0
 63
  250
421
3358443
  0
ENDTAB
  0
TABLE
  2
LTYPE
  5
5
330
0
100
AcDbSymbolTable
 70
    4
  0
LTYPE
  5
14
330
5
100
AcDbSymbolTableRecord
100
AcDbLinetypeTableRecord
  2
ByBlock
 70
    0
  3

 72
   65
 73
    0
 40
0
  0
LTYPE
  5
15
330
5
100
AcDbSymbolTableRecord
100
AcDbLinetypeTableRecord
  2
ByLayer
 70
    0
  3

 72
   65
 73
    0
 40
0
  0
LTYPE
  5
16
330
5
100
AcDbSymbolTableRecord
100
AcDbLinetypeTableRecord
  2
Continuous
 70
    0
  3
Solid line
 72
   65
 73
    0
 40
0
  0
LTYPE
  5
32
330
5
100
AcDbSymbolTableRecord
100
AcDbLinetypeTableRecord
  2
DOT
 70
    0
  3
Dot . . . . . . . . . . . . . . . . . . . . . .
 72
   65
 73
    2
 40
6.35
 49
0
 74
    0
 49
-6.35
 74
    0
  0
LTYPE
  5
33
330
5
100
AcDbSymbolTableRecord
100
AcDbLinetypeTableRecord
  2
DOTTINY
 70
    0
  3
Dot (.15x) .....................................
 72
   65
 73
    2
 40
0.9525
 49
0
 74
    0
 49
-0.9525
 74
    0
  0
LTYPE
  5
34
330
5
100
AcDbSymbolTableRecord
100
AcDbLinetypeTableRecord
  2
DOT2
 70
    0
  3
Dot (.5x) .....................................
 72
   65
 73
    2
 40
3.175
 49
0
 74
    0
 49
-3.175
 74
    0
  0
LTYPE
  5
35
330
5
100
AcDbSymbolTableRecord
100
AcDbLinetypeTableRecord
  2
DOTX2
 70
    0
  3
Dot (2x) .  .  .  .  .  .  .  .  .  .  .  .  .
 72
   65
 73
    2
 40
12.7
 49
0
 74
    0
 49
-12.7
 74
    0
  0
LTYPE
  5
36
330
5
100
AcDbSymbolTableRecord
100
AcDbLinetypeTableRecord
  2
DASHED
 70
    0
  3
Dashed _ _ _ _ _ _ _ _ _ _ _ _ _ _ _ _ _
 72
   65
 73
    2
 40
19.05
 49
12.7
 74
    0
 49
-6.35
 74
    0
  0
LTYPE
  5
37
330
5
100
AcDbSymbolTableRecord
100
AcDbLinetypeTableRecord
  2
DASHEDTINY
 70
    0
  3
Dashed (.15x) _ _ _ _ _ _ _ _ _ _ _ _ _ _ _ _ _
 72
   65
 73
    2
 40
2.8575
 49
1.905
 74
    0
 49
-0.9525
 74
    0
  0
LTYPE
  5
38
330
5
100
AcDbSymbolTableRecord
100
AcDbLinetypeTableRecord
  2
DASHED2
 70
    0
  3
Dashed (.5x) _ _ _ _ _ _ _ _ _ _ _ _ _ _ _ _ _
 72
   65
 73
    2
 40
9.524999999999999
 49
6.35
 74
    0
 49
-3.175
 74
    0
  0
LTYPE
  5
39
330
5
100
AcDbSymbolTableRecord
100
AcDbLinetypeTableRecord
  2
DASHEDX2
 70
    0
  3
Dashed (2x) ____  ____  ____  ____  ____  ___
 72
   65
 73
    2
 40
38.09999999999999
 49
25.4
 74
    0
 49
-12.7
 74
    0
  0
LTYPE
  5
3A
330
5
100
AcDbSymbolTableRecord
100
AcDbLinetypeTableRecord
  2
DASHDOT
 70
    0
  3
Dash dot __ . __ . __ . __ . __ . __ . __ . __
 72
   65
 73
    4
 40
25.4
 49
12.7
 74
    0
 49
-6.35
 74
    0
 49
0
 74
    0
 49
-6.35
 74
    0
  0
LTYPE
  5
3B
330
5
100
AcDbSymbolTableRecord
100
AcDbLinetypeTableRecord
  2
DASHDOTTINY
 70
    0
  3
Dash dot (.15x) _._._._._._._._._._._._._._._.
 72
   65
 73
    4
 40
3.81
 49
1.905
 74
    0
 49
-0.9525
 74
    0
 49
0
 74
    0
 49
-0.9525
 74
    0
  0
LTYPE
  5
3C
330
5
100
AcDbSymbolTableRecord
100
AcDbLinetypeTableRecord
  2
DASHDOT2
 70
    0
  3
Dash dot (.5x) _._._._._._._._._._._._._._._.
 72
   65
 73
    4
 40
12.7
 49
6.35
 74
    0
 49
-3.175
 74
    0
 49
0
 74
    0
 49
-3.175
 74
    0
  0
LTYPE
  5
3D
330
5
100
AcDbSymbolTableRecord
100
AcDbLinetypeTableRecord
  2
DASHDOTX2
 70
    0
  3
Dash dot (2x) ____  .  ____  .  ____  .  ___
 72
   65
 73
    4
 40
50.8
 49
25.4
 74
    0
 49
-12.7
 74
    0
 49
0
 74
    0
 49
-12.7
 74
    0
  0
LTYPE
  5
3E
330
5
100
AcDbSymbolTableRecord
100
AcDbLinetypeTableRecord
  2
DIVIDE
 70
    0
  3
Divide ____ . . ____ . . ____ . . ____ . . ____
 72
   65
 73
    6
 40
31.75
 49
12.7
 74
    0
 49
-6.35
 74
    0
 49
0
 74
    0
 49
-6.35
 74
    0
 49
0
 74
    0
 49
-6.35
 74
    0
  0
LTYPE
  5
3F
330
5
100
AcDbSymbolTableRecord
100
AcDbLinetypeTableRecord
  2
DIVIDETINY
 70
    0
  3
Divide (.15x) __..__..__..__..__..__..__..__.._
 72
   65
 73
    6
 40
4.7625
 49
1.905
 74
    0
 49
-0.9525
 74
    0
 49
0
 74
    0
 49
-0.9525
 74
    0
 49
0
 74
    0
 49
-0.9525
 74
    0
  0
LTYPE
  5
40
330
5
100
AcDbSymbolTableRecord
100
AcDbLinetypeTableRecord
  2
DIVIDE2
 70
    0
  3
Divide (.5x) __..__..__..__..__..__..__..__.._
 72
   65
 73
    6
 40
15.875
 49
6.35
 74
    0
 49
-3.175
 74
    0
 49
0
 74
    0
 49
-3.175
 74
    0
 49
0
 74
    0
 49
-3.175
 74
    0
  0
LTYPE
  5
41
330
5
100
AcDbSymbolTableRecord
100
AcDbLinetypeTableRecord
  2
DIVIDEX2
 70
    0
  3
Divide (2x) ________  .  .  ________  .  .  _
 72
   65
 73
    6
 40
63.5
 49
25.4
 74
    0
 49
-12.7
 74
    0
 49
0
 74
    0
 49
-12.7
 74
    0
 49
0
 74
    0
 49
-12.7
 74
    0
  0
LTYPE
  5
42
330
5
100
AcDbSymbolTableRecord
100
AcDbLinetypeTableRecord
  2
BORDER
 70
    0
  3
Border __ __ . __ __ . __ __ . __ __ . __ __ .
 72
   65
 73
    6
 40
44.45
 49
12.7
 74
    0
 49
-6.35
 74
    0
 49
12.7
 74
    0
 49
-6.35
 74
    0
 49
0
 74
    0
 49
-6.35
 74
    0
  0
LTYPE
  5
43
330
5
100
AcDbSymbolTableRecord
100
AcDbLinetypeTableRecord
  2
BORDERTINY
 70
    0
  3
Border (.15x) __.__.__.__.__.__.__.__.__.__.__.
 72
   65
 73
    6
 40
6.6675
 49
1.905
 74
    0
 49
-0.9525
 74
    0
 49
1.905
 74
    0
 49
-0.9525
 74
    0
 49
0
 74
    0
 49
-0.9525
 74
    0
  0
LTYPE
  5
44
330
5
100
AcDbSymbolTableRecord
100
AcDbLinetypeTableRecord
  2
BORDER2
 70
    0
  3
Border (.5x) __.__.__.__.__.__.__.__.__.__.__.
 72
   65
 73
    6
 40
22.225
 49
6.35
 74
    0
 49
-3.175
 74
    0
 49
6.35
 74
    0
 49
-3.175
 74
    0
 49
0
 74
    0
 49
-3.175
 74
    0
  0
LTYPE
  5
45
330
5
100
AcDbSymbolTableRecord
100
AcDbLinetypeTableRecord
  2
BORDERX2
 70
    0
  3
Border (2x) ____  ____  .  ____  ____  .  ___
 72
   65
 73
    6
 40
88.89999999999999
 49
25.4
 74
    0
 49
-12.7
 74
    0
 49
25.4
 74
    0
 49
-12.7
 74
    0
 49
0
 74
    0
 49
-12.7
 74
    0
  0
LTYPE
  5
46
330
5
100
AcDbSymbolTableRecord
100
AcDbLinetypeTableRecord
  2
CENTER
 70
    0
  3
Center ____ _ ____ _ ____ _ ____ _ ____ _ ____
 72
   65
 73
    4
 40
50.8
 49
31.75
 74
    0
 49
-6.35
 74
    0
 49
6.35
 74
    0
 49
-6.35
 74
    0
  0
LTYPE
  5
47
330
5
100
AcDbSymbolTableRecord
100
AcDbLinetypeTableRecord
  2
CENTERTINY
 70
    0
  3
Center (.15x) ___ _ ___ _ ___ _ ___ _ ___ _ ___
 72
   65
 73
    4
 40
7.619999999999999
 49
4.7625
 74
    0
 49
-0.9525
 74
    0
 49
0.9525
 74
    0
 49
-0.9525
 74
    0
  0
LTYPE
  5
48
330
5
100
AcDbSymbolTableRecord
100
AcDbLinetypeTableRecord
  2
CENTER2
 70
    0
  3
Center (.5x) ___ _ ___ _ ___ _ ___ _ ___ _ ___
 72
   65
 73
    4
 40
28.575
 49
19.05
 74
    0
 49
-3.175
 74
    0
 49
3.175
 74
    0
 49
-3.175
 74
    0
  0
LTYPE
  5
49
330
5
100
AcDbSymbolTableRecord
100
AcDbLinetypeTableRecord
  2
CENTERX2
 70
    0
  3
Center (2x) ________  __  ________  __  _____
 72
   65
 73
    4
 40
101.6
 49
63.5
 74
    0
 49
-12.7
 74
    0
 49
12.7
 74
    0
 49
-12.7
 74
    0
  0
ENDTAB
  0
TABLE
  2
LAYER
  5
2
330
0
100
AcDbSymbolTable
 70
    1
  0
LAYER
  5
10
330
2
100
AcDbSymbolTableRecord
100
AcDbLayerTableRecord
  2
0
 70
    0
 62
    7
  6
CONTINUOUS
370
    0
390
F
  0
ENDTAB
  0
TABLE
  2
STYLE
  5
3
330
0
100
AcDbSymbolTable
 70
    3
  0
STYLE
  5
4A
330
2
100
AcDbSymbolTableRecord
100
AcDbTextStyleTableRecord
  2
Standard
 70
    0
 40
0
 41
1
 50
0
 71
    0
 42
1
  3
txt
  4

  0
ENDTAB
  0
TABLE
  2
VIEW
  5
6
330
0
100
AcDbSymbolTable
 70
    0
  0
ENDTAB
  0
TABLE
  2
UCS
  5
7
330
0
100
AcDbSymbolTable
 70
    0
  0
ENDTAB
  0
TABLE
  2
APPID
  5
9
330
0
100
AcDbSymbolTable
 70
    1
  0
APPID
  5
12
330
9
100
AcDbSymbolTableRecord
100
AcDbRegAppTableRecord
  2
ACAD
 70
    0
  0
APPID
  5
4B
330
9
100
AcDbSymbolTableRecord
100
AcDbRegAppTableRecord
  2
LibreCad
 70
    0
  0
ENDTAB
  0
TABLE
  2
DIMSTYLE
  5
A
330
0
100
AcDbSymbolTable
 70
    1
100
AcDbDimStyleTable
 71
    1
  0
DIMSTYLE
105
4C
330
A
100
AcDbSymbolTableRecord
100
AcDbDimStyleTableRecord
  2
Standard
 70
    0
 40
1
 41
2.5
 42
0.625
 43
0.38
 44
1.25
 45
0
 46
0
 47
0
 48
0
 49
1
140
5
141
0.09
142
0
143
25.4
144
1
145
0
146
1
147
0.625
148
0
 71
    0
 72
    0
 73
    0
 74
    1
 75
    0
 76
    0
 77
    0
 78
    1
 79
    0
170
    0
171
    2
172
    0
173
    0
174
    0
175
    0
176
    6
177
    6
178
    6
179
    1
271
    1
272
    4
273
    2
274
    2
275
    0
276
    0
277
    2
278
    0
279
    0
280
    0
281
    0
282
    0
283
    1
284
    0
285
    0
286
    0
288
    0
289
    3
340
standard
341

371
   -2
372
   -2
  0
ENDTAB
  0
TABLE
  2
BLOCK_RECORD
  5
1
330
0
100
AcDbSymbolTable
 70
    2
  0
BLOCK_RECORD
  5
1F
330
1
100
AcDbSymbolTableRecord
100
AcDbBlockTableRecord
  2
*Model_Space
 70
    0
280
    1
281
    0
  0
BLOCK_RECORD
  5
1E
330
1
100
AcDbSymbolTableRecord
100
AcDbBlockTableRecord
  2
*Paper_Space
 70
    0
280
    1
281
    0
  0
BLOCK_RECORD
  5
4D
330
1
100
AcDbSymbolTableRecord
100
AcDbBlockTableRecord
  2
*D4
 70
    0
280
    1
281
    0
  0
BLOCK_RECORD
  5
50
330
1
100
AcDbSymbolTableRecord
100
AcDbBlockTableRecord
  2
*D10
 70
    0
280
    1
281
    0
  0
BLOCK_RECORD
  5
53
330
1
100
AcDbSymbolTableRecord
100
AcDbBlockTableRecord
  2
*D3
 70
    0
280
    1
281
    0
  0
BLOCK_RECORD
  5
56
330
1
100
AcDbSymbolTableRecord
100
AcDbBlockTableRecord
  2
*D1
 70
    0
280
    1
281
    0
  0
BLOCK_RECORD
  5
59
330
1
100
AcDbSymbolTableRecord
100
AcDbBlockTableRecord
  2
*D5
 70
    0
280
    1
281
    0
  0
BLOCK_RECORD
  5
5C
330
1
100
AcDbSymbolTableRecord
100
AcDbBlockTableRecord
  2
*D11
 70
    0
280
    1
281
    0
  0
BLOCK_RECORD
  5
5F
330
1
100
AcDbSymbolTableRecord
100
AcDbBlockTableRecord
  2
*D6
 70
    0
280
    1
281
    0
  0
BLOCK_RECORD
  5
62
330
1
100
AcDbSymbolTableRecord
100
AcDbBlockTableRecord
  2
*D2
 70
    0
280
    1
281
    0
  0
BLOCK_RECORD
  5
65
330
1
100
AcDbSymbolTableRecord
100
AcDbBlockTableRecord
  2
*D7
 70
    0
280
    1
281
    0
  0
BLOCK_RECORD
  5
68
330
1
100
AcDbSymbolTableRecord
100
AcDbBlockTableRecord
  2
*D8
 70
    0
280
    1
281
    0
  0
BLOCK_RECORD
  5
6B
330
1
100
AcDbSymbolTableRecord
100
AcDbBlockTableRecord
  2
*D9
 70
    0
280
    1
281
    0
  0
BLOCK_RECORD
  5
6E
330
1
100
AcDbSymbolTableRecord
100
AcDbBlockTableRecord
  2
*D12
 70
    0
280
    1
281
    0
  0
BLOCK_RECORD
  5
71
330
1
100
AcDbSymbolTableRecord
100
AcDbBlockTableRecord
  2
*D13
 70
    0
280
    1
281
    0
  0
ENDTAB
  0
ENDSEC
  0
SECTION
  2
BLOCKS
  0
BLOCK
  5
20
330
1F
100
AcDbEntity
  8
0
100
AcDbBlockBegin
  2
*Model_Space
 70
    0
 10
0
 20
0
 30
0
  3
*Model_Space
  1

  0
ENDBLK
  5
21
330
1F
100
AcDbEntity
  8
0
100
AcDbBlockEnd
  0
BLOCK
  5
1C
330
1B
100
AcDbEntity
  8
0
100
AcDbBlockBegin
  2
*Paper_Space
 70
    0
 10
0
 20
0
 30
0
  3
*Paper_Space
  1

  0
ENDBLK
  5
1D
330
1F
100
AcDbEntity
  8
0
100
AcDbBlockEnd
  0
BLOCK
  5
4E
330
4D
100
AcDbEntity
  8
0
100
AcDbBlockBegin
  2
*D4
 70
    1
 10
0
 20
0
  3
*D4
  1

  0
LINE
  5
74
100
AcDbEntity
  8
0
  6
ByBlock
 62
    6
370
   -2
100
AcDbLine
 10
531.1266354333859
 20
545.4583372013415
 11
-393.7119562558762
 21
522.1919575362036
  0
LINE
  5
75
100
AcDbEntity
  8
0
  6
ByBlock
 62
    6
370
   -2
100
AcDbLine
 10
544.8492531817789
 20
-0.0157182972790337
 11
-379.9893385074832
 21
-23.28209796241682
  0
LINE
  5
76
100
AcDbEntity
  8
0
  6
ByBlock
 62
    6
370
   -2
100
AcDbLine
 10
-392.462351622193
 20
522.2233941307617
 11
-378.7397338738
 21
-23.25066136785876
  0
SOLID
  5
77
100
AcDbEntity
  8
0
  6
ByBlock
 62
    6
370
   -2
100
AcDbTrace
 10
-392.462351622193
 20
522.2233941307617
 30
0
 11
-391.9833254432495
 21
519.734654121001
 31
0
 12
-392.8156314229042
 22
519.7137156057895
 32
0
 13
-392.8156314229042
 23
519.7137156057895
 33
0
  0
SOLID
  5
78
100
AcDbEntity
  8
0
  6
ByBlock
 62
    6
370
   -2
100
AcDbTrace
 10
-378.7397338738
 20
-23.25066136785876
 30
0
 11
-379.2187600527434
 21
-20.76192135809802
 31
0
 12
-378.3864540730888
 22
-20.74098284288658
 32
0
 13
-378.3864540730888
 23
-20.74098284288658
 33
0
  0
MTEXT
  5
79
100
AcDbEntity
  8
0
  6
CONTINUOUS
 62
    6
370
   -2
100
AcDbMText
 10
-382.4770311637884
 20
249.5649578678466
 30
0
 40
5
 41
16.11111111111204
 71
    5
 72
    1
  1
545.6
  7
standard
210
0
220
0
230
1
 50
271.4410992921221
 73
    2
 44
1
  0
ENDBLK
  5
4F
330
4D
100
AcDbEntity
  8
0
100
AcDbBlockEnd
  0
BLOCK
  5
51
330
50
100
AcDbEntity
  8
0
100
AcDbBlockBegin
  2
*D10
 70
    1
 10
0
 20
0
  3
*D10
  1

  0
LINE
  5
7A
100
AcDbEntity
  8
0
  6
ByBlock
 62
    6
370
   -2
100
AcDbLine
 10
-0.1276680842334408
 20
256.6207131922881
 11
-57.78028475717287
 21
-19.66701637401661
  0
LINE
  5
7B
100
AcDbEntity
  8
0
  6
ByBlock
 62
    6
370
   -2
100
AcDbLine
 10
401.1713997557567
 20
172.8821361454398
 11
343.5187830828173
 21
-103.4055934208649
  0
LINE
  5
7C
100
AcDbEntity
  8
0
  6
ByBlock
 62
    6
370
   -2
100
AcDbLine
 10
-57.52494858870599
 20
-18.44337286340061
 11
343.7741192512842
 21
-102.1819499102489
  0
SOLID
  5
7D
100
AcDbEntity
  8
0
  6
ByBlock
 62
    6
370
   -2
100
AcDbTrace
 10
-57.52494858870599
 20
-18.44337286340061
 30
0
 11
-54.99262754386817
 21
-18.54653798429218
 31
0
 12
-55.1626955910798
 22
-19.36155241637656
 32
0
 13
-55.1626955910798
 23
-19.36155241637656
 33
0
  0
SOLID
  5
7E
100
AcDbEntity
  8
0
  6
ByBlock
 62
    6
370
   -2
100
AcDbTrace
 10
343.7741192512842
 20
-102.1819499102489
 30
0
 11
341.2417982064463
 21
-102.0787847893574
 31
0
 12
341.411866253658
 22
-101.263770357273
 32
0
 13
341.411866253658
 23
-101.263770357273
 33
0
  0
MTEXT
  5
7F
100
AcDbEntity
  8
0
  6
CONTINUOUS
 62
    6
370
   -2
100
AcDbMText
 10
143.7629257524563
 20
-57.25355261028477
 30
0
 40
5
 41
16.11111111111111
 71
    5
 72
    1
  1
409.9
  7
standard
210
0
220
0
230
1
 50
348.2132934597403
 73
    2
 44
1
  0
ENDBLK
  5
52
330
50
100
AcDbEntity
  8
0
100
AcDbBlockEnd
  0
BLOCK
  5
54
330
53
100
AcDbEntity
  8
0
100
AcDbBlockBegin
  2
*D3
 70
    1
 10
0
 20
0
  3
*D3
  1

  0
LINE
  5
80
100
AcDbEntity
  8
0
  6
ByBlock
 62
    6
370
   -2
100
AcDbLine
 10
167.5288673221052
 20
673.475953840755
 11
173.5252959446144
 21
727.0803915268204
  0
LINE
  5
81
100
AcDbEntity
  8
0
  6
ByBlock
 62
    6
370
   -2
100
AcDbLine
 10
612.5785854153243
 20
623.6907311388017
 11
618.5750140378333
 21
677.2951688248671
  0
LINE
  5
82
100
AcDbEntity
  8
0
  6
ByBlock
 62
    6
370
   -2
100
AcDbLine
 10
173.3863322044534
 20
725.8381399102304
 11
618.4360502976724
 21
676.0529172082771
  0
SOLID
  5
83
100
AcDbEntity
  8
0
  6
ByBlock
 62
    6
370
   -2
100
AcDbTrace
 10
173.3863322044534
 20
725.8381399102304
 30
0
 11
175.917114216046
 21
725.9739166611726
 31
0
 12
175.8245566592209
 22
725.1465081986447
 32
0
 13
175.8245566592209
 23
725.1465081986447
 33
0
  0
SOLID
  5
84
100
AcDbEntity
  8
0
  6
ByBlock
 62
    6
370
   -2
100
AcDbTrace
 10
618.4360502976724
 20
676.0529172082771
 30
0
 11
615.9052682860798
 21
675.917140457335
 31
0
 12
615.9978258429049
 22
676.7445489198628
 32
0
 13
615.9978258429049
 23
676.7445489198628
 33
0
  0
MTEXT
  5
85
100
AcDbEntity
  8
0
  6
CONTINUOUS
 62
    6
370
   -2
100
AcDbMText
 10
396.2586006014652
 20
704.0511576007287
 30
0
 40
5
 41
16.66666666666667
 71
    5
 72
    1
  1
447.8
  7
standard
210
0
220
0
230
1
 50
353.6171774736288
 73
    2
 44
1
  0
ENDBLK
  5
55
330
53
100
AcDbEntity
  8
0
100
AcDbBlockEnd
  0
BLOCK
  5
57
330
56
100
AcDbEntity
  8
0
100
AcDbBlockBegin
  2
*D1
 70
    1
 10
0
 20
0
  3
*D1
  1

  0
LINE
  5
86
100
AcDbEntity
  8
0
  6
ByBlock
 62
    6
370
   -2
100
AcDbLine
 10
-2.800024772709829
 20
253.024020154825
 11
-292.5283530070041
 21
365.6961478014949
  0
LINE
  5
87
100
AcDbEntity
  8
0
  6
ByBlock
 62
    6
370
   -2
100
AcDbLine
 10
105.8585460241196
 20
532.4317736323864
 11
-183.8697822101746
 21
645.1039012790563
  0
LINE
  5
88
100
AcDbEntity
  8
0
  6
ByBlock
 62
    6
370
   -2
100
AcDbLine
 10
-291.3633471675774
 20
365.2430899750512
 11
-182.704776370748
 21
644.6508434526127
  0
SOLID
  5
89
100
AcDbEntity
  8
0
  6
ByBlock
 62
    6
370
   -2
100
AcDbTrace
 10
-291.3633471675774
 20
365.2430899750512
 30
0
 11
-290.8452107604253
 21
367.7239824716904
 31
0
 12
-290.0692522689548
 22
367.4222208361185
 32
0
 13
-290.0692522689548
 23
367.4222208361185
 33
0
  0
SOLID
  5
8A
100
AcDbEntity
  8
0
  6
ByBlock
 62
    6
370
   -2
100
AcDbTrace
 10
-182.704776370748
 20
644.6508434526127
 30
0
 11
-183.2229127779001
 21
642.1699509559735
 31
0
 12
-183.9988712693707
 22
642.4717125915454
 32
0
 13
-183.9988712693707
 23
642.4717125915454
 33
0
  0
MTEXT
  5
8B
100
AcDbEntity
  8
0
  6
CONTINUOUS
 62
    6
370
   -2
100
AcDbMText
 10
-239.9465763677293
 20
506.0796112799412
 30
0
 40
5
 41
15.55555555555556
 71
    5
 72
    1
  1
299.8
  7
standard
210
0
220
0
230
1
 50
68.74949449286676
 73
    2
 44
1
  0
ENDBLK
  5
58
330
56
100
AcDbEntity
  8
0
100
AcDbBlockEnd
  0
BLOCK
  5
5A
330
59
100
AcDbEntity
  8
0
100
AcDbBlockBegin
  2
*D5
 70
    1
 10
0
 20
0
  3
*D5
  1

  0
LINE
  5
8C
100
AcDbEntity
  8
0
  6
ByBlock
 62
    6
370
   -2
100
AcDbLine
 10
1023.770805991642
 20
174.2491914753641
 11
818.6010884151966
 21
248.0512481575387
  0
LINE
  5
8D
100
AcDbEntity
  8
0
  6
ByBlock
 62
    6
370
   -2
100
AcDbLine
 10
1134.646898641468
 20
482.4847290418802
 11
929.4771810650224
 21
556.2867857240548
  0
LINE
  5
8E
100
AcDbEntity
  8
0
  6
ByBlock
 62
    6
370
   -2
100
AcDbLine
 10
819.7773055142998
 20
247.6281484816024
 11
930.6533981641255
 21
555.8636860481184
  0
SOLID
  5
8F
100
AcDbEntity
  8
0
  6
ByBlock
 62
    6
370
   -2
100
AcDbTrace
 10
819.7773055142998
 20
247.6281484816024
 30
0
 11
820.2317919601192
 21
250.1214866028494
 31
0
 12
821.0152177722259
 22
249.8396787567678
 32
0
 13
821.0152177722259
 23
249.8396787567678
 33
0
  0
SOLID
  5
90
100
AcDbEntity
  8
0
  6
ByBlock
 62
    6
370
   -2
100
AcDbTrace
 10
930.6533981641255
 20
555.8636860481184
 30
0
 11
930.1989117183061
 21
553.3703479268714
 31
0
 12
929.4154859061994
 22
553.6521557729529
 32
0
 13
929.4154859061994
 23
553.6521557729529
 33
0
  0
MTEXT
  5
91
100
AcDbEntity
  8
0
  6
CONTINUOUS
 62
    6
370
   -2
100
AcDbMText
 10
872.2748090914548
 20
402.8036664547013
 30
0
 40
5
 41
15.55555555555618
 71
    5
 72
    1
  1
327.6
  7
standard
210
0
220
0
230
1
 50
70.21572129599062
 73
    2
 44
1
  0
ENDBLK
  5
5B
330
59
100
AcDbEntity
  8
0
100
AcDbBlockEnd
  0
BLOCK
  5
5D
330
5C
100
AcDbEntity
  8
0
100
AcDbBlockBegin
  2
*D11
 70
    1
 10
0
 20
0
  3
*D11
  1

  0
LINE
  5
92
100
AcDbEntity
  8
0
  6
ByBlock
 62
    6
370
   -2
100
AcDbLine
 10
1416.751411292364
 20
248.315984914824
 11
1435.366979296181
 21
164.5118239958344
  0
LINE
  5
93
100
AcDbEntity
  8
0
  6
ByBlock
 62
    6
370
   -2
100
AcDbLine
 10
1100.663960549641
 20
178.1029147053089
 11
1119.279528553458
 21
94.29875378631934
  0
LINE
  5
94
100
AcDbEntity
  8
0
  6
ByBlock
 62
    6
370
   -2
100
AcDbLine
 10
1435.095921386271
 20
165.732081185723
 11
1119.008470643548
 21
95.51901097620795
  0
SOLID
  5
95
100
AcDbEntity
  8
0
  6
ByBlock
 62
    6
370
   -2
100
AcDbTrace
 10
1435.095921386271
 20
165.732081185723
 30
0
 11
1432.745676805904
 21
164.7835858885516
 31
0
 12
1432.565137207082
 22
165.5963448432518
 32
0
 13
1432.565137207082
 23
165.5963448432518
 33
0
  0
SOLID
  5
96
100
AcDbEntity
  8
0
  6
ByBlock
 62
    6
370
   -2
100
AcDbTrace
 10
1119.008470643548
 20
95.51901097620795
 30
0
 11
1121.358715223914
 21
96.4675062733794
 31
0
 12
1121.539254822736
 22
95.65474731867918
 32
0
 13
1121.539254822736
 23
95.65474731867918
 33
0
  0
MTEXT
  5
97
100
AcDbEntity
  8
0
  6
CONTINUOUS
 62
    6
370
   -2
100
AcDbMText
 10
1276.374551240133
 20
133.676189055687
 30
0
 40
5
 41
15.55555555555618
 71
    5
 72
    1
  1
323.8
  7
standard
210
0
220
0
230
1
 50
12.52386988352353
 73
    2
 44
1
  0
ENDBLK
  5
5E
330
5C
100
AcDbEntity
  8
0
100
AcDbBlockEnd
  0
BLOCK
  5
60
330
5F
100
AcDbEntity
  8
0
100
AcDbBlockBegin
  2
*D6
 70
    1
 10
0
 20
0
  3
*D6
  1

  0
LINE
  5
98
100
AcDbEntity
  8
0
  6
ByBlock
 62
    6
370
   -2
100
AcDbLine
 10
1027.116014553554
 20
175.429525915881
 11
963.6148673677687
 21
172.78364478314
  0
LINE
  5
99
100
AcDbEntity
  8
0
  6
ByBlock
 62
    6
370
   -2
100
AcDbLine
 10
1034.659230114456
 20
-5.607647545767202
 11
971.1580829286706
 21
-8.253528678508182
  0
LINE
  5
9A
100
AcDbEntity
  8
0
  6
ByBlock
 62
    6
370
   -2
100
AcDbLine
 10
964.8637837091342
 20
172.8356829640302
 11
972.4069992700361
 21
-8.201490497617957
  0
SOLID
  5
9B
100
AcDbEntity
  8
0
  6
ByBlock
 62
    6
370
   -2
100
AcDbTrace
 10
964.8637837091342
 20
172.8356829640302
 30
0
 11
965.3837838403164
 21
170.3551804383577
 31
0
 12
964.5519363015128
 22
170.3205201242409
 32
0
 13
964.5519363015128
 23
170.3205201242409
 33
0
  0
SOLID
  5
9C
100
AcDbEntity
  8
0
  6
ByBlock
 62
    6
370
   -2
100
AcDbTrace
 10
972.4069992700361
 20
-8.201490497617957
 30
0
 11
971.8869991388539
 21
-5.720987971945483
 31
0
 12
972.7188466776574
 22
-5.68632765782867
 32
0
 13
972.7188466776574
 23
-5.68632765782867
 33
0
  0
MTEXT
  5
9D
100
AcDbEntity
  8
0
  6
CONTINUOUS
 62
    6
370
   -2
100
AcDbMText
 10
971.7576823429987
 20
82.44719168543169
 30
0
 40
5
 41
13.33333333333333
 71
    5
 72
    1
  1
181.2
  7
standard
210
0
220
0
230
1
 50
272.3859440303887
 73
    2
 44
1
  0
ENDBLK
  5
61
330
5F
100
AcDbEntity
  8
0
100
AcDbBlockEnd
  0
BLOCK
  5
63
330
62
100
AcDbEntity
  8
0
100
AcDbBlockBegin
  2
*D2
 70
    1
 10
0
 20
0
  3
*D2
  1

  0
LINE
  5
9E
100
AcDbEntity
  8
0
  6
ByBlock
 62
    6
370
   -2
100
AcDbLine
 10
170.0412086418793
 20
691.8867658020739
 11
34.66957751251962
 21
297.1732226348096
  0
LINE
  5
9F
100
AcDbEntity
  8
0
  6
ByBlock
 62
    6
370
   -2
100
AcDbLine
 10
300.625
 20
0
 11
246.9151704660165
 21
0
  0
ARC
  5
A0
100
AcDbEntity
  8
0
  6
ByBlock
 62
    6
370
   -2
100
AcDbCircle
 10
-67.24945864022548
 20
0
 40
312.914629106242
100
AcDbArc
 50
0
 51
71.069994775171
  0
SOLID
  5
A1
100
AcDbEntity
  8
0
  6
ByBlock
 62
    6
370
   -2
100
AcDbTrace
 10
34.26406147606011
 20
295.9908281388082
 30
0
 11
36.76221177424691
 21
295.5635834735797
 31
0
 12
36.48897178345667
 22
294.7771284064454
 32
0
 13
36.48897178345667
 23
294.7771284064454
 33
0
  0
SOLID
  5
A2
100
AcDbEntity
  8
0
  6
ByBlock
 62
    6
370
   -2
100
AcDbTrace
 10
245.6651704660165
 20
0
 30
0
 11
245.238902406808
 21
2.498317125185596
 31
0
 12
246.0714650794475
 22
2.501642980801628
 32
0
 13
246.0714650794475
 23
2.501642980801628
 33
0
  0
MTEXT
  5
A3
100
AcDbEntity
  8
0
  6
CONTINUOUS
 62
    6
370
   -2
100
AcDbMText
 10
187.8967574207256
 20
182.2292716603407
 30
0
 40
5
 41
12.77777777777778
 71
    8
 72
    1
  1
71.1%%D
  7
standard
210
0
220
0
230
1
 50
305.5349973875855
 73
    2
 44
1
  0
ENDBLK
  5
64
330
62
100
AcDbEntity
  8
0
100
AcDbBlockEnd
  0
BLOCK
  5
66
330
65
100
AcDbEntity
  8
0
100
AcDbBlockBegin
  2
*D7
 70
    1
 10
0
 20
0
  3
*D7
  1

  0
LINE
  5
A4
100
AcDbEntity
  8
0
  6
ByBlock
 62
    6
370
   -2
100
AcDbLine
 10
-1.510156144861658
 20
251.059754790531
 11
-3.109803113884555
 21
911.8362458669772
  0
LINE
  5
A5
100
AcDbEntity
  8
0
  6
ByBlock
 62
    6
370
   -2
100
AcDbLine
 10
1416.858769488896
 20
254.4934265138536
 11
1415.259122519873
 21
915.2699175902997
  0
LINE
  5
A6
100
AcDbEntity
  8
0
  6
ByBlock
 62
    6
370
   -2
100
AcDbLine
 10
-3.106777048521999
 20
910.5862495298112
 11
1415.262148585236
 21
914.0199212531337
  0
SOLID
  5
A7
100
AcDbEntity
  8
0
  6
ByBlock
 62
    6
370
   -2
100
AcDbTrace
 10
-3.106777048521999
 20
910.5862495298112
 30
0
 11
-0.6077921378570741
 21
911.0085850984839
 31
0
 12
-0.6057766105229159
 22
910.1760182225887
 32
0
 13
-0.6057766105229159
 23
910.1760182225887
 33
0
  0
SOLID
  5
A8
100
AcDbEntity
  8
0
  6
ByBlock
 62
    6
370
   -2
100
AcDbTrace
 10
1415.262148585236
 20
914.0199212531337
 30
0
 11
1412.763163674571
 21
913.597585684461
 31
0
 12
1412.761148147237
 22
914.4301525603562
 32
0
 13
1412.761148147237
 23
914.4301525603562
 33
0
  0
MTEXT
  5
A9
100
AcDbEntity
  8
0
  6
CONTINUOUS
 62
    6
370
   -2
100
AcDbMText
 10
706.0701206049506
 20
915.4280762343875
 30
0
 40
5
 41
18.33333333333334
 71
    5
 72
    1
  1
1418.4
  7
standard
210
0
220
0
230
1
 50
0.1387047545247494
 73
    2
 44
1
  0
ENDBLK
  5
67
330
65
100
AcDbEntity
  8
0
100
AcDbBlockEnd
  0
BLOCK
  5
69
330
68
100
AcDbEntity
  8
0
100
AcDbBlockBegin
  2
*D8
 70
    1
 10
0
 20
0
  3
*D8
  1

  0
LINE
  5
AA
100
AcDbEntity
  8
0
  6
ByBlock
 62
    6
370
   -2
100
AcDbLine
 10
612.7226782787094
 20
620.6396953341452
 11
515.1732140785294
 21
352.3577904720847
  0
LINE
  5
AB
100
AcDbEntity
  8
0
  6
ByBlock
 62
    6
370
   -2
100
AcDbLine
 10
474.1061596605012
 20
0
 11
761.9807812690301
 21
0
  0
ARC
  5
AC
100
AcDbEntity
  8
0
  6
ByBlock
 62
    6
370
   -2
100
AcDbCircle
 10
387.0530798302506
 20
-0
 40
373.6777014387794
100
AcDbArc
 50
0
 51
70.01832554293915
  0
SOLID
  5
AD
100
AcDbEntity
  8
0
  6
ByBlock
 62
    6
370
   -2
100
AcDbTrace
 10
514.7460646115901
 20
351.1830380160781
 30
0
 11
517.236259159558
 21
350.7116315783116
 31
0
 12
516.9491381278926
 22
349.9301373823232
 32
0
 13
516.9491381278926
 23
349.9301373823232
 33
0
  0
SOLID
  5
AE
100
AcDbEntity
  8
0
  6
ByBlock
 62
    6
370
   -2
100
AcDbTrace
 10
760.7307812690301
 20
0
 30
0
 11
760.3061361342147
 21
2.498593489500578
 31
0
 12
761.1387007915869
 22
2.501378535810621
 32
0
 13
761.1387007915869
 23
2.501378535810621
 33
0
  0
MTEXT
  5
AF
100
AcDbEntity
  8
0
  6
CONTINUOUS
 62
    6
370
   -2
100
AcDbMText
 10
693.6295654439562
 20
214.7402402278564
 30
0
 40
5
 41
15
 71
    8
 72
    1
  1
70.0%%D
  7
standard
210
0
220
0
230
1
 50
305.0091627714696
 73
    2
 44
1
  0
ENDBLK
  5
6A
330
68
100
AcDbEntity
  8
0
100
AcDbBlockEnd
  0
BLOCK
  5
6C
330
6B
100
AcDbEntity
  8
0
100
AcDbBlockBegin
  2
*D9
 70
    1
 10
0
 20
0
  3
*D9
  1

  0
LINE
  5
B0
100
AcDbEntity
  8
0
  6
ByBlock
 62
    6
370
   -2
100
AcDbLine
 10
487.6448503591683
 20
174.1391041164689
 11
487.3063105665552
 21
100.3374293268219
  0
LINE
  5
B1
100
AcDbEntity
  8
0
  6
ByBlock
 62
    6
370
   -2
100
AcDbLine
 10
971.0646143124094
 20
171.9215822634723
 11
970.7260745197963
 21
98.11990747382535
  0
LINE
  5
B2
100
AcDbEntity
  8
0
  6
ByBlock
 62
    6
370
   -2
100
AcDbLine
 10
487.3120444511835
 20
101.5874161757795
 11
970.7318084044246
 21
99.369894322783
  0
SOLID
  5
B3
100
AcDbEntity
  8
0
  6
ByBlock
 62
    6
370
   -2
100
AcDbTrace
 10
487.3120444511835
 20
101.5874161757795
 30
0
 11
489.8139276916589
 21
101.9922286846341
 31
0
 12
489.8101086065386
 22
101.1596681284119
 32
0
 13
489.8101086065386
 23
101.1596681284119
 33
0
  0
SOLID
  5
B4
100
AcDbEntity
  8
0
  6
ByBlock
 62
    6
370
   -2
100
AcDbTrace
 10
970.7318084044246
 20
99.369894322783
 30
0
 11
968.2299251639491
 21
98.96508181392838
 31
0
 12
968.2337442490694
 22
99.7976423701506
 32
0
 13
968.2337442490694
 23
99.7976423701506
 33
0
  0
MTEXT
  5
B5
100
AcDbEntity
  8
0
  6
CONTINUOUS
 62
    6
370
   -2
100
AcDbMText
 10
729.0362611393747
 20
103.6036223716754
 30
0
 40
5
 41
16.66666666666698
 71
    5
 72
    1
  1
483.4
  7
standard
210
0
220
0
230
1
 50
359.7371771667635
 73
    2
 44
1
  0
ENDBLK
  5
6D
330
6B
100
AcDbEntity
  8
0
100
AcDbBlockEnd
  0
BLOCK
  5
6F
330
6E
100
AcDbEntity
  8
0
100
AcDbBlockBegin
  2
*D12
 70
    1
 10
0
 20
0
  3
*D12
  1

  0
LINE
  5
B6
100
AcDbEntity
  8
0
  6
ByBlock
 62
    6
370
   -2
100
AcDbLine
 10
1414.612068147779
 20
501.241234638556
 11
1772.054899441386
 21
505.3497729292868
  0
LINE
  5
B7
100
AcDbEntity
  8
0
  6
ByBlock
 62
    6
370
   -2
100
AcDbLine
 10
1420.46304929025
 20
-7.794124756429713
 11
1777.905880583857
 21
-3.685586465698938
  0
LINE
  5
B8
100
AcDbEntity
  8
0
  6
ByBlock
 62
    6
370
   -2
100
AcDbLine
 10
1770.80498200686
 20
505.3354060622233
 11
1776.655963149331
 21
-3.699953332762449
  0
SOLID
  5
B9
100
AcDbEntity
  8
0
  6
ByBlock
 62
    6
370
   -2
100
AcDbTrace
 10
1770.80498200686
 20
505.3354060622233
 30
0
 11
1771.249972902168
 21
502.8403557582433
 31
0
 12
1770.417458579807
 22
502.8307866281013
 32
0
 13
1770.417458579807
 23
502.8307866281013
 33
0
  0
SOLID
  5
BA
100
AcDbEntity
  8
0
  6
ByBlock
 62
    6
370
   -2
100
AcDbTrace
 10
1776.655963149331
 20
-3.699953332762449
 30
0
 11
1776.210972254024
 21
-1.204903028782512
 31
0
 12
1777.043486576385
 22
-1.19533389864043
 32
0
 13
1777.043486576385
 23
-1.19533389864043
 33
0
  0
MTEXT
  5
BB
100
AcDbEntity
  8
0
  6
CONTINUOUS
 62
    6
370
   -2
100
AcDbMText
 10
1776.85526616441
 20
250.8536435323892
 30
0
 40
5
 41
14.44444444444476
 71
    5
 72
    1
  1
509.1
  7
standard
210
0
220
0
230
1
 50
270.6585431775636
 73
    2
 44
1
  0
ENDBLK
  5
70
330
6E
100
AcDbEntity
  8
0
100
AcDbBlockEnd
  0
BLOCK
  5
72
330
71
100
AcDbEntity
  8
0
100
AcDbBlockBegin
  2
*D13
 70
    1
 10
0
 20
0
  3
*D13
  1

  0
LINE
  5
BC
100
AcDbEntity
  8
0
  6
ByBlock
 62
    6
370
   -2
100
AcDbLine
 10
-64.28549061325457
 20
1.418505387166862
 11
-60.46452793188693
 21
104.584497784092
  0
LINE
  5
BD
100
AcDbEntity
  8
0
  6
ByBlock
 62
    6
370
   -2
100
AcDbLine
 10
0.02313228781867536
 20
-0.9632954610210355
 11
3.844094969186303
 21
102.2026969359041
  0
LINE
  5
BE
100
AcDbEntity
  8
0
  6
ByBlock
 62
    6
370
   -2
100
AcDbLine
 10
-60.51079250752429
 20
103.3353542418835
 11
3.797830393548953
 21
100.9535533936956
  0
SOLID
  5
BF
100
AcDbEntity
  8
0
  6
ByBlock
 62
    6
370
   -2
100
AcDbTrace
 10
-60.51079250752429
 20
103.3353542418835
 30
0
 11
-57.99709803667841
 21
103.6588245241907
 31
0
 12
-58.02791280953633
 22
102.8268256570269
 32
0
 13
-58.02791280953633
 23
102.8268256570269
 33
0
  0
SOLID
  5
C0
100
AcDbEntity
  8
0
  6
ByBlock
 62
    6
370
   -2
100
AcDbTrace
 10
3.797830393548953
 20
100.9535533936956
 30
0
 11
1.284135922703075
 21
100.6300831113884
 31
0
 12
1.314950695560995
 22
101.4620819785522
 32
0
 13
1.314950695560995
 23
101.4620819785522
 33
0
  0
MTEXT
  5
C1
100
AcDbEntity
  8
0
  6
CONTINUOUS
 62
    6
370
   -2
100
AcDbMText
 10
-28.24081961789429
 20
105.2673126733107
 30
0
 40
5
 41
12.77777777777809
 71
    5
 72
    1
  1
64.4
  7
standard
210
0
220
0
230
1
 50
357.8789036033385
 73
    2
 44
1
  0
ENDBLK
  5
73
330
71
100
AcDbEntity
  8
0
100
AcDbBlockEnd
  0
ENDSEC
  0
SECTION
  2
ENTITIES
  0
LINE
  5
C2
100
AcDbEntity
  8
0
  6
ByLayer
 62
  256
370
   -1
100
AcDbLine
 10
0
 20
0
 11
300
 21
0
  0
CIRCLE
  5
C3
100
AcDbEntity
  8
0
  6
ByLayer
 62
  256
370
   -1
100
AcDbCircle
 10
0
 20
254
 40
254
  0
CIRCLE
  5
C4
100
AcDbEntity
  8
0
  6
ByLayer
 62
  256
370
   -1
100
AcDbCircle
 10
0
 20
254.4
 40
5
  0
CIRCLE
  5
C5
100
AcDbEntity
  8
0
  6
ByLayer
 62
  256
370
   -1
100
AcDbCircle
 10
0
 20
254.4
 40
215
  0
CIRCLE
  5
C6
100
AcDbEntity
  8
0
  6
ByLayer
 62
  256
370
   -1
100
AcDbCircle
 10
0
 20
254
 40
254
  0
CIRCLE
  5
C7
100
AcDbEntity
  8
0
  6
ByLayer
 62
  256
370
   -1
100
AcDbCircle
 10
0
 20
254.4
 40
5
  0
CIRCLE
  5
C8
100
AcDbEntity
  8
0
  6
ByLayer
 62
  256
370
   -1
100
AcDbCircle
 10
0
 20
254.4
 40
215
  0
LINE
  5
C9
100
AcDbEntity
  8
0
  6
ByLayer
 62
  256
370
   -1
100
AcDbLine
 10
300
 20
180
 11
1257.334851196492
 21
180.1093579476558
  0
LINE
  5
CA
100
AcDbEntity
  8
0
  6
ByLayer
 62
  256
370
   -1
100
AcDbLine
 10
98.0618022917256
 20
537.0769479362202
 11
132.7605938718746
 21
521.9905168144163
  0
LINE
  5
CB
100
AcDbEntity
  8
0
  6
ByLayer
 62
  256
370
   -1
100
AcDbLine
 10
132.7605938718746
 20
521.9905168144163
 11
159.9161698911217
 21
606.4745310965184
  0
LINE
  5
CC
100
AcDbEntity
  8
0
  6
ByLayer
 62
  256
370
   -1
100
AcDbLine
 10
159.9161698911217
 20
606.4745310965184
 11
123.7087351987923
 21
621.5609622183223
  0
LINE
  5
CD
100
AcDbEntity
  8
0
  6
ByLayer
 62
  256
370
   -1
100
AcDbLine
 10
123.7087351987923
 20
621.5609622183223
 11
96.5531591795452
 21
538.5855910484006
  0
LINE
  5
CE
100
AcDbEntity
  8
0
  6
ByLayer
 62
  256
370
   -1
100
AcDbLine
 10
687.8462146381922
 20
524.890128876027
 11
708.4301412607815
 21
593.5032176179914
  0
LINE
  5
CF
100
AcDbEntity
  8
0
  6
ByLayer
 62
  256
370
   -1
100
AcDbLine
 10
708.4301412607815
 20
593.5032176179914
 11
747.882667287411
 21
658.6856519228575
  0
DIMENSION
  5
D0
100
AcDbEntity
  8
0
  6
ByLayer
 62
  256
370
   -1
100
AcDbDimension
  2
*D1
 10
-182.704776370748
 20
644.6508434526127
 30
0
 11
-239.9465763677293
 21
506.0796112799412
 31
0
 70
   33
 71
    5
  3
Standard
 53
0
210
0
220
0
230
1
100
AcDbAlignedDimension
 13
-2.217521852996519
 23
252.7974912416031
 33
0
 14
106.4410489438329
 24
532.2052447191645
 34
0
  0
DIMENSION
  5
D1
100
AcDbEntity
  8
0
  6
ByLayer
 62
  256
370
   -1
100
AcDbDimension
  2
*D2
 10
300
 20
0
 30
0
 11
0
 21
0
 31
0
 70
   34
 71
    5
  3
Standard
 53
0
210
0
220
0
230
1
100
AcDb2LineAngularDimension
 13
20
 23
254.4
 33
0
 14
169.8384506236494
 24
691.2955685540732
 34
0
 15
0
 25
0
 35
0
 16
196.1236045834519
 26
168.9680285642047
 36
0
  0
DIMENSION
  5
D2
100
AcDbEntity
  8
0
  6
ByLayer
 62
  256
370
   -1
100
AcDbDimension
  2
*D3
 10
618.4360502976724
 20
676.0529172082771
 30
0
 11
396.2586006014652
 21
704.0511576007287
 31
0
 70
   33
 71
    5
  3
Standard
 53
0
210
0
220
0
230
1
100
AcDbAlignedDimension
 13
167.4593854520248
 23
672.85482803246
 33
0
 14
612.5091035452438
 24
623.0696053305066
 34
0
  0
DIMENSION
  5
D3
100
AcDbEntity
  8
0
  6
ByLayer
 62
  256
370
   -1
100
AcDbDimension
  2
*D4
 10
-378.7397338738
 20
-23.25066136785946
 30
0
 11
-382.4770311637884
 21
249.5649578678466
 31
0
 70
   33
 71
    5
  3
Standard
 53
0
210
0
220
0
230
1
100
AcDbAlignedDimension
 13
531.7514377502275
 23
545.4740554986205
 33
0
 14
545.4740554986205
 24
0
 34
0
  0
CIRCLE
  5
D4
100
AcDbEntity
  8
0
  6
ByLayer
 62
  256
370
   -1
100
AcDbCircle
 10
1414.010437880676
 20
248.1552282352139
 40
254
  0
CIRCLE
  5
D5
100
AcDbEntity
  8
0
  6
ByLayer
 62
  256
370
   -1
100
AcDbCircle
 10
1414.010437880676
 20
248.5552282352139
 40
5
  0
CIRCLE
  5
D6
100
AcDbEntity
  8
0
  6
ByLayer
 62
  256
370
   -1
100
AcDbCircle
 10
1414.010437880676
 20
248.5552282352139
 40
215
  0
DIMENSION
  5
D7
100
AcDbEntity
  8
0
  6
ByLayer
 62
  256
370
   -1
100
AcDbDimension
  2
*D5
 10
930.6533981641255
 20
555.8636860481184
 30
0
 11
872.2748090914548
 21
402.8036664547013
 31
0
 70
   33
 71
    5
  3
Standard
 53
0
210
0
220
0
230
1
100
AcDbAlignedDimension
 13
1024.358914541194
 23
174.0376416373959
 33
0
 14
1135.23500719102
 24
482.273179203912
 34
0
  0
DIMENSION
  5
D8
100
AcDbEntity
  8
0
  6
ByLayer
 62
  256
370
   -1
100
AcDbDimension
  2
*D6
 10
972.4069992700361
 20
-8.201490497618003
 30
0
 11
971.7576823429987
 21
82.44719168543169
 31
0
 70
   33
 71
    5
  3
Standard
 53
0
210
0
220
0
230
1
100
AcDbAlignedDimension
 13
1027.740472724237
 23
175.4555450063261
 33
0
 14
1035.283688285139
 24
-5.58162845532209
 34
0
  0
DIMENSION
  5
D9
100
AcDbEntity
  8
0
  6
ByLayer
 62
  256
370
   -1
100
AcDbDimension
  2
*D7
 10
1415.262148585236
 20
914.0199212531337
 30
0
 11
706.0701206049506
 21
915.4280762343875
 31
0
 70
   33
 71
    5
  3
Standard
 53
0
210
0
220
0
230
1
100
AcDbAlignedDimension
 13
-1.50864311218038
 23
250.434756621948
 33
0
 14
1416.860282521578
 24
253.8684283452706
 34
0
  0
CIRCLE
  5
DA
100
AcDbEntity
  8
0
  6
ByLayer
 62
  256
370
   -1
100
AcDbCircle
 10
400.2761417375277
 20
179.7158187392982
 40
110
  0
DIMENSION
  5
DB
100
AcDbEntity
  8
0
  6
ByLayer
 62
  256
370
   -1
100
AcDbDimension
  2
*D8
 10
246.9151704660165
 20
0
 30
0
 11
0
 21
0
 31
0
 70
   34
 71
    5
  3
Standard
 53
0
210
0
220
0
230
1
100
AcDb2LineAngularDimension
 13
452.5170390069708
 23
180.0398988527734
 33
0
 14
612.5091035452399
 24
620.0523191061419
 34
0
 15
300.625
 25
0
 35
0
 16
615.5263897696028
 26
295.6940499873582
 36
0
  0
CIRCLE
  5
DC
100
AcDbEntity
  8
0
  6
ByLayer
 62
  256
370
   -1
100
AcDbCircle
 10
400.2761417375277
 20
178.5488329033287
 40
20
  0
LINE
  5
DD
100
AcDbEntity
  8
0
  6
ByLayer
 62
  256
370
   -1
100
AcDbLine
 10
401.4431275734972
 20
178.5488329033287
 11
561.4351921117662
 21
618.5612531566971
  0
DIMENSION
  5
DE
100
AcDbEntity
  8
0
  6
ByLayer
 62
  256
370
   -1
100
AcDbDimension
  2
*D9
 10
970.7318084044246
 20
99.36989432278301
 30
0
 11
729.0362611393747
 21
103.6036223716754
 31
0
 70
   33
 71
    5
  3
Standard
 53
0
210
0
220
0
230
1
100
AcDbAlignedDimension
 13
487.6477173014824
 23
174.7640975409477
 33
0
 14
971.0674812547235
 24
172.5465756879512
 34
0
  0
LINE
  5
DF
100
AcDbEntity
  8
0
  6
ByLayer
 62
  256
370
   -1
100
AcDbLine
 10
402.6101134094666
 20
178.5488329033287
 11
141.2052861523057
 21
542.6484137258028
  0
LINE
  5
E0
100
AcDbEntity
  8
0
  6
ByLayer
 62
  256
370
   -1
100
AcDbLine
 10
476.1302210755431
 20
618.5024930638183
 11
635.6556524006101
 21
615.07183862672
  0
DIMENSION
  5
E1
100
AcDbEntity
  8
0
  6
ByLayer
 62
  256
370
   -1
100
AcDbDimension
  2
*D10
 10
343.774119251284
 20
-102.1819499102489
 30
0
 11
143.7629257524563
 21
-57.25355261028477
 31
0
 70
   33
 71
    5
  3
Standard
 53
0
210
0
220
0
230
1
100
AcDbAlignedDimension
 13
0
 23
257.2325349475962
 33
0
 14
401.2990678399901
 24
173.4939579007478
 34
0
  0
CIRCLE
  5
E2
100
AcDbEntity
  8
0
  6
ByLayer
 62
  256
370
   -1
100
AcDbCircle
 10
1099.265797361719
 20
179.2417434694708
 40
110
  0
CIRCLE
  5
E3
100
AcDbEntity
  8
0
  6
ByLayer
 62
  256
370
   -1
100
AcDbCircle
 10
1099.265797361719
 20
179.2417434694708
 40
20
  0
LINE
  5
E4
100
AcDbEntity
  8
0
  6
ByLayer
 62
  256
370
   -1
100
AcDbLine
 10
1203.702972056687
 20
464.8995662484247
 11
1418.005577638683
 21
250.8936250590943
  0
LINE
  5
E5
100
AcDbEntity
  8
0
  6
ByLayer
 62
  256
370
   -1
100
AcDbLine
 10
154.0421303479698
 20
583.4929179847343
 11
1204.317106226104
 21
465.5137004178413
  0
DIMENSION
  5
E6
100
AcDbEntity
  8
0
  6
ByLayer
 62
  256
370
   -1
100
AcDbDimension
  2
*D11
 10
1119.008470643548
 20
95.51901097620797
 30
0
 11
1276.374551240133
 21
133.676189055687
 31
0
 70
   33
 71
    5
  3
Standard
 53
0
210
0
220
0
230
1
100
AcDbAlignedDimension
 13
1416.615882337408
 23
248.9261135097683
 33
0
 14
1100.528431594686
 24
178.7130433002532
 34
0
  0
LINE
  5
E7
100
AcDbEntity
  8
0
  6
ByLayer
 62
  256
370
   -1
100
AcDbLine
 10
1418.005577638683
 20
250.8936250590943
 11
1099.914297425269
 21
180.5554458085031
  0
LINE
  5
E8
100
AcDbEntity
  8
0
  6
ByLayer
 62
  256
370
   -1
100
AcDbLine
 10
1100.658417264873
 20
180.0718566714407
 11
1226.755712871439
 21
526.5883028223982
  0
LINE
  5
E9
100
AcDbEntity
  8
0
  6
ByLayer
 62
  256
370
   -1
100
AcDbLine
 10
1086.403345698102
 20
194.06639753567
 11
534.0596617118678
 21
537.0769479362286
  0
LINE
  5
EA
100
AcDbEntity
  8
0
  6
ByLayer
 62
  256
370
   -1
100
AcDbLine
 10
1147.81676263977
 20
531.8401907148425
 11
1312.488175620484
 21
523.2635546220968
  0
DIMENSION
  5
EB
100
AcDbEntity
  8
0
  6
ByLayer
 62
  256
370
   -1
100
AcDbDimension
  2
*D12
 10
1776.655963149331
 20
-3.69995333276238
 30
0
 11
1776.85526616441
 21
250.8536435323892
 31
0
 70
   33
 71
    5
  3
Standard
 53
0
210
0
220
0
230
1
100
AcDbAlignedDimension
 13
1413.987109430516
 23
501.2340512050243
 33
0
 14
1419.838090572987
 24
-7.801308189961468
 34
0
  0
LINE
  5
EC
100
AcDbEntity
  8
0
  6
ByLayer
 62
  256
370
   -1
100
AcDbLine
 10
-76.21762714201272
 20
-35.72701272281844
 11
169.8384506236494
 21
691.2955685540732
  0
LINE
  5
ED
100
AcDbEntity
  8
0
  6
ByLayer
 62
  256
370
   -1
100
AcDbLine
 10
0
 20
0
 11
0
 21
255
  0
DIMENSION
  5
EE
100
AcDbEntity
  8
0
  6
ByLayer
 62
  256
370
   -1
100
AcDbDimension
  2
*D13
 10
3.797830393548956
 20
100.9535533936956
 30
0
 11
-28.24081961789429
 21
105.2673126733107
 31
0
 70
   33
 71
    5
  3
Standard
 53
0
210
0
220
0
230
1
100
AcDbAlignedDimension
 13
-64.30862290107324
 23
0.7939336160626325
 33
0
 14
0
 24
-1.587867232125265
 34
0
  0
ENDSEC
  0
SECTION
  2
OBJECTS
  0
DICTIONARY
  5
C
330
0
100
AcDbDictionary
281
    1
  3
ACAD_GROUP
350
D
  0
DICTIONARY
  5
D
330
C
100
AcDbDictionary
281
    1
  0
ENDSEC
  0
EOF
