999
dxfrw 0.6.3
  0
SECTION
  2
HEADER
  9
$ACADVER
  1
AC1021
  9
$DWGCODEPAGE
  3
ANSI_1252
  9
$INSBASE
 10
0
 20
0
 30
0
  9
$EXTMIN
 10
-860.0942279433851
 20
-400
 30
0
  9
$EXTMAX
 10
2000
 20
1350
 30
0
  9
$LIMMIN
 10
0
 20
0
  9
$LIMMAX
 10
420
 20
297
  9
$ORTHOMODE
 70
    0
  9
$REGENMODE
 70
    1
  9
$FILLMODE
 70
    1
  9
$QTEXTMODE
 70
    0
  9
$MIRRTEXT
 70
    0
  9
$LTSCALE
 40
1
  9
$ATTMODE
 70
    0
  9
$TEXTSIZE
 40
2.5
  9
$TRACEWID
 40
15.68
  9
$TEXTSTYLE
  7
STANDARD
  9
$CLAYER
  8
bmxwheel
  9
$CELTYPE
  6
BYLAYER
  9
$CECOLOR
 62
  256
  9
$CELTSCALE
 40
1
  9
$DISPSILH
 70
    0
  9
$DIMSCALE
 40
1
  9
$DIMASZ
 40
10
  9
$DIMEXO
 40
0.625
  9
$DIMDLI
 40
3.75
  9
$DIMRND
 40
0
  9
$DIMDLE
 40
0
  9
$DIMEXE
 40
1.25
  9
$DIMTP
 40
0
  9
$DIMTM
 40
0
  9
$DIMTXT
 40
10
  9
$DIMCEN
 40
2.5
  9
$DIMTSZ
 40
0
  9
$DIMTOL
 70
    0
  9
$DIMLIM
 70
    0
  9
$DIMTIH
 70
    0
  9
$DIMTOH
 70
    0
  9
$DIMSE1
 70
    0
  9
$DIMSE2
 70
    0
  9
$DIMTAD
 70
    1
  9
$DIMZIN
 70
    1
  9
$DIMBLK
  1

  9
$DIMASO
 70
    1
  9
$DIMSHO
 70
    1
  9
$DIMPOST
  1

  9
$DIMAPOST
  1

  9
$DIMALT
 70
    0
  9
$DIMALTD
 70
    3
  9
$DIMALTF
 40
0.03937
  9
$DIMLFAC
 40
1
  9
$DIMTOFL
 70
    1
  9
$DIMTVP
 40
0
  9
$DIMTIX
 70
    0
  9
$DIMSOXD
 70
    0
  9
$DIMSAH
 70
    0
  9
$DIMBLK1
  1

  9
$DIMBLK2
  1

  9
$DIMSTYLE
  2
STANDARD
  9
$DIMCLRD
 70
    0
  9
$DIMCLRE
 70
    0
  9
$DIMCLRT
 70
    0
  9
$DIMTFAC
 40
1
  9
$DIMGAP
 40
0.625
  9
$DIMJUST
 70
    0
  9
$DIMSD1
 70
    0
  9
$DIMSD2
 70
    0
  9
$DIMTOLJ
 70
    0
  9
$DIMTZIN
 70
    8
  9
$DIMALTZ
 70
    0
  9
$DIMALTTZ
 70
    0
  9
$DIMUPT
 70
    0
  9
$DIMDEC
 70
    1
  9
$DIMTDEC
 70
    2
  9
$DIMALTU
 70
    2
  9
$DIMALTTD
 70
    3
  9
$DIMTXSTY
  7
STANDARD
  9
$DIMAUNIT
 70
    0
  9
$DIMADEC
 70
    2
  9
$DIMALTRND
 40
0
  9
$DIMAZIN
 70
    0
  9
$DIMDSEP
 70
    0
  9
$DIMATFIT
 70
    3
  9
$DIMFRAC
 70
    0
  9
$DIMLDRBLK
  1
STANDARD
  9
$DIMLUNIT
 70
    2
  9
$DIMLWD
 70
   -2
  9
$DIMLWE
 70
   -2
  9
$DIMTMOVE
 70
    0
  9
$DIMFXL
 40
1
  9
$DIMFXLON
 70
    0
  9
$DIMJOGANG
 40
0.7854
  9
$DIMTFILL
 70
    0
  9
$DIMTFILLCLR
 70
    0
  9
$DIMARCSYM
 70
    0
  9
$DIMLTYPE
  6

  9
$DIMLTEX1
  6

  9
$DIMLTEX2
  6

  9
$LUNITS
 70
    2
  9
$LUPREC
 70
    1
  9
$SKETCHINC
 40
1
  9
$FILLETRAD
 40
0
  9
$AUNITS
 70
    0
  9
$AUPREC
 70
    2
  9
$MENU
  1
.
  9
$ELEVATION
 40
0
  9
$PELEVATION
 40
0
  9
$THICKNESS
 40
0
  9
$LIMCHECK
 70
    0
  9
$CHAMFERA
 40
0
  9
$CHAMFERB
 40
0
  9
$CHAMFERC
 40
0
  9
$CHAMFERD
 40
0
  9
$SKPOLY
 70
    0
  9
$USRTIMER
 70
    1
  9
$ANGBASE
 50
0
  9
$ANGDIR
 70
    0
  9
$PDMODE
 70
   34
  9
$PDSIZE
 40
0
  9
$PLINEWID
 40
0
  9
$SPLFRAME
 70
    0
  9
$SPLINETYPE
 70
    2
  9
$SPLINESEGS
 70
    8
  9
$HANDSEED
  5
20000
  9
$SURFTAB1
 70
    6
  9
$SURFTAB2
 70
    6
  9
$SURFTYPE
 70
    6
  9
$SURFU
 70
    6
  9
$SURFV
 70
    6
  9
$UCSBASE
  2

  9
$UCSNAME
  2

  9
$UCSORG
 10
0
 20
0
 30
0
  9
$UCSXDIR
 10
1
 20
0
 30
0
  9
$UCSYDIR
 10
0
 20
1
 30
0
  9
$UCSORTHOREF
  2

  9
$UCSORTHOVIEW
 70
    0
  9
$UCSORGTOP
 10
0
 20
0
 30
0
  9
$UCSORGBOTTOM
 10
0
 20
0
 30
0
  9
$UCSORGLEFT
 10
0
 20
0
 30
0
  9
$UCSORGRIGHT
 10
0
 20
0
 30
0
  9
$UCSORGFRONT
 10
0
 20
0
 30
0
  9
$UCSORGBACK
 10
0
 20
0
 30
0
  9
$PUCSBASE
  2

  9
$PUCSNAME
  2

  9
$PUCSORG
 10
0
 20
0
 30
0
  9
$PUCSXDIR
 10
1
 20
0
 30
0
  9
$PUCSYDIR
 10
0
 20
1
 30
0
  9
$PUCSORTHOREF
  2

  9
$PUCSORTHOVIEW
 70
    0
  9
$PUCSORGTOP
 10
0
 20
0
 30
0
  9
$PUCSORGBOTTOM
 10
0
 20
0
 30
0
  9
$PUCSORGLEFT
 10
0
 20
0
 30
0
  9
$PUCSORGRIGHT
 10
0
 20
0
 30
0
  9
$PUCSORGFRONT
 10
0
 20
0
 30
0
  9
$PUCSORGBACK
 10
0
 20
0
 30
0
  9
$USERI1
 70
    0
  9
$USERI2
 70
    0
  9
$USERI3
 70
    0
  9
$USERI4
 70
    0
  9
$USERI5
 70
    0
  9
$USERR1
 40
0
  9
$USERR2
 40
0
  9
$USERR3
 40
0
  9
$USERR4
 40
0
  9
$USERR5
 40
0
  9
$WORLDVIEW
 70
    1
  9
$SHADEDGE
 70
    3
  9
$SHADEDIF
 70
   70
  9
$TILEMODE
 70
    1
  9
$MAXACTVP
 70
   64
  9
$PINSBASE
 10
0
 20
0
 30
0
  9
$PLIMCHECK
 70
    0
  9
$PEXTMIN
 10
0
 20
0
 30
0
  9
$PEXTMAX
 10
0
 20
0
 30
0
  9
$SNAPSTYLE
 70
    0
  9
$PLIMMIN
 10
0
 20
0
  9
$PLIMMAX
 10
297
 20
210
  9
$UNITMODE
 70
    0
  9
$VISRETAIN
 70
    1
  9
$PLINEGEN
 70
    0
  9
$PSLTSCALE
 70
    1
  9
$TREEDEPTH
 70
 3020
  9
$CMLSTYLE
  2
Standard
  9
$CMLJUST
 70
    0
  9
$CMLSCALE
 40
20
  9
$PROXYGRAPHICS
 70
    1
  9
$MEASUREMENT
 70
    1
  9
$CELWEIGHT
370
   -1
  9
$ENDCAPS
280
    0
  9
$JOINSTYLE
280
    0
  9
$LWDISPLAY
290
    0
  9
$INSUNITS
 70
    4
  9
$HYPERLINKBASE
  1

  9
$STYLESHEET
  1

  9
$XEDIT
290
    1
  9
$CEPSNTYPE
380
    0
  9
$PSTYLEMODE
290
    1
  9
$EXTNAMES
290
    1
  9
$PSVPSCALE
 40
0
  9
$OLESTARTUP
290
    0
  9
$SORTENTS
280
  127
  9
$INDEXCTL
280
    0
  9
$HIDETEXT
280
    1
  9
$XCLIPFRAME
290
    0
  9
$HALOGAP
280
    0
  9
$OBSCOLOR
 70
  257
  9
$OBSLTYPE
280
    0
  9
$INTERSECTIONDISPLAY
280
    0
  9
$INTERSECTIONCOLOR
 70
  257
  9
$DIMASSOC
280
    1
  9
$PROJECTNAME
  1

  9
$CAMERADISPLAY
290
    0
  9
$LENSLENGTH
 40
50
  9
$CAMERAHEIGHT
 40
0
  9
$STEPSPERSEC
 40
2
  9
$STEPSIZE
 40
50
  9
$3DDWFPREC
 40
2
  9
$PSOLWIDTH
 40
5
  9
$PSOLHEIGHT
 40
80
  9
$LOFTANG1
 40
1.570796326794897
  9
$LOFTANG2
 40
1.570796326794897
  9
$LOFTMAG1
 40
0
  9
$LOFTMAG2
 40
0
  9
$LOFTPARAM
 70
    7
  9
$LOFTNORMALS
280
    1
  9
$LATITUDE
 40
1
  9
$LONGITUDE
 40
1
  9
$NORTHDIRECTION
 40
0
  9
$TIMEZONE
 70
-8000
  9
$LIGHTGLYPHDISPLAY
280
    1
  9
$TILEMODELIGHTSYNCH
280
    1
  9
$SOLIDHIST
280
    1
  9
$SHOWHIST
280
    1
  9
$DWFFRAME
280
    2
  9
$DGNFRAME
280
    0
  9
$REALWORLDSCALE
290
    1
  9
$INTERFERECOLOR
 62
    1
  9
$CSHADOW
280
    0
  9
$SHADOWPLANELOCATION
 40
0
  0
ENDSEC
  0
SECTION
  2
CLASSES
  0
ENDSEC
  0
SECTION
  2
TABLES
  0
TABLE
  2
VPORT
  5
8
330
0
100
AcDbSymbolTable
 70
    1
  0
VPORT
  5
31
330
2
100
AcDbSymbolTableRecord
100
AcDbViewportTableRecord
  2
*ACTIVE
 70
    0
 10
0
 20
0
 11
1
 21
1
 12
1116.596596512822
 22
1000.493484423556
 13
0
 23
0
 14
10
 24
10
 15
10
 25
10
 16
0
 26
0
 36
1
 17
0
 27
0
 37
0
 40
2307.728524243445
 41
1.448447204968944
 42
50
 43
0
 44
0
 50
0
 51
0
 71
    0
 72
  100
 73
    1
 74
    3
 75
    0
 76
    1
 77
    0
 78
    0
281
    0
 65
    1
110
0
120
0
130
0
111
1
121
0
131
0
112
0
122
1
132
0
 79
    0
146
0
348
10020
 60
    7
 61
    5
292
1
282
    1
141
0
142
0
 63
  250
421
3358443
  0
ENDTAB
  0
TABLE
  2
LTYPE
  5
5
330
0
100
AcDbSymbolTable
 70
    4
  0
LTYPE
  5
14
330
5
100
AcDbSymbolTableRecord
100
AcDbLinetypeTableRecord
  2
ByBlock
 70
    0
  3

 72
   65
 73
    0
 40
0
  0
LTYPE
  5
15
330
5
100
AcDbSymbolTableRecord
100
AcDbLinetypeTableRecord
  2
ByLayer
 70
    0
  3

 72
   65
 73
    0
 40
0
  0
LTYPE
  5
16
330
5
100
AcDbSymbolTableRecord
100
AcDbLinetypeTableRecord
  2
Continuous
 70
    0
  3
Solid line
 72
   65
 73
    0
 40
0
  0
LTYPE
  5
32
330
5
100
AcDbSymbolTableRecord
100
AcDbLinetypeTableRecord
  2
DOT
 70
    0
  3
Dot . . . . . . . . . . . . . . . . . . . . . .
 72
   65
 73
    2
 40
6.35
 49
0
 74
    0
 49
-6.35
 74
    0
  0
LTYPE
  5
33
330
5
100
AcDbSymbolTableRecord
100
AcDbLinetypeTableRecord
  2
DOTTINY
 70
    0
  3
Dot (.15x) .....................................
 72
   65
 73
    2
 40
0.9525
 49
0
 74
    0
 49
-0.9525
 74
    0
  0
LTYPE
  5
34
330
5
100
AcDbSymbolTableRecord
100
AcDbLinetypeTableRecord
  2
DOT2
 70
    0
  3
Dot (.5x) .....................................
 72
   65
 73
    2
 40
3.175
 49
0
 74
    0
 49
-3.175
 74
    0
  0
LTYPE
  5
35
330
5
100
AcDbSymbolTableRecord
100
AcDbLinetypeTableRecord
  2
DOTX2
 70
    0
  3
Dot (2x) .  .  .  .  .  .  .  .  .  .  .  .  .
 72
   65
 73
    2
 40
12.7
 49
0
 74
    0
 49
-12.7
 74
    0
  0
LTYPE
  5
36
330
5
100
AcDbSymbolTableRecord
100
AcDbLinetypeTableRecord
  2
DASHED
 70
    0
  3
Dashed _ _ _ _ _ _ _ _ _ _ _ _ _ _ _ _ _
 72
   65
 73
    2
 40
19.05
 49
12.7
 74
    0
 49
-6.35
 74
    0
  0
LTYPE
  5
37
330
5
100
AcDbSymbolTableRecord
100
AcDbLinetypeTableRecord
  2
DASHEDTINY
 70
    0
  3
Dashed (.15x) _ _ _ _ _ _ _ _ _ _ _ _ _ _ _ _ _
 72
   65
 73
    2
 40
2.8575
 49
1.905
 74
    0
 49
-0.9525
 74
    0
  0
LTYPE
  5
38
330
5
100
AcDbSymbolTableRecord
100
AcDbLinetypeTableRecord
  2
DASHED2
 70
    0
  3
Dashed (.5x) _ _ _ _ _ _ _ _ _ _ _ _ _ _ _ _ _
 72
   65
 73
    2
 40
9.524999999999999
 49
6.35
 74
    0
 49
-3.175
 74
    0
  0
LTYPE
  5
39
330
5
100
AcDbSymbolTableRecord
100
AcDbLinetypeTableRecord
  2
DASHEDX2
 70
    0
  3
Dashed (2x) ____  ____  ____  ____  ____  ___
 72
   65
 73
    2
 40
38.09999999999999
 49
25.4
 74
    0
 49
-12.7
 74
    0
  0
LTYPE
  5
3A
330
5
100
AcDbSymbolTableRecord
100
AcDbLinetypeTableRecord
  2
DASHDOT
 70
    0
  3
Dash dot __ . __ . __ . __ . __ . __ . __ . __
 72
   65
 73
    4
 40
25.4
 49
12.7
 74
    0
 49
-6.35
 74
    0
 49
0
 74
    0
 49
-6.35
 74
    0
  0
LTYPE
  5
3B
330
5
100
AcDbSymbolTableRecord
100
AcDbLinetypeTableRecord
  2
DASHDOTTINY
 70
    0
  3
Dash dot (.15x) _._._._._._._._._._._._._._._.
 72
   65
 73
    4
 40
3.81
 49
1.905
 74
    0
 49
-0.9525
 74
    0
 49
0
 74
    0
 49
-0.9525
 74
    0
  0
LTYPE
  5
3C
330
5
100
AcDbSymbolTableRecord
100
AcDbLinetypeTableRecord
  2
DASHDOT2
 70
    0
  3
Dash dot (.5x) _._._._._._._._._._._._._._._.
 72
   65
 73
    4
 40
12.7
 49
6.35
 74
    0
 49
-3.175
 74
    0
 49
0
 74
    0
 49
-3.175
 74
    0
  0
LTYPE
  5
3D
330
5
100
AcDbSymbolTableRecord
100
AcDbLinetypeTableRecord
  2
DASHDOTX2
 70
    0
  3
Dash dot (2x) ____  .  ____  .  ____  .  ___
 72
   65
 73
    4
 40
50.8
 49
25.4
 74
    0
 49
-12.7
 74
    0
 49
0
 74
    0
 49
-12.7
 74
    0
  0
LTYPE
  5
3E
330
5
100
AcDbSymbolTableRecord
100
AcDbLinetypeTableRecord
  2
DIVIDE
 70
    0
  3
Divide ____ . . ____ . . ____ . . ____ . . ____
 72
   65
 73
    6
 40
31.75
 49
12.7
 74
    0
 49
-6.35
 74
    0
 49
0
 74
    0
 49
-6.35
 74
    0
 49
0
 74
    0
 49
-6.35
 74
    0
  0
LTYPE
  5
3F
330
5
100
AcDbSymbolTableRecord
100
AcDbLinetypeTableRecord
  2
DIVIDETINY
 70
    0
  3
Divide (.15x) __..__..__..__..__..__..__..__.._
 72
   65
 73
    6
 40
4.7625
 49
1.905
 74
    0
 49
-0.9525
 74
    0
 49
0
 74
    0
 49
-0.9525
 74
    0
 49
0
 74
    0
 49
-0.9525
 74
    0
  0
LTYPE
  5
40
330
5
100
AcDbSymbolTableRecord
100
AcDbLinetypeTableRecord
  2
DIVIDE2
 70
    0
  3
Divide (.5x) __..__..__..__..__..__..__..__.._
 72
   65
 73
    6
 40
15.875
 49
6.35
 74
    0
 49
-3.175
 74
    0
 49
0
 74
    0
 49
-3.175
 74
    0
 49
0
 74
    0
 49
-3.175
 74
    0
  0
LTYPE
  5
41
330
5
100
AcDbSymbolTableRecord
100
AcDbLinetypeTableRecord
  2
DIVIDEX2
 70
    0
  3
Divide (2x) ________  .  .  ________  .  .  _
 72
   65
 73
    6
 40
63.5
 49
25.4
 74
    0
 49
-12.7
 74
    0
 49
0
 74
    0
 49
-12.7
 74
    0
 49
0
 74
    0
 49
-12.7
 74
    0
  0
LTYPE
  5
42
330
5
100
AcDbSymbolTableRecord
100
AcDbLinetypeTableRecord
  2
BORDER
 70
    0
  3
Border __ __ . __ __ . __ __ . __ __ . __ __ .
 72
   65
 73
    6
 40
44.45
 49
12.7
 74
    0
 49
-6.35
 74
    0
 49
12.7
 74
    0
 49
-6.35
 74
    0
 49
0
 74
    0
 49
-6.35
 74
    0
  0
LTYPE
  5
43
330
5
100
AcDbSymbolTableRecord
100
AcDbLinetypeTableRecord
  2
BORDERTINY
 70
    0
  3
Border (.15x) __.__.__.__.__.__.__.__.__.__.__.
 72
   65
 73
    6
 40
6.6675
 49
1.905
 74
    0
 49
-0.9525
 74
    0
 49
1.905
 74
    0
 49
-0.9525
 74
    0
 49
0
 74
    0
 49
-0.9525
 74
    0
  0
LTYPE
  5
44
330
5
100
AcDbSymbolTableRecord
100
AcDbLinetypeTableRecord
  2
BORDER2
 70
    0
  3
Border (.5x) __.__.__.__.__.__.__.__.__.__.__.
 72
   65
 73
    6
 40
22.225
 49
6.35
 74
    0
 49
-3.175
 74
    0
 49
6.35
 74
    0
 49
-3.175
 74
    0
 49
0
 74
    0
 49
-3.175
 74
    0
  0
LTYPE
  5
45
330
5
100
AcDbSymbolTableRecord
100
AcDbLinetypeTableRecord
  2
BORDERX2
 70
    0
  3
Border (2x) ____  ____  .  ____  ____  .  ___
 72
   65
 73
    6
 40
88.89999999999999
 49
25.4
 74
    0
 49
-12.7
 74
    0
 49
25.4
 74
    0
 49
-12.7
 74
    0
 49
0
 74
    0
 49
-12.7
 74
    0
  0
LTYPE
  5
46
330
5
100
AcDbSymbolTableRecord
100
AcDbLinetypeTableRecord
  2
CENTER
 70
    0
  3
Center ____ _ ____ _ ____ _ ____ _ ____ _ ____
 72
   65
 73
    4
 40
50.8
 49
31.75
 74
    0
 49
-6.35
 74
    0
 49
6.35
 74
    0
 49
-6.35
 74
    0
  0
LTYPE
  5
47
330
5
100
AcDbSymbolTableRecord
100
AcDbLinetypeTableRecord
  2
CENTERTINY
 70
    0
  3
Center (.15x) ___ _ ___ _ ___ _ ___ _ ___ _ ___
 72
   65
 73
    4
 40
7.619999999999999
 49
4.7625
 74
    0
 49
-0.9525
 74
    0
 49
0.9525
 74
    0
 49
-0.9525
 74
    0
  0
LTYPE
  5
48
330
5
100
AcDbSymbolTableRecord
100
AcDbLinetypeTableRecord
  2
CENTER2
 70
    0
  3
Center (.5x) ___ _ ___ _ ___ _ ___ _ ___ _ ___
 72
   65
 73
    4
 40
28.575
 49
19.05
 74
    0
 49
-3.175
 74
    0
 49
3.175
 74
    0
 49
-3.175
 74
    0
  0
LTYPE
  5
49
330
5
100
AcDbSymbolTableRecord
100
AcDbLinetypeTableRecord
  2
CENTERX2
 70
    0
  3
Center (2x) ________  __  ________  __  _____
 72
   65
 73
    4
 40
101.6
 49
63.5
 74
    0
 49
-12.7
 74
    0
 49
12.7
 74
    0
 49
-12.7
 74
    0
  0
ENDTAB
  0
TABLE
  2
LAYER
  5
2
330
0
100
AcDbSymbolTable
 70
    1
  0
LAYER
  5
10
330
2
100
AcDbSymbolTableRecord
100
AcDbLayerTableRecord
  2
0
 70
    0
 62
    7
  6
CONTINUOUS
370
    0
390
F
  0
LAYER
  5
4A
330
2
100
AcDbSymbolTableRecord
100
AcDbLayerTableRecord
  2
18wheel
 70
    1
 62
    7
  6
CONTINUOUS
370
    0
390
F
  0
LAYER
  5
4B
330
2
100
AcDbSymbolTableRecord
100
AcDbLayerTableRecord
  2
bmxwheel
 70
    0
 62
    7
  6
CONTINUOUS
370
    0
390
F
  0
LAYER
  5
4C
330
2
100
AcDbSymbolTableRecord
100
AcDbLayerTableRecord
  2
lengths
 70
    1
 62
    7
  6
CONTINUOUS
370
    0
390
F
  0
ENDTAB
  0
TABLE
  2
STYLE
  5
3
330
0
100
AcDbSymbolTable
 70
    3
  0
STYLE
  5
4D
330
2
100
AcDbSymbolTableRecord
100
AcDbTextStyleTableRecord
  2
Standard
 70
    0
 40
0
 41
1
 50
0
 71
    0
 42
1
  3
txt
  4

  0
ENDTAB
  0
TABLE
  2
VIEW
  5
6
330
0
100
AcDbSymbolTable
 70
    0
  0
ENDTAB
  0
TABLE
  2
UCS
  5
7
330
0
100
AcDbSymbolTable
 70
    0
  0
ENDTAB
  0
TABLE
  2
APPID
  5
9
330
0
100
AcDbSymbolTable
 70
    1
  0
APPID
  5
12
330
9
100
AcDbSymbolTableRecord
100
AcDbRegAppTableRecord
  2
ACAD
 70
    0
  0
APPID
  5
4E
330
9
100
AcDbSymbolTableRecord
100
AcDbRegAppTableRecord
  2
LibreCad
 70
    0
  0
ENDTAB
  0
TABLE
  2
DIMSTYLE
  5
A
330
0
100
AcDbSymbolTable
 70
    1
100
AcDbDimStyleTable
 71
    1
  0
DIMSTYLE
105
4F
330
A
100
AcDbSymbolTableRecord
100
AcDbDimStyleTableRecord
  2
Standard
 70
    0
 40
1
 41
10
 42
0.625
 43
0.38
 44
1.25
 45
0
 46
0
 47
0
 48
0
 49
1
140
10
141
0.09
142
0
143
25.4
144
1
145
0
146
1
147
0.625
148
0
 71
    0
 72
    0
 73
    0
 74
    1
 75
    0
 76
    0
 77
    0
 78
    1
 79
    0
170
    0
171
    2
172
    0
173
    0
174
    0
175
    0
176
    0
177
    0
178
    0
179
    2
271
    1
272
    4
273
    2
274
    2
275
    0
276
    0
277
    2
278
    0
279
    0
280
    0
281
    0
282
    0
283
    1
284
    0
285
    0
286
    0
288
    0
289
    3
340
standard
341

371
   -2
372
   -2
  0
ENDTAB
  0
TABLE
  2
BLOCK_RECORD
  5
1
330
0
100
AcDbSymbolTable
 70
    2
  0
BLOCK_RECORD
  5
1F
330
1
100
AcDbSymbolTableRecord
100
AcDbBlockTableRecord
  2
*Model_Space
 70
    0
280
    1
281
    0
  0
BLOCK_RECORD
  5
1E
330
1
100
AcDbSymbolTableRecord
100
AcDbBlockTableRecord
  2
*Paper_Space
 70
    0
280
    1
281
    0
  0
BLOCK_RECORD
  5
50
330
1
100
AcDbSymbolTableRecord
100
AcDbBlockTableRecord
  2
*D1
 70
    0
280
    1
281
    0
  0
BLOCK_RECORD
  5
53
330
1
100
AcDbSymbolTableRecord
100
AcDbBlockTableRecord
  2
*D5
 70
    0
280
    1
281
    0
  0
BLOCK_RECORD
  5
56
330
1
100
AcDbSymbolTableRecord
100
AcDbBlockTableRecord
  2
*D8
 70
    0
280
    1
281
    0
  0
BLOCK_RECORD
  5
59
330
1
100
AcDbSymbolTableRecord
100
AcDbBlockTableRecord
  2
*D9
 70
    0
280
    1
281
    0
  0
BLOCK_RECORD
  5
5C
330
1
100
AcDbSymbolTableRecord
100
AcDbBlockTableRecord
  2
*D10
 70
    0
280
    1
281
    0
  0
BLOCK_RECORD
  5
5F
330
1
100
AcDbSymbolTableRecord
100
AcDbBlockTableRecord
  2
*D6
 70
    0
280
    1
281
    0
  0
BLOCK_RECORD
  5
62
330
1
100
AcDbSymbolTableRecord
100
AcDbBlockTableRecord
  2
*D2
 70
    0
280
    1
281
    0
  0
BLOCK_RECORD
  5
65
330
1
100
AcDbSymbolTableRecord
100
AcDbBlockTableRecord
  2
*D4
 70
    0
280
    1
281
    0
  0
BLOCK_RECORD
  5
68
330
1
100
AcDbSymbolTableRecord
100
AcDbBlockTableRecord
  2
*D3
 70
    0
280
    1
281
    0
  0
BLOCK_RECORD
  5
6B
330
1
100
AcDbSymbolTableRecord
100
AcDbBlockTableRecord
  2
*D7
 70
    0
280
    1
281
    0
  0
ENDTAB
  0
ENDSEC
  0
SECTION
  2
BLOCKS
  0
BLOCK
  5
20
330
1F
100
AcDbEntity
  8
0
100
AcDbBlockBegin
  2
*Model_Space
 70
    0
 10
0
 20
0
 30
0
  3
*Model_Space
  1

  0
ENDBLK
  5
21
330
1F
100
AcDbEntity
  8
0
100
AcDbBlockEnd
  0
BLOCK
  5
1C
330
1B
100
AcDbEntity
  8
0
100
AcDbBlockBegin
  2
*Paper_Space
 70
    0
 10
0
 20
0
 30
0
  3
*Paper_Space
  1

  0
ENDBLK
  5
1D
330
1F
100
AcDbEntity
  8
0
100
AcDbBlockEnd
  0
BLOCK
  5
51
330
50
100
AcDbEntity
  8
0
100
AcDbBlockBegin
  2
*D1
 70
    1
 10
0
 20
0
  3
*D1
  1

  0
LINE
  5
6E
100
AcDbEntity
  8
lengths
  6
ByBlock
 62
    0
370
   -2
100
AcDbLine
 10
1361.412079948794
 20
5.194039040730445
 11
1249.315946682942
 21
604.8059609592696
  0
SOLID
  5
6F
100
AcDbEntity
  8
lengths
  6
ByBlock
 62
    0
370
   -2
100
AcDbTrace
 10
1361.412079948794
 20
5.194039040730445
 30
0
 11
1357.937656493863
 21
14.71774988874431
 31
0
 12
1361.211220345828
 22
15.32973546873426
 32
0
 13
1361.211220345828
 23
15.32973546873426
 33
0
  0
SOLID
  5
70
100
AcDbEntity
  8
lengths
  6
ByBlock
 62
    0
370
   -2
100
AcDbTrace
 10
1249.315946682942
 20
604.8059609592696
 30
0
 11
1252.790370137873
 21
595.2822501112557
 31
0
 12
1249.516806285907
 22
594.6702645312657
 32
0
 13
1249.516806285907
 23
594.6702645312657
 33
0
  0
MTEXT
  5
71
100
AcDbEntity
  8
lengths
  6
CONTINUOUS
 62
    0
370
   -2
100
AcDbMText
 10
1310.893221612248
 20
306.0336733600335
 30
0
 40
10
 41
28.88888888888951
 71
    5
 72
    1
  1
610.0
  7
standard
210
0
220
0
230
1
 50
280.589088348372
 73
    2
 44
1
  0
ENDBLK
  5
52
330
50
100
AcDbEntity
  8
0
100
AcDbBlockEnd
  0
BLOCK
  5
54
330
53
100
AcDbEntity
  8
0
100
AcDbBlockBegin
  2
*D5
 70
    1
 10
0
 20
0
  3
*D5
  1

  0
LINE
  5
72
100
AcDbEntity
  8
18wheel
  6
ByBlock
 62
    0
370
   -2
100
AcDbLine
 10
-22.14999742786254
 20
48.44059566862649
 11
-267.8500025721375
 21
311.5594043313735
  0
SOLID
  5
73
100
AcDbEntity
  8
18wheel
  6
ByBlock
 62
    0
370
   -2
100
AcDbTrace
 10
-22.14999742786254
 20
48.44059566862649
 30
0
 11
-30.19202338428984
 21
54.61299432529979
 31
0
 12
-27.7579717572283
 22
56.88590860432801
 32
0
 13
-27.7579717572283
 23
56.88590860432801
 33
0
  0
SOLID
  5
74
100
AcDbEntity
  8
18wheel
  6
ByBlock
 62
    0
370
   -2
100
AcDbTrace
 10
-267.8500025721375
 20
311.5594043313735
 30
0
 11
-259.8079766157102
 21
305.3870056747002
 31
0
 12
-262.2420282427718
 22
303.114091395672
 32
0
 13
-262.2420282427718
 23
303.114091395672
 33
0
  0
MTEXT
  5
75
100
AcDbEntity
  8
18wheel
  6
CONTINUOUS
 62
    0
370
   -2
100
AcDbMText
 10
-140.8887686146446
 20
183.8390625803793
 30
0
 40
10
 41
31.11111111111235
 71
    5
 72
    1
  1
360.0
  7
standard
210
0
220
0
230
1
 50
313.0393132221682
 73
    2
 44
1
  0
ENDBLK
  5
55
330
53
100
AcDbEntity
  8
0
100
AcDbBlockEnd
  0
BLOCK
  5
57
330
56
100
AcDbEntity
  8
0
100
AcDbBlockBegin
  2
*D8
 70
    1
 10
0
 20
0
  3
*D8
  1

  0
LINE
  5
76
100
AcDbEntity
  8
bmxwheel
  6
ByBlock
 62
    0
370
   -2
100
AcDbLine
 10
-173.2797476261096
 20
11.86366882335366
 11
-326.7202523738904
 21
496.1363311766464
  0
SOLID
  5
77
100
AcDbEntity
  8
bmxwheel
  6
ByBlock
 62
    0
370
   -2
100
AcDbTrace
 10
-173.2797476261096
 20
11.86366882335366
 30
0
 11
-177.887594408676
 21
20.89364305859626
 31
0
 12
-174.7128655973928
 22
21.8995474366659
 32
0
 13
-174.7128655973928
 23
21.8995474366659
 33
0
  0
SOLID
  5
78
100
AcDbEntity
  8
bmxwheel
  6
ByBlock
 62
    0
370
   -2
100
AcDbTrace
 10
-326.7202523738904
 20
496.1363311766464
 30
0
 11
-322.112405591324
 21
487.1063569414038
 31
0
 12
-325.2871344026072
 22
486.1004525633342
 32
0
 13
-325.2871344026072
 23
486.1004525633342
 33
0
  0
MTEXT
  5
79
100
AcDbEntity
  8
bmxwheel
  6
CONTINUOUS
 62
    0
370
   -2
100
AcDbMText
 10
-244.6377288863439
 20
255.6990213370202
 30
0
 40
10
 41
31.11111111111173
 71
    5
 72
    1
  1
508.0
  7
standard
210
0
220
0
230
1
 50
287.5806666416485
 73
    2
 44
1
  0
ENDBLK
  5
58
330
56
100
AcDbEntity
  8
0
100
AcDbBlockEnd
  0
BLOCK
  5
5A
330
59
100
AcDbEntity
  8
0
100
AcDbBlockBegin
  2
*D9
 70
    1
 10
0
 20
0
  3
*D9
  1

  0
LINE
  5
7A
100
AcDbEntity
  8
bmxwheel
  6
ByBlock
 62
    0
370
   -2
100
AcDbLine
 10
1573.593961199036
 20
159.8184066122952
 11
1037.1340654327
 21
450.1815933877049
  0
SOLID
  5
7B
100
AcDbEntity
  8
bmxwheel
  6
ByBlock
 62
    0
370
   -2
100
AcDbTrace
 10
1573.593961199036
 20
159.8184066122952
 30
0
 11
1564.006921990823
 21
163.1140652537416
 31
0
 12
1565.59215136573
 22
166.0428524552884
 32
0
 13
1565.59215136573
 23
166.0428524552884
 33
0
  0
SOLID
  5
7C
100
AcDbEntity
  8
bmxwheel
  6
ByBlock
 62
    0
370
   -2
100
AcDbTrace
 10
1037.1340654327
 20
450.1815933877049
 30
0
 11
1046.721104640912
 21
446.8859347462584
 31
0
 12
1045.135875266006
 22
443.9571475447116
 32
0
 13
1045.135875266006
 23
443.9571475447116
 33
0
  0
MTEXT
  5
7D
100
AcDbEntity
  8
bmxwheel
  6
CONTINUOUS
 62
    0
370
   -2
100
AcDbMText
 10
1308.041542702116
 20
309.9468637929273
 30
0
 40
10
 41
28.88888888888951
 71
    5
 72
    1
  1
610.0
  7
standard
210
0
220
0
230
1
 50
331.5751797269471
 73
    2
 44
1
  0
ENDBLK
  5
5B
330
59
100
AcDbEntity
  8
0
100
AcDbBlockEnd
  0
BLOCK
  5
5D
330
5C
100
AcDbEntity
  8
0
100
AcDbBlockBegin
  2
*D10
 70
    1
 10
0
 20
0
  3
*D10
  1

  0
LINE
  5
7E
100
AcDbEntity
  8
bmxwheel
  6
ByBlock
 62
    0
370
   -2
100
AcDbLine
 10
-250.0000000000002
 20
-174.183745513305
 11
1305.364013315868
 21
-174.183745513305
  0
SOLID
  5
7F
100
AcDbEntity
  8
bmxwheel
  6
ByBlock
 62
    0
370
   -2
100
AcDbTrace
 10
-250.0000000000002
 20
-174.183745513305
 30
0
 11
-240.0000000000002
 21
-172.5186068822136
 31
0
 12
-240.0000000000002
 22
-175.8488841443964
 32
0
 13
-240.0000000000002
 23
-175.8488841443964
 33
0
  0
SOLID
  5
80
100
AcDbEntity
  8
bmxwheel
  6
ByBlock
 62
    0
370
   -2
100
AcDbTrace
 10
1305.364013315868
 20
-174.183745513305
 30
0
 11
1295.364013315868
 21
-175.8488841443964
 31
0
 12
1295.364013315868
 22
-172.5186068822136
 32
0
 13
1295.364013315868
 23
-172.5186068822136
 33
0
  0
MTEXT
  5
81
100
AcDbEntity
  8
bmxwheel
  6
CONTINUOUS
 62
    0
370
   -2
100
AcDbMText
 10
527.6820066579338
 20
-168.558745513305
 30
0
 40
10
 41
37.77777777777963
 71
    5
 72
    1
  1
1555.4
  7
standard
210
0
220
0
230
1
 50
0
 73
    2
 44
1
  0
LINE
  5
82
100
AcDbEntity
  8
bmxwheel
  6
ByBlock
 62
    0
370
   -2
100
AcDbLine
 10
-250
 20
253.375
 11
-250.0000000000002
 21
-175.433745513305
  0
LINE
  5
83
100
AcDbEntity
  8
bmxwheel
  6
ByBlock
 62
    0
370
   -2
100
AcDbLine
 10
1305.364013315868
 20
304.375
 11
1305.364013315868
 21
-175.433745513305
  0
ENDBLK
  5
5E
330
5C
100
AcDbEntity
  8
0
100
AcDbBlockEnd
  0
BLOCK
  5
60
330
5F
100
AcDbEntity
  8
0
100
AcDbBlockBegin
  2
*D6
 70
    1
 10
0
 20
0
  3
*D6
  1

  0
LINE
  5
84
100
AcDbEntity
  8
18wheel
  6
ByBlock
 62
    0
370
   -2
100
AcDbLine
 10
-179.9496388878506
 20
-196.6631430548802
 11
1610.206171895818
 21
-196.6631430548802
  0
SOLID
  5
85
100
AcDbEntity
  8
18wheel
  6
ByBlock
 62
    0
370
   -2
100
AcDbTrace
 10
-179.9496388878506
 20
-196.6631430548802
 30
0
 11
-169.9496388878506
 21
-194.9980044237888
 31
0
 12
-169.9496388878506
 22
-198.3282816859715
 32
0
 13
-169.9496388878506
 23
-198.3282816859715
 33
0
  0
SOLID
  5
86
100
AcDbEntity
  8
18wheel
  6
ByBlock
 62
    0
370
   -2
100
AcDbTrace
 10
1610.206171895818
 20
-196.6631430548802
 30
0
 11
1600.206171895818
 21
-198.3282816859715
 31
0
 12
1600.206171895818
 22
-194.9980044237888
 32
0
 13
1600.206171895818
 23
-194.9980044237888
 33
0
  0
MTEXT
  5
87
100
AcDbEntity
  8
18wheel
  6
CONTINUOUS
 62
    0
370
   -2
100
AcDbMText
 10
715.1282665039837
 20
-191.0381430548802
 30
0
 40
10
 41
36.66666666666667
 71
    5
 72
    1
  1
1790.2
  7
standard
210
0
220
0
230
1
 50
0
 73
    2
 44
1
  0
LINE
  5
88
100
AcDbEntity
  8
18wheel
  6
ByBlock
 62
    0
370
   -2
100
AcDbLine
 10
-179.9496388878505
 20
183.6326359792954
 11
-179.9496388878506
 21
-197.9131430548802
  0
LINE
  5
89
100
AcDbEntity
  8
18wheel
  6
ByBlock
 62
    0
370
   -2
100
AcDbLine
 10
1610.206171895818
 20
314.1861340994093
 11
1610.206171895818
 21
-197.9131430548802
  0
ENDBLK
  5
61
330
5F
100
AcDbEntity
  8
0
100
AcDbBlockEnd
  0
BLOCK
  5
63
330
62
100
AcDbEntity
  8
0
100
AcDbBlockBegin
  2
*D2
 70
    1
 10
0
 20
0
  3
*D2
  1

  0
LINE
  5
8A
100
AcDbEntity
  8
lengths
  6
ByBlock
 62
    0
370
   -2
100
AcDbLine
 10
243.0240209513595
 20
0
 11
243.0240209513595
 21
103.8617394012817
  0
SOLID
  5
8B
100
AcDbEntity
  8
lengths
  6
ByBlock
 62
    0
370
   -2
100
AcDbTrace
 10
243.0240209513595
 20
0
 30
0
 11
241.3588823202681
 21
10
 31
0
 12
244.6891595824509
 22
10
 32
0
 13
244.6891595824509
 23
10
 33
0
  0
SOLID
  5
8C
100
AcDbEntity
  8
lengths
  6
ByBlock
 62
    0
370
   -2
100
AcDbTrace
 10
243.0240209513595
 20
103.8617394012817
 30
0
 11
244.6891595824509
 21
93.86173940128165
 31
0
 12
241.3588823202681
 22
93.86173940128165
 32
0
 13
241.3588823202681
 23
93.86173940128165
 33
0
  0
MTEXT
  5
8D
100
AcDbEntity
  8
lengths
  6
CONTINUOUS
 62
    0
370
   -2
100
AcDbMText
 10
237.3990209513595
 20
51.93086970064084
 30
0
 40
10
 41
28.88888888888951
 71
    5
 72
    1
  1
103.9
  7
standard
210
0
220
0
230
1
 50
90
 73
    2
 44
1
  0
LINE
  5
8E
100
AcDbEntity
  8
lengths
  6
ByBlock
 62
    0
370
   -2
100
AcDbLine
 10
288.9669798642864
 20
7.654042494670958e-17
 11
241.7740209513595
 21
1.530808498934192e-16
  0
LINE
  5
8F
100
AcDbEntity
  8
lengths
  6
ByBlock
 62
    0
370
   -2
100
AcDbLine
 10
282.3144143052968
 20
103.8617394012817
 11
241.7740209513595
 21
103.8617394012817
  0
ENDBLK
  5
64
330
62
100
AcDbEntity
  8
0
100
AcDbBlockEnd
  0
BLOCK
  5
66
330
65
100
AcDbEntity
  8
0
100
AcDbBlockBegin
  2
*D4
 70
    1
 10
0
 20
0
  3
*D4
  1

  0
LINE
  5
90
100
AcDbEntity
  8
lengths
  6
ByBlock
 62
    0
370
   -2
100
AcDbLine
 10
66.22443631047167
 20
63.86995361934417
 11
675.8721142568187
 21
63.86995361934417
  0
SOLID
  5
91
100
AcDbEntity
  8
lengths
  6
ByBlock
 62
    0
370
   -2
100
AcDbTrace
 10
66.22443631047167
 20
63.86995361934417
 30
0
 11
76.22443631047167
 21
65.53509225043554
 31
0
 12
76.22443631047167
 22
62.20481498825281
 32
0
 13
76.22443631047167
 23
62.20481498825281
 33
0
  0
SOLID
  5
92
100
AcDbEntity
  8
lengths
  6
ByBlock
 62
    0
370
   -2
100
AcDbTrace
 10
675.8721142568187
 20
63.86995361934417
 30
0
 11
665.8721142568187
 21
62.20481498825281
 31
0
 12
665.8721142568187
 22
65.53509225043554
 32
0
 13
665.8721142568187
 23
65.53509225043554
 33
0
  0
MTEXT
  5
93
100
AcDbEntity
  8
lengths
  6
CONTINUOUS
 62
    0
370
   -2
100
AcDbMText
 10
371.0482752836452
 20
69.49495361934417
 30
0
 40
10
 41
31.11111111111235
 71
    5
 72
    1
  1
609.6
  7
standard
210
0
220
0
230
1
 50
0
 73
    2
 44
1
  0
LINE
  5
94
100
AcDbEntity
  8
lengths
  6
ByBlock
 62
    0
370
   -2
100
AcDbLine
 10
66.22443631047167
 20
103.2367394012817
 11
66.22443631047167
 21
62.61995361934417
  0
LINE
  5
95
100
AcDbEntity
  8
lengths
  6
ByBlock
 62
    0
370
   -2
100
AcDbLine
 10
675.8721142568187
 20
103.2367394012817
 11
675.8721142568187
 21
62.61995361934417
  0
ENDBLK
  5
67
330
65
100
AcDbEntity
  8
0
100
AcDbBlockEnd
  0
BLOCK
  5
69
330
68
100
AcDbEntity
  8
0
100
AcDbBlockBegin
  2
*D3
 70
    1
 10
0
 20
0
  3
*D3
  1

  0
LINE
  5
96
100
AcDbEntity
  8
lengths
  6
ByBlock
 62
    0
370
   -2
100
AcDbLine
 10
127.2720432275153
 20
103.8617394012816
 11
127.2720432275153
 21
585.3549196465416
  0
SOLID
  5
97
100
AcDbEntity
  8
lengths
  6
ByBlock
 62
    0
370
   -2
100
AcDbTrace
 10
127.2720432275153
 20
103.8617394012816
 30
0
 11
125.6069045964239
 21
113.8617394012816
 31
0
 12
128.9371818586066
 22
113.8617394012816
 32
0
 13
128.9371818586066
 23
113.8617394012816
 33
0
  0
SOLID
  5
98
100
AcDbEntity
  8
lengths
  6
ByBlock
 62
    0
370
   -2
100
AcDbTrace
 10
127.2720432275153
 20
585.3549196465416
 30
0
 11
128.9371818586066
 21
575.3549196465416
 31
0
 12
125.6069045964239
 22
575.3549196465416
 32
0
 13
125.6069045964239
 23
575.3549196465416
 33
0
  0
MTEXT
  5
99
100
AcDbEntity
  8
lengths
  6
CONTINUOUS
 62
    0
370
   -2
100
AcDbMText
 10
121.6470432275153
 20
344.6083295239116
 30
0
 40
10
 41
30.00000000000062
 71
    5
 72
    1
  1
481.5
  7
standard
210
0
220
0
230
1
 50
90
 73
    2
 44
1
  0
LINE
  5
9A
100
AcDbEntity
  8
lengths
  6
ByBlock
 62
    0
370
   -2
100
AcDbLine
 10
179.6255827446076
 20
103.8617394012817
 11
126.0220432275153
 21
103.8617394012816
  0
LINE
  5
9B
100
AcDbEntity
  8
lengths
  6
ByBlock
 62
    0
370
   -2
100
AcDbLine
 10
184.4596649614007
 20
585.3549196465416
 11
126.0220432275153
 21
585.3549196465416
  0
ENDBLK
  5
6A
330
68
100
AcDbEntity
  8
0
100
AcDbBlockEnd
  0
BLOCK
  5
6C
330
6B
100
AcDbEntity
  8
0
100
AcDbBlockBegin
  2
*D7
 70
    1
 10
0
 20
0
  3
*D7
  1

  0
LINE
  5
9C
100
AcDbEntity
  8
18wheel
  6
ByBlock
 62
    0
370
   -2
100
AcDbLine
 10
-145
 20
-10
 11
-205
 21
-10
  0
SOLID
  5
9D
100
AcDbEntity
  8
18wheel
  6
ByBlock
 62
    0
370
   -2
100
AcDbTrace
 10
-145
 20
-10
 30
0
 11
-155
 21
-11.66513863109136
 31
0
 12
-155
 22
-8.334861368908639
 32
0
 13
-155
 23
-8.334861368908639
 33
0
  0
SOLID
  5
9E
100
AcDbEntity
  8
18wheel
  6
ByBlock
 62
    0
370
   -2
100
AcDbTrace
 10
-205
 20
-10
 30
0
 11
-195
 21
-8.334861368908639
 31
0
 12
-195
 22
-11.66513863109136
 32
0
 13
-195
 23
-11.66513863109136
 33
0
  0
MTEXT
  5
9F
100
AcDbEntity
  8
18wheel
  6
CONTINUOUS
 62
    0
370
   -2
100
AcDbMText
 10
-175
 20
-4.375
 30
0
 40
10
 41
23.33333333333395
 71
    5
 72
    1
  1
60.0
  7
standard
210
0
220
0
230
1
 50
360
 73
    2
 44
1
  0
LINE
  5
A0
100
AcDbEntity
  8
18wheel
  6
ByBlock
 62
    0
370
   -2
100
AcDbLine
 10
-145
 20
-0.625
 11
-145
 21
-11.25
  0
LINE
  5
A1
100
AcDbEntity
  8
18wheel
  6
ByBlock
 62
    0
370
   -2
100
AcDbLine
 10
-205
 20
-0.625
 11
-205
 21
-11.25
  0
ENDBLK
  5
6D
330
6B
100
AcDbEntity
  8
0
100
AcDbBlockEnd
  0
ENDSEC
  0
SECTION
  2
ENTITIES
  0
CIRCLE
  5
A2
100
AcDbEntity
  8
0
  6
ByLayer
 62
  256
370
   -1
100
AcDbCircle
 10
1305.364013315868
 20
305
 40
305
  0
CIRCLE
  5
A3
100
AcDbEntity
  8
0
  6
ByLayer
 62
  256
370
   -1
100
AcDbCircle
 10
920
 20
280
 40
178
  0
CIRCLE
  5
A4
100
AcDbEntity
  8
0
  6
ByLayer
 62
  256
370
   -1
100
AcDbCircle
 10
920
 20
280
 40
20
  0
CIRCLE
  5
A5
100
AcDbEntity
  8
0
  6
ByLayer
 62
  256
370
   -1
100
AcDbCircle
 10
1305.364013315868
 20
305
 40
80
  0
LINE
  5
A6
100
AcDbEntity
  8
0
  6
ByLayer
 62
  256
370
   -1
100
AcDbLine
 10
920
 20
280
 11
1056.808057330268
 21
655.8770483143633
  0
LINE
  5
A7
100
AcDbEntity
  8
0
  6
ByLayer
 62
  256
370
   -1
100
AcDbLine
 10
920
 20
280
 11
1305.364013315868
 21
305
  0
LINE
  5
A8
100
AcDbEntity
  8
0
  6
ByLayer
 62
  256
370
   -1
100
AcDbLine
 10
1305.364013315868
 20
305
 11
1043.964469674557
 21
620.5895812455133
  0
LINE
  5
A9
100
AcDbEntity
  8
0
  6
ByLayer
 62
  256
370
   -1
100
AcDbLine
 10
675.8721142568187
 20
103.8617394012817
 11
920
 21
280
  0
LINE
  5
AA
100
AcDbEntity
  8
lengths
  6
ByLayer
 62
  256
370
   -1
100
AcDbLine
 10
564
 20
650
 11
564
 21
1350
  0
DIMENSION
  5
AB
100
AcDbEntity
  8
lengths
  6
ByLayer
 62
  256
370
   -1
100
AcDbDimension
  2
*D1
 10
1361.412079948794
 20
5.194039040730445
 30
0
 11
1310.893221612248
 21
306.0336733600335
 31
0
 70
   35
 71
    5
  3
Standard
 53
0
210
0
220
0
230
1
100
AcDbDiametricDimension
 15
1249.315946682942
 25
604.8059609592696
 35
0
 40
0
  0
DIMENSION
  5
AC
100
AcDbEntity
  8
lengths
  6
ByLayer
 62
  256
370
   -1
100
AcDbDimension
  2
*D2
 10
243.0240209513595
 20
103.8617394012817
 30
0
 11
237.3990209513595
 21
51.93086970064084
 31
0
 70
   32
 71
    5
  3
Standard
 53
0
210
0
220
0
230
1
100
AcDbAlignedDimension
 13
289.5919798642864
 23
0
 33
0
 14
282.9394143052968
 24
103.8617394012817
 34
0
 50
90
100
AcDbRotatedDimension
  0
LINE
  5
AD
100
AcDbEntity
  8
0
  6
ByLayer
 62
  256
370
   -1
100
AcDbLine
 10
675.8721142568187
 20
103.8617394012817
 11
676.3441651640489
 21
382.5391899438084
  0
DIMENSION
  5
AE
100
AcDbEntity
  8
lengths
  6
ByLayer
 62
  256
370
   -1
100
AcDbDimension
  2
*D3
 10
127.2720432275153
 20
585.3549196465416
 30
0
 11
121.6470432275153
 21
344.6083295239116
 31
0
 70
   32
 71
    5
  3
Standard
 53
0
210
0
220
0
230
1
100
AcDbAlignedDimension
 13
180.2505827446076
 23
103.8617394012817
 33
0
 14
185.0846649614007
 24
585.3549196465416
 34
0
 50
90
100
AcDbRotatedDimension
  0
LINE
  5
AF
100
AcDbEntity
  8
0
  6
ByLayer
 62
  256
370
   -1
100
AcDbLine
 10
66.22443631047167
 20
103.8617394012817
 11
695.8721142568187
 21
103.8617394012817
  0
DIMENSION
  5
B0
100
AcDbEntity
  8
lengths
  6
ByLayer
 62
  256
370
   -1
100
AcDbDimension
  2
*D4
 10
675.8721142568187
 20
63.86995361934417
 30
0
 11
371.0482752836452
 21
69.49495361934417
 31
0
 70
   32
 71
    5
  3
Standard
 53
0
210
0
220
0
230
1
100
AcDbAlignedDimension
 13
66.22443631047167
 23
103.8617394012817
 33
0
 14
675.8721142568187
 24
103.8617394012817
 34
0
100
AcDbRotatedDimension
  0
LINE
  5
B1
100
AcDbEntity
  8
0
  6
ByLayer
 62
  256
370
   -1
100
AcDbLine
 10
-860.0942279433851
 20
0
 11
2000
 21
0
  0
LINE
  5
B2
100
AcDbEntity
  8
18wheel
  6
ByLayer
 62
  256
370
   -1
100
AcDbLine
 10
-36.77596505938027
 20
552.3896370540324
 11
572.1158558512193
 21
620.2108015276388
  0
CIRCLE
  5
B3
100
AcDbEntity
  8
18wheel
  6
ByLayer
 62
  256
370
   -1
100
AcDbCircle
 10
-145
 20
180
 40
180
  0
LINE
  5
B4
100
AcDbEntity
  8
18wheel
  6
ByLayer
 62
  256
370
   -1
100
AcDbLine
 10
-145
 20
180
 11
-14.77273821713729
 21
558.2074302397267
  0
LINE
  5
B5
100
AcDbEntity
  8
18wheel
  6
ByLayer
 62
  256
370
   -1
100
AcDbLine
 10
-70.32980767590109
 20
396.8579847857937
 11
60.38950713062439
 21
268.4067422729751
  0
DIMENSION
  5
B6
100
AcDbEntity
  8
18wheel
  6
ByLayer
 62
  256
370
   -1
100
AcDbDimension
  2
*D5
 10
-22.14999742786254
 20
48.44059566862649
 30
0
 11
-140.8887686146446
 21
183.8390625803793
 31
0
 70
   35
 71
    5
  3
Standard
 53
0
210
0
220
0
230
1
100
AcDbDiametricDimension
 15
-267.8500025721375
 25
311.5594043313735
 35
0
 40
0
  0
DIMENSION
  5
B7
100
AcDbEntity
  8
18wheel
  6
ByLayer
 62
  256
370
   -1
100
AcDbDimension
  2
*D6
 10
1610.206171895818
 20
-196.6631430548802
 30
0
 11
715.1282665039837
 21
-191.0381430548802
 31
0
 70
   32
 71
    5
  3
Standard
 53
0
210
0
220
0
230
1
100
AcDbAlignedDimension
 13
-179.9496388878505
 23
184.2576359792954
 33
0
 14
1610.206171895818
 24
314.8111340994093
 34
0
100
AcDbRotatedDimension
  0
LINE
  5
B8
100
AcDbEntity
  8
18wheel
  6
ByLayer
 62
  256
370
   -1
100
AcDbLine
 10
-145
 20
180
 11
-145
 21
-220
  0
LINE
  5
B9
100
AcDbEntity
  8
18wheel
  6
ByLayer
 62
  256
370
   -1
100
AcDbLine
 10
-211.121521242575
 20
-15.10239472791642
 11
-145
 21
176.9284465132428
  0
DIMENSION
  5
BA
100
AcDbEntity
  8
18wheel
  6
ByLayer
 62
  256
370
   -1
100
AcDbDimension
  2
*D7
 10
-205
 20
-10
 30
0
 11
-175
 21
-4.375
 31
0
 70
   32
 71
    5
  3
Standard
 53
0
210
0
220
0
230
1
100
AcDbAlignedDimension
 13
-145
 23
0
 33
0
 14
-205
 24
0
 34
0
100
AcDbRotatedDimension
  0
LINE
  5
BB
100
AcDbEntity
  8
bmxwheel
  6
ByLayer
 62
  256
370
   -1
100
AcDbLine
 10
2.521322346857469
 20
448.7953777406294
 11
-168.5115877281821
 21
533.3988839899937
  0
CIRCLE
  5
BC
100
AcDbEntity
  8
bmxwheel
  6
ByLayer
 62
  256
370
   -1
100
AcDbCircle
 10
-250
 20
254
 40
254
  0
DIMENSION
  5
BD
100
AcDbEntity
  8
bmxwheel
  6
ByLayer
 62
  256
370
   -1
100
AcDbDimension
  2
*D8
 10
-173.2797476261096
 20
11.86366882335366
 30
0
 11
-244.6377288863439
 21
255.6990213370202
 31
0
 70
   35
 71
    5
  3
Standard
 53
0
210
0
220
0
230
1
100
AcDbDiametricDimension
 15
-326.7202523738904
 25
496.1363311766464
 35
0
 40
0
  0
LINE
  5
BE
100
AcDbEntity
  8
bmxwheel
  6
ByLayer
 62
  256
370
   -1
100
AcDbLine
 10
-404.5084971874737
 20
-221.5282581475768
 11
-95.49150281252628
 21
729.5282581475767
  0
LINE
  5
BF
100
AcDbEntity
  8
bmxwheel
  6
ByLayer
 62
  256
370
   -1
100
AcDbLine
 10
563.6445167247094
 20
620.2040011019293
 11
-143.7153737708757
 21
597.55339620522
  0
LINE
  5
C0
100
AcDbEntity
  8
bmxwheel
  6
ByLayer
 62
  256
370
   -1
100
AcDbLine
 10
60.38950713062439
 20
268.4067422729751
 11
2.521322346857469
 21
448.7953777406294
  0
LINE
  5
C1
100
AcDbEntity
  8
0
  6
ByLayer
 62
  256
370
   -1
100
AcDbLine
 10
60.38950713062439
 20
268.4067422729751
 11
66.22443631047167
 21
103.8617394012817
  0
LINE
  5
C2
100
AcDbEntity
  8
0
  6
ByLayer
 62
  256
370
   -1
100
AcDbLine
 10
1043.964469674557
 20
620.5895812455133
 11
563.6445167247094
 21
620.2040011019294
  0
LINE
  5
C3
100
AcDbEntity
  8
0
  6
ByLayer
 62
  256
370
   -1
100
AcDbLine
 10
498.5308858332781
 20
431.1002859820661
 11
628.7581476161408
 21
809.3077162217928
  0
LINE
  5
C4
100
AcDbEntity
  8
0
  6
ByLayer
 62
  256
370
   -1
100
AcDbLine
 10
0
 20
1000
 11
2000
 21
1000
  0
CIRCLE
  5
C5
100
AcDbEntity
  8
0
  6
ByLayer
 62
  256
370
   -1
100
AcDbCircle
 10
213.3523220536531
 20
1000
 40
15
  0
CIRCLE
  5
C6
100
AcDbEntity
  8
0
  6
ByLayer
 62
  256
370
   -1
100
AcDbCircle
 10
682.9967307229344
 20
1000
 40
15
  0
CIRCLE
  5
C7
100
AcDbEntity
  8
0
  6
ByLayer
 62
  256
370
   -1
100
AcDbCircle
 10
564
 20
1000
 40
15
  0
CIRCLE
  5
C8
100
AcDbEntity
  8
0
  6
ByLayer
 62
  256
370
   -1
100
AcDbCircle
 10
1044
 20
1000
 40
15
  0
LINE
  5
C9
100
AcDbEntity
  8
0
  6
ByLayer
 62
  256
370
   -1
100
AcDbLine
 10
940.0000000000069
 20
1020.000000000007
 11
940.0000000000069
 21
1000
  0
LINE
  5
CA
100
AcDbEntity
  8
0
  6
ByLayer
 62
  256
370
   -1
100
AcDbLine
 10
899.9999999999931
 20
979.9999999999931
 11
900.1757456031366
 21
1020.007044800022
  0
LINE
  5
CB
100
AcDbEntity
  8
0
  6
ByLayer
 62
  256
370
   -1
100
AcDbLine
 10
940.0000000000069
 20
1000.000009687702
 11
939.98593264252
 21
979.8367921116791
  0
LINE
  5
CC
100
AcDbEntity
  8
0
  6
ByLayer
 62
  256
370
   -1
100
AcDbLine
 10
899.9999999999931
 20
979.9999999999931
 11
939.9859326425199
 21
979.836792111679
  0
LINE
  5
CD
100
AcDbEntity
  8
0
  6
ByLayer
 62
  256
370
   -1
100
AcDbLine
 10
940.0000000000069
 20
1020.000000000007
 11
900.1757456031366
 21
1020.007044800022
  0
LWPOLYLINE
  5
CE
100
AcDbEntity
  8
0
  6
ByLayer
 62
  256
370
   -1
100
AcDbPolyline
 90
    4
 70
    1
 43
0
 10
744.4520128503293
 20
1126.969982586789
 10
1094.378765434355
 20
1126.969982586789
 10
1094.378765434355
 20
885.1088447713593
 10
744.4520128503293
 20
885.1088447713593
  0
LWPOLYLINE
  5
CF
100
AcDbEntity
  8
0
  6
ByLayer
 62
  256
370
   -1
100
AcDbPolyline
 90
    4
 70
    1
 43
0
 10
-180.8520726123328
 20
1032.043873826362
 10
180.8520726123328
 20
1032.043873826362
 10
180.8520726123328
 20
971.2943359218335
 10
-180.8520726123328
 20
971.2943359218335
  0
LINE
  5
D0
100
AcDbEntity
  8
0
  6
ByLayer
 62
  256
370
   -1
100
AcDbLine
 10
1305.4
 20
935
 11
1305.4
 21
1065
  0
LINE
  5
D1
100
AcDbEntity
  8
0
  6
ByLayer
 62
  256
370
   -1
100
AcDbLine
 10
940.0000000000069
 20
1000.000009687908
 11
1305.4
 21
1065
  0
LINE
  5
D2
100
AcDbEntity
  8
0
  6
ByLayer
 62
  256
370
   -1
100
AcDbLine
 10
1305.4
 20
1065
 11
1305.4
 21
935
  0
LINE
  5
D3
100
AcDbEntity
  8
0
  6
ByLayer
 62
  256
370
   -1
100
AcDbLine
 10
1305.4
 20
935
 11
939.999999993248
 21
1000
  0
CIRCLE
  5
D4
100
AcDbEntity
  8
0
  6
ByLayer
 62
  256
370
   -1
100
AcDbCircle
 10
1015.855369265808
 20
999.9989903610548
 40
14.96557799105993
  0
LINE
  5
D5
100
AcDbEntity
  8
0
  6
ByLayer
 62
  256
370
   -1
100
AcDbLine
 10
1000.871254115314
 20
1015
 11
1611.224474379916
 21
1015
  0
LINE
  5
D6
100
AcDbEntity
  8
0
  6
ByLayer
 62
  256
370
   -1
100
AcDbLine
 10
1000.871254115314
 20
984.9999999999999
 11
1611.224474379916
 21
985
  0
LINE
  5
D7
100
AcDbEntity
  8
0
  6
ByLayer
 62
  256
370
   -1
100
AcDbLine
 10
1000.871254115314
 20
984.9999999999999
 11
1000.871254115314
 21
1015
  0
LINE
  5
D8
100
AcDbEntity
  8
0
  6
ByLayer
 62
  256
370
   -1
100
AcDbLine
 10
1611.224474379916
 20
1015
 11
1611.224474379916
 21
985.0000000000001
  0
LINE
  5
D9
100
AcDbEntity
  8
0
  6
ByLayer
 62
  256
370
   -1
100
AcDbLine
 10
682.9967307229344
 20
770
 11
682.9967307229344
 21
1230
  0
LINE
  5
DA
100
AcDbEntity
  8
0
  6
ByLayer
 62
  256
370
   -1
100
AcDbLine
 10
213.3523220536531
 20
770
 11
213.3523220536531
 21
1230
  0
LINE
  5
DB
100
AcDbEntity
  8
0
  6
ByLayer
 62
  256
370
   -1
100
AcDbLine
 10
213.3523220536531
 20
1230
 11
682.9967307229344
 21
1230
  0
LINE
  5
DC
100
AcDbEntity
  8
0
  6
ByLayer
 62
  256
370
   -1
100
AcDbLine
 10
213.3523220536531
 20
770
 11
682.9967307229344
 21
770
  0
LINE
  5
DD
100
AcDbEntity
  8
0
  6
ByLayer
 62
  256
370
   -1
100
AcDbLine
 10
919.9999999999998
 20
279.9999999999999
 11
537.7673292123443
 21
545.0511916448617
  0
DIMENSION
  5
DE
100
AcDbEntity
  8
bmxwheel
  6
ByLayer
 62
  256
370
   -1
100
AcDbDimension
  2
*D9
 10
1573.593961199036
 20
159.8184066122952
 30
0
 11
1308.041542702116
 21
309.9468637929273
 31
0
 70
   35
 71
    5
  3
Standard
 53
0
210
0
220
0
230
1
100
AcDbDiametricDimension
 15
1037.1340654327
 25
450.1815933877049
 35
0
 40
0
  0
CIRCLE
  5
DF
100
AcDbEntity
  8
bmxwheel
  6
ByLayer
 62
  256
370
   -1
100
AcDbCircle
 10
1305.364013315868
 20
305
 40
335
  0
DIMENSION
  5
E0
100
AcDbEntity
  8
bmxwheel
  6
ByLayer
 62
  256
370
   -1
100
AcDbDimension
  2
*D10
 10
1305.364013315868
 20
-174.183745513305
 30
0
 11
527.6820066579338
 21
-168.558745513305
 31
0
 70
   32
 71
    5
  3
Standard
 53
0
210
0
220
0
230
1
100
AcDbAlignedDimension
 13
-250
 23
254
 33
0
 14
1305.364013315868
 24
305
 34
0
100
AcDbRotatedDimension
  0
ENDSEC
  0
SECTION
  2
OBJECTS
  0
DICTIONARY
  5
C
330
0
100
AcDbDictionary
281
    1
  3
ACAD_GROUP
350
D
  0
DICTIONARY
  5
D
330
C
100
AcDbDictionary
281
    1
  0
ENDSEC
  0
EOF
